<svg xmlns="http://www.w3.org/2000/svg" width="76.08" height="77.869" viewBox="0 0 76.08 77.869">
  <g id="End_to_End_supply_chain" data-name="End to End supply chain" transform="translate(-383.997 -258.164)">
    <g id="Group_37" data-name="Group 37">
      <path id="Path_3977" data-name="Path 3977" d="M455.389,318.411h-2.966l1.1-.869A5.343,5.343,0,0,0,450.2,308a5.273,5.273,0,0,0-3.315,1.154,5.355,5.355,0,0,0-.877,7.515,5.588,5.588,0,0,0,.877.869l1.1.869H445.02a4.7,4.7,0,0,0-4.7,4.7v11.667a.809.809,0,0,0,.8.812h18.157a.809.809,0,0,0,.8-.812V323.115A4.706,4.706,0,0,0,455.389,318.411Zm-8.921-5.028a3.733,3.733,0,1,1,3.737,3.729H450.2a3.735,3.735,0,0,1-3.724-3.73Zm12,20.587H441.935V323.115a3.084,3.084,0,0,1,3.08-3.087H455.39a3.083,3.083,0,0,1,3.079,3.087Z" fill="#080909"/>
    </g>
    <g id="Group_38" data-name="Group 38">
      <path id="Path_3978" data-name="Path 3978" d="M390.842,306.259l-1.552.454a33.324,33.324,0,0,1,7.824-31.546l1.161,1.13A31.721,31.721,0,0,0,390.842,306.259Z" fill="#080909"/>
    </g>
    <g id="Group_40" data-name="Group 40">
      <path id="Path_3980" data-name="Path 3980" d="M454.568,297.915a33.038,33.038,0,0,1-.861,7.466l-1.568-.389a31.576,31.576,0,0,0-7.669-28.606l1.17-1.121A32.87,32.87,0,0,1,454.568,297.915Z" fill="#080909"/>
    </g>
    <g id="Group_41" data-name="Group 41">
      <path id="Path_3981" data-name="Path 3981" d="M432.857,305.105l-.577-.317-.293-.162.041-.326a9.717,9.717,0,0,0,0-2.469l-.041-.325.293-.163.577-.316a1.96,1.96,0,0,0,.942-1.194,1.886,1.886,0,0,0-.211-1.463l-1.877-3.12A2,2,0,0,0,430,294.3a2.04,2.04,0,0,0-.975.252l-.617.358-.276.154-.252-.187a11.194,11.194,0,0,0-2.323-1.3l-.309-.122v-.943a1.967,1.967,0,0,0-1.958-1.925v-.244h-.016l-.013.241H419.5a1.974,1.974,0,0,0-1.982,1.934v.942l-.309.122a8.939,8.939,0,0,0-2.242,1.3l-.252.2-.284-.154-.69-.382a2.092,2.092,0,0,0-.967-.244,2.02,2.02,0,0,0-1.722.951l-1.877,3.111a1.876,1.876,0,0,0-.2,1.463,1.975,1.975,0,0,0,.934,1.194l.585.316.284.163-.04.325a9.623,9.623,0,0,0,0,2.469l.04.334-.284.154-.577.325a1.936,1.936,0,0,0-.942,1.186,1.866,1.866,0,0,0,.2,1.471l1.886,3.12a2.01,2.01,0,0,0,1.706.942,1.971,1.971,0,0,0,.975-.252l.617-.349.276-.155.252.187a11.044,11.044,0,0,0,2.332,1.292l.3.13v.942a1.963,1.963,0,0,0,1.958,1.925h3.784a1.975,1.975,0,0,0,1.982-1.933v-.942l.309-.122a8.769,8.769,0,0,0,2.242-1.3l.252-.2.292.154.682.381a2.038,2.038,0,0,0,2.689-.706l1.877-3.112a1.848,1.848,0,0,0,.2-1.462A1.911,1.911,0,0,0,432.857,305.105Zm-.764,2.006-1.714,2.828-.236.406-.414-.227-.609-.333a2,2,0,0,0-.975-.244,2.04,2.04,0,0,0-1.227.406,9.415,9.415,0,0,1-2.015,1.121,1.947,1.947,0,0,0-1.275,1.8v1.057h-4.493V312.86a1.931,1.931,0,0,0-1.259-1.8,9.011,9.011,0,0,1-2.031-1.129,2.071,2.071,0,0,0-1.227-.406,2.04,2.04,0,0,0-.975.252l-.609.333-.407.219-.243-.4-1.715-2.836-.26-.431.446-.243.52-.284a1.912,1.912,0,0,0,.983-1.926,7.6,7.6,0,0,1-.09-1.146,7.981,7.981,0,0,1,.082-1.177,1.912,1.912,0,0,0-.984-1.909l-.52-.284-.447-.244.26-.439,1.714-2.827.244-.407.406.228.618.333a1.986,1.986,0,0,0,.966.244,2.074,2.074,0,0,0,1.227-.4,8.878,8.878,0,0,1,2.015-1.122,1.947,1.947,0,0,0,1.276-1.811V292.2h4.484v1.064a1.951,1.951,0,0,0,1.267,1.8,9.519,9.519,0,0,1,2.032,1.121,2.032,2.032,0,0,0,2.209.163l.6-.333.414-.22.236.4,1.714,2.835.269.431-.447.244-.52.284a1.929,1.929,0,0,0-.992,1.925,8.785,8.785,0,0,1,.1,1.146,8.3,8.3,0,0,1-.089,1.178,1.925,1.925,0,0,0,.983,1.909l.52.284.455.243Z" fill="#080909"/>
    </g>
    <g id="Group_42" data-name="Group 42">
      <path id="Path_3982" data-name="Path 3982" d="M421.374,298.37a4.7,4.7,0,1,0,4.7,4.7,4.7,4.7,0,0,0-4.7-4.7Zm0,7.775a3.079,3.079,0,1,1,3.08-3.08A3.079,3.079,0,0,1,421.374,306.145Z" fill="#080909"/>
    </g>
    <g id="Group_43" data-name="Group 43">
      <rect id="Rectangle_18" data-name="Rectangle 18" width="5.508" height="1.617" transform="translate(399.82 263.355)" fill="#080909"/>
    </g>
    <g id="Group_44" data-name="Group 44">
      <rect id="Rectangle_19" data-name="Rectangle 19" width="5.508" height="1.625" transform="translate(402.411 268.538)" fill="#080909"/>
    </g>
    <g id="Group_45" data-name="Group 45">
      <path id="Path_3983" data-name="Path 3983" d="M438.864,268.847l-5.183-6.483a.814.814,0,0,0-.634-.309h-6.97v-3.079a.815.815,0,0,0-.813-.812h-20.75a.808.808,0,0,0-.8.812v2.1h1.617v-1.287h19.125v20.424h-8.848l-.114-.325a3.387,3.387,0,0,0-3.193-2.275,3.225,3.225,0,0,0-1.113.2,3.345,3.345,0,0,0-2.079,2.08l-.114.325h-3.664V272.43h-1.617v8.588a.809.809,0,0,0,.8.812h4.477l.114.325a3.387,3.387,0,0,0,3.192,2.275,3.326,3.326,0,0,0,1.113-.2,3.373,3.373,0,0,0,2.08-2.08l.114-.325H428.44l.114.325a3.4,3.4,0,0,0,3.193,2.275,3.272,3.272,0,0,0,1.113-.2,3.35,3.35,0,0,0,2.079-2.08l.114-.325h3.176a.814.814,0,0,0,.812-.812V269.351A.789.789,0,0,0,438.864,268.847ZM412.3,282.807a1.783,1.783,0,1,1,1.788-1.787,1.783,1.783,0,0,1-1.788,1.787Zm17.67-19.135h2.689l.146.187,3.112,3.892.633.788h-6.58Zm1.779,19.133a1.594,1.594,0,1,1,.016,0h-.016Zm5.678-2.592h-2.372l-.114-.325a3.387,3.387,0,0,0-3.192-2.275,3.321,3.321,0,0,0-1.113.2,3.366,3.366,0,0,0-2.08,2.08l-.114.325h-2.364V263.672h2.266v5.679a.815.815,0,0,0,.813.812h8.27Z" fill="#080909"/>
    </g>
    <g id="Group_154" data-name="Group 154">
      <path id="Path_4731" data-name="Path 4731" d="M405.8,335.283H384.747V316.862l10.528-5.878,10.528,5.878Z" fill="none" stroke="#030404" stroke-miterlimit="10" stroke-width="1.5"/>
      <line id="Line_45" data-name="Line 45" x2="3.809" transform="translate(393.37 317.402)" fill="none" stroke="#030404" stroke-miterlimit="10" stroke-width="1.5"/>
      <rect id="Rectangle_12" data-name="Rectangle 12" width="14.919" height="3.227" transform="translate(387.816 321.317)" fill="none" stroke="#030404" stroke-miterlimit="10" stroke-width="1.5"/>
      <rect id="Rectangle_13" data-name="Rectangle 13" width="4.946" height="3.227" transform="translate(392.802 321.317)" fill="none" stroke="#030404" stroke-miterlimit="10" stroke-width="1.5"/>
      <rect id="Rectangle_14" data-name="Rectangle 14" width="10.528" height="7.089" transform="translate(390.011 328.194)" fill="none" stroke="#030404" stroke-miterlimit="10" stroke-width="1.5"/>
      <rect id="Rectangle_15" data-name="Rectangle 15" width="10.528" height="2.381" transform="translate(390.011 330.522)" fill="none" stroke="#030404" stroke-miterlimit="10" stroke-width="1.5"/>
    </g>
  </g>
</svg>
