<svg id="Manufacturer_relationship" data-name="Manufacturer relationship" xmlns="http://www.w3.org/2000/svg" width="83.961" height="83.961" viewBox="0 0 83.961 83.961">
  <g id="Group_51" data-name="Group 51" transform="translate(19.188 75.386)">
    <path id="Path_3988" data-name="Path 3988" d="M236.921,352.526a.863.863,0,1,1-.859-.859A.856.856,0,0,1,236.921,352.526Z" transform="translate(-235.196 -351.667)" fill="#040505"/>
  </g>
  <g id="Group_52" data-name="Group 52" transform="translate(41.122 75.386)">
    <path id="Path_3989" data-name="Path 3989" d="M263.044,352.526a.863.863,0,1,1-.866-.859A.863.863,0,0,1,263.044,352.526Z" transform="translate(-261.319 -351.667)" fill="#040505"/>
  </g>
  <g id="Group_53" data-name="Group 53" transform="translate(63.056 75.386)">
    <path id="Path_3990" data-name="Path 3990" d="M289.159,352.526a.858.858,0,1,1-.858-.859A.855.855,0,0,1,289.159,352.526Z" transform="translate(-287.443 -351.667)" fill="#040505"/>
  </g>
  <g id="Group_54" data-name="Group 54" transform="translate(0 0)">
    <path id="Path_3991" data-name="Path 3991" d="M288.595,330.408H285.34V313.964h-3.45l.442-.765a32.1,32.1,0,0,0,3.5-8.685l.068-.28.272-.085,3.28-1.029V290.893l-3.28-1.029-.272-.093-.068-.28a32.39,32.39,0,0,0-3.926-9.45l-.144-.247.128-.255,1.6-3.05-8.651-8.651-3.051,1.6-.254.136-.247-.153a31.958,31.958,0,0,0-9.45-3.918l-.28-.068-.085-.28-1.029-3.272H248.212l-1.028,3.272-.094.28-.28.068a32.012,32.012,0,0,0-9.441,3.918l-.246.153-.264-.136-3.051-1.6-8.642,8.651,1.589,3.05.136.255-.154.247a32.187,32.187,0,0,0-3.918,9.45l-.068.28-.271.093-3.28,1.029v12.228l3.28,1.029.271.085.068.28a32.1,32.1,0,0,0,3.493,8.685l.442.765h-3.442v16.444h-3.254a7.716,7.716,0,0,0,0,15.433h68.537a7.716,7.716,0,0,0,0-15.433Zm-4.98-14.727v14.727H268.888V315.681h3.765v5.481h7.206v-5.481Zm-38.377-1.717v16.444h-3.756V313.964h-2.243l.238-.679a12.909,12.909,0,0,1,9.3-8.227l.655-.144.357-.085.187.314,4.342,7.241,4.342-7.241.186-.314.366.085.646.144a12.9,12.9,0,0,1,9.305,8.227l.246.679h-2.243v16.444h-3.765V313.964Zm12.687,7.2v-5.481h3.765v14.727H246.963V315.681h3.756v5.481Zm-5.481-1.716v-3.765h3.765v3.765Zm20.625-5.651-.154.17h-1.733l-.1-.374a14.507,14.507,0,0,0-10.844-10.215l-.79-.178-.306-.068-.077-.306-.306-1.241-.093-.357.314-.195a6.355,6.355,0,0,0,2.932-4.13l.085-.408h.552a4.972,4.972,0,0,0,4.971-4.971,4.906,4.906,0,0,0-.526-2.175l-.094-.187.077-.2a10.3,10.3,0,0,0,.543-3.255,10.126,10.126,0,0,0-10.112-10.112h-6.161a10.077,10.077,0,0,0-9.569,13.367l.068.2-.093.187a4.907,4.907,0,0,0-.527,2.175,4.98,4.98,0,0,0,4.98,4.971h.552l.085.408a6.343,6.343,0,0,0,2.924,4.13l.323.195-.094.357-.314,1.241-.076.306-.306.068-.79.178a14.483,14.483,0,0,0-10.835,10.215l-.11.374h-1.725l-.153-.17a25.176,25.176,0,1,1,37.485,0Zm1.308,1.887h3.756v3.765h-3.756ZM255.7,300.258h-2.745a4.628,4.628,0,0,1-4.623-4.624v-8.523a1.583,1.583,0,0,1,1.581-1.581,1.769,1.769,0,0,1,.374.043l9.645,2.413.382.093v7.555A4.626,4.626,0,0,1,255.7,300.258Zm1.819,3.467-.11.179-2.643,4.41-.442.722-.434-.722-2.642-4.41-.111-.179.051-.212.314-1.249.111-.442.45.06.119.017a4.824,4.824,0,0,0,.773.076H255.7a5.009,5.009,0,0,0,.773-.076l.111-.017.459-.06.11.442.315,1.249ZM246.1,286.55a4.812,4.812,0,0,0-2.4.646l-.654.357-.1-.74-.017-.136a7.147,7.147,0,0,1-.085-.977,8.4,8.4,0,0,1,8.4-8.4h6.161a8.409,8.409,0,0,1,8.4,8.4,7.129,7.129,0,0,1-.094.977l-.017.136-.1.74-.646-.357a4.859,4.859,0,0,0-2.4-.646h-1.266l-.06-.018-10.512-2.625a3.118,3.118,0,0,0-.8-.1,3.317,3.317,0,0,0-3.153,2.379l-.1.366Zm.51,1.716v6.509h-.51a3.255,3.255,0,0,1,0-6.509Zm19.189,3.255a3.261,3.261,0,0,1-3.255,3.254h-.51v-6.509h.51A3.261,3.261,0,0,1,265.8,291.522Zm-41.471,11.863-.111-.493-2.949-.926-.357-.111v-9.7l.357-.119,2.949-.926.111-.484a30.377,30.377,0,0,1,4.274-10.317l.272-.416-1.427-2.753-.179-.332.264-.263,6.331-6.323.264-.272.332.179,2.745,1.436.425-.28a30.33,30.33,0,0,1,10.308-4.274l.493-.1.927-2.957.118-.357h9.7l.111.357.926,2.949.493.11a30.163,30.163,0,0,1,10.308,4.274l.425.272,2.745-1.436.332-.17,6.858,6.858-.17.332-1.437,2.745.272.425a30.152,30.152,0,0,1,4.274,10.309l.111.493,2.949.926.357.111v9.7l-.357.111-2.949.926-.1.493c-.773,3.637-4.062,10.028-4.2,10.3l-.144.28h-4.759l.62-.815a26.9,26.9,0,1,0-43.017,0l.612.815h-4.759l-.144-.28C228.395,313.413,225.1,307.022,224.332,303.384Zm9.943,12.3v3.765H230.51v-3.765Zm-9.246,0h3.765v5.481H236v-5.481h3.756v14.727H225.029Zm-4.971,28.434a5.991,5.991,0,1,1,0-11.982h9.807l-1.232.918a6.273,6.273,0,0,0,0,10.147l1.232.918Zm7.716-5.991a4.623,4.623,0,1,1,4.623,4.623A4.628,4.628,0,0,1,227.774,338.125Zm7.155,5.991,1.233-.918a6.285,6.285,0,0,0,0-10.147l-1.233-.918H251.8l-1.241.918a6.285,6.285,0,0,0,0,10.147l1.241.918Zm14.77-5.991a4.623,4.623,0,1,1,4.623,4.623A4.627,4.627,0,0,1,249.7,338.125Zm7.155,5.991,1.232-.918a6.273,6.273,0,0,0,0-10.147l-1.232-.918h16.869l-1.233.918a6.273,6.273,0,0,0,0,10.147l1.233.918Zm14.778-5.991a4.623,4.623,0,1,1,4.623,4.623A4.628,4.628,0,0,1,271.633,338.125Zm16.962,5.991h-9.807l1.233-.918a6.285,6.285,0,0,0,0-10.147l-1.233-.918h9.807a5.991,5.991,0,1,1,0,11.982Z" transform="translate(-212.342 -261.88)" fill="#040505"/>
  </g>
</svg>
