<svg xmlns="http://www.w3.org/2000/svg" width="58.004" height="58.004" viewBox="0 0 58.004 58.004">
  <g id="Hospital" transform="translate(-2 -2)">
    <path id="Path_4926" data-name="Path 4926" d="M227.881,26.6h-1.873v2.809H223.2V31.27h2.809v2.809h1.873V31.27h2.809V29.409h-2.809Z" transform="translate(-195.943 -21.791)"/>
    <path id="Path_4927" data-name="Path 4927" d="M50.652,58.131V13.224H43.173V2H18.853V13.224h-7.5V58.131H2V60H60V58.131ZM20.714,3.873H41.3v9.351H20.714Zm1.873,54.259V43.162h7.479V58.131Zm9.351,0V43.162h7.479V58.131Zm16.842,0H41.3V41.289H20.714V58.131H13.235V15.1H48.791V58.131Z"/>
    <path id="Path_4928" data-name="Path 4928" d="M133.1,156.979h7.479V149.5H133.1Zm1.873-5.606h3.745v3.745h-3.745Z" transform="translate(-116.131 -130.658)"/>
    <path id="Path_4929" data-name="Path 4929" d="M313.4,156.979h7.479V149.5H313.4Zm1.861-5.606h3.745v3.745h-3.745Z" transform="translate(-275.844 -130.658)"/>
    <path id="Path_4930" data-name="Path 4930" d="M133.1,255.379h7.479V247.9H133.1Zm1.873-5.618h3.745v3.745h-3.745Z" transform="translate(-116.131 -217.823)"/>
    <path id="Path_4931" data-name="Path 4931" d="M313.4,255.379h7.479V247.9H313.4Zm1.861-5.618h3.745v3.745h-3.745Z" transform="translate(-275.844 -217.823)"/>
    <path id="Path_4932" data-name="Path 4932" d="M223.2,156.979h7.479V149.5H223.2Zm1.873-5.606h3.745v3.745h-3.745Z" transform="translate(-195.943 -130.658)"/>
    <path id="Path_4933" data-name="Path 4933" d="M223.2,255.379h7.479V247.9H223.2Zm1.873-5.618h3.745v3.745h-3.745Z" transform="translate(-195.943 -217.823)"/>
  </g>
</svg>
