<svg xmlns="http://www.w3.org/2000/svg" width="90.264" height="90.264" viewBox="0 0 90.264 90.264">
  <g id="XX_countries_-_procure" data-name="XX countries - procure" transform="translate(-633.057 -393.506)">
    <g id="Group_92" data-name="Group 92">
      <g id="Group_87" data-name="Group 87">
        <path id="Path_4016" data-name="Path 4016" d="M698.375,426.256a1.853,1.853,0,1,0,.006,0Zm0,2.827a.975.975,0,1,1,.976-.975.974.974,0,0,1-.976.975Z" fill="#040505" stroke="#030504" stroke-miterlimit="10" stroke-width="0.5"/>
      </g>
      <g id="Group_88" data-name="Group 88">
        <path id="Path_4017" data-name="Path 4017" d="M700.223,432.256l.038-.049,1.185-1.585a4,4,0,0,0,.817-2.67,3.946,3.946,0,0,0-3.887-3.727,3.839,3.839,0,0,0-2.558.983l-.075.069-.069-.069a27.064,27.064,0,0,0-7.715-5.19,24.6,24.6,0,0,0-10-2.307,26.149,26.149,0,0,0-2.654.165l-.138.016.022-.133a4.719,4.719,0,1,0-9.376-.94,4.972,4.972,0,0,0,.987,3.23l.133.182.075.1-.106.059a32.82,32.82,0,0,0-3.423,2.231l-.08.059-.064-.07a4.661,4.661,0,0,0-3.374-1.473,4.775,4.775,0,0,0-4.7,4.517,4.955,4.955,0,0,0,.988,3.229l.773,1.036.038.054-.027.058a26.328,26.328,0,0,0-2.92,11.553,23.853,23.853,0,0,0,23.8,23.9h.053a23.879,23.879,0,0,0,23.844-23.8v-.1a33.731,33.731,0,0,0-1.559-9.274Zm-1.847-6.941a2.866,2.866,0,0,1,2.8,2.711,2.938,2.938,0,0,1-.6,1.944l-2.114,2.829-.085.112-.085-.112-2.114-2.825a3.007,3.007,0,0,1-.6-1.949,2.863,2.863,0,0,1,2.8-2.71Zm-31.48-8.42a3.622,3.622,0,0,1,7.24,0,3.8,3.8,0,0,1-.774,2.5l-2.76,3.69-.085.117-.085-.117-2.755-3.684a3.875,3.875,0,0,1-.781-2.506Zm-10.555,8.831a3.619,3.619,0,0,1,7.234,0,3.747,3.747,0,0,1-.774,2.5l-2.755,3.689-.085.118-.085-.118-2.755-3.684a3.852,3.852,0,0,1-.78-2.5Zm-.252,9.685a26.007,26.007,0,0,1,1.618-4.309l.08-.155.1.138,1.634,2.184a.546.546,0,0,0,.438.219.528.528,0,0,0,.326-.112.717.717,0,0,0,.107-.106l3.283-4.39a4.827,4.827,0,0,0,.406-5.243l-.042-.08.075-.058a31.579,31.579,0,0,1,3.47-2.247l.08-.043.058.075,2.354,3.156a.554.554,0,0,0,.438.219.522.522,0,0,0,.326-.112.811.811,0,0,0,.112-.107l3.278-4.389a5.261,5.261,0,0,0,.571-.961l.022-.058.058-.005c.272-.038.545-.069.812-.1l.064-.005.032.053,2.733,3.941a2.69,2.69,0,0,1-.08,3.209l-.769,1a1.909,1.909,0,0,1-1.489.726,1.886,1.886,0,0,1-.235-.01l-.876-.112a3.037,3.037,0,0,0-3.033,1.489,1.906,1.906,0,0,1-1.634.934,1.93,1.93,0,0,1-.24-.015l-2.023-.256a3.532,3.532,0,0,0-.411-.027,3.168,3.168,0,0,0-2.632,1.4,2.817,2.817,0,0,0-.048,3.081l1.335,2.109a2.615,2.615,0,0,0,3.433.907l1.378-.742a2.88,2.88,0,0,1,1.329-.289,3.5,3.5,0,0,1,1.319.246l.058.026.005.064a5.083,5.083,0,0,0,.987,2.638l3.279,4.389a.538.538,0,0,0,.437.219.528.528,0,0,0,.326-.112.328.328,0,0,0,.106-.107l1.666-2.226.085-.118.085.118.213.293c.085.123.182.24.278.358l1.671,1.965a.961.961,0,0,1-.107,1.351l-.037.027-2.531,1.949a3.923,3.923,0,0,0-1.383,1.986l-.844,2.739a1.727,1.727,0,0,1-.336.624l-.822.994a4.653,4.653,0,0,0-1.063,2.525,1.391,1.391,0,0,1-.854,1.148.664.664,0,0,1-.288.059.751.751,0,0,1-.694-.46.9.9,0,0,1-.049-.171l-.773-4.64a3.483,3.483,0,0,0-.668-1.543l-2.829-3.716a3.378,3.378,0,0,1-.576-1.153l-.934-3.381a3.459,3.459,0,0,0-2.408-2.4l-.2-.059a2.638,2.638,0,0,1-1.143-.64l-1.746-1.645a4.139,4.139,0,0,1-.727-.913,3.781,3.781,0,0,0-3.267-1.884,3.7,3.7,0,0,0-.727.075.158.158,0,0,0-.064.015l-1.751.567-.187.064Zm18.906.737a3.619,3.619,0,0,1,7.235,0,3.747,3.747,0,0,1-.774,2.5l-2.755,3.689-.085.118-.085-.118-2.755-3.684a3.853,3.853,0,0,1-.78-2.505Zm25.693,4.415c.021.363.031.71.031,1.02a22.761,22.761,0,1,1-45-4.682l.016-.059.058-.015,2.472-.807a2.68,2.68,0,0,1,2.824,1.292,5.124,5.124,0,0,0,.924,1.164l1.741,1.639a3.837,3.837,0,0,0,1.607.9l.2.053a2.384,2.384,0,0,1,1.644,1.645l.934,3.374a4.361,4.361,0,0,0,.758,1.522l2.83,3.721a2.409,2.409,0,0,1,.459,1.058l.774,4.645a1.826,1.826,0,0,0,1.81,1.538,1.778,1.778,0,0,0,.3-.022,1.826,1.826,0,0,0,.416-.123,2.479,2.479,0,0,0,1.511-2.04,3.6,3.6,0,0,1,.823-1.943l.817-.987a2.838,2.838,0,0,0,.545-1l.844-2.739a2.871,2.871,0,0,1,1-1.447l2.531-1.943a2.049,2.049,0,0,0,.374-2.867c-.022-.026-.038-.053-.059-.08l-1.671-1.965c-.08-.091-.155-.192-.229-.293l-.449-.614-.048-.064.048-.064.8-1.074a4.89,4.89,0,0,0,.987-3.23,4.7,4.7,0,0,0-9.306-.715l-.027.112-.112-.032a4.9,4.9,0,0,0-1.351-.187,3.947,3.947,0,0,0-1.836.411l-1.378.737a1.528,1.528,0,0,1-2-.523l-1.34-2.114a1.734,1.734,0,0,1,.031-1.89,2.091,2.091,0,0,1,1.736-.924,2.171,2.171,0,0,1,.267.016l2.023.262a3.028,3.028,0,0,0,2.952-1.452,1.976,1.976,0,0,1,1.7-.978,2,2,0,0,1,.256.016l.875.112a2.679,2.679,0,0,0,.369.022,3,3,0,0,0,2.349-1.154l.774-1a3.783,3.783,0,0,0,.112-4.49l-2.3-3.31-.112-.16.192-.011q.4-.017.753-.016a23.5,23.5,0,0,1,9.552,2.2,28.053,28.053,0,0,1,2.91,1.538l.091.054-.053.091-1.752,2.995a2.329,2.329,0,0,0,.273,2.685,2.977,2.977,0,0,0,1.89,1l.315.037a1.709,1.709,0,0,1,1.42,1.2,1.647,1.647,0,0,1-.48,1.7l-3.139,2.776a2.9,2.9,0,0,0-.978,2.167v.737a2.49,2.49,0,0,0,1.148,2.1,1.547,1.547,0,0,1,.7,1.148l.075.737a2.284,2.284,0,0,0,2.285,2.071h1.842a3.811,3.811,0,0,0,3.492-2.28l.107-.251a1.56,1.56,0,0,1,1.361-.934l.433-.022a1.336,1.336,0,0,0,.2-.015l.918-.091.112-.011Zm-.1-1.2-.107.01-.94.1c-.048,0-.1.005-.144.005l-.433.022a2.65,2.65,0,0,0-2.307,1.586l-.112.251a2.732,2.732,0,0,1-2.494,1.634h-1.836a1.216,1.216,0,0,1-1.207-1.1l-.069-.731a2.622,2.622,0,0,0-1.2-1.954,1.414,1.414,0,0,1-.646-1.191v-.737a1.792,1.792,0,0,1,.608-1.351l3.14-2.776a2.736,2.736,0,0,0,.8-2.835,2.8,2.8,0,0,0-2.328-1.965l-.315-.038a1.9,1.9,0,0,1-1.207-.64,1.232,1.232,0,0,1-.144-1.425l1.719-2.947.053-.1.1.064a24.174,24.174,0,0,1,3.476,2.825l.064.053-.042.075a3.979,3.979,0,0,0-.529,1.751,4.122,4.122,0,0,0,.811,2.67l2.638,3.523a.54.54,0,0,0,.438.219.555.555,0,0,0,.326-.107.423.423,0,0,0,.107-.112l.486-.646.134-.176.058.213a35.95,35.95,0,0,1,1.089,5.724Z" fill="#040505" stroke="#030504" stroke-miterlimit="10" stroke-width="0.5"/>
      </g>
      <g id="Group_89" data-name="Group 89">
        <path id="Path_4018" data-name="Path 4018" d="M678.612,434.2a1.852,1.852,0,1,0,1.856,1.852,1.852,1.852,0,0,0-1.856-1.852Zm0,2.827a.975.975,0,1,1,.976-.976.974.974,0,0,1-.976.976Z" fill="#040505" stroke="#030504" stroke-miterlimit="10" stroke-width="0.5"/>
      </g>
      <g id="Group_90" data-name="Group 90">
        <path id="Path_4019" data-name="Path 4019" d="M659.958,424.118a1.852,1.852,0,1,0,.005,0Zm0,2.827a.975.975,0,1,1,.975-.975.974.974,0,0,1-.975.975Z" fill="#040505" stroke="#030504" stroke-miterlimit="10" stroke-width="0.5"/>
      </g>
      <g id="Group_91" data-name="Group 91">
        <path id="Path_4020" data-name="Path 4020" d="M670.507,414.975a1.853,1.853,0,1,0,.006,0Zm0,2.827a.845.845,0,1,1,.006,0h-.006Z" fill="#040505" stroke="#030504" stroke-miterlimit="10" stroke-width="0.5"/>
      </g>
    </g>
    <g id="Group_160" data-name="Group 160">
      <path id="Path_4021" data-name="Path 4021" d="M655.373,414.895v.007a.925.925,0,0,1-.928.921h-5.851v-1.856l2.185.006h1.43l-6.591-6.591,1.315-1.315,6.591,6.591v-1.43l-.006-2.184h1.856Z" fill="#040505"/>
      <path id="Path_4027" data-name="Path 4027" d="M707.784,463.309,705.6,463.3h-1.431l6.59,6.59-1.314,1.315-6.59-6.59v1.429l.005,2.185h-1.855v-5.858a.924.924,0,0,1,.928-.92l5.853,0Z" fill="#040505"/>
    </g>
    <g id="Group_161" data-name="Group 161">
      <path id="Path_4021-2" data-name="Path 4021" d="M645.267,437.982l0,.006a.924.924,0,0,1,0,1.306l-4.137,4.137-1.312-1.312,1.549-1.541,1.011-1.011h-9.321v-1.859h9.321l-1.011-1.012-1.549-1.54,1.312-1.312Z" fill="#040505"/>
      <path id="Path_4027-2" data-name="Path 4027" d="M716.561,435.156l-1.549,1.54L714,437.708h9.32v1.859H714l1.011,1.011,1.549,1.541-1.312,1.312-4.137-4.137-.005-.005a.924.924,0,0,1,.005-1.307l4.141-4.137Z" fill="#040505"/>
    </g>
    <g id="Group_162" data-name="Group 162">
      <path id="Path_4021-3" data-name="Path 4021" d="M654.446,461.454h.008a.924.924,0,0,1,.92.927v5.851h-1.856l.006-2.185v-1.43l-6.591,6.591-1.314-1.314,6.591-6.591h-1.431l-2.184.006v-1.855Z" fill="#040505"/>
      <path id="Path_4027-3" data-name="Path 4027" d="M702.86,409.043l-.006,2.184v1.43l6.591-6.59,1.314,1.315-6.59,6.59h1.43l2.185-.006v1.856h-5.859a.924.924,0,0,1-.92-.928l0-5.854Z" fill="#040505"/>
    </g>
    <g id="Group_163" data-name="Group 163">
      <path id="Path_4021-4" data-name="Path 4021" d="M677.534,471.56l.005-.006a.924.924,0,0,1,1.307.006l4.137,4.137-1.312,1.312-1.541-1.549-1.011-1.011v9.321H677.26v-9.321l-1.012,1.011-1.54,1.549L673.4,475.7Z" fill="#040505"/>
      <path id="Path_4027-4" data-name="Path 4027" d="M674.707,400.266l1.54,1.549,1.012,1.011v-9.32h1.859v9.32l1.011-1.011,1.541-1.549,1.312,1.312-4.137,4.137,0,.005a.925.925,0,0,1-1.307-.005l-4.137-4.141Z" fill="#040505"/>
    </g>
  </g>
</svg>
