<svg xmlns="http://www.w3.org/2000/svg" width="79.127" height="79.095" viewBox="0 0 79.127 79.095">
  <g id="Project_Management_" data-name="Project Management " transform="translate(-353.403 -263.62)">
    <g id="Group_56" data-name="Group 56" transform="translate(353.403 263.62)">
      <path id="Path_3992" data-name="Path 3992" d="M431.263,323.756a13.33,13.33,0,0,0-10.876-7.571l-.408-.04v-9.212a3.3,3.3,0,0,0-3.3-3.305H393.752v-7.139H409.19a.8.8,0,0,0,.8-.8A17.048,17.048,0,0,0,405,283.644a16.488,16.488,0,0,0-3.049-2.433l-.408-.256.272-.384a10.79,10.79,0,1,0-17.719,0l.264.384-.4.256a16.513,16.513,0,0,0-3.049,2.425,17.081,17.081,0,0,0-4.994,12.053.8.8,0,0,0,.8.8h15.438v7.139H369.223a3.3,3.3,0,0,0-3.3,3.305v9.148l-.416.04a13.292,13.292,0,0,0,1.168,26.53c.392,0,.792-.024,1.193-.056a13.345,13.345,0,0,0,10.812-7.507l.36-.744.424.7a15.8,15.8,0,0,0,21.7,5.266,15.9,15.9,0,0,0,5.258-5.266l.432-.712.36.752a13.354,13.354,0,0,0,12.029,7.627,13.13,13.13,0,0,0,5.658-1.273A13.308,13.308,0,0,0,431.263,323.756Zm-47.507-49.3a9.192,9.192,0,1,1,9.2,9.188A9.2,9.2,0,0,1,383.756,274.456Zm-6.282,20.432.04-.488a15.323,15.323,0,0,1,4.53-9.62,14.91,14.91,0,0,1,3.193-2.417l.28-.168.24.224a10.705,10.705,0,0,0,14.51,0l.24-.224.288.168a15.523,15.523,0,0,1,7.587,12.037l.048.488Zm.648,37.127a11.627,11.627,0,0,1-11.4,9.084h-.008a11.689,11.689,0,1,1,10.716-16.35,11.3,11.3,0,0,1,.976,4.666A10.209,10.209,0,0,1,378.122,332.015Zm.048-10.692-.288.768-.488-.656a13.314,13.314,0,0,0-9.46-5.25l-.408-.04v-9.212a1.7,1.7,0,0,1,1.7-1.7h22.929v5.858l-.416.032A15.722,15.722,0,0,0,378.17,321.323Zm28.675,3.137a13.122,13.122,0,0,0-.96,4.954,12.787,12.787,0,0,0,.256,2.529l.024.136-.048.12a14.192,14.192,0,0,1-26.33.016l-.056-.128.032-.128a12.414,12.414,0,0,0,.248-2.545,13.271,13.271,0,0,0-.952-4.954l-.048-.128.024-.128a14.189,14.189,0,0,1,27.835,0l.024.128Zm-12.677-13.333-.416-.032v-5.858h22.929a1.7,1.7,0,0,1,1.7,1.7v9.148l-.408.04a13.283,13.283,0,0,0-9.444,5.33l-.5.664-.288-.776A15.737,15.737,0,0,0,394.169,311.127Zm34.726,24.754a11.559,11.559,0,0,1-1.921,2.217l-.744.672v-6.859a.8.8,0,0,0-1.609,0v7.771l-.248.12a11.626,11.626,0,0,1-3.889,1.16l-.5.056V330.662a.8.8,0,1,0-1.6,0v10.42l-.5-.056a11.614,11.614,0,0,1-2.6-.616l-.3-.1v-4.65a.8.8,0,1,0-1.6,0v3.938l-.7-.464a11.687,11.687,0,0,1,6.491-21.416,11.554,11.554,0,0,1,6.475,1.961A11.7,11.7,0,0,1,428.894,335.88Z" transform="translate(-353.403 -263.62)" fill="#040505"/>
    </g>
    <g id="Group_57" data-name="Group 57" transform="translate(392.152 318.618)">
      <path id="Path_3993" data-name="Path 3993" d="M407.166,340.639a.8.8,0,0,1-.8.8H402.62a.8.8,0,0,1-.8-.8v-7.5a.8.8,0,1,1,1.6,0v6.7h2.945A.8.8,0,0,1,407.166,340.639Z" transform="translate(-401.82 -332.34)" fill="#040505"/>
    </g>
    <g id="Group_58" data-name="Group 58" transform="translate(413.376 323.604)">
      <path id="Path_3994" data-name="Path 3994" d="M439.945,339.378a.811.811,0,0,1-.232.576l-2.5,2.505a.827.827,0,0,1-.568.232.8.8,0,0,1-.568-.24l-1.609-1.625-.32-.32-.32.32-4.114,4.13a.793.793,0,0,1-1.136-.016.792.792,0,0,1-.232-.568.781.781,0,0,1,.24-.56l5-5a.8.8,0,0,1,.56-.24.834.834,0,0,1,.568.24l1.617,1.625.312.32.32-.32,1.609-1.625a.792.792,0,0,1,.568-.232.793.793,0,0,1,.808.8Z" transform="translate(-428.34 -338.57)" fill="#040505"/>
    </g>
    <g id="Group_59" data-name="Group 59" transform="translate(362.172 321.115)">
      <path id="Path_3995" data-name="Path 3995" d="M371.979,345.128a3.3,3.3,0,0,1-1.969,4.226l-.3.112v1.785a.8.8,0,1,1-1.6,0v-1.7H365.16a.8.8,0,0,1,0-1.6h3.753a1.7,1.7,0,1,0,0-3.393h-1.248a3.3,3.3,0,1,1,0-6.6h.448v-1.7a.8.8,0,1,1,1.6,0v1.7h1.7a.8.8,0,0,1,0,1.609h-3.745a1.7,1.7,0,1,0,0,3.393h1.24A3.294,3.294,0,0,1,371.979,345.128Z" transform="translate(-364.36 -335.46)" fill="#040505"/>
    </g>
  </g>
</svg>
