<svg xmlns="http://www.w3.org/2000/svg" width="160" height="160" viewBox="0 0 160 160">
  <g id="Artboard_13" data-name="Artboard 13" transform="translate(-5 -5)">
    <circle id="Ellipse_495" data-name="Ellipse 495" cx="80" cy="80" r="80" transform="translate(5 5)" fill="#2d76bc"/>
    <path id="Path_71683" data-name="Path 71683" d="M83.27,112.64v-5.8l7.13-3.6-6.84-3.47,6.84-3.48L75.89,89.05l-6.7,3.38L62.59,89,48.13,96.3l6.7,3.46-6.94,3.52,7.28,3.66v5.71A2.59,2.59,0,0,0,56.58,115l11.26,5.72a2.881,2.881,0,0,0,2.6,0L81.84,115a2.57,2.57,0,0,0,1.43-2.36Zm2.7-9.41-10.11,5.11L71.37,106l10-5.1ZM69.19,94.68l10,5.09h0l-10,5.09h0l-10-5.09Zm6.71-3.4,10.06,5-4.62,2.34-10-5.09Zm-23.36,5,10-5L67,93.55l-10,5.1ZM57,100.9,67,106l-4.58,2.35-10.08-5.07Zm.47,12.28a.6.6,0,0,1-.32-.53v-4.71l5.25,2.64,5.77-3v11Zm23.46,0-10.76,5.4V107.64l5.66,3,5.42-2.74v4.79a.59.59,0,0,1-.25.48Z" fill="#fff"/>
    <path id="Path_71684" data-name="Path 71684" d="M121.88,65h0L106.5,49.64a.74.74,0,0,0-.53-.21V49h0v.47H68.36a.76.76,0,0,0-.52.27.9.9,0,0,0-.26.51V86.47h1.57V51h36V65.6a.85.85,0,0,0,.77.78h14.6V119.5H79.9V121h41.43a.86.86,0,0,0,.78-.78V65.58A.79.79,0,0,0,121.88,65Zm-15.14-.22V52.06l1.58,1.6,9.56,9.55,1.59,1.59Z" fill="#fff"/>
    <path id="Path_71685" data-name="Path 71685" d="M112.79,105.81H90.85v1.55h21.94a.78.78,0,0,0,.78-.78h0a.78.78,0,0,0-.78-.77Z" fill="#fff"/>
    <path id="Path_71686" data-name="Path 71686" d="M76.91,80h35.88a.77.77,0,0,0,.78-.78h0a.81.81,0,0,0-.06-.31.79.79,0,0,0-.17-.25.78.78,0,0,0-.26-.17,1.24,1.24,0,0,0-.29-.06H76.91a.8.8,0,0,0-.78.79h0a.78.78,0,0,0,.78.78Z" fill="#fff"/>
    <path id="Path_71687" data-name="Path 71687" d="M113.51,92.61a.77.77,0,0,0-.72-.47H90.85v1.55h21.94a.77.77,0,0,0,.78-.77h0a.77.77,0,0,0-.06-.31Z" fill="#fff"/>
  </g>
</svg>
