<svg xmlns="http://www.w3.org/2000/svg" width="160" height="160" viewBox="0 0 160 160">
  <g id="Artboard_11" data-name="Artboard 11" transform="translate(-5 -5)">
    <circle id="Ellipse_494" data-name="Ellipse 494" cx="80" cy="80" r="80" transform="translate(5 5)" fill="#2d76bc"/>
    <path id="Path_71679" data-name="Path 71679" d="M63.07,116.4h0a.87.87,0,1,0,.87.86h0a.86.86,0,0,0-.87-.86Z" fill="#fff"/>
    <path id="Path_71680" data-name="Path 71680" d="M85,116.4h0a.87.87,0,1,0,.86.86.86.86,0,0,0-.86-.86Z" fill="#fff"/>
    <path id="Path_71681" data-name="Path 71681" d="M106.93,116.4a.86.86,0,1,0,.86.86h0a.86.86,0,0,0-.86-.86Z" fill="#fff"/>
    <path id="Path_71682" data-name="Path 71682" d="M119.27,109.55H116V93.1h-3.45l.45-.76a32.45,32.45,0,0,0,3.5-8.69l.06-.28.28-.08,3.28-1V70l-3.28-1-.28-.09-.06-.28a32.4,32.4,0,0,0-3.93-9.45l-.14-.25.12-.25,1.6-3L105.51,47l-3.05,1.6-.25.13-.25-.15a31.84,31.84,0,0,0-9.45-3.92l-.28-.07-.08-.28-1-3.27H78.89l-1,3.27-.1.28-.28.07A32.16,32.16,0,0,0,68,48.56l-.24.15-.27-.13-3-1.6-8.64,8.65,1.59,3,.13.25-.15.25a32.37,32.37,0,0,0-3.92,9.45l-.07.28-.27.09-3.28,1V82.26l3.28,1,.27.08.07.28A32.13,32.13,0,0,0,57,92.34l.44.76H54v16.45H50.73a7.72,7.72,0,1,0,0,15.43h68.54a7.72,7.72,0,1,0,0-15.43Zm-5-14.73v14.73H99.56V94.82h3.77v5.48h7.2V94.82ZM75.91,93.1v16.45H72.16V93.1H69.91l.24-.68a12.9,12.9,0,0,1,9.3-8.22l.66-.15.35-.08.19.31L85,91.52l4.34-7.24.19-.31.37.08.64.15a12.89,12.89,0,0,1,9.31,8.22l.24.68H97.84v16.45H94.07V93.1Zm12.69,7.2V94.82h3.76v14.73H77.64V94.82h3.75v5.48Zm-5.48-1.71V94.82h3.76v3.77Zm20.63-5.66h0l-.15.17h-1.73l-.1-.37A14.51,14.51,0,0,0,90.91,82.52l-.79-.18-.3-.07L89.74,82l-.31-1.24-.09-.35.31-.2A6.39,6.39,0,0,0,92.59,76l.08-.41h.55a5,5,0,0,0,5-5,4.82,4.82,0,0,0-.52-2.17l-.1-.19.08-.2a10.11,10.11,0,0,0-9.57-13.37H81.92a10.08,10.08,0,0,0-10.12,10,9.94,9.94,0,0,0,.55,3.33l.07.2-.09.19a4.92,4.92,0,0,0,4.45,7.14h.55l.09.41a6.36,6.36,0,0,0,2.92,4.13l.32.2-.09.35L80.26,82l-.08.31-.31.07-.79.18A14.47,14.47,0,0,0,68.25,92.73l-.11.37H66.41l-.15-.17a25.18,25.18,0,1,1,37.49,0Zm1.3,1.89h3.76v3.77h-3.76ZM86.37,79.4H83.63A4.64,4.64,0,0,1,79,74.77V66.25a1.58,1.58,0,0,1,1.58-1.58,1.55,1.55,0,0,1,.37,0l9.65,2.41.38.1v7.55A4.64,4.64,0,0,1,86.37,79.4Zm1.82,3.46-.11.18-2.64,4.41-.44.72-.44-.72L81.92,83l-.11-.18v-.21l.32-1.25.11-.44.45.06h.12a4.9,4.9,0,0,0,.77.07h2.74a5.14,5.14,0,0,0,.78-.07h.11l.46-.06.11.44.31,1.25ZM76.77,65.69a4.82,4.82,0,0,0-2.4.64l-.65.36-.1-.74v-.14a6.349,6.349,0,0,1-.08-1,8.4,8.4,0,0,1,8.4-8.4H88.1a8.41,8.41,0,0,1,8.4,8.4,6.38,6.38,0,0,1-.1,1V66l-.1.74-.65-.36a4.82,4.82,0,0,0-2.4-.64H91.94L81.38,63a3.58,3.58,0,0,0-.8-.1,3.32,3.32,0,0,0-3.15,2.38l-.1.37Zm.51,1.71v6.51h-.51a3.26,3.26,0,0,1,0-6.51Zm19.19,3.26h0a3.26,3.26,0,0,1-3.25,3.25h-.51V67.4h.51a3.26,3.26,0,0,1,3.25,3.26ZM55,82.52h0L54.89,82l-3-.93L51.58,81V71.3l.36-.12,3-.92.11-.49a30.44,30.44,0,0,1,4.28-10.31l.27-.42-1.43-2.75-.18-.34.27-.26,6.33-6.32.26-.27.33.18,2.75,1.43.42-.28a30.22,30.22,0,0,1,10.31-4.27l.49-.1.93-3,.12-.36h9.7l.11.36L90.89,46l.49.11a30.22,30.22,0,0,1,10.31,4.27l.42.28,2.75-1.44.33-.17L112.05,56l-.17.33L110.44,59l.27.43A30.24,30.24,0,0,1,115,69.76l.11.49,3,.93.35.11V81l-.35.11-3,.93-.1.49c-.78,3.64-4.07,10-4.2,10.3l-.15.28H105.9l.62-.82a26.9,26.9,0,1,0-43,0l.61.82H59.35l-.14-.28C59.07,92.55,55.77,86.16,55,82.52Zm9.93,12.3v3.77H61.18V94.82Zm-5.48,0v5.48h7.21V94.82h3.76v14.73H55.7V94.82Zm-8.73,28.44a6,6,0,1,1,0-12h9.81l-1.23.92A6.27,6.27,0,0,0,57.92,121a6.07,6.07,0,0,0,1.38,1.39l1.23.92Zm7.72-6h0a4.62,4.62,0,1,1,1.353,3.277,4.63,4.63,0,0,1-1.353-3.277Zm7.15,6,1.23-.92a6.3,6.3,0,0,0,1.37-8.79,6.54,6.54,0,0,0-1.37-1.36l-1.23-.92H82.47l-1.24.92A6.28,6.28,0,0,0,79.87,121a6.1,6.1,0,0,0,1.36,1.37l1.24.92Zm14.77-6h0a1.92,1.92,0,1,0,.01,0Zm7.15,6,1.24-.92a6.28,6.28,0,0,0,1.38-8.77,6.45,6.45,0,0,0-1.38-1.38l-1.24-.92h16.87l-1.23.92a6.29,6.29,0,0,0,0,10.15l1.23.92Zm14.79-6h0a4.62,4.62,0,1,1,1.35,3.273,4.63,4.63,0,0,1-1.35-3.273Zm17,6h-9.82l1.23-.92a6.29,6.29,0,0,0,0-10.15l-1.23-.92h9.8a6,6,0,0,1,0,12Z" fill="#fff"/>
  </g>
</svg>
