<svg xmlns="http://www.w3.org/2000/svg" width="463.953" height="469.047" viewBox="0 0 463.953 469.047">
  <g id="Group_12674" data-name="Group 12674" transform="translate(3303.113 -4821.363)">
    <path id="Path_71565" data-name="Path 71565" d="M386.887,68.363H599.537V274.75H386.887Zm0,0" transform="translate(-3690 4753)" fill="#0078d2"/>
    <path id="Path_71566" data-name="Path 71566" d="M665.66,170.66H882.494V377.046H665.66Zm0,0" transform="translate(-3774.563 4721.97)" fill="#00ada4"/>
    <path id="Path_71567" data-name="Path 71567" d="M741.605,445.391H958.439V651.777H741.605Zm0,0" transform="translate(-3797.6 4638.633)" fill="#0078d2"/>
    <g id="Group_12497" data-name="Group 12497" transform="translate(-3284.957 4848.824)">
      <g id="Group_12496" data-name="Group 12496" transform="translate(0 0)">
        <path id="Path_71568" data-name="Path 71568" d="M3.125-16.409v-13H6.489v13a4.685,4.685,0,0,0,1.219,3.516,4.744,4.744,0,0,0,3.418,1.176,4.726,4.726,0,0,0,3.418-1.176,4.667,4.667,0,0,0,1.23-3.516v-13h3.364v13a7.107,7.107,0,0,1-2.319,5.7,8.491,8.491,0,0,1-5.747,1.992,8.353,8.353,0,0,1-5.693-1.97A7.214,7.214,0,0,1,3.125-16.409Zm0,0" transform="translate(-3.125 29.406)" fill="#fffefe"/>
      </g>
    </g>
    <g id="Group_12499" data-name="Group 12499" transform="translate(-3264.583 4848.824)">
      <g id="Group_12498" data-name="Group 12498" transform="translate(0 0)">
        <path id="Path_71569" data-name="Path 71569" d="M6.535-8.92H3.172V-29.406H6.535v9.34l7.957-9.34h4.387L9.627-19.12l9.253,10.2H14.46L6.535-18.085Zm0,0" transform="translate(-3.172 29.406)" fill="#fffefe"/>
      </g>
    </g>
    <g id="Group_12501" data-name="Group 12501" transform="translate(-3248.132 4869.311)">
      <g id="Group_12500" data-name="Group 12500">
        <path id="Path_71570" data-name="Path 71570" fill="#fffefe"/>
      </g>
    </g>
    <g id="Group_12503" data-name="Group 12503" transform="translate(-3238.232 4847.497)">
      <g id="Group_12502" data-name="Group 12502" transform="translate(0 0)">
        <path id="Path_71571" data-name="Path 71571" d="M7.709-9.259a6.057,6.057,0,0,1-4.4-1.763,5.981,5.981,0,0,1-1.8-4.441A5.962,5.962,0,0,1,3.225-19.85a5.583,5.583,0,0,1,4.1-1.731l-.5-.239a8.4,8.4,0,0,1-1.981-4.637,4.607,4.607,0,0,1,1.491-3.4,5.511,5.511,0,0,1,4.028-1.459,5.678,5.678,0,0,1,4.038,1.4,4.346,4.346,0,0,1,1.5,3.287,4.022,4.022,0,0,1-.261,1.5H12.336a3.265,3.265,0,0,0,.239-1.328,1.952,1.952,0,0,0-.62-1.415,2.141,2.141,0,0,0-1.578-.62,2.1,2.1,0,0,0-1.567.62,2.293,2.293,0,0,0-.6,1.665A4.358,4.358,0,0,0,9.331-23.7L20.1-9.5H16.08L13.4-13.123a5.8,5.8,0,0,1-2.188,2.776A5.971,5.971,0,0,1,7.709-9.259ZM5.434-13.036a3.036,3.036,0,0,0,2.3,1,3.078,3.078,0,0,0,2.319-1.012,3.477,3.477,0,0,0,.958-2.46,3.424,3.424,0,0,0-.958-2.449,3.107,3.107,0,0,0-2.329-1,3.021,3.021,0,0,0-2.3,1A3.491,3.491,0,0,0,4.5-15.5,3.455,3.455,0,0,0,5.434-13.036Zm0,0" transform="translate(-1.516 31.313)" fill="#fffefe"/>
      </g>
    </g>
    <g id="Group_12505" data-name="Group 12505" transform="translate(-3219.33 4869.311)">
      <g id="Group_12504" data-name="Group 12504">
        <path id="Path_71572" data-name="Path 71572" fill="#fffefe"/>
      </g>
    </g>
    <g id="Group_12507" data-name="Group 12507" transform="translate(-3208.276 4848.824)">
      <g id="Group_12506" data-name="Group 12506" transform="translate(0 0)">
        <path id="Path_71573" data-name="Path 71573" d="M3.172-8.92V-29.406H6.535V-8.92Zm0,0" transform="translate(-3.172 29.406)" fill="#fffefe"/>
      </g>
    </g>
    <g id="Group_12509" data-name="Group 12509" transform="translate(-3200.493 4852.809)">
      <g id="Group_12508" data-name="Group 12508" transform="translate(0 0)">
        <path id="Path_71574" data-name="Path 71574" d="M6.535-23.426v2.83A5.124,5.124,0,0,1,11.4-23.687v3.472h-.86a4.11,4.11,0,0,0-2.993,1A4.817,4.817,0,0,0,6.535-15.73v8.545H3.172V-23.426Zm0,0" transform="translate(-3.172 23.688)" fill="#fffefe"/>
      </g>
    </g>
    <g id="Group_12511" data-name="Group 12511" transform="translate(-3190.294 4852.809)">
      <g id="Group_12510" data-name="Group 12510" transform="translate(0 0)">
        <path id="Path_71575" data-name="Path 71575" d="M9.52-6.924a7.611,7.611,0,0,1-5.747-2.3,8.41,8.41,0,0,1-2.21-6.1A8.288,8.288,0,0,1,3.8-21.4,7.753,7.753,0,0,1,9.6-23.687a7.821,7.821,0,0,1,5.758,2.2,7.684,7.684,0,0,1,2.221,5.726,9.91,9.91,0,0,1-.12,1.589H5.013a4.653,4.653,0,0,0,1.372,3.233A4.368,4.368,0,0,0,9.52-9.754a3.96,3.96,0,0,0,3.864-2.264h3.625A7.284,7.284,0,0,1,14.32-8.35,7.869,7.869,0,0,1,9.52-6.924Zm4.539-9.546a4.209,4.209,0,0,0-1.328-3.2,4.488,4.488,0,0,0-3.157-1.2,4.312,4.312,0,0,0-3.1,1.2,4.829,4.829,0,0,0-1.426,3.2Zm0,0" transform="translate(-1.563 23.688)" fill="#fffefe"/>
      </g>
    </g>
    <g id="Group_12513" data-name="Group 12513" transform="translate(-3170.984 4847.497)">
      <g id="Group_12512" data-name="Group 12512" transform="translate(0 0)">
        <path id="Path_71576" data-name="Path 71576" d="M3.172-9.5V-31.312H6.535V-9.5Zm0,0" transform="translate(-3.172 31.313)" fill="#fffefe"/>
      </g>
    </g>
    <g id="Group_12515" data-name="Group 12515" transform="translate(-3164.322 4852.809)">
      <g id="Group_12514" data-name="Group 12514" transform="translate(0 0)">
        <path id="Path_71577" data-name="Path 71577" d="M13.395-11.322a5.439,5.439,0,0,0,1.47-3.995,5.383,5.383,0,0,0-1.47-3.984,4.718,4.718,0,0,0-3.462-1.47,4.751,4.751,0,0,0-3.462,1.448,5.274,5.274,0,0,0-1.459,3.94,5.57,5.57,0,0,0,1.459,4.028A4.641,4.641,0,0,0,9.933-9.841,4.7,4.7,0,0,0,13.395-11.322Zm-4.169,4.4A7.147,7.147,0,0,1,3.772-9.3a8.535,8.535,0,0,1-2.21-6.063,8.353,8.353,0,0,1,2.2-6.009,7.222,7.222,0,0,1,5.464-2.319,6.471,6.471,0,0,1,3.374.871,6.174,6.174,0,0,1,2.264,2.275v-2.885H18.25V-7.185H14.864v-3.037a6.48,6.48,0,0,1-2.275,2.406A6.274,6.274,0,0,1,9.226-6.924Zm0,0" transform="translate(-1.563 23.688)" fill="#fffefe"/>
      </g>
    </g>
    <g id="Group_12517" data-name="Group 12517" transform="translate(-3143.213 4852.809)">
      <g id="Group_12516" data-name="Group 12516" transform="translate(0 0)">
        <path id="Path_71578" data-name="Path 71578" d="M6.535-23.426v2.558a5.537,5.537,0,0,1,5.181-2.819,6.062,6.062,0,0,1,4.528,1.829,6.971,6.971,0,0,1,1.785,5.094v9.579H14.7v-9.078a4.728,4.728,0,0,0-1.089-3.342,3.888,3.888,0,0,0-2.983-1.165,3.941,3.941,0,0,0-2.993,1.165,4.682,4.682,0,0,0-1.1,3.342v9.078H3.172V-23.426Zm0,0" transform="translate(-3.172 23.688)" fill="#fffefe"/>
      </g>
    </g>
    <g id="Group_12519" data-name="Group 12519" transform="translate(-3125.202 4847.497)">
      <g id="Group_12518" data-name="Group 12518" transform="translate(0 0)">
        <path id="Path_71579" data-name="Path 71579" d="M13.395-13.635a5.439,5.439,0,0,0,1.47-3.995,5.383,5.383,0,0,0-1.47-3.984,4.718,4.718,0,0,0-3.462-1.47,4.751,4.751,0,0,0-3.462,1.448,5.274,5.274,0,0,0-1.459,3.94,5.57,5.57,0,0,0,1.459,4.028,4.641,4.641,0,0,0,3.462,1.513A4.7,4.7,0,0,0,13.395-13.635Zm-4.169,4.4A7.147,7.147,0,0,1,3.772-11.61a8.535,8.535,0,0,1-2.21-6.063,8.353,8.353,0,0,1,2.2-6.009A7.222,7.222,0,0,1,9.226-26a6.471,6.471,0,0,1,3.374.871,6.174,6.174,0,0,1,2.264,2.275v-8.458H18.25V-9.5H14.864v-3.037a6.48,6.48,0,0,1-2.275,2.406A6.274,6.274,0,0,1,9.226-9.237Zm0,0" transform="translate(-1.563 31.313)" fill="#fffefe"/>
      </g>
    </g>
    <g id="Group_12521" data-name="Group 12521" transform="translate(-3254.606 4879.559)">
      <g id="Group_12520" data-name="Group 12520" transform="translate(0 0)">
        <path id="Path_71580" data-name="Path 71580" d="M6.535-31.312v8.131A5.537,5.537,0,0,1,11.717-26a6.062,6.062,0,0,1,4.528,1.829,6.971,6.971,0,0,1,1.785,5.094V-9.5H14.7v-9.078a4.728,4.728,0,0,0-1.089-3.342,3.888,3.888,0,0,0-2.983-1.165,3.941,3.941,0,0,0-2.993,1.165,4.682,4.682,0,0,0-1.1,3.342V-9.5H3.172V-31.312Zm0,0" transform="translate(-3.172 31.313)" fill="#fffefe"/>
      </g>
    </g>
    <g id="Group_12523" data-name="Group 12523" transform="translate(-3236.562 4884.871)">
      <g id="Group_12522" data-name="Group 12522" transform="translate(0 0)">
        <path id="Path_71581" data-name="Path 71581" d="M13.246-11.224a5.515,5.515,0,0,0,1.48-4.093A5.573,5.573,0,0,0,13.289-19.4a4.649,4.649,0,0,0-3.462-1.47A4.526,4.526,0,0,0,6.41-19.4a5.715,5.715,0,0,0-1.382,4.093,5.792,5.792,0,0,0,1.35,4.093A4.418,4.418,0,0,0,9.752-9.754,4.773,4.773,0,0,0,13.246-11.224Zm-3.494,4.3A7.886,7.886,0,0,1,3.906-9.232a8.253,8.253,0,0,1-2.3-6.074,8.072,8.072,0,0,1,2.373-6.063,8.119,8.119,0,0,1,5.911-2.319A8.127,8.127,0,0,1,15.8-21.369a8.069,8.069,0,0,1,2.373,6.052,8.017,8.017,0,0,1-2.438,6.074A8.337,8.337,0,0,1,9.752-6.924Zm0,0" transform="translate(-1.609 23.688)" fill="#fffefe"/>
      </g>
    </g>
    <g id="Group_12525" data-name="Group 12525" transform="translate(-3217.427 4884.871)">
      <g id="Group_12524" data-name="Group 12524" transform="translate(0 0)">
        <path id="Path_71582" data-name="Path 71582" d="M2.1-18.767a4.361,4.361,0,0,1,1.742-3.494,6.987,6.987,0,0,1,4.572-1.426,6.751,6.751,0,0,1,4.5,1.4,5.06,5.06,0,0,1,1.785,3.81H11.244a2.687,2.687,0,0,0-.838-1.883,3.02,3.02,0,0,0-2.112-.686,3.344,3.344,0,0,0-2.123.61,1.921,1.921,0,0,0-.762,1.589,1.728,1.728,0,0,0,.969,1.557,7.52,7.52,0,0,0,2.373.816q1.4.261,2.8.653a5.043,5.043,0,0,1,2.373,1.4,3.75,3.75,0,0,1,.98,2.721,4.113,4.113,0,0,1-1.785,3.451A7.537,7.537,0,0,1,8.522-6.924a7.189,7.189,0,0,1-4.539-1.35,5.1,5.1,0,0,1-1.9-3.864H5.551a2.629,2.629,0,0,0,.882,1.894A3.251,3.251,0,0,0,8.6-9.569a3.569,3.569,0,0,0,2.177-.6,1.911,1.911,0,0,0,.816-1.611,1.728,1.728,0,0,0-.969-1.567,7.972,7.972,0,0,0-2.373-.838q-1.4-.282-2.808-.653a5.17,5.17,0,0,1-2.373-1.339A3.49,3.49,0,0,1,2.1-18.767Zm0,0" transform="translate(-2.078 23.688)" fill="#fffefe"/>
      </g>
    </g>
    <g id="Group_12527" data-name="Group 12527" transform="translate(-3200.923 4884.871)">
      <g id="Group_12526" data-name="Group 12526" transform="translate(0 0)">
        <path id="Path_71583" data-name="Path 71583" d="M14.928-11.354a5.537,5.537,0,0,0,1.48-4.028,5.285,5.285,0,0,0-1.459-3.94,4.782,4.782,0,0,0-3.483-1.448A4.72,4.72,0,0,0,7.994-19.3a5.4,5.4,0,0,0-1.459,3.984,5.455,5.455,0,0,0,1.459,3.995,4.689,4.689,0,0,0,3.462,1.48A4.682,4.682,0,0,0,14.928-11.354ZM12.2-23.687a7.159,7.159,0,0,1,5.443,2.319,8.381,8.381,0,0,1,2.188,6.009,8.576,8.576,0,0,1-2.2,6.063A7.085,7.085,0,0,1,12.2-6.924a6.261,6.261,0,0,1-3.364-.893,6.626,6.626,0,0,1-2.3-2.406V.532H3.172V-23.426H6.535v2.885a6.3,6.3,0,0,1,2.286-2.275A6.458,6.458,0,0,1,12.2-23.687Zm0,0" transform="translate(-3.172 23.688)" fill="#fffefe"/>
      </g>
    </g>
    <g id="Group_12529" data-name="Group 12529" transform="translate(-3181.382 4878.677)">
      <g id="Group_12528" data-name="Group 12528" transform="translate(0 0)">
        <path id="Path_71584" data-name="Path 71584" d="M6.809-30.423a2.069,2.069,0,0,1-.62,1.524,2.073,2.073,0,0,1-1.524.62,2.057,2.057,0,0,1-1.513-.62,2.069,2.069,0,0,1-.62-1.524,2.085,2.085,0,0,1,.62-1.535,2.057,2.057,0,0,1,1.513-.62,2.073,2.073,0,0,1,1.524.62A2.085,2.085,0,0,1,6.809-30.423ZM2.978-9.882V-26.123H6.341V-9.882Zm0,0" transform="translate(-2.531 32.578)" fill="#fffefe"/>
      </g>
    </g>
    <g id="Group_12531" data-name="Group 12531" transform="translate(-3174.535 4881.094)">
      <g id="Group_12530" data-name="Group 12530" transform="translate(0 0)">
        <path id="Path_71585" data-name="Path 71585" d="M10.44-22.328H6.489v8.991a1.748,1.748,0,0,0,.425,1.317,2.18,2.18,0,0,0,1.47.392H10.44v2.8H7.784Q3.1-8.83,3.1-13.337v-8.991H1.188v-2.743H3.1v-4.038H6.489v4.038H10.44Zm0,0" transform="translate(-1.188 29.109)" fill="#fffefe"/>
      </g>
    </g>
    <g id="Group_12533" data-name="Group 12533" transform="translate(-3163.307 4884.871)">
      <g id="Group_12532" data-name="Group 12532" transform="translate(0 0)">
        <path id="Path_71586" data-name="Path 71586" d="M13.395-11.322a5.439,5.439,0,0,0,1.47-3.995,5.383,5.383,0,0,0-1.47-3.984,4.718,4.718,0,0,0-3.462-1.47,4.751,4.751,0,0,0-3.462,1.448,5.274,5.274,0,0,0-1.459,3.94,5.57,5.57,0,0,0,1.459,4.028A4.641,4.641,0,0,0,9.933-9.841,4.7,4.7,0,0,0,13.395-11.322Zm-4.169,4.4A7.147,7.147,0,0,1,3.772-9.3a8.535,8.535,0,0,1-2.21-6.063,8.353,8.353,0,0,1,2.2-6.009,7.222,7.222,0,0,1,5.464-2.319,6.471,6.471,0,0,1,3.374.871,6.174,6.174,0,0,1,2.264,2.275v-2.885H18.25V-7.185H14.864v-3.037a6.48,6.48,0,0,1-2.275,2.406A6.274,6.274,0,0,1,9.226-6.924Zm0,0" transform="translate(-1.563 23.688)" fill="#fffefe"/>
      </g>
    </g>
    <g id="Group_12535" data-name="Group 12535" transform="translate(-3142.198 4879.559)">
      <g id="Group_12534" data-name="Group 12534" transform="translate(0 0)">
        <path id="Path_71587" data-name="Path 71587" d="M3.172-9.5V-31.312H6.535V-9.5Zm0,0" transform="translate(-3.172 31.313)" fill="#fffefe"/>
      </g>
    </g>
    <g id="Group_12537" data-name="Group 12537" transform="translate(-3237.823 4913.157)">
      <g id="Group_12536" data-name="Group 12536" transform="translate(0 0)">
        <path id="Path_71588" data-name="Path 71588" d="M10.44-22.328H6.489v8.991a1.748,1.748,0,0,0,.425,1.317,2.18,2.18,0,0,0,1.47.392H10.44v2.8H7.784Q3.1-8.83,3.1-13.337v-8.991H1.188v-2.743H3.1v-4.038H6.489v4.038H10.44Zm0,0" transform="translate(-1.188 29.109)" fill="#fffefe"/>
      </g>
    </g>
    <g id="Group_12539" data-name="Group 12539" transform="translate(-3225.475 4916.934)">
      <g id="Group_12538" data-name="Group 12538" transform="translate(0 0)">
        <path id="Path_71589" data-name="Path 71589" d="M6.535-23.426v2.83A5.124,5.124,0,0,1,11.4-23.687v3.472h-.86a4.11,4.11,0,0,0-2.993,1A4.817,4.817,0,0,0,6.535-15.73v8.545H3.172V-23.426Zm0,0" transform="translate(-3.172 23.688)" fill="#fffefe"/>
      </g>
    </g>
    <g id="Group_12541" data-name="Group 12541" transform="translate(-3214.296 4917.195)">
      <g id="Group_12540" data-name="Group 12540" transform="translate(0)">
        <path id="Path_71590" data-name="Path 71590" d="M14.464-23.312h3.353V-7.072H14.464V-9.641A5.52,5.52,0,0,1,9.271-6.832,6.092,6.092,0,0,1,4.743-8.639a6.98,6.98,0,0,1-1.774-5.094v-9.579H6.3v9.078a4.706,4.706,0,0,0,1.089,3.342A3.858,3.858,0,0,0,10.36-9.728a3.915,3.915,0,0,0,2.993-1.165,4.652,4.652,0,0,0,1.11-3.342Zm0,0" transform="translate(-2.969 23.313)" fill="#fffefe"/>
      </g>
    </g>
    <g id="Group_12543" data-name="Group 12543" transform="translate(-3195.784 4916.934)">
      <g id="Group_12542" data-name="Group 12542" transform="translate(0 0)">
        <path id="Path_71591" data-name="Path 71591" d="M2.1-18.767a4.361,4.361,0,0,1,1.742-3.494,6.987,6.987,0,0,1,4.572-1.426,6.751,6.751,0,0,1,4.5,1.4,5.06,5.06,0,0,1,1.785,3.81H11.244a2.687,2.687,0,0,0-.838-1.883,3.02,3.02,0,0,0-2.112-.686,3.344,3.344,0,0,0-2.123.61,1.921,1.921,0,0,0-.762,1.589,1.728,1.728,0,0,0,.969,1.557,7.52,7.52,0,0,0,2.373.816q1.4.261,2.8.653a5.043,5.043,0,0,1,2.373,1.4,3.75,3.75,0,0,1,.98,2.721,4.113,4.113,0,0,1-1.785,3.451A7.537,7.537,0,0,1,8.522-6.924a7.189,7.189,0,0,1-4.539-1.35,5.1,5.1,0,0,1-1.9-3.864H5.551a2.629,2.629,0,0,0,.882,1.894A3.251,3.251,0,0,0,8.6-9.569a3.569,3.569,0,0,0,2.177-.6,1.911,1.911,0,0,0,.816-1.611,1.728,1.728,0,0,0-.969-1.567,7.972,7.972,0,0,0-2.373-.838q-1.4-.282-2.808-.653a5.17,5.17,0,0,1-2.373-1.339A3.49,3.49,0,0,1,2.1-18.767Zm0,0" transform="translate(-2.078 23.688)" fill="#fffefe"/>
      </g>
    </g>
    <g id="Group_12545" data-name="Group 12545" transform="translate(-3180.662 4913.157)">
      <g id="Group_12544" data-name="Group 12544" transform="translate(0 0)">
        <path id="Path_71592" data-name="Path 71592" d="M10.44-22.328H6.489v8.991a1.748,1.748,0,0,0,.425,1.317,2.18,2.18,0,0,0,1.47.392H10.44v2.8H7.784Q3.1-8.83,3.1-13.337v-8.991H1.188v-2.743H3.1v-4.038H6.489v4.038H10.44Zm0,0" transform="translate(-1.188 29.109)" fill="#fffefe"/>
      </g>
    </g>
    <g id="Group_12547" data-name="Group 12547" transform="translate(-3169.075 4916.934)">
      <g id="Group_12546" data-name="Group 12546" transform="translate(0 0)">
        <path id="Path_71593" data-name="Path 71593" d="M2.1-18.767a4.361,4.361,0,0,1,1.742-3.494,6.987,6.987,0,0,1,4.572-1.426,6.751,6.751,0,0,1,4.5,1.4,5.06,5.06,0,0,1,1.785,3.81H11.244a2.687,2.687,0,0,0-.838-1.883,3.02,3.02,0,0,0-2.112-.686,3.344,3.344,0,0,0-2.123.61,1.921,1.921,0,0,0-.762,1.589,1.728,1.728,0,0,0,.969,1.557,7.52,7.52,0,0,0,2.373.816q1.4.261,2.8.653a5.043,5.043,0,0,1,2.373,1.4,3.75,3.75,0,0,1,.98,2.721,4.113,4.113,0,0,1-1.785,3.451A7.537,7.537,0,0,1,8.522-6.924a7.189,7.189,0,0,1-4.539-1.35,5.1,5.1,0,0,1-1.9-3.864H5.551a2.629,2.629,0,0,0,.882,1.894A3.251,3.251,0,0,0,8.6-9.569a3.569,3.569,0,0,0,2.177-.6,1.911,1.911,0,0,0,.816-1.611,1.728,1.728,0,0,0-.969-1.567,7.972,7.972,0,0,0-2.373-.838q-1.4-.282-2.808-.653a5.17,5.17,0,0,1-2.373-1.339A3.49,3.49,0,0,1,2.1-18.767Zm0,0" transform="translate(-2.078 23.688)" fill="#fffefe"/>
      </g>
    </g>
    <path id="Path_71594" data-name="Path 71594" d="M412.742,380.7H629.576V587.085H412.742Zm0,0" transform="translate(-3697.843 4658.257)" fill="#00ada4"/>
    <g id="Group_12549" data-name="Group 12549" transform="translate(-3079.323 4920.091)">
      <g id="Group_12548" data-name="Group 12548" transform="translate(0 0)">
        <path id="Path_71595" data-name="Path 71595" d="M10.247-29.406a7.653,7.653,0,0,1,5.366,1.731,5.587,5.587,0,0,1,1.883,4.3,5.939,5.939,0,0,1-1.785,4.365q-1.776,1.776-5.464,1.774H6.535V-8.92H3.172V-29.406ZM6.535-19.86h3.712a3.942,3.942,0,0,0,2.852-.914,3.375,3.375,0,0,0,.947-2.547,3.375,3.375,0,0,0-.947-2.547,3.942,3.942,0,0,0-2.852-.914H6.535Zm0,0" transform="translate(-3.172 29.406)" fill="#fffefe"/>
      </g>
    </g>
    <g id="Group_12551" data-name="Group 12551" transform="translate(-3061.783 4918.764)">
      <g id="Group_12550" data-name="Group 12550" transform="translate(0 0)">
        <path id="Path_71596" data-name="Path 71596" d="M6.535-31.312v8.131A5.537,5.537,0,0,1,11.717-26a6.062,6.062,0,0,1,4.528,1.829,6.971,6.971,0,0,1,1.785,5.094V-9.5H14.7v-9.078a4.728,4.728,0,0,0-1.089-3.342,3.888,3.888,0,0,0-2.983-1.165,3.941,3.941,0,0,0-2.993,1.165,4.682,4.682,0,0,0-1.1,3.342V-9.5H3.172V-31.312Zm0,0" transform="translate(-3.172 31.313)" fill="#fffefe"/>
      </g>
    </g>
    <g id="Group_12553" data-name="Group 12553" transform="translate(-3043.771 4924.076)">
      <g id="Group_12552" data-name="Group 12552" transform="translate(0 0)">
        <path id="Path_71597" data-name="Path 71597" d="M13.395-11.322a5.439,5.439,0,0,0,1.47-3.995,5.383,5.383,0,0,0-1.47-3.984,4.718,4.718,0,0,0-3.462-1.47,4.751,4.751,0,0,0-3.462,1.448,5.274,5.274,0,0,0-1.459,3.94,5.57,5.57,0,0,0,1.459,4.028A4.641,4.641,0,0,0,9.933-9.841,4.7,4.7,0,0,0,13.395-11.322Zm-4.169,4.4A7.147,7.147,0,0,1,3.772-9.3a8.535,8.535,0,0,1-2.21-6.063,8.353,8.353,0,0,1,2.2-6.009,7.222,7.222,0,0,1,5.464-2.319,6.471,6.471,0,0,1,3.374.871,6.174,6.174,0,0,1,2.264,2.275v-2.885H18.25V-7.185H14.864v-3.037a6.48,6.48,0,0,1-2.275,2.406A6.274,6.274,0,0,1,9.226-6.924Zm0,0" transform="translate(-1.563 23.688)" fill="#fffefe"/>
      </g>
    </g>
    <g id="Group_12555" data-name="Group 12555" transform="translate(-3022.663 4924.076)">
      <g id="Group_12554" data-name="Group 12554" transform="translate(0 0)">
        <path id="Path_71598" data-name="Path 71598" d="M6.535-23.426v2.83A5.124,5.124,0,0,1,11.4-23.687v3.472h-.86a4.11,4.11,0,0,0-2.993,1A4.817,4.817,0,0,0,6.535-15.73v8.545H3.172V-23.426Zm0,0" transform="translate(-3.172 23.688)" fill="#fffefe"/>
      </g>
    </g>
    <g id="Group_12557" data-name="Group 12557" transform="translate(-3011.342 4924.076)">
      <g id="Group_12556" data-name="Group 12556" transform="translate(0 0)">
        <path id="Path_71599" data-name="Path 71599" d="M6.535-23.426v2.558a5.537,5.537,0,0,1,5.181-2.819,6.41,6.41,0,0,1,3.364.882,5.593,5.593,0,0,1,2.242,2.558,6.26,6.26,0,0,1,2.362-2.525,6.548,6.548,0,0,1,3.44-.914,6.2,6.2,0,0,1,4.6,1.818,6.93,6.93,0,0,1,1.8,5.105v9.579H26.162v-9.078a4.728,4.728,0,0,0-1.089-3.342,3.888,3.888,0,0,0-2.983-1.165,3.868,3.868,0,0,0-2.972,1.165,4.715,4.715,0,0,0-1.089,3.342v9.078H14.7v-9.078a4.728,4.728,0,0,0-1.089-3.342,3.888,3.888,0,0,0-2.983-1.165,3.941,3.941,0,0,0-2.993,1.165,4.682,4.682,0,0,0-1.1,3.342v9.078H3.172V-23.426Zm0,0" transform="translate(-3.172 23.688)" fill="#fffefe"/>
      </g>
    </g>
    <g id="Group_12559" data-name="Group 12559" transform="translate(-2981.834 4924.076)">
      <g id="Group_12558" data-name="Group 12558" transform="translate(0 0)">
        <path id="Path_71600" data-name="Path 71600" d="M13.395-11.322a5.439,5.439,0,0,0,1.47-3.995,5.383,5.383,0,0,0-1.47-3.984,4.718,4.718,0,0,0-3.462-1.47,4.751,4.751,0,0,0-3.462,1.448,5.274,5.274,0,0,0-1.459,3.94,5.57,5.57,0,0,0,1.459,4.028A4.641,4.641,0,0,0,9.933-9.841,4.7,4.7,0,0,0,13.395-11.322Zm-4.169,4.4A7.147,7.147,0,0,1,3.772-9.3a8.535,8.535,0,0,1-2.21-6.063,8.353,8.353,0,0,1,2.2-6.009,7.222,7.222,0,0,1,5.464-2.319,6.471,6.471,0,0,1,3.374.871,6.174,6.174,0,0,1,2.264,2.275v-2.885H18.25V-7.185H14.864v-3.037a6.48,6.48,0,0,1-2.275,2.406A6.274,6.274,0,0,1,9.226-6.924Zm0,0" transform="translate(-1.563 23.688)" fill="#fffefe"/>
      </g>
    </g>
    <g id="Group_12561" data-name="Group 12561" transform="translate(-2961.846 4924.076)">
      <g id="Group_12560" data-name="Group 12560" transform="translate(0 0)">
        <path id="Path_71601" data-name="Path 71601" d="M9.52-6.924a7.611,7.611,0,0,1-5.747-2.3,8.4,8.4,0,0,1-2.21-6.085,8.385,8.385,0,0,1,2.221-6.085,7.651,7.651,0,0,1,5.737-2.3,8.07,8.07,0,0,1,4.877,1.4A6.863,6.863,0,0,1,17.009-18.3H13.384A3.7,3.7,0,0,0,9.52-20.868,4.068,4.068,0,0,0,6.232-19.4a6.187,6.187,0,0,0-1.219,4.082,6.224,6.224,0,0,0,1.219,4.093A4.068,4.068,0,0,0,9.52-9.754a3.736,3.736,0,0,0,3.864-2.558h3.625a7.255,7.255,0,0,1-2.656,3.93A7.8,7.8,0,0,1,9.52-6.924Zm0,0" transform="translate(-1.563 23.688)" fill="#fffefe"/>
      </g>
    </g>
    <g id="Group_12563" data-name="Group 12563" transform="translate(-2944.953 4924.337)">
      <g id="Group_12562" data-name="Group 12562" transform="translate(0 0)">
        <path id="Path_71602" data-name="Path 71602" d="M6.822-7.333l-6.4-15.98H4.166L8.738-10.936l4.746-12.377h3.472L7,.559H3.513Zm0,0" transform="translate(-0.422 23.313)" fill="#fffefe"/>
      </g>
    </g>
    <g id="Group_12565" data-name="Group 12565" transform="translate(-2928.095 4940.578)">
      <g id="Group_12564" data-name="Group 12564">
        <path id="Path_71603" data-name="Path 71603" fill="#fffefe"/>
      </g>
    </g>
    <g id="Group_12567" data-name="Group 12567" transform="translate(-3069.881 4956.138)">
      <g id="Group_12566" data-name="Group 12566" transform="translate(0 0)">
        <path id="Path_71604" data-name="Path 71604" d="M9.52-6.924a7.611,7.611,0,0,1-5.747-2.3,8.4,8.4,0,0,1-2.21-6.085,8.385,8.385,0,0,1,2.221-6.085,7.651,7.651,0,0,1,5.737-2.3,8.07,8.07,0,0,1,4.877,1.4A6.863,6.863,0,0,1,17.009-18.3H13.384A3.7,3.7,0,0,0,9.52-20.868,4.068,4.068,0,0,0,6.232-19.4a6.187,6.187,0,0,0-1.219,4.082,6.224,6.224,0,0,0,1.219,4.093A4.068,4.068,0,0,0,9.52-9.754a3.736,3.736,0,0,0,3.864-2.558h3.625a7.255,7.255,0,0,1-2.656,3.93A7.8,7.8,0,0,1,9.52-6.924Zm0,0" transform="translate(-1.563 23.688)" fill="#fffefe"/>
      </g>
    </g>
    <g id="Group_12569" data-name="Group 12569" transform="translate(-3052.16 4956.138)">
      <g id="Group_12568" data-name="Group 12568" transform="translate(0 0)">
        <path id="Path_71605" data-name="Path 71605" d="M13.246-11.224a5.515,5.515,0,0,0,1.48-4.093A5.573,5.573,0,0,0,13.289-19.4a4.649,4.649,0,0,0-3.462-1.47A4.526,4.526,0,0,0,6.41-19.4a5.715,5.715,0,0,0-1.382,4.093,5.792,5.792,0,0,0,1.35,4.093A4.418,4.418,0,0,0,9.752-9.754,4.773,4.773,0,0,0,13.246-11.224Zm-3.494,4.3A7.886,7.886,0,0,1,3.906-9.232a8.253,8.253,0,0,1-2.3-6.074,8.072,8.072,0,0,1,2.373-6.063,8.119,8.119,0,0,1,5.911-2.319A8.127,8.127,0,0,1,15.8-21.369a8.069,8.069,0,0,1,2.373,6.052,8.017,8.017,0,0,1-2.438,6.074A8.337,8.337,0,0,1,9.752-6.924Zm0,0" transform="translate(-1.609 23.688)" fill="#fffefe"/>
      </g>
    </g>
    <g id="Group_12571" data-name="Group 12571" transform="translate(-3034.179 4956.399)">
      <g id="Group_12570" data-name="Group 12570" transform="translate(0 0)">
        <path id="Path_71606" data-name="Path 71606" d="M.422-23.312H4.014l4.6,13.237,4.594-13.237h3.625L10.654-7.072H6.583Zm0,0" transform="translate(-0.422 23.313)" fill="#fffefe"/>
      </g>
    </g>
    <g id="Group_12573" data-name="Group 12573" transform="translate(-3016.404 4956.138)">
      <g id="Group_12572" data-name="Group 12572" transform="translate(0 0)">
        <path id="Path_71607" data-name="Path 71607" d="M9.52-6.924a7.611,7.611,0,0,1-5.747-2.3,8.41,8.41,0,0,1-2.21-6.1A8.288,8.288,0,0,1,3.8-21.4,7.753,7.753,0,0,1,9.6-23.687a7.821,7.821,0,0,1,5.758,2.2,7.684,7.684,0,0,1,2.221,5.726,9.91,9.91,0,0,1-.12,1.589H5.013a4.653,4.653,0,0,0,1.372,3.233A4.368,4.368,0,0,0,9.52-9.754a3.96,3.96,0,0,0,3.864-2.264h3.625A7.284,7.284,0,0,1,14.32-8.35,7.869,7.869,0,0,1,9.52-6.924Zm4.539-9.546a4.209,4.209,0,0,0-1.328-3.2,4.488,4.488,0,0,0-3.157-1.2,4.312,4.312,0,0,0-3.1,1.2,4.829,4.829,0,0,0-1.426,3.2Zm0,0" transform="translate(-1.563 23.688)" fill="#fffefe"/>
      </g>
    </g>
    <g id="Group_12575" data-name="Group 12575" transform="translate(-2997.094 4956.138)">
      <g id="Group_12574" data-name="Group 12574" transform="translate(0 0)">
        <path id="Path_71608" data-name="Path 71608" d="M6.535-23.426v2.83A5.124,5.124,0,0,1,11.4-23.687v3.472h-.86a4.11,4.11,0,0,0-2.993,1A4.817,4.817,0,0,0,6.535-15.73v8.545H3.172V-23.426Zm0,0" transform="translate(-3.172 23.688)" fill="#fffefe"/>
      </g>
    </g>
    <g id="Group_12577" data-name="Group 12577" transform="translate(-2986.894 4956.138)">
      <g id="Group_12576" data-name="Group 12576" transform="translate(0 0)">
        <path id="Path_71609" data-name="Path 71609" d="M13.395-11.322a5.439,5.439,0,0,0,1.47-3.995,5.383,5.383,0,0,0-1.47-3.984,4.718,4.718,0,0,0-3.462-1.47,4.751,4.751,0,0,0-3.462,1.448,5.274,5.274,0,0,0-1.459,3.94,5.57,5.57,0,0,0,1.459,4.028A4.641,4.641,0,0,0,9.933-9.841,4.7,4.7,0,0,0,13.395-11.322Zm-4.169,4.4A7.147,7.147,0,0,1,3.772-9.3a8.535,8.535,0,0,1-2.21-6.063,8.353,8.353,0,0,1,2.2-6.009,7.222,7.222,0,0,1,5.464-2.319,6.471,6.471,0,0,1,3.374.871,6.174,6.174,0,0,1,2.264,2.275v-2.885H18.25V-7.185H14.864v-3.037a6.48,6.48,0,0,1-2.275,2.406A6.274,6.274,0,0,1,9.226-6.924Zm0,0" transform="translate(-1.563 23.688)" fill="#fffefe"/>
      </g>
    </g>
    <g id="Group_12579" data-name="Group 12579" transform="translate(-2966.907 4956.138)">
      <g id="Group_12578" data-name="Group 12578" transform="translate(0 0)">
        <path id="Path_71610" data-name="Path 71610" d="M9.226-6.924A7.147,7.147,0,0,1,3.772-9.3a8.535,8.535,0,0,1-2.21-6.063,8.353,8.353,0,0,1,2.2-6.009,7.222,7.222,0,0,1,5.464-2.319,6.471,6.471,0,0,1,3.374.871,6.174,6.174,0,0,1,2.264,2.275v-2.885H18.25v16.5A7.671,7.671,0,0,1,16.138-1.34,7.451,7.451,0,0,1,10.521.837,9.608,9.608,0,0,1,4.828-.719,5.7,5.7,0,0,1,2.357-4.91H5.688A3.628,3.628,0,0,0,7.332-2.875a5.8,5.8,0,0,0,3.135.784A4.275,4.275,0,0,0,13.6-3.332a4.8,4.8,0,0,0,1.263-3.592v-3.3a6.48,6.48,0,0,1-2.275,2.406A6.274,6.274,0,0,1,9.226-6.924Zm4.169-4.4a5.439,5.439,0,0,0,1.47-3.995,5.383,5.383,0,0,0-1.47-3.984,4.718,4.718,0,0,0-3.462-1.47,4.751,4.751,0,0,0-3.462,1.448,5.274,5.274,0,0,0-1.459,3.94,5.57,5.57,0,0,0,1.459,4.028A4.641,4.641,0,0,0,9.933-9.841,4.7,4.7,0,0,0,13.395-11.322Zm0,0" transform="translate(-1.563 23.688)" fill="#fffefe"/>
      </g>
    </g>
    <g id="Group_12581" data-name="Group 12581" transform="translate(-2946.919 4956.138)">
      <g id="Group_12580" data-name="Group 12580" transform="translate(0 0)">
        <path id="Path_71611" data-name="Path 71611" d="M9.52-6.924a7.611,7.611,0,0,1-5.747-2.3,8.41,8.41,0,0,1-2.21-6.1A8.288,8.288,0,0,1,3.8-21.4,7.753,7.753,0,0,1,9.6-23.687a7.821,7.821,0,0,1,5.758,2.2,7.684,7.684,0,0,1,2.221,5.726,9.91,9.91,0,0,1-.12,1.589H5.013a4.653,4.653,0,0,0,1.372,3.233A4.368,4.368,0,0,0,9.52-9.754a3.96,3.96,0,0,0,3.864-2.264h3.625A7.284,7.284,0,0,1,14.32-8.35,7.869,7.869,0,0,1,9.52-6.924Zm4.539-9.546a4.209,4.209,0,0,0-1.328-3.2,4.488,4.488,0,0,0-3.157-1.2,4.312,4.312,0,0,0-3.1,1.2,4.829,4.829,0,0,0-1.426,3.2Zm0,0" transform="translate(-1.563 23.688)" fill="#fffefe"/>
      </g>
    </g>
    <g id="Group_12583" data-name="Group 12583" transform="translate(-2996.66 5111.485)">
      <g id="Group_12582" data-name="Group 12582" transform="translate(0 0)">
        <path id="Path_71612" data-name="Path 71612" d="M10.247-29.406a7.653,7.653,0,0,1,5.366,1.731,5.587,5.587,0,0,1,1.883,4.3,5.939,5.939,0,0,1-1.785,4.365q-1.776,1.776-5.464,1.774H6.535V-8.92H3.172V-29.406ZM6.535-19.86h3.712a3.942,3.942,0,0,0,2.852-.914,3.375,3.375,0,0,0,.947-2.547,3.375,3.375,0,0,0-.947-2.547,3.942,3.942,0,0,0-2.852-.914H6.535Zm0,0" transform="translate(-3.172 29.406)" fill="#fffefe"/>
      </g>
    </g>
    <g id="Group_12585" data-name="Group 12585" transform="translate(-2979.119 5115.469)">
      <g id="Group_12584" data-name="Group 12584" transform="translate(0 0)">
        <path id="Path_71613" data-name="Path 71613" d="M6.535-23.426v2.83A5.124,5.124,0,0,1,11.4-23.687v3.472h-.86a4.11,4.11,0,0,0-2.993,1A4.817,4.817,0,0,0,6.535-15.73v8.545H3.172V-23.426Zm0,0" transform="translate(-3.172 23.688)" fill="#fffefe"/>
      </g>
    </g>
    <g id="Group_12587" data-name="Group 12587" transform="translate(-2968.245 5109.275)">
      <g id="Group_12586" data-name="Group 12586" transform="translate(0 0)">
        <path id="Path_71614" data-name="Path 71614" d="M6.809-30.423a2.069,2.069,0,0,1-.62,1.524,2.073,2.073,0,0,1-1.524.62,2.057,2.057,0,0,1-1.513-.62,2.069,2.069,0,0,1-.62-1.524,2.085,2.085,0,0,1,.62-1.535,2.057,2.057,0,0,1,1.513-.62,2.073,2.073,0,0,1,1.524.62A2.085,2.085,0,0,1,6.809-30.423ZM2.978-9.882V-26.123H6.341V-9.882Zm0,0" transform="translate(-2.531 32.578)" fill="#fffefe"/>
      </g>
    </g>
    <g id="Group_12589" data-name="Group 12589" transform="translate(-2961.932 5115.73)">
      <g id="Group_12588" data-name="Group 12588" transform="translate(0 0)">
        <path id="Path_71615" data-name="Path 71615" d="M.422-23.312H4.014l4.6,13.237,4.594-13.237h3.625L10.654-7.072H6.583Zm0,0" transform="translate(-0.422 23.313)" fill="#fffefe"/>
      </g>
    </g>
    <g id="Group_12591" data-name="Group 12591" transform="translate(-2944.157 5115.469)">
      <g id="Group_12590" data-name="Group 12590" transform="translate(0 0)">
        <path id="Path_71616" data-name="Path 71616" d="M13.395-11.322a5.439,5.439,0,0,0,1.47-3.995,5.383,5.383,0,0,0-1.47-3.984,4.718,4.718,0,0,0-3.462-1.47,4.751,4.751,0,0,0-3.462,1.448,5.274,5.274,0,0,0-1.459,3.94,5.57,5.57,0,0,0,1.459,4.028A4.641,4.641,0,0,0,9.933-9.841,4.7,4.7,0,0,0,13.395-11.322Zm-4.169,4.4A7.147,7.147,0,0,1,3.772-9.3a8.535,8.535,0,0,1-2.21-6.063,8.353,8.353,0,0,1,2.2-6.009,7.222,7.222,0,0,1,5.464-2.319,6.471,6.471,0,0,1,3.374.871,6.174,6.174,0,0,1,2.264,2.275v-2.885H18.25V-7.185H14.864v-3.037a6.48,6.48,0,0,1-2.275,2.406A6.274,6.274,0,0,1,9.226-6.924Zm0,0" transform="translate(-1.563 23.688)" fill="#fffefe"/>
      </g>
    </g>
    <g id="Group_12593" data-name="Group 12593" transform="translate(-2924.431 5111.692)">
      <g id="Group_12592" data-name="Group 12592" transform="translate(0 0)">
        <path id="Path_71617" data-name="Path 71617" d="M10.44-22.328H6.489v8.991a1.748,1.748,0,0,0,.425,1.317,2.18,2.18,0,0,0,1.47.392H10.44v2.8H7.784Q3.1-8.83,3.1-13.337v-8.991H1.188v-2.743H3.1v-4.038H6.489v4.038H10.44Zm0,0" transform="translate(-1.188 29.109)" fill="#fffefe"/>
      </g>
    </g>
    <g id="Group_12595" data-name="Group 12595" transform="translate(-2913.203 5115.469)">
      <g id="Group_12594" data-name="Group 12594" transform="translate(0 0)">
        <path id="Path_71618" data-name="Path 71618" d="M9.52-6.924a7.611,7.611,0,0,1-5.747-2.3,8.41,8.41,0,0,1-2.21-6.1A8.288,8.288,0,0,1,3.8-21.4,7.753,7.753,0,0,1,9.6-23.687a7.821,7.821,0,0,1,5.758,2.2,7.684,7.684,0,0,1,2.221,5.726,9.91,9.91,0,0,1-.12,1.589H5.013a4.653,4.653,0,0,0,1.372,3.233A4.368,4.368,0,0,0,9.52-9.754a3.96,3.96,0,0,0,3.864-2.264h3.625A7.284,7.284,0,0,1,14.32-8.35,7.869,7.869,0,0,1,9.52-6.924Zm4.539-9.546a4.209,4.209,0,0,0-1.328-3.2,4.488,4.488,0,0,0-3.157-1.2,4.312,4.312,0,0,0-3.1,1.2,4.829,4.829,0,0,0-1.426,3.2Zm0,0" transform="translate(-1.563 23.688)" fill="#fffefe"/>
      </g>
    </g>
    <g id="Group_12597" data-name="Group 12597" transform="translate(-3013.244 5142.22)">
      <g id="Group_12596" data-name="Group 12596" transform="translate(0 0)">
        <path id="Path_71619" data-name="Path 71619" d="M6.535-31.312v8.131A5.537,5.537,0,0,1,11.717-26a6.062,6.062,0,0,1,4.528,1.829,6.971,6.971,0,0,1,1.785,5.094V-9.5H14.7v-9.078a4.728,4.728,0,0,0-1.089-3.342,3.888,3.888,0,0,0-2.983-1.165,3.941,3.941,0,0,0-2.993,1.165,4.682,4.682,0,0,0-1.1,3.342V-9.5H3.172V-31.312Zm0,0" transform="translate(-3.172 31.313)" fill="#fffefe"/>
      </g>
    </g>
    <g id="Group_12599" data-name="Group 12599" transform="translate(-2995.2 5147.532)">
      <g id="Group_12598" data-name="Group 12598" transform="translate(0 0)">
        <path id="Path_71620" data-name="Path 71620" d="M13.246-11.224a5.515,5.515,0,0,0,1.48-4.093A5.573,5.573,0,0,0,13.289-19.4a4.649,4.649,0,0,0-3.462-1.47A4.526,4.526,0,0,0,6.41-19.4a5.715,5.715,0,0,0-1.382,4.093,5.792,5.792,0,0,0,1.35,4.093A4.418,4.418,0,0,0,9.752-9.754,4.773,4.773,0,0,0,13.246-11.224Zm-3.494,4.3A7.886,7.886,0,0,1,3.906-9.232a8.253,8.253,0,0,1-2.3-6.074,8.072,8.072,0,0,1,2.373-6.063,8.119,8.119,0,0,1,5.911-2.319A8.127,8.127,0,0,1,15.8-21.369a8.069,8.069,0,0,1,2.373,6.052,8.017,8.017,0,0,1-2.438,6.074A8.337,8.337,0,0,1,9.752-6.924Zm0,0" transform="translate(-1.609 23.688)" fill="#fffefe"/>
      </g>
    </g>
    <g id="Group_12601" data-name="Group 12601" transform="translate(-2976.065 5147.532)">
      <g id="Group_12600" data-name="Group 12600" transform="translate(0 0)">
        <path id="Path_71621" data-name="Path 71621" d="M2.1-18.767a4.361,4.361,0,0,1,1.742-3.494,6.987,6.987,0,0,1,4.572-1.426,6.751,6.751,0,0,1,4.5,1.4,5.06,5.06,0,0,1,1.785,3.81H11.244a2.687,2.687,0,0,0-.838-1.883,3.02,3.02,0,0,0-2.112-.686,3.344,3.344,0,0,0-2.123.61,1.921,1.921,0,0,0-.762,1.589,1.728,1.728,0,0,0,.969,1.557,7.52,7.52,0,0,0,2.373.816q1.4.261,2.8.653a5.043,5.043,0,0,1,2.373,1.4,3.75,3.75,0,0,1,.98,2.721,4.113,4.113,0,0,1-1.785,3.451A7.537,7.537,0,0,1,8.522-6.924a7.189,7.189,0,0,1-4.539-1.35,5.1,5.1,0,0,1-1.9-3.864H5.551a2.629,2.629,0,0,0,.882,1.894A3.251,3.251,0,0,0,8.6-9.569a3.569,3.569,0,0,0,2.177-.6,1.911,1.911,0,0,0,.816-1.611,1.728,1.728,0,0,0-.969-1.567,7.972,7.972,0,0,0-2.373-.838q-1.4-.282-2.808-.653a5.17,5.17,0,0,1-2.373-1.339A3.49,3.49,0,0,1,2.1-18.767Zm0,0" transform="translate(-2.078 23.688)" fill="#fffefe"/>
      </g>
    </g>
    <g id="Group_12603" data-name="Group 12603" transform="translate(-2959.561 5147.532)">
      <g id="Group_12602" data-name="Group 12602" transform="translate(0 0)">
        <path id="Path_71622" data-name="Path 71622" d="M14.928-11.354a5.537,5.537,0,0,0,1.48-4.028,5.285,5.285,0,0,0-1.459-3.94,4.782,4.782,0,0,0-3.483-1.448A4.72,4.72,0,0,0,7.994-19.3a5.4,5.4,0,0,0-1.459,3.984,5.455,5.455,0,0,0,1.459,3.995,4.689,4.689,0,0,0,3.462,1.48A4.682,4.682,0,0,0,14.928-11.354ZM12.2-23.687a7.159,7.159,0,0,1,5.443,2.319,8.381,8.381,0,0,1,2.188,6.009,8.576,8.576,0,0,1-2.2,6.063A7.085,7.085,0,0,1,12.2-6.924a6.261,6.261,0,0,1-3.364-.893,6.626,6.626,0,0,1-2.3-2.406V.532H3.172V-23.426H6.535v2.885a6.3,6.3,0,0,1,2.286-2.275A6.458,6.458,0,0,1,12.2-23.687Zm0,0" transform="translate(-3.172 23.688)" fill="#fffefe"/>
      </g>
    </g>
    <g id="Group_12605" data-name="Group 12605" transform="translate(-2940.02 5141.338)">
      <g id="Group_12604" data-name="Group 12604" transform="translate(0 0)">
        <path id="Path_71623" data-name="Path 71623" d="M6.809-30.423a2.069,2.069,0,0,1-.62,1.524,2.073,2.073,0,0,1-1.524.62,2.057,2.057,0,0,1-1.513-.62,2.069,2.069,0,0,1-.62-1.524,2.085,2.085,0,0,1,.62-1.535,2.057,2.057,0,0,1,1.513-.62,2.073,2.073,0,0,1,1.524.62A2.085,2.085,0,0,1,6.809-30.423ZM2.978-9.882V-26.123H6.341V-9.882Zm0,0" transform="translate(-2.531 32.578)" fill="#fffefe"/>
      </g>
    </g>
    <g id="Group_12607" data-name="Group 12607" transform="translate(-2933.173 5143.754)">
      <g id="Group_12606" data-name="Group 12606" transform="translate(0 0)">
        <path id="Path_71624" data-name="Path 71624" d="M10.44-22.328H6.489v8.991a1.748,1.748,0,0,0,.425,1.317,2.18,2.18,0,0,0,1.47.392H10.44v2.8H7.784Q3.1-8.83,3.1-13.337v-8.991H1.188v-2.743H3.1v-4.038H6.489v4.038H10.44Zm0,0" transform="translate(-1.188 29.109)" fill="#fffefe"/>
      </g>
    </g>
    <g id="Group_12609" data-name="Group 12609" transform="translate(-2921.945 5147.532)">
      <g id="Group_12608" data-name="Group 12608" transform="translate(0 0)">
        <path id="Path_71625" data-name="Path 71625" d="M13.395-11.322a5.439,5.439,0,0,0,1.47-3.995,5.383,5.383,0,0,0-1.47-3.984,4.718,4.718,0,0,0-3.462-1.47,4.751,4.751,0,0,0-3.462,1.448,5.274,5.274,0,0,0-1.459,3.94,5.57,5.57,0,0,0,1.459,4.028A4.641,4.641,0,0,0,9.933-9.841,4.7,4.7,0,0,0,13.395-11.322Zm-4.169,4.4A7.147,7.147,0,0,1,3.772-9.3a8.535,8.535,0,0,1-2.21-6.063,8.353,8.353,0,0,1,2.2-6.009,7.222,7.222,0,0,1,5.464-2.319,6.471,6.471,0,0,1,3.374.871,6.174,6.174,0,0,1,2.264,2.275v-2.885H18.25V-7.185H14.864v-3.037a6.48,6.48,0,0,1-2.275,2.406A6.274,6.274,0,0,1,9.226-6.924Zm0,0" transform="translate(-1.563 23.688)" fill="#fffefe"/>
      </g>
    </g>
    <g id="Group_12611" data-name="Group 12611" transform="translate(-2900.837 5142.22)">
      <g id="Group_12610" data-name="Group 12610" transform="translate(0 0)">
        <path id="Path_71626" data-name="Path 71626" d="M3.172-9.5V-31.312H6.535V-9.5Zm0,0" transform="translate(-3.172 31.313)" fill="#fffefe"/>
      </g>
    </g>
    <g id="Group_12613" data-name="Group 12613" transform="translate(-2893.816 5147.532)">
      <g id="Group_12612" data-name="Group 12612" transform="translate(0 0)">
        <path id="Path_71627" data-name="Path 71627" d="M2.1-18.767a4.361,4.361,0,0,1,1.742-3.494,6.987,6.987,0,0,1,4.572-1.426,6.751,6.751,0,0,1,4.5,1.4,5.06,5.06,0,0,1,1.785,3.81H11.244a2.687,2.687,0,0,0-.838-1.883,3.02,3.02,0,0,0-2.112-.686,3.344,3.344,0,0,0-2.123.61,1.921,1.921,0,0,0-.762,1.589,1.728,1.728,0,0,0,.969,1.557,7.52,7.52,0,0,0,2.373.816q1.4.261,2.8.653a5.043,5.043,0,0,1,2.373,1.4,3.75,3.75,0,0,1,.98,2.721,4.113,4.113,0,0,1-1.785,3.451A7.537,7.537,0,0,1,8.522-6.924a7.189,7.189,0,0,1-4.539-1.35,5.1,5.1,0,0,1-1.9-3.864H5.551a2.629,2.629,0,0,0,.882,1.894A3.251,3.251,0,0,0,8.6-9.569a3.569,3.569,0,0,0,2.177-.6,1.911,1.911,0,0,0,.816-1.611,1.728,1.728,0,0,0-.969-1.567,7.972,7.972,0,0,0-2.373-.838q-1.4-.282-2.808-.653a5.17,5.17,0,0,1-2.373-1.339A3.49,3.49,0,0,1,2.1-18.767Zm0,0" transform="translate(-2.078 23.688)" fill="#fffefe"/>
      </g>
    </g>
    <g id="Group_12615" data-name="Group 12615" transform="translate(-3246.693 5066.157)">
      <g id="Group_12614" data-name="Group 12614" transform="translate(0 0)">
        <path id="Path_71628" data-name="Path 71628" d="M9.345-27.049a3.754,3.754,0,0,0-2.449.773,2.693,2.693,0,0,0-.936,2.221,2.548,2.548,0,0,0,1.11,2.231A7.811,7.811,0,0,0,9.781-20.7q1.6.351,3.189.806a5.727,5.727,0,0,1,2.71,1.7A5.074,5.074,0,0,1,16.8-14.683a5.449,5.449,0,0,1-1.916,4.06,7.2,7.2,0,0,1-5.127,1.8,8.51,8.51,0,0,1-5.225-1.5,4.9,4.9,0,0,1-2-4.158h3.6a3.139,3.139,0,0,0,1,2.155,3.746,3.746,0,0,0,2.591.795,3.919,3.919,0,0,0,2.7-.882,2.747,2.747,0,0,0,.991-2.1,2.717,2.717,0,0,0-.61-1.883,3.691,3.691,0,0,0-1.557-1.012,17.812,17.812,0,0,0-2.112-.61c-.77-.174-1.543-.376-2.319-.61a10.239,10.239,0,0,1-2.112-.914,4.308,4.308,0,0,1-1.567-1.644,5.253,5.253,0,0,1-.61-2.634,5.387,5.387,0,0,1,1.927-4.321,7.517,7.517,0,0,1,5.018-1.633,7.881,7.881,0,0,1,4.92,1.415,5.407,5.407,0,0,1,2.057,4.093H12.731a2.925,2.925,0,0,0-1-1.97A3.4,3.4,0,0,0,9.345-27.049Zm0,0" transform="translate(-2.531 29.781)" fill="#fffefe"/>
      </g>
    </g>
    <g id="Group_12617" data-name="Group 12617" transform="translate(-3228.44 5070.402)">
      <g id="Group_12616" data-name="Group 12616" transform="translate(0 0)">
        <path id="Path_71629" data-name="Path 71629" d="M14.928-11.354a5.537,5.537,0,0,0,1.48-4.028,5.285,5.285,0,0,0-1.459-3.94,4.782,4.782,0,0,0-3.483-1.448A4.72,4.72,0,0,0,7.994-19.3a5.4,5.4,0,0,0-1.459,3.984,5.455,5.455,0,0,0,1.459,3.995,4.689,4.689,0,0,0,3.462,1.48A4.682,4.682,0,0,0,14.928-11.354ZM12.2-23.687a7.159,7.159,0,0,1,5.443,2.319,8.381,8.381,0,0,1,2.188,6.009,8.576,8.576,0,0,1-2.2,6.063A7.085,7.085,0,0,1,12.2-6.924a6.261,6.261,0,0,1-3.364-.893,6.626,6.626,0,0,1-2.3-2.406V.532H3.172V-23.426H6.535v2.885a6.3,6.3,0,0,1,2.286-2.275A6.458,6.458,0,0,1,12.2-23.687Zm0,0" transform="translate(-3.172 23.688)" fill="#fffefe"/>
      </g>
    </g>
    <g id="Group_12619" data-name="Group 12619" transform="translate(-3209.574 5070.402)">
      <g id="Group_12618" data-name="Group 12618" transform="translate(0 0)">
        <path id="Path_71630" data-name="Path 71630" d="M9.52-6.924a7.611,7.611,0,0,1-5.747-2.3,8.41,8.41,0,0,1-2.21-6.1A8.288,8.288,0,0,1,3.8-21.4,7.753,7.753,0,0,1,9.6-23.687a7.821,7.821,0,0,1,5.758,2.2,7.684,7.684,0,0,1,2.221,5.726,9.91,9.91,0,0,1-.12,1.589H5.013a4.653,4.653,0,0,0,1.372,3.233A4.368,4.368,0,0,0,9.52-9.754a3.96,3.96,0,0,0,3.864-2.264h3.625A7.284,7.284,0,0,1,14.32-8.35,7.869,7.869,0,0,1,9.52-6.924Zm4.539-9.546a4.209,4.209,0,0,0-1.328-3.2,4.488,4.488,0,0,0-3.157-1.2,4.312,4.312,0,0,0-3.1,1.2,4.829,4.829,0,0,0-1.426,3.2Zm0,0" transform="translate(-1.563 23.688)" fill="#fffefe"/>
      </g>
    </g>
    <g id="Group_12621" data-name="Group 12621" transform="translate(-3191.385 5070.402)">
      <g id="Group_12620" data-name="Group 12620" transform="translate(0 0)">
        <path id="Path_71631" data-name="Path 71631" d="M9.52-6.924a7.611,7.611,0,0,1-5.747-2.3,8.4,8.4,0,0,1-2.21-6.085,8.385,8.385,0,0,1,2.221-6.085,7.651,7.651,0,0,1,5.737-2.3,8.07,8.07,0,0,1,4.877,1.4A6.863,6.863,0,0,1,17.009-18.3H13.384A3.7,3.7,0,0,0,9.52-20.868,4.068,4.068,0,0,0,6.232-19.4a6.187,6.187,0,0,0-1.219,4.082,6.224,6.224,0,0,0,1.219,4.093A4.068,4.068,0,0,0,9.52-9.754a3.736,3.736,0,0,0,3.864-2.558h3.625a7.255,7.255,0,0,1-2.656,3.93A7.8,7.8,0,0,1,9.52-6.924Zm0,0" transform="translate(-1.563 23.688)" fill="#fffefe"/>
      </g>
    </g>
    <g id="Group_12623" data-name="Group 12623" transform="translate(-3173.022 5064.209)">
      <g id="Group_12622" data-name="Group 12622" transform="translate(0 0)">
        <path id="Path_71632" data-name="Path 71632" d="M6.809-30.423a2.069,2.069,0,0,1-.62,1.524,2.073,2.073,0,0,1-1.524.62,2.057,2.057,0,0,1-1.513-.62,2.069,2.069,0,0,1-.62-1.524,2.085,2.085,0,0,1,.62-1.535,2.057,2.057,0,0,1,1.513-.62,2.073,2.073,0,0,1,1.524.62A2.085,2.085,0,0,1,6.809-30.423ZM2.978-9.882V-26.123H6.341V-9.882Zm0,0" transform="translate(-2.531 32.578)" fill="#fffefe"/>
      </g>
    </g>
    <g id="Group_12625" data-name="Group 12625" transform="translate(-3165.914 5070.402)">
      <g id="Group_12624" data-name="Group 12624" transform="translate(0 0)">
        <path id="Path_71633" data-name="Path 71633" d="M13.395-11.322a5.439,5.439,0,0,0,1.47-3.995,5.383,5.383,0,0,0-1.47-3.984,4.718,4.718,0,0,0-3.462-1.47,4.751,4.751,0,0,0-3.462,1.448,5.274,5.274,0,0,0-1.459,3.94,5.57,5.57,0,0,0,1.459,4.028A4.641,4.641,0,0,0,9.933-9.841,4.7,4.7,0,0,0,13.395-11.322Zm-4.169,4.4A7.147,7.147,0,0,1,3.772-9.3a8.535,8.535,0,0,1-2.21-6.063,8.353,8.353,0,0,1,2.2-6.009,7.222,7.222,0,0,1,5.464-2.319,6.471,6.471,0,0,1,3.374.871,6.174,6.174,0,0,1,2.264,2.275v-2.885H18.25V-7.185H14.864v-3.037a6.48,6.48,0,0,1-2.275,2.406A6.274,6.274,0,0,1,9.226-6.924Zm0,0" transform="translate(-1.563 23.688)" fill="#fffefe"/>
      </g>
    </g>
    <g id="Group_12627" data-name="Group 12627" transform="translate(-3144.805 5065.09)">
      <g id="Group_12626" data-name="Group 12626" transform="translate(0 0)">
        <path id="Path_71634" data-name="Path 71634" d="M3.172-9.5V-31.312H6.535V-9.5Zm0,0" transform="translate(-3.172 31.313)" fill="#fffefe"/>
      </g>
    </g>
    <g id="Group_12629" data-name="Group 12629" transform="translate(-3137.469 5064.209)">
      <g id="Group_12628" data-name="Group 12628" transform="translate(0 0)">
        <path id="Path_71635" data-name="Path 71635" d="M6.809-30.423a2.069,2.069,0,0,1-.62,1.524,2.073,2.073,0,0,1-1.524.62,2.057,2.057,0,0,1-1.513-.62,2.069,2.069,0,0,1-.62-1.524,2.085,2.085,0,0,1,.62-1.535,2.057,2.057,0,0,1,1.513-.62,2.073,2.073,0,0,1,1.524.62A2.085,2.085,0,0,1,6.809-30.423ZM2.978-9.882V-26.123H6.341V-9.882Zm0,0" transform="translate(-2.531 32.578)" fill="#fffefe"/>
      </g>
    </g>
    <g id="Group_12631" data-name="Group 12631" transform="translate(-3130.002 5070.402)">
      <g id="Group_12630" data-name="Group 12630" transform="translate(0 0)">
        <path id="Path_71636" data-name="Path 71636" d="M2.1-18.767a4.361,4.361,0,0,1,1.742-3.494,6.987,6.987,0,0,1,4.572-1.426,6.751,6.751,0,0,1,4.5,1.4,5.06,5.06,0,0,1,1.785,3.81H11.244a2.687,2.687,0,0,0-.838-1.883,3.02,3.02,0,0,0-2.112-.686,3.344,3.344,0,0,0-2.123.61,1.921,1.921,0,0,0-.762,1.589,1.728,1.728,0,0,0,.969,1.557,7.52,7.52,0,0,0,2.373.816q1.4.261,2.8.653a5.043,5.043,0,0,1,2.373,1.4,3.75,3.75,0,0,1,.98,2.721,4.113,4.113,0,0,1-1.785,3.451A7.537,7.537,0,0,1,8.522-6.924a7.189,7.189,0,0,1-4.539-1.35,5.1,5.1,0,0,1-1.9-3.864H5.551a2.629,2.629,0,0,0,.882,1.894A3.251,3.251,0,0,0,8.6-9.569a3.569,3.569,0,0,0,2.177-.6,1.911,1.911,0,0,0,.816-1.611,1.728,1.728,0,0,0-.969-1.567,7.972,7.972,0,0,0-2.373-.838q-1.4-.282-2.808-.653a5.17,5.17,0,0,1-2.373-1.339A3.49,3.49,0,0,1,2.1-18.767Zm0,0" transform="translate(-2.078 23.688)" fill="#fffefe"/>
      </g>
    </g>
    <g id="Group_12633" data-name="Group 12633" transform="translate(-3114.88 5066.625)">
      <g id="Group_12632" data-name="Group 12632" transform="translate(0 0)">
        <path id="Path_71637" data-name="Path 71637" d="M10.44-22.328H6.489v8.991a1.748,1.748,0,0,0,.425,1.317,2.18,2.18,0,0,0,1.47.392H10.44v2.8H7.784Q3.1-8.83,3.1-13.337v-8.991H1.188v-2.743H3.1v-4.038H6.489v4.038H10.44Zm0,0" transform="translate(-1.188 29.109)" fill="#fffefe"/>
      </g>
    </g>
    <g id="Group_12635" data-name="Group 12635" transform="translate(-3222.31 5102.465)">
      <g id="Group_12634" data-name="Group 12634" transform="translate(0 0)">
        <path id="Path_71638" data-name="Path 71638" d="M9.52-6.924a7.611,7.611,0,0,1-5.747-2.3,8.4,8.4,0,0,1-2.21-6.085,8.385,8.385,0,0,1,2.221-6.085,7.651,7.651,0,0,1,5.737-2.3,8.07,8.07,0,0,1,4.877,1.4A6.863,6.863,0,0,1,17.009-18.3H13.384A3.7,3.7,0,0,0,9.52-20.868,4.068,4.068,0,0,0,6.232-19.4a6.187,6.187,0,0,0-1.219,4.082,6.224,6.224,0,0,0,1.219,4.093A4.068,4.068,0,0,0,9.52-9.754a3.736,3.736,0,0,0,3.864-2.558h3.625a7.255,7.255,0,0,1-2.656,3.93A7.8,7.8,0,0,1,9.52-6.924Zm0,0" transform="translate(-1.563 23.688)" fill="#fffefe"/>
      </g>
    </g>
    <g id="Group_12637" data-name="Group 12637" transform="translate(-3203.501 5097.153)">
      <g id="Group_12636" data-name="Group 12636" transform="translate(0 0)">
        <path id="Path_71639" data-name="Path 71639" d="M3.172-9.5V-31.312H6.535V-9.5Zm0,0" transform="translate(-3.172 31.313)" fill="#fffefe"/>
      </g>
    </g>
    <g id="Group_12639" data-name="Group 12639" transform="translate(-3196.164 5096.271)">
      <g id="Group_12638" data-name="Group 12638" transform="translate(0 0)">
        <path id="Path_71640" data-name="Path 71640" d="M6.809-30.423a2.069,2.069,0,0,1-.62,1.524,2.073,2.073,0,0,1-1.524.62,2.057,2.057,0,0,1-1.513-.62,2.069,2.069,0,0,1-.62-1.524,2.085,2.085,0,0,1,.62-1.535,2.057,2.057,0,0,1,1.513-.62,2.073,2.073,0,0,1,1.524.62A2.085,2.085,0,0,1,6.809-30.423ZM2.978-9.882V-26.123H6.341V-9.882Zm0,0" transform="translate(-2.531 32.578)" fill="#fffefe"/>
      </g>
    </g>
    <g id="Group_12641" data-name="Group 12641" transform="translate(-3187.935 5102.465)">
      <g id="Group_12640" data-name="Group 12640" transform="translate(0 0)">
        <path id="Path_71641" data-name="Path 71641" d="M6.535-23.426v2.558a5.537,5.537,0,0,1,5.181-2.819,6.062,6.062,0,0,1,4.528,1.829,6.971,6.971,0,0,1,1.785,5.094v9.579H14.7v-9.078a4.728,4.728,0,0,0-1.089-3.342,3.888,3.888,0,0,0-2.983-1.165,3.941,3.941,0,0,0-2.993,1.165,4.682,4.682,0,0,0-1.1,3.342v9.078H3.172V-23.426Zm0,0" transform="translate(-3.172 23.688)" fill="#fffefe"/>
      </g>
    </g>
    <g id="Group_12643" data-name="Group 12643" transform="translate(-3169.249 5096.271)">
      <g id="Group_12642" data-name="Group 12642" transform="translate(0 0)">
        <path id="Path_71642" data-name="Path 71642" d="M6.809-30.423a2.069,2.069,0,0,1-.62,1.524,2.073,2.073,0,0,1-1.524.62,2.057,2.057,0,0,1-1.513-.62,2.069,2.069,0,0,1-.62-1.524,2.085,2.085,0,0,1,.62-1.535,2.057,2.057,0,0,1,1.513-.62,2.073,2.073,0,0,1,1.524.62A2.085,2.085,0,0,1,6.809-30.423ZM2.978-9.882V-26.123H6.341V-9.882Zm0,0" transform="translate(-2.531 32.578)" fill="#fffefe"/>
      </g>
    </g>
    <g id="Group_12645" data-name="Group 12645" transform="translate(-3162.141 5102.465)">
      <g id="Group_12644" data-name="Group 12644" transform="translate(0 0)">
        <path id="Path_71643" data-name="Path 71643" d="M9.52-6.924a7.611,7.611,0,0,1-5.747-2.3,8.4,8.4,0,0,1-2.21-6.085,8.385,8.385,0,0,1,2.221-6.085,7.651,7.651,0,0,1,5.737-2.3,8.07,8.07,0,0,1,4.877,1.4A6.863,6.863,0,0,1,17.009-18.3H13.384A3.7,3.7,0,0,0,9.52-20.868,4.068,4.068,0,0,0,6.232-19.4a6.187,6.187,0,0,0-1.219,4.082,6.224,6.224,0,0,0,1.219,4.093A4.068,4.068,0,0,0,9.52-9.754a3.736,3.736,0,0,0,3.864-2.558h3.625a7.255,7.255,0,0,1-2.656,3.93A7.8,7.8,0,0,1,9.52-6.924Zm0,0" transform="translate(-1.563 23.688)" fill="#fffefe"/>
      </g>
    </g>
    <g id="Group_12647" data-name="Group 12647" transform="translate(-3144.094 5102.465)">
      <g id="Group_12646" data-name="Group 12646" transform="translate(0 0)">
        <path id="Path_71644" data-name="Path 71644" d="M2.1-18.767a4.361,4.361,0,0,1,1.742-3.494,6.987,6.987,0,0,1,4.572-1.426,6.751,6.751,0,0,1,4.5,1.4,5.06,5.06,0,0,1,1.785,3.81H11.244a2.687,2.687,0,0,0-.838-1.883,3.02,3.02,0,0,0-2.112-.686,3.344,3.344,0,0,0-2.123.61,1.921,1.921,0,0,0-.762,1.589,1.728,1.728,0,0,0,.969,1.557,7.52,7.52,0,0,0,2.373.816q1.4.261,2.8.653a5.043,5.043,0,0,1,2.373,1.4,3.75,3.75,0,0,1,.98,2.721,4.113,4.113,0,0,1-1.785,3.451A7.537,7.537,0,0,1,8.522-6.924a7.189,7.189,0,0,1-4.539-1.35,5.1,5.1,0,0,1-1.9-3.864H5.551a2.629,2.629,0,0,0,.882,1.894A3.251,3.251,0,0,0,8.6-9.569a3.569,3.569,0,0,0,2.177-.6,1.911,1.911,0,0,0,.816-1.611,1.728,1.728,0,0,0-.969-1.567,7.972,7.972,0,0,0-2.373-.838q-1.4-.282-2.808-.653a5.17,5.17,0,0,1-2.373-1.339A3.49,3.49,0,0,1,2.1-18.767Zm0,0" transform="translate(-2.078 23.688)" fill="#fffefe"/>
      </g>
    </g>
    <g id="Group_12649" data-name="Group 12649" transform="translate(-3245.702 4958.713)">
      <g id="Group_12648" data-name="Group 12648" transform="translate(0 0)">
        <path id="Path_71645" data-name="Path 71645" d="M12.221-43.015a6.569,6.569,0,0,0,1.546,4.463,5.588,5.588,0,0,0,4.441,1.774A5.842,5.842,0,0,0,22.65-38.4,6.4,6.4,0,0,0,24.2-42.971a6.412,6.412,0,0,0-1.6-4.615,5.786,5.786,0,0,0-4.387-1.676,5.593,5.593,0,0,0-4.387,1.785A6.418,6.418,0,0,0,12.221-43.015Zm6.553,20.269a5,5,0,0,0,4.67-2.525q1.47-2.523,1.47-8.512a7.662,7.662,0,0,1-3.222,2.221,12.16,12.16,0,0,1-4.463.816,12.327,12.327,0,0,1-8.643-3.037q-3.323-3.045-3.32-8.85t3.4-9.209q3.4-3.4,9.3-3.407,7.368,0,10.341,4.779T31.271-35.9q0,9.8-2.765,14.467t-10.189,4.67q-5.837,0-8.828-3.091A11.647,11.647,0,0,1,6.245-27.59h6.705Q13.775-22.745,18.774-22.746Zm0,0" transform="translate(-5.266 55.25)" fill="#fffefe"/>
      </g>
    </g>
    <g id="Group_12651" data-name="Group 12651" transform="translate(-3213.096 4958.659)">
      <g id="Group_12650" data-name="Group 12650" transform="translate(0 0)">
        <path id="Path_71646" data-name="Path 71646" d="M24.519-29.084a7.043,7.043,0,0,0-1.546-4.7,5.521,5.521,0,0,0-4.463-1.829,6.722,6.722,0,0,0-4.724,1.655,5.949,5.949,0,0,0-1.807,4.637,6.479,6.479,0,0,0,1.807,4.8,6.31,6.31,0,0,0,4.67,1.807,5.734,5.734,0,0,0,4.463-1.753A6.574,6.574,0,0,0,24.519-29.084ZM18.38-49.341a5.83,5.83,0,0,0-5.269,2.787q-1.755,2.788-1.8,8.926a8.472,8.472,0,0,1,3.712-2.993,12.282,12.282,0,0,1,4.953-1.034A11.207,11.207,0,0,1,28.34-38.4q3.2,3.257,3.2,8.98a12.747,12.747,0,0,1-3.309,9.187q-3.3,3.453-9.176,3.451-7.642,0-10.864-4.8t-3.222-14.6q0-19.145,13.509-19.147,5.421,0,8.414,2.917a12,12,0,0,1,3.56,7.25H23.746Q22.766-49.341,18.38-49.341Zm0,0" transform="translate(-4.969 55.328)" fill="#fffefe"/>
      </g>
    </g>
    <g id="Group_12653" data-name="Group 12653" transform="translate(-3181.677 4960.574)">
      <g id="Group_12652" data-name="Group 12652" transform="translate(0 0)">
        <path id="Path_71647" data-name="Path 71647" d="M33.107-23.71q0-3.951-2.9-3.951T27.327-23.71q0,3.943,2.885,3.94T33.107-23.71Zm-2.841,8.273a8.2,8.2,0,0,1-5.9-2.188,8.019,8.019,0,0,1-2.3-6.085,8,8,0,0,1,2.3-6.085,8.154,8.154,0,0,1,5.878-2.2,8.137,8.137,0,0,1,5.878,2.2,8.012,8.012,0,0,1,2.3,6.085,8.068,8.068,0,0,1-2.275,6.085A8.108,8.108,0,0,1,30.266-15.437ZM6.9-15.949,27.12-52.067H34.2L13.916-15.949Zm6.869-28.345q0-3.951-2.917-3.951T7.929-44.294q0,3.943,2.917,3.94T13.764-44.294Zm-8.8,6.052a8.064,8.064,0,0,1-2.3-6.085,7.972,7.972,0,0,1,2.3-6.063,8.17,8.17,0,0,1,5.878-2.188,8.179,8.179,0,0,1,5.878,2.188,7.982,7.982,0,0,1,2.3,6.063,8.113,8.113,0,0,1-2.275,6.085,8.041,8.041,0,0,1-5.878,2.221A8.132,8.132,0,0,1,4.969-38.242Zm0,0" transform="translate(-2.672 52.578)" fill="#fffefe"/>
      </g>
    </g>
    <g id="Group_12655" data-name="Group 12655" transform="translate(-3049.922 5029.98)">
      <g id="Group_12654" data-name="Group 12654" transform="translate(0 0)">
        <path id="Path_71648" data-name="Path 71648" d="M12.221-43.015a6.569,6.569,0,0,0,1.546,4.463,5.588,5.588,0,0,0,4.441,1.774A5.842,5.842,0,0,0,22.65-38.4,6.4,6.4,0,0,0,24.2-42.971a6.412,6.412,0,0,0-1.6-4.615,5.786,5.786,0,0,0-4.387-1.676,5.593,5.593,0,0,0-4.387,1.785A6.418,6.418,0,0,0,12.221-43.015Zm6.553,20.269a5,5,0,0,0,4.67-2.525q1.47-2.523,1.47-8.512a7.662,7.662,0,0,1-3.222,2.221,12.16,12.16,0,0,1-4.463.816,12.327,12.327,0,0,1-8.643-3.037q-3.323-3.045-3.32-8.85t3.4-9.209q3.4-3.4,9.3-3.407,7.368,0,10.341,4.779T31.271-35.9q0,9.8-2.765,14.467t-10.189,4.67q-5.837,0-8.828-3.091A11.647,11.647,0,0,1,6.245-27.59h6.705Q13.775-22.745,18.774-22.746Zm0,0" transform="translate(-5.266 55.25)" fill="#fffefe"/>
      </g>
    </g>
    <g id="Group_12657" data-name="Group 12657" transform="translate(-3018.296 5031.319)">
      <g id="Group_12656" data-name="Group 12656" transform="translate(0 0)">
        <path id="Path_71649" data-name="Path 71649" d="M22.024-29.794V-45.48L11.7-29.794Zm-.457,13.618V-23.5h-18v-5.671L20.38-53.328h8.4v23.534h4.55V-23.5h-4.55v7.326Zm0,0" transform="translate(-3.563 53.328)" fill="#fffefe"/>
      </g>
    </g>
    <g id="Group_12659" data-name="Group 12659" transform="translate(-2984.814 5031.841)">
      <g id="Group_12658" data-name="Group 12658" transform="translate(0 0)">
        <path id="Path_71650" data-name="Path 71650" d="M33.107-23.71q0-3.951-2.9-3.951T27.327-23.71q0,3.943,2.885,3.94T33.107-23.71Zm-2.841,8.273a8.2,8.2,0,0,1-5.9-2.188,8.019,8.019,0,0,1-2.3-6.085,8,8,0,0,1,2.3-6.085,8.154,8.154,0,0,1,5.878-2.2,8.137,8.137,0,0,1,5.878,2.2,8.012,8.012,0,0,1,2.3,6.085,8.068,8.068,0,0,1-2.275,6.085A8.108,8.108,0,0,1,30.266-15.437ZM6.9-15.949,27.12-52.067H34.2L13.916-15.949Zm6.869-28.345q0-3.951-2.917-3.951T7.929-44.294q0,3.943,2.917,3.94T13.764-44.294Zm-8.8,6.052a8.064,8.064,0,0,1-2.3-6.085,7.972,7.972,0,0,1,2.3-6.063,8.17,8.17,0,0,1,5.878-2.188,8.179,8.179,0,0,1,5.878,2.188,7.982,7.982,0,0,1,2.3,6.063,8.113,8.113,0,0,1-2.275,6.085,8.041,8.041,0,0,1-5.878,2.221A8.132,8.132,0,0,1,4.969-38.242Zm0,0" transform="translate(-2.672 52.578)" fill="#fffefe"/>
      </g>
    </g>
    <g id="Group_12661" data-name="Group 12661" transform="translate(-2996.626 5221.374)">
      <g id="Group_12660" data-name="Group 12660" transform="translate(0 0)">
        <path id="Path_71651" data-name="Path 71651" d="M12.221-43.015a6.569,6.569,0,0,0,1.546,4.463,5.588,5.588,0,0,0,4.441,1.774A5.842,5.842,0,0,0,22.65-38.4,6.4,6.4,0,0,0,24.2-42.971a6.412,6.412,0,0,0-1.6-4.615,5.786,5.786,0,0,0-4.387-1.676,5.593,5.593,0,0,0-4.387,1.785A6.418,6.418,0,0,0,12.221-43.015Zm6.553,20.269a5,5,0,0,0,4.67-2.525q1.47-2.523,1.47-8.512a7.662,7.662,0,0,1-3.222,2.221,12.16,12.16,0,0,1-4.463.816,12.327,12.327,0,0,1-8.643-3.037q-3.323-3.045-3.32-8.85t3.4-9.209q3.4-3.4,9.3-3.407,7.368,0,10.341,4.779T31.271-35.9q0,9.8-2.765,14.467t-10.189,4.67q-5.837,0-8.828-3.091A11.647,11.647,0,0,1,6.245-27.59h6.705Q13.775-22.745,18.774-22.746Zm0,0" transform="translate(-5.266 55.25)" fill="#fffefe"/>
      </g>
    </g>
    <g id="Group_12663" data-name="Group 12663" transform="translate(-2964.75 5222.353)">
      <g id="Group_12662" data-name="Group 12662" transform="translate(0 0)">
        <path id="Path_71652" data-name="Path 71652" d="M3.922-35.132q0-18.712,13.9-18.712T31.734-35.132q0,18.7-13.911,18.7T3.922-35.132Zm16.97-11.332a6.46,6.46,0,0,0-3.037-.675,6.514,6.514,0,0,0-3.048.675,5.2,5.2,0,0,0-1.981,1.7,8.488,8.488,0,0,0-1.11,2.71,20.575,20.575,0,0,0-.544,3.233q-.131,1.547-.131,3.657t.131,3.668a20.5,20.5,0,0,0,.544,3.222,8.708,8.708,0,0,0,1.11,2.732,5.179,5.179,0,0,0,1.981,1.731,6.58,6.58,0,0,0,3.048.664,6.526,6.526,0,0,0,3.037-.664,5.194,5.194,0,0,0,1.992-1.731,8.839,8.839,0,0,0,1.11-2.732,20.821,20.821,0,0,0,.544-3.222q.131-1.555.131-3.668t-.131-3.657a20.9,20.9,0,0,0-.544-3.233,8.614,8.614,0,0,0-1.11-2.71A5.217,5.217,0,0,0,20.892-46.463Zm0,0" transform="translate(-3.922 53.844)" fill="#fffefe"/>
      </g>
    </g>
    <g id="Group_12665" data-name="Group 12665" transform="translate(-2932.292 5223.235)">
      <g id="Group_12664" data-name="Group 12664" transform="translate(0 0)">
        <path id="Path_71653" data-name="Path 71653" d="M33.107-23.71q0-3.951-2.9-3.951T27.327-23.71q0,3.943,2.885,3.94T33.107-23.71Zm-2.841,8.273a8.2,8.2,0,0,1-5.9-2.188,8.019,8.019,0,0,1-2.3-6.085,8,8,0,0,1,2.3-6.085,8.154,8.154,0,0,1,5.878-2.2,8.137,8.137,0,0,1,5.878,2.2,8.012,8.012,0,0,1,2.3,6.085,8.068,8.068,0,0,1-2.275,6.085A8.108,8.108,0,0,1,30.266-15.437ZM6.9-15.949,27.12-52.067H34.2L13.916-15.949Zm6.869-28.345q0-3.951-2.917-3.951T7.929-44.294q0,3.943,2.917,3.94T13.764-44.294Zm-8.8,6.052a8.064,8.064,0,0,1-2.3-6.085,7.972,7.972,0,0,1,2.3-6.063,8.17,8.17,0,0,1,5.878-2.188,8.179,8.179,0,0,1,5.878,2.188,7.982,7.982,0,0,1,2.3,6.063,8.113,8.113,0,0,1-2.275,6.085,8.041,8.041,0,0,1-5.878,2.221A8.132,8.132,0,0,1,4.969-38.242Zm0,0" transform="translate(-2.672 52.578)" fill="#fffefe"/>
      </g>
    </g>
    <g id="Group_12667" data-name="Group 12667" transform="translate(-3237.637 5178.168)">
      <g id="Group_12666" data-name="Group 12666" transform="translate(0 0)">
        <path id="Path_71654" data-name="Path 71654" d="M8.21-15.949V-45.927H2.734v-6.651h12.9v36.629Zm0,0" transform="translate(-2.734 52.578)" fill="#fffefe"/>
      </g>
    </g>
    <g id="Group_12669" data-name="Group 12669" transform="translate(-3217.05 5177.287)">
      <g id="Group_12668" data-name="Group 12668" transform="translate(0 0)">
        <path id="Path_71655" data-name="Path 71655" d="M3.922-35.132q0-18.712,13.9-18.712T31.734-35.132q0,18.7-13.911,18.7T3.922-35.132Zm16.97-11.332a6.46,6.46,0,0,0-3.037-.675,6.514,6.514,0,0,0-3.048.675,5.2,5.2,0,0,0-1.981,1.7,8.488,8.488,0,0,0-1.11,2.71,20.575,20.575,0,0,0-.544,3.233q-.131,1.547-.131,3.657t.131,3.668a20.5,20.5,0,0,0,.544,3.222,8.708,8.708,0,0,0,1.11,2.732,5.179,5.179,0,0,0,1.981,1.731,6.58,6.58,0,0,0,3.048.664,6.526,6.526,0,0,0,3.037-.664,5.194,5.194,0,0,0,1.992-1.731,8.839,8.839,0,0,0,1.11-2.732,20.821,20.821,0,0,0,.544-3.222q.131-1.555.131-3.668t-.131-3.657a20.9,20.9,0,0,0-.544-3.233,8.614,8.614,0,0,0-1.11-2.71A5.217,5.217,0,0,0,20.892-46.463Zm0,0" transform="translate(-3.922 53.844)" fill="#fffefe"/>
      </g>
    </g>
    <g id="Group_12671" data-name="Group 12671" transform="translate(-3183.721 5177.287)">
      <g id="Group_12670" data-name="Group 12670" transform="translate(0 0)">
        <path id="Path_71656" data-name="Path 71656" d="M3.922-35.132q0-18.712,13.9-18.712T31.734-35.132q0,18.7-13.911,18.7T3.922-35.132Zm16.97-11.332a6.46,6.46,0,0,0-3.037-.675,6.514,6.514,0,0,0-3.048.675,5.2,5.2,0,0,0-1.981,1.7,8.488,8.488,0,0,0-1.11,2.71,20.575,20.575,0,0,0-.544,3.233q-.131,1.547-.131,3.657t.131,3.668a20.5,20.5,0,0,0,.544,3.222,8.708,8.708,0,0,0,1.11,2.732,5.179,5.179,0,0,0,1.981,1.731,6.58,6.58,0,0,0,3.048.664,6.526,6.526,0,0,0,3.037-.664,5.194,5.194,0,0,0,1.992-1.731,8.839,8.839,0,0,0,1.11-2.732,20.821,20.821,0,0,0,.544-3.222q.131-1.555.131-3.668t-.131-3.657a20.9,20.9,0,0,0-.544-3.233,8.614,8.614,0,0,0-1.11-2.71A5.217,5.217,0,0,0,20.892-46.463Zm0,0" transform="translate(-3.922 53.844)" fill="#fffefe"/>
      </g>
    </g>
    <g id="Group_12673" data-name="Group 12673" transform="translate(-3151.263 5178.168)">
      <g id="Group_12672" data-name="Group 12672" transform="translate(0 0)">
        <path id="Path_71657" data-name="Path 71657" d="M33.107-23.71q0-3.951-2.9-3.951T27.327-23.71q0,3.943,2.885,3.94T33.107-23.71Zm-2.841,8.273a8.2,8.2,0,0,1-5.9-2.188,8.019,8.019,0,0,1-2.3-6.085,8,8,0,0,1,2.3-6.085,8.154,8.154,0,0,1,5.878-2.2,8.137,8.137,0,0,1,5.878,2.2,8.012,8.012,0,0,1,2.3,6.085,8.068,8.068,0,0,1-2.275,6.085A8.108,8.108,0,0,1,30.266-15.437ZM6.9-15.949,27.12-52.067H34.2L13.916-15.949Zm6.869-28.345q0-3.951-2.917-3.951T7.929-44.294q0,3.943,2.917,3.94T13.764-44.294Zm-8.8,6.052a8.064,8.064,0,0,1-2.3-6.085,7.972,7.972,0,0,1,2.3-6.063,8.17,8.17,0,0,1,5.878-2.188,8.179,8.179,0,0,1,5.878,2.188,7.982,7.982,0,0,1,2.3,6.063,8.113,8.113,0,0,1-2.275,6.085,8.041,8.041,0,0,1-5.878,2.221A8.132,8.132,0,0,1,4.969-38.242Zm0,0" transform="translate(-2.672 52.578)" fill="#fffefe"/>
      </g>
    </g>
  </g>
</svg>
