<svg xmlns="http://www.w3.org/2000/svg" width="160" height="160" viewBox="0 0 160 160">
  <g id="Artboard_7" data-name="Artboard 7" transform="translate(-5 -5)">
    <circle id="Ellipse_503" data-name="Ellipse 503" cx="80" cy="80" r="80" transform="translate(5 5)" fill="#2d76bc"/>
    <path id="Path_71715" data-name="Path 71715" d="M106.68,72.73a2.1,2.1,0,0,0-1.49-.62h0a2.105,2.105,0,0,0,.01,4.21h0a2.11,2.11,0,0,0,1.49-3.59Zm-1.49,2.21a.72.72,0,0,1-.73-.73.73.73,0,0,1,.73-.72h0a.73.73,0,0,1,0,1.45ZM105.19,72.36Z" fill="#fff"/>
    <path id="Path_71716" data-name="Path 71716" d="M109.32,74.05a4.2,4.2,0,0,0-4.13-4,4.08,4.08,0,0,0-2.63,1,27.21,27.21,0,0,0-7.68-5.14,24.72,24.72,0,0,0-10.11-2.33c-.83,0-1.67.06-2.5.14a4.171,4.171,0,0,0,0-.79,4.93,4.93,0,0,0-1.59-3.45,5,5,0,0,0-8.32,3.44,5.21,5.21,0,0,0,1,3.39v.06a33.27,33.27,0,0,0-3.21,2.09,4.858,4.858,0,0,0-8.33,3.3,5.23,5.23,0,0,0,1,3.39l.72,1a26.89,26.89,0,0,0-2.91,11.59,24.1,24.1,0,0,0,48.2.1v-.11a33.84,33.84,0,0,0-1.55-9.28l1.14-1.52a4.25,4.25,0,0,0,.9-2.88ZM82.06,82.27h0A3.36,3.36,0,0,1,85.42,79h.1a3.37,3.37,0,0,1,3.27,3.28,3.52,3.52,0,0,1-.72,2.34l-2.64,3.53-2.64-3.53A3.59,3.59,0,0,1,82.06,82.27Zm3.07-13.1a2.43,2.43,0,0,1-.08,2.91l-.76,1a1.65,1.65,0,0,1-1.29.63h-.21l-.87-.11a3.25,3.25,0,0,0-3.28,1.61,1.66,1.66,0,0,1-1.42.81H77l-2-.26a3.4,3.4,0,0,0-.45,0h0a3.41,3.41,0,0,0-2.84,1.51,3.08,3.08,0,0,0,0,3.36L73,82.68a2.88,2.88,0,0,0,3.76,1l1.37-.74a2.68,2.68,0,0,1,1.22-.26,3.1,3.1,0,0,1,1.14.19,5.33,5.33,0,0,0,1,2.68l3.28,4.39a.77.77,0,0,0,.63.32h0a.74.74,0,0,0,.45-.15.59.59,0,0,0,.18-.17l1.54-2.07.1.13.29.38,1.67,2a.71.71,0,0,1-.1,1l-2.53,2a4,4,0,0,0-1.47,2.11l-.85,2.74a1.42,1.42,0,0,1-.29.54l-.82,1a5,5,0,0,0-1.12,2.66,1.15,1.15,0,0,1-.71,1,.48.48,0,0,1-.18,0h0a.49.49,0,0,1-.46-.3.56.56,0,0,1,0-.12l-.77-4.64a3.71,3.71,0,0,0-.72-1.65L76.77,92.9a3.25,3.25,0,0,1-.53-1.07l-.93-3.38a3.73,3.73,0,0,0-2.58-2.57l-.21-.06a2.51,2.51,0,0,1-1-.58l-1.75-1.65a3.54,3.54,0,0,1-.68-.86,4.05,4.05,0,0,0-3.49-2,3.29,3.29,0,0,0-.73.07.27.27,0,0,0-.13,0l-1.49.48a25.7,25.7,0,0,1,1.42-3.78l1.49,2a.8.8,0,0,0,.64.31h0a.77.77,0,0,0,.48-.16l.15-.15,3.28-4.39a5.08,5.08,0,0,0,.49-5.41,31.389,31.389,0,0,1,3.24-2.09l2.28,3.06a.82.82,0,0,0,.63.32h0a.78.78,0,0,0,.48-.17,1.96,1.96,0,0,0,.15-.15l3.28-4.39a6,6,0,0,0,.57-.94l.61-.07h0ZM80,65.35l-2.64,3.54-2.64-3.53A3.61,3.61,0,0,1,74,63h0a3.36,3.36,0,0,1,3.36-3.26h.12A3.38,3.38,0,0,1,80.7,63,3.59,3.59,0,0,1,80,65.35ZM69.41,74.18l-2.64,3.54-2.64-3.53a3.61,3.61,0,0,1-.73-2.35h0a3.38,3.38,0,0,1,3.37-3.26h.11a3.37,3.37,0,0,1,3.26,3.26,3.52,3.52,0,0,1-.73,2.34Zm-6.65,9,2.36-.78a2.44,2.44,0,0,1,2.56,1.17,5.27,5.27,0,0,0,1,1.22l1.74,1.64a4,4,0,0,0,1.72,1l.19.06a2.11,2.11,0,0,1,1.47,1.47l.94,3.37a4.59,4.59,0,0,0,.8,1.61l2.83,3.72a2.14,2.14,0,0,1,.41,1l.77,4.64a2.08,2.08,0,0,0,2,1.75h0a2.14,2.14,0,0,0,.34,0,1.721,1.721,0,0,0,.47-.14,2.71,2.71,0,0,0,1.67-2.24,3.34,3.34,0,0,1,.76-1.81l.82-1a3,3,0,0,0,.59-1.08l.85-2.74A2.62,2.62,0,0,1,88,94.57l2.53-1.94a2.3,2.3,0,0,0,.39-3.25l-1.71-2A1.86,1.86,0,0,1,89,87.1l-.39-.53.73-1a5.1,5.1,0,0,0,1-3.39,5,5,0,0,0-9.77-.9,5.59,5.59,0,0,0-1.27-.16,4.25,4.25,0,0,0-2,.44l-1.3.73a1.27,1.27,0,0,1-1.67-.44L73,79.74a1.49,1.49,0,0,1,0-1.62,1.83,1.83,0,0,1,1.53-.81h0a.85.85,0,0,1,.23,0l2,.26A3.29,3.29,0,0,0,80,76a1.7,1.7,0,0,1,1.48-.85h.23l.87.11h.4A3.24,3.24,0,0,0,85.53,74l.77-1a4,4,0,0,0,.12-4.78l-2.15-3.1h.47a23.11,23.11,0,0,1,9.46,2.19A26.879,26.879,0,0,1,97,68.8l-1.68,2.87a2.6,2.6,0,0,0,.3,3,3.21,3.21,0,0,0,2,1.08h.31a1.44,1.44,0,0,1,1.21,1,1.39,1.39,0,0,1-.4,1.44L95.61,81a3.12,3.12,0,0,0-1.06,2.35v.74a2.73,2.73,0,0,0,1.26,2.31,1.32,1.32,0,0,1,.59,1l.07.74A2.52,2.52,0,0,0,99,90.41h1.86A4.07,4.07,0,0,0,104.57,88l.11-.25a1.28,1.28,0,0,1,1.14-.78h.65l.79-.08v.87a22.54,22.54,0,0,1-22.35,22.67h-.16A22.54,22.54,0,0,1,62.26,88a22.28,22.28,0,0,1,.5-4.85ZM101.05,74a4.39,4.39,0,0,0,.86,2.84l2.64,3.52a.79.79,0,0,0,.63.32h0a.87.87,0,0,0,.47-.15.85.85,0,0,0,.16-.17l.31-.42a36,36,0,0,1,1,5.27l-.77.08h-.59a2.86,2.86,0,0,0-2.52,1.73l-.11.25a2.5,2.5,0,0,1-2.27,1.49H99a1,1,0,0,1-1-.88v-.66a2.89,2.89,0,0,0-1.31-2.14,1.14,1.14,0,0,1-.54-1v-.74a1.54,1.54,0,0,1,.53-1.16l3.14-2.78a3.014,3.014,0,0,0-1.67-5.23h-.31a1.65,1.65,0,0,1-1-.56,1,1,0,0,1-.12-1.13l1.65-2.82a23.869,23.869,0,0,1,3.23,2.64,4.35,4.35,0,0,0-.55,1.7Zm4.14,4.56-2-2.67a2.74,2.74,0,0,1-.55-1.79,2.55,2.55,0,1,1,5.1,0,2.73,2.73,0,0,1-.55,1.78Z" fill="#fff"/>
    <path id="Path_71717" data-name="Path 71717" d="M85.43,84.26h0a2.1,2.1,0,0,0,0-4.2h0a2.1,2.1,0,1,0,.01,4.2Zm-.52-1.59a.68.68,0,0,1-.21-.51.72.72,0,0,1,.72-.72h0a.72.72,0,0,1,.72.72.68.68,0,0,1-.21.51.72.72,0,0,1-.51.22h0a.72.72,0,0,1-.51-.22Z" fill="#fff"/>
    <path id="Path_71718" data-name="Path 71718" d="M66.77,70h0a2.105,2.105,0,0,0,0,4.21h0a2.11,2.11,0,0,0,0-4.21Zm.72,2.11a.71.71,0,0,1-.21.51.68.68,0,0,1-.51.21h0a.725.725,0,1,1,.72-.75Z" fill="#fff"/>
    <path id="Path_71719" data-name="Path 71719" d="M77.32,60.83h0a2.1,2.1,0,0,0-1.49.62,2.107,2.107,0,0,0,1.49,3.59h0a2.11,2.11,0,0,0,2.09-2.11,2,2,0,0,0-.61-1.48,2.08,2.08,0,0,0-1.48-.62Zm.72,2.1a.72.72,0,0,1-.68.73h0a.725.725,0,1,1,0-1.45h0a.72.72,0,0,1,.64.72Z" fill="#fff"/>
    <path id="Path_71720" data-name="Path 71720" d="M83.06,44.21l1-1v9.33h1.86V43.19l1,1,1.54,1.54,1.31-1.31-4.13-4.13h0a.92.92,0,0,0-1.31,0L80.2,44.42l1.31,1.31Z" fill="#fff"/>
    <path id="Path_71721" data-name="Path 71721" d="M50.78,49.48H54V47.62H48.55a.94.94,0,0,0-.93.93V54h1.86V50.78l1,1,7.61,7.62,1.31-1.31-7.63-7.62Z" fill="#fff"/>
    <path id="Path_71722" data-name="Path 71722" d="M59.42,111.89l-1.31-1.32L50.5,118.2l-1,1V116H47.62v5.48a.93.93,0,0,0,.93.93H54v-1.85H50.79l1-1Z" fill="#fff"/>
    <path id="Path_71723" data-name="Path 71723" d="M120.52,119.21l-1-1-7.62-7.63-1.31,1.32,7.62,7.61,1,1H116v1.85h5.49a.93.93,0,0,0,.93-.93V116h-1.86Z" fill="#fff"/>
    <path id="Path_71724" data-name="Path 71724" d="M110.58,58.11l1.31,1.31,7.62-7.62,1-1V54h1.86V48.55a.94.94,0,0,0-.93-.93H116v1.86h3.25l-1,1Z" fill="#fff"/>
    <path id="Path_71725" data-name="Path 71725" d="M43.2,85.93H57.07V84.07H43.2l1-1,1.55-1.54-1.31-1.31L40.3,84.35h0a.92.92,0,0,0,0,1.3l4.14,4.14,1.31-1.31L44.2,86.94Z" fill="#fff"/>
    <path id="Path_71726" data-name="Path 71726" d="M86.94,125.79l-1,1v-9.32H84.07v9.32l-1-1-1.54-1.54-1.31,1.31,4.13,4.13h0a.92.92,0,0,0,1.31,0l4.13-4.14-1.31-1.3Z" fill="#fff"/>
    <path id="Path_71727" data-name="Path 71727" d="M129.69,84.34l-4.14-4.14-1.31,1.32,1.55,1.54,1,1H112.92v1.86h13.89l-1,1-1.55,1.54,1.32,1.31,4.13-4.14h0A.93.93,0,0,0,129.69,84.34Z" fill="#fff"/>
  </g>
</svg>
