<svg xmlns="http://www.w3.org/2000/svg" width="160" height="160" viewBox="0 0 160 160">
  <g id="Artboard_5" data-name="Artboard 5" transform="translate(-5 -5)">
    <circle id="Ellipse_501" data-name="Ellipse 501" cx="80" cy="80" r="80" transform="translate(5 5)" fill="#2d76bc"/>
    <g id="Smartway_team" data-name="Smartway team">
      <path id="Path_4002" data-name="Path 4002" d="M73.32,111.12a47.76,47.76,0,0,0-8.76-5.71l-.38-.2V99.72l.2-.2a3.84,3.84,0,0,0,1.11-2.69V90.27a6.8,6.8,0,0,0-6.8-6.79H57.28a6.8,6.8,0,0,0-6.79,6.79v6.55a3.77,3.77,0,0,0,1.11,2.69l.2.21v5.46l-.35.2c-.2.13-.42.26-.7.41a69.381,69.381,0,0,0-8.12,5.35,4,4,0,0,0-1.51,3.1v4.5a.9.9,0,0,0,.81,1,.91.91,0,0,0,1-.81v-4.67a2.2,2.2,0,0,1,.85-1.77,56.809,56.809,0,0,1,8.71-5.67l.35-.19h0a1.11,1.11,0,0,0,.6-1.06V99.26a.8.8,0,0,0-.41-.72h0a2,2,0,0,1-.85-1.69V90.27a5.07,5.07,0,0,1,5-5h1.4a5.07,5.07,0,0,1,5,5v6.55a2,2,0,0,1-.79,1.65,1.23,1.23,0,0,0-.42.88v6.28a1.07,1.07,0,0,0,.6,1,47.52,47.52,0,0,1,9.17,5.91,2.18,2.18,0,0,1,.81,1.76v4.49a.9.9,0,0,0,1.79,0V114.3a4.07,4.07,0,0,0-1.42-3.18Zm54.06,0a48.131,48.131,0,0,0-8.79-5.74l-.38-.2V99.72l.2-.2a3.76,3.76,0,0,0,1.11-2.7V90.27a6.79,6.79,0,0,0-6.79-6.79h-1.41a6.79,6.79,0,0,0-6.79,6.79v6.55a3.76,3.76,0,0,0,1.1,2.69l.21.21v5.45l-.33.2c-.29.19-.67.41-1.11.67a65.83,65.83,0,0,0-7.53,5.09,4,4,0,0,0-1.52,3.11v4.49a.9.9,0,0,0,.81,1,.91.91,0,0,0,1-.82v-4.66a2.18,2.18,0,0,1,.85-1.77,55.691,55.691,0,0,1,8.72-5.67l.34-.19h0a1.09,1.09,0,0,0,.6-1V99.26a.8.8,0,0,0-.41-.72h0a2,2,0,0,1-.85-1.69V90.27a5.07,5.07,0,0,1,5-5h1.4a5.07,5.07,0,0,1,5,5v6.55a2,2,0,0,1-.84,1.69h0a.82.82,0,0,0-.41.72v6.27a1.08,1.08,0,0,0,.61,1,47,47,0,0,1,9.16,5.91,2.17,2.17,0,0,1,.81,1.75v4.49a.9.9,0,1,0,1.79.17.48.48,0,0,0,0-.17v-4.49a3.88,3.88,0,0,0-1.5-3.09Zm-30-13.32a.73.73,0,0,0-.37-.47L86.62,91.44l-.35-.21V78.94a.89.89,0,0,0-.81-1,.9.9,0,0,0-1,.81V91.14l-.35.2-10.3,5.9a.87.87,0,0,0-.33,1.18h0v.16a.57.57,0,0,0,.55.44,2,2,0,0,0,.55-.13L84.94,93l.35-.2.34.2,10.3,5.89h0a.79.79,0,0,0,.45.07.85.85,0,0,0,.79-.45v-.07a.81.81,0,0,0,.09-.68Zm3.15-27.9a47.541,47.541,0,0,0-8.77-5.72L91.33,64V58.5l.21-.2a3.8,3.8,0,0,0,1.1-2.7V49.07a6.79,6.79,0,0,0-6.79-6.79H84.44a6.79,6.79,0,0,0-6.79,6.79v6.55a3.76,3.76,0,0,0,1.1,2.69l.21.21V64l-.39.19a48.1,48.1,0,0,0-8.76,5.71A4,4,0,0,0,68.29,73v4.49a1.05,1.05,0,0,0,1.08.9,1,1,0,0,0,.9-.9V73a2.21,2.21,0,0,1,.83-1.77,47.679,47.679,0,0,1,9.12-5.89,1.06,1.06,0,0,0,.63-1V58.06a.83.83,0,0,0-.41-.72h0a2,2,0,0,1-.84-1.69V49.07a5.06,5.06,0,0,1,5-5H86a5.07,5.07,0,0,1,5,5v6.55a2,2,0,0,1-.85,1.69h0a.81.81,0,0,0-.41.73V64.3a1.06,1.06,0,0,0,.6,1h0l.34.2a57.23,57.23,0,0,1,8.75,5.68,2.25,2.25,0,0,1,.81,1.76v4.49a.9.9,0,1,0,1.8,0h0V73.05a4,4,0,0,0-1.53-3.13Z" fill="#fff"/>
    </g>
  </g>
</svg>
