<svg xmlns="http://www.w3.org/2000/svg" width="160" height="160" viewBox="0 0 160 160">
  <g id="Artboard_2" data-name="Artboard 2" transform="translate(-5 -5)">
    <circle id="Ellipse_499" data-name="Ellipse 499" cx="80" cy="80" r="80" transform="translate(5 5)" fill="#2d76bc"/>
    <rect id="Rectangle_14635" data-name="Rectangle 14635" width="2" height="6.48" transform="translate(83.95 42.51)" fill="#fff"/>
    <rect id="Rectangle_14636" data-name="Rectangle 14636" width="2" height="6.48" transform="translate(66.88 48.635) rotate(-36)" fill="#fff"/>
    <rect id="Rectangle_14637" data-name="Rectangle 14637" width="2" height="6.48" transform="translate(56.66 63.637) rotate(-72)" fill="#fff"/>
    <rect id="Rectangle_14638" data-name="Rectangle 14638" width="6.48" height="2" transform="translate(56.596 79.867) rotate(-17.97)" fill="#fff"/>
    <rect id="Rectangle_14639" data-name="Rectangle 14639" width="2" height="6.48" transform="translate(106.242 79.97) rotate(-72)" fill="#fff"/>
    <rect id="Rectangle_14640" data-name="Rectangle 14640" width="6.48" height="2" transform="translate(106.297 63.941) rotate(-17.97)" fill="#fff"/>
    <rect id="Rectangle_14641" data-name="Rectangle 14641" width="6.48" height="2" transform="matrix(0.588, -0.809, 0.809, 0.588, 97.551, 52.821)" fill="#fff"/>
    <path id="Path_71708" data-name="Path 71708" d="M125.61,116.44l1.13-1.64c-.59-.41-13-8.71-33-3.36,17.58-8.82,31-3.52,31.13-3.46l.77-1.84c-.66-.28-14.54-5.82-33,3.57,15.37-12.28,29.57-9.89,29.73-9.85l.37-2c-.71-.13-15.44-2.66-31.49,10.35,12.47-15.2,26.86-15.82,27-15.82v-2c-.81,0-19.5.77-33.29,23.27C71.21,91.19,52.52,90.44,51.71,90.42l-.05,2c.17,0,14.56.62,27,15.82-16.06-13-30.79-10.48-31.5-10.35l.37,2c.16,0,14.34-2.47,29.74,9.86-18.42-9.4-32.31-3.86-33-3.58l.77,1.84c.15-.06,13.52-5.39,31.14,3.47-20-5.37-32.4,2.94-33,3.35l1.13,1.64c.15-.1,14.23-9.5,36.2-1.51H50l-3.6,6.49H77.3a7.79,7.79,0,0,0,6.77,6,6.73,6.73,0,0,0,.89,0,7.86,7.86,0,0,0,7.63-6.07h30.9l-3.59-6.49H89.41C111.33,107,125.46,116.34,125.61,116.44Zm-5.51,3H90.85l-.1.88a5.84,5.84,0,0,1-11.61,0l-.1-.88H49.8l1.38-2.49h67.54Z" fill="#fff"/>
    <path id="Path_71709" data-name="Path 71709" d="M90.28,75.45a5.61,5.61,0,0,0,6.18,3.68l-.33-2a2.88,2.88,0,0,1-.59,0,3.58,3.58,0,0,1-3-1.58,6,6,0,0,0,5.29-6h-2a4,4,0,0,1-4,4h0A4,4,0,0,1,89,72.49L87.6,73.9A5.92,5.92,0,0,0,90.28,75.45Z" fill="#fff"/>
    <path id="Path_71710" data-name="Path 71710" d="M90.47,91.15h2A4.16,4.16,0,0,1,96.63,87V85A6.16,6.16,0,0,0,90.47,91.15Z" fill="#fff"/>
    <path id="Path_71711" data-name="Path 71711" d="M66.41,82.5a5.28,5.28,0,0,0,1.3,3.84,4.27,4.27,0,0,0,.38.36,5.71,5.71,0,0,0,3.94,6,5.89,5.89,0,0,0,1.25.25A6.74,6.74,0,0,0,85,93.28,6.75,6.75,0,0,0,96.72,93,5.8,5.8,0,0,0,98,92.71a5.69,5.69,0,0,0,3.94-6,4.509,4.509,0,0,0,.39-.37,5.28,5.28,0,0,0,1.3-3.84,5.22,5.22,0,0,0-1.13-2.92A6,6,0,0,0,102,72a6,6,0,0,0-1.48-6.1,6.18,6.18,0,0,0-1.4-1.05A5.83,5.83,0,0,0,96,60.62a6,6,0,0,0-5.88-5.17H90a6,6,0,0,0-5,2.75,6,6,0,0,0-5-2.68h0a6,6,0,0,0-6,5.13,5.843,5.843,0,0,0-3.17,4.24,6.18,6.18,0,0,0-1.4,1.05,6,6,0,0,0-1.77,4.27A5.94,5.94,0,0,0,68,72a6,6,0,0,0-.42,7.58A5.22,5.22,0,0,0,66.41,82.5ZM86,61.42a4,4,0,0,1,4-4h.06A4,4,0,0,1,93.77,60a6,6,0,0,0-2.9.46l.79,1.84a4,4,0,0,1,5.17,1.88,4.71,4.71,0,0,0-.53,0h0a6,6,0,0,0-6,6h2a4,4,0,0,1,4-4h0a3.994,3.994,0,0,1,3.68,5.56,4.09,4.09,0,0,1-1.29,1.65l1.2,1.6a5.86,5.86,0,0,0,1.07-1,4.05,4.05,0,0,1,.6,1.8,4,4,0,0,1-1,2.93l-.13.15a4,4,0,0,1-2.92,1.26h0v2h0A6,6,0,0,0,101,81a3.26,3.26,0,0,1-.23,4,3.12,3.12,0,0,1-.46.43l.29.38-.31.14-.54.17v.07l-.14.06a2.669,2.669,0,0,1,.14.36h.09a3.67,3.67,0,0,1-2.5,4.19,3.45,3.45,0,0,1-1,.17l-.87-.35-.37.93A4.76,4.76,0,1,1,90.76,85V83A6.7,6.7,0,0,0,86,85V67a1.69,1.69,0,0,1,1.69-1.69v-2a3.59,3.59,0,0,0-1.69.43Zm-15.15,5.9a4,4,0,0,1,2.85-1.19h0a4,4,0,0,1,4,4h2A6,6,0,0,0,78,65.9a6.19,6.19,0,0,0-4.27-1.77,4.407,4.407,0,0,0-.52,0,4,4,0,0,1,5.16-1.88l.79-1.84a6.06,6.06,0,0,0-2.9-.41,4.15,4.15,0,0,1,.85-1.28A4,4,0,0,1,80,57.51h0a4,4,0,0,1,4,4v2.14a3.59,3.59,0,0,0-1.69-.43v2A1.69,1.69,0,0,1,84,67V85a6.72,6.72,0,0,0-4.76-2v2a4.76,4.76,0,1,1-4.42,6.54l-.37-.93-.87.35a3.32,3.32,0,0,1-.94-.17A3.73,3.73,0,0,1,70.47,89a3.68,3.68,0,0,1-.33-2.37h.09a3,3,0,0,1,.14-.36l-.15-.07v-.06l-.5-.14-.33-.15.29-.38a2.67,2.67,0,0,1-.46-.43,3.29,3.29,0,0,1-.81-2.39A3.36,3.36,0,0,1,69,81a6,6,0,0,0,3.44,1.08h0v-2h0a4,4,0,0,1-2.92-1.26l-.73.68.72-.69-.13-.14A4,4,0,0,1,69,73.94a5.86,5.86,0,0,0,1.07,1l1.2-1.6A4.09,4.09,0,0,1,70,71.73h0a4,4,0,0,1,.86-4.41Z" fill="#fff"/>
    <path id="Path_71712" data-name="Path 71712" d="M77.41,75.62a3.58,3.58,0,0,1-3,1.58,3,3,0,0,1-.6,0l-.32,2a5.61,5.61,0,0,0,6.18-3.68,6,6,0,0,0,2.69-1.55L81,72.49a4,4,0,0,1-2.84,1.18h0a4,4,0,0,1-4-4h-2a6,6,0,0,0,5.25,5.95Z" fill="#fff"/>
    <path id="Path_71713" data-name="Path 71713" d="M73.37,85v2a4.16,4.16,0,0,1,4.16,4.16h2A6.16,6.16,0,0,0,73.37,85Z" fill="#fff"/>
  </g>
</svg>
