<svg xmlns="http://www.w3.org/2000/svg" width="810" height="419.934" viewBox="0 0 810 419.934">
  <g id="Group_12417" data-name="Group 12417" transform="translate(-379 -1768)">
    <g id="Group_128" data-name="Group 128" transform="translate(380 1769)">
      <path id="Path_4461" data-name="Path 4461" d="M713.92,78.485a49.735,49.735,0,0,1,.657,6.158,29.535,29.535,0,0,1-.657,5.738c-.493,3.125,3.309,4.55,6.807,4.7,4.647.183,9.389-1.045,13.66-2.3,0,0,8.591-4.532,6.97,11.585-1.642,16.1-4.175,47.4-4.175,47.4H680.99c-20.208,0-14.88,5.428-14.88,5.428,1.619,3.325,3.192,7.016,2.957,10.634-.188,2.723-2.02,5.683-6.032,5.3a61.76,61.76,0,0,0-7.37-.511c-2.652.055-5.281.256-7.91.511-13.238,1.261-17.2-3.454-11.384-12.134,5.8-8.679-8.144-9.228-8.144-9.228H547.579V12.446H750.888l-8.846,50.836s-1.385,10.854-12.534,6.339S712.3,68.161,713.92,78.485Z" transform="translate(-547.579 -12.445)" fill="#00ada4" stroke="#fff" stroke-miterlimit="10" stroke-width="2"/>
      <path id="Path_4462" data-name="Path 4462" d="M1048.893,84.646a29.53,29.53,0,0,0,.657,5.738c.493,3.125-3.309,4.55-6.807,4.7-4.647.183-9.389-1.045-13.66-2.3,0,0-8.591-4.532-6.97,11.585,1.619,16.1,4.175,47.4,4.175,47.4h-83.04c-20.208,0-14.88-5.427-14.88-5.427,1.619-3.325,3.192-7.016,2.957-10.616-.188-2.741-2.02-5.7-6.032-5.317a61.758,61.758,0,0,1-7.37.53c-2.652-.055-5.281-.256-7.91-.512-13.262-1.261-17.2,3.436-11.384,12.115,5.8,8.7-8.142,9.225-8.142,9.225H809.532s2.536-31.3,4.175-47.4c1.62-16.117-6.97-11.585-6.97-11.585-4.271,1.261-9.013,2.485-13.66,2.3-3.5-.146-7.3-1.571-6.807-4.7a29.535,29.535,0,0,0,.657-5.738,49.476,49.476,0,0,0-.657-6.158c-1.62-10.324,4.436-13.394,15.585-8.862,11.148,4.513,12.534-6.339,12.534-6.339l8.846-50.836H1012.58l8.825,50.836s1.408,10.854,12.557,6.339c11.149-4.532,17.2-1.463,15.562,8.862A49.333,49.333,0,0,0,1048.893,84.646Z" transform="translate(-619.882 -12.445)" fill="#0078d2" stroke="#fff" stroke-miterlimit="10" stroke-width="2"/>
      <path id="Path_4463" data-name="Path 4463" d="M1307.606,78.485a49.712,49.712,0,0,1,.657,6.158,29.6,29.6,0,0,1-.68,5.738c-.469,3.125,3.309,4.55,6.83,4.7,4.624.183,9.365-1.045,13.636-2.3,0,0,8.614-4.532,6.971,11.585-1.619,16.1-4.175,47.4-4.175,47.4h-72.5c-20.208,0-14.857,5.428-14.857,5.428,1.619,3.325,3.192,7.016,2.934,10.634-.188,2.723-2,5.683-6.008,5.3a62.347,62.347,0,0,0-7.37-.511c-2.652.055-5.281.256-7.91.511-13.262,1.261-17.2-3.454-11.407-12.134,5.82-8.679-8.121-9.228-8.121-9.228H1125s-2.559-31.3-4.175-47.4c-1.619-16.117,6.97-11.585,6.97-11.585,4.271,1.261,9.013,2.485,13.66,2.3,3.5-.146,7.3-1.571,6.807-4.7a29.54,29.54,0,0,1-.657-5.738,48.971,48.971,0,0,1,.635-6.158c1.643-10.324-4.413-13.394-15.562-8.862-11.149,4.513-12.557-6.339-12.557-6.339L1111.3,12.446h233.251l-8.825,50.836s-1.385,10.854-12.534,6.339C1312.016,65.091,1305.986,68.161,1307.606,78.485Z" transform="translate(-718.791 -12.445)" fill="#00ada4" stroke="#fff" stroke-miterlimit="10" stroke-width="2"/>
      <path id="Path_4464" data-name="Path 4464" d="M1612.044,12.446V151.761H1555.55c-20.209,0-14.881-5.427-14.881-5.427,1.643-3.325,3.216-7.016,2.957-10.616-.187-2.741-2-5.7-6.032-5.317a61.75,61.75,0,0,1-7.37.53c-2.632-.055-5.281-.256-7.91-.512-13.238-1.261-17.2,3.436-11.384,12.115,5.821,8.7-8.144,9.228-8.144,9.228h-86.538s2.558-31.3,4.175-47.4c1.643-16.117-6.97-11.585-6.97-11.585-4.271,1.261-9.013,2.485-13.636,2.3-3.521-.146-7.3-1.571-6.83-4.7a29.556,29.556,0,0,0,.681-5.737,49.44,49.44,0,0,0-.657-6.159c-1.62-10.324,4.413-13.394,15.585-8.862,11.148,4.513,12.534-6.339,12.534-6.339l8.825-50.836Z" transform="translate(-804.044 -12.445)" fill="#0078d2" stroke="#fff" stroke-miterlimit="10" stroke-width="2"/>
      <path id="Path_4465" data-name="Path 4465" d="M1628.253,203.068v139.3h-56.5c-20.208,0-14.88,5.427-14.88,5.427,1.642,3.325,3.215,7.017,2.957,10.635-.188,2.723-2,5.683-6.032,5.3a61.765,61.765,0,0,0-7.37-.512c-2.632.055-5.281.256-7.91.495-13.238,1.28-17.2-3.435-11.384-12.115s-8.144-9.228-8.144-9.228h-59.1s-2.558-31.3-4.2-47.4c-1.619-16.1,6.97-11.585,6.97-11.585,4.271,1.279,9.013,2.5,13.66,2.3,3.5-.146,7.3-1.555,6.807-4.7a29.53,29.53,0,0,1-.657-5.719,49.673,49.673,0,0,1,.657-6.176c1.619-10.309-4.436-13.374-15.585-8.863-11.148,4.532-12.534-6.322-12.534-6.322l-8.846-50.836H1519s13.965-.529,8.144-9.228c-5.82-8.679-1.854-13.374,11.384-12.115,2.632.256,5.281.457,7.91.512a61.752,61.752,0,0,0,7.37-.53c4.04-.384,5.845,2.577,6.032,5.318.258,3.6-1.314,7.291-2.957,10.616,0,0-5.328,5.427,14.881,5.427Z" transform="translate(-820.253 -63.752)" fill="#00ada4" stroke="#fff" stroke-miterlimit="10" stroke-width="2"/>
      <path id="Path_4466" data-name="Path 4466" d="M1367.851,278.475a49.719,49.719,0,0,0-.657,6.176,29.511,29.511,0,0,0,.657,5.719c.493,3.143-3.309,4.55-6.807,4.7-4.647.2-9.389-1.023-13.66-2.3,0,0-8.591-4.514-6.97,11.585,1.642,16.1,4.2,47.4,4.2,47.4h-99.937c-20.209,0-14.857-5.427-14.857-5.427,1.62-3.325,3.192-7.017,2.933-10.635-.187-2.723-2-5.682-6.008-5.3a66.631,66.631,0,0,1-7.37.529c-2.652-.055-5.281-.256-7.91-.511-13.262-1.261-17.2,3.435-11.407,12.115,5.821,8.68-8.12,9.228-8.12,9.228H1089.764s2.559-31.3,4.2-47.4c1.62-16.1-6.97-11.585-6.97-11.585-4.271,1.279-9.013,2.5-13.66,2.3-3.5-.146-7.3-1.555-6.807-4.7a29.52,29.52,0,0,0,.657-5.719,49.719,49.719,0,0,0-.657-6.176c-1.62-10.309,4.436-13.374,15.585-8.862,11.148,4.531,12.534-6.323,12.534-6.323l8.846-50.836h88.44s13.942.548,8.12,9.228c-5.8,8.679-1.854,13.394,11.407,12.133,2.632-.256,5.258-.456,7.91-.511a62.5,62.5,0,0,1,7.37.511c4.014.384,5.821-2.577,6.009-5.3.258-3.618-1.314-7.31-2.933-10.635,0,0-5.355-5.427,14.857-5.427h86.21l8.846,50.836s1.385,10.854,12.534,6.323C1363.416,265.1,1369.471,268.169,1367.851,278.475Z" transform="translate(-704.974 -73.137)" fill="#0078d2" stroke="#fff" stroke-miterlimit="10" stroke-width="2"/>
      <path id="Path_4467" data-name="Path 4467" d="M995.4,269.089a49.812,49.812,0,0,1,.657,6.176,29.53,29.53,0,0,1-.657,5.719c-.493,3.143,3.309,4.55,6.807,4.7,4.647.2,9.389-1.023,13.66-2.3,0,0,8.591-4.514,6.97,11.585-1.643,16.1-4.2,47.4-4.2,47.4H957.168c-20.208,0-14.88,5.427-14.88,5.427,1.619,3.325,3.192,7.017,2.957,10.635-.188,2.723-2.02,5.683-6.032,5.3a61.749,61.749,0,0,0-7.37-.512c-2.652.055-5.281.256-7.91.495-13.262,1.28-17.2-3.435-11.384-12.115,5.8-8.683-8.142-9.231-8.142-9.231H845.589s-2.558-31.3-4.175-47.4,6.971-11.585,6.971-11.585c4.271,1.279,9.013,2.5,13.66,2.3,3.5-.146,7.3-1.555,6.807-4.7a29.5,29.5,0,0,1-.658-5.719,54.47,54.47,0,0,1,.635-6.176c1.643-10.309-4.413-13.374-15.562-8.863-11.148,4.532-12.557-6.322-12.557-6.322l-8.825-50.836h72.526s13.943-.529,8.145-9.228c-5.821-8.679-1.881-13.374,11.384-12.115,2.632.256,5.257.457,7.91.512a61.748,61.748,0,0,0,7.37-.53c4.013-.384,5.844,2.577,6.032,5.317.235,3.6-1.338,7.291-2.958,10.616,0,0-5.328,5.427,14.881,5.427h75.2l-8.858,50.834s-1.385,10.854-12.534,6.322C999.839,255.713,993.784,258.783,995.4,269.089Z" transform="translate(-633.851 -63.752)" fill="#00ada4" stroke="#fff" stroke-miterlimit="10" stroke-width="2"/>
      <path id="Path_4468" data-name="Path 4468" d="M781.914,284.648a29.573,29.573,0,0,0,.657,5.719c.493,3.143-3.309,4.55-6.807,4.7-4.647.2-9.389-1.023-13.66-2.3,0,0-8.591-4.514-6.971,11.585s4.175,47.4,4.175,47.4H680.99c-20.208,0-14.88-5.427-14.88-5.427,1.619-3.325,3.192-7.017,2.957-10.635-.188-2.723-2.02-5.682-6.032-5.3a65.8,65.8,0,0,1-7.37.529c-2.652-.055-5.281-.256-7.91-.511-13.238-1.261-17.2,3.435-11.384,12.115,5.8,8.68-8.144,9.228-8.144,9.228H547.579v-139.3h80.647s13.942.549,8.144,9.229c-5.82,8.679-1.854,13.394,11.384,12.133,2.632-.256,5.258-.456,7.91-.511a61.743,61.743,0,0,1,7.37.511c4.014.384,5.845-2.577,6.032-5.3.235-3.618-1.337-7.309-2.957-10.634,0,0-5.328-5.428,14.881-5.428h64.616l8.825,50.836s1.408,10.854,12.557,6.322c11.149-4.513,17.2-1.443,15.562,8.863A53.546,53.546,0,0,0,781.914,284.648Z" transform="translate(-547.579 -73.137)" fill="#0078d2" stroke="#fff" stroke-miterlimit="10" stroke-width="2"/>
      <path id="Path_4469" data-name="Path 4469" d="M713.922,469.087a49.734,49.734,0,0,1,.657,6.158,29.536,29.536,0,0,1-.657,5.738c-.493,3.125,3.309,4.55,6.807,4.7,4.647.182,9.389-1.045,13.66-2.3,0,0,8.591-4.532,6.97,11.589-1.642,16.1-4.175,47.4-4.175,47.4h-189.6V403.048h80.645s13.942-.548,8.144-9.228c-5.82-8.68-1.854-13.374,11.384-12.115,2.632.256,5.258.456,7.91.511a65.819,65.819,0,0,0,7.37-.529c4.014-.384,5.845,2.577,6.032,5.3.235,3.618-1.337,7.31-2.957,10.635,0,0-5.328,5.427,14.881,5.427h69.9l-8.846,50.836s-1.385,10.854-12.534,6.339S712.3,458.781,713.922,469.087Z" transform="translate(-547.58 -124.435)" fill="#00ada4" stroke="#fff" stroke-miterlimit="10" stroke-width="2"/>
      <path id="Path_4470" data-name="Path 4470" d="M1048.893,484.631a29.53,29.53,0,0,0,.657,5.738c.493,3.125-3.309,4.55-6.807,4.7-4.647.182-9.389-1.041-13.66-2.3,0,0-8.591-4.532-6.97,11.589,1.619,16.1,4.175,47.4,4.175,47.4H809.532s2.536-31.3,4.175-47.4c1.62-16.117-6.97-11.589-6.97-11.589-4.271,1.261-9.013,2.485-13.66,2.3-3.5-.146-7.3-1.571-6.807-4.7a29.535,29.535,0,0,0,.657-5.738,49.476,49.476,0,0,0-.657-6.158c-1.62-10.309,4.436-13.394,15.585-8.863,11.148,4.514,12.534-6.339,12.534-6.339l8.846-50.836h67.245s13.942.548,8.144,9.228c-5.82,8.68-1.881,13.395,11.384,12.115,2.632-.238,5.258-.439,7.91-.495a61.75,61.75,0,0,1,7.37.512c4.014.384,5.845-2.577,6.032-5.3.236-3.618-1.337-7.31-2.957-10.635,0,0-5.328-5.427,14.881-5.427h69.334l8.825,50.836s1.408,10.854,12.557,6.339c11.148-4.531,17.2-1.443,15.562,8.863A49.712,49.712,0,0,0,1048.893,484.631Z" transform="translate(-619.93 -133.821)" fill="#0078d2" stroke="#fff" stroke-miterlimit="10" stroke-width="2"/>
      <path id="Path_4471" data-name="Path 4471" d="M1307.6,469.088a49.734,49.734,0,0,1,.657,6.158,29.611,29.611,0,0,1-.681,5.738c-.469,3.125,3.309,4.55,6.83,4.7,4.624.182,9.365-1.045,13.636-2.3,0,0,8.614-4.532,6.971,11.589-1.619,16.1-4.175,47.4-4.175,47.4H1125s-2.559-31.3-4.175-47.4c-1.619-16.117,6.97-11.589,6.97-11.589,4.271,1.261,9.013,2.485,13.66,2.3,3.5-.146,7.3-1.571,6.807-4.7a29.531,29.531,0,0,1-.657-5.738,49.016,49.016,0,0,1,.635-6.158c1.642-10.309-4.413-13.394-15.562-8.862-11.149,4.513-12.557-6.339-12.557-6.339l-8.825-50.836h94.3s13.941-.548,8.121-9.228c-5.8-8.68-1.854-13.374,11.407-12.115,2.632.256,5.258.456,7.91.511a66.672,66.672,0,0,0,7.37-.529c4.013-.384,5.82,2.577,6.008,5.3.258,3.618-1.314,7.31-2.934,10.635,0,0-5.355,5.427,14.857,5.427h86.211l-8.825,50.836s-1.385,10.854-12.534,6.339C1312.013,455.694,1305.984,458.782,1307.6,469.088Z" transform="translate(-718.637 -124.436)" fill="#00ada4" stroke="#fff" stroke-miterlimit="10" stroke-width="2"/>
      <path id="Path_4472" data-name="Path 4472" d="M1612.044,412.43V551.745h-195.8s2.558-31.3,4.175-47.4c1.643-16.117-6.97-11.589-6.97-11.589-4.271,1.261-9.013,2.485-13.636,2.3-3.521-.146-7.3-1.571-6.83-4.7a29.563,29.563,0,0,0,.681-5.738,49.429,49.429,0,0,0-.657-6.158c-1.62-10.309,4.413-13.394,15.585-8.863,11.148,4.514,12.534-6.339,12.534-6.339l8.825-50.836h72.832s13.964.548,8.144,9.228-1.854,13.394,11.384,12.115c2.632-.237,5.281-.439,7.91-.495a61.765,61.765,0,0,1,7.37.512c4.04.384,5.844-2.577,6.032-5.3.258-3.618-1.314-7.31-2.957-10.635,0,0-5.328-5.427,14.88-5.427Z" transform="translate(-804.044 -133.818)" fill="#0078d2" stroke="#fff" stroke-miterlimit="10" stroke-width="2"/>
    </g>
    <g id="Group_12405" data-name="Group 12405" transform="translate(402.437 1801.64)">
      <text id="Individual_or_" data-name="Individual or " transform="translate(10.574 16)" fill="#fff" font-size="15" font-family="Poppins-SemiBold, Poppins" font-weight="600"><tspan x="0" y="0">Individual or </tspan></text>
      <text id="Named_Patient_" data-name="Named Patient " transform="translate(0 41.076)" fill="#fff" font-size="15" font-family="Poppins-SemiBold, Poppins" font-weight="600"><tspan x="0" y="0">Named Patient </tspan></text>
      <text id="Programs" transform="translate(21.808 66.152)" fill="#fff" font-size="15" font-family="Poppins-SemiBold, Poppins" font-weight="600"><tspan x="0" y="0">Programs</tspan></text>
    </g>
    <g id="Group_12406" data-name="Group 12406" transform="translate(609.836 1810.431)">
      <text id="Group_or_Cohort_" data-name="Group or Cohort " transform="translate(0 16)" fill="#fff" font-size="15" font-family="Poppins-SemiBold, Poppins" font-weight="600"><tspan x="0" y="0">Group or Cohort </tspan></text>
      <text id="Programs-2" data-name="Programs" transform="translate(26.422 41.076)" fill="#fff" font-size="15" font-family="Poppins-SemiBold, Poppins" font-weight="600"><tspan x="0" y="0">Programs</tspan></text>
    </g>
    <g id="Group_12407" data-name="Group 12407" transform="translate(419.374 1954.617)">
      <text id="Named_Patient_2" data-name="Named Patient " transform="translate(0.042 16)" fill="#fff" font-size="15" font-family="Poppins-SemiBold, Poppins" font-weight="600"><tspan x="0" y="0">Named Patient </tspan></text>
      <text id="Program_NPP_" data-name="Program (NPP)" transform="translate(0 41.076)" fill="#fff" font-size="15" font-family="Poppins-SemiBold, Poppins" font-weight="600"><tspan x="0" y="0">Program (NPP)</tspan></text>
    </g>
    <g id="Group_12408" data-name="Group 12408" transform="translate(1038.65 1810.431)">
      <text id="Early_Access_" data-name="Early Access " transform="translate(0 16)" fill="#fff" font-size="15" font-family="Poppins-SemiBold, Poppins" font-weight="600"><tspan x="0" y="0">Early Access </tspan></text>
      <text id="Program" transform="translate(15.915 41.076)" fill="#fff" font-size="15" font-family="Poppins-SemiBold, Poppins" font-weight="600"><tspan x="0" y="0">Program</tspan></text>
    </g>
    <g id="Group_12409" data-name="Group 12409" transform="translate(1068.524 1956.01)">
      <text id="Post-trial_" data-name="Post-trial " transform="translate(0 16)" fill="#fff" font-size="15" font-family="Poppins-SemiBold, Poppins" font-weight="600"><tspan x="0" y="0">Post-trial </tspan></text>
      <text id="Supply" transform="translate(10.691 41.076)" fill="#fff" font-size="15" font-family="Poppins-SemiBold, Poppins" font-weight="600"><tspan x="0" y="0">Supply</tspan></text>
    </g>
    <g id="Group_12410" data-name="Group 12410" transform="translate(826.258 1802.072)">
      <text id="Expanded_" data-name="Expanded " transform="translate(20.562 16)" fill="#fff" font-size="15" font-family="Poppins-SemiBold, Poppins" font-weight="600"><tspan x="0" y="0">Expanded </tspan></text>
      <text id="Access_" data-name="Access " transform="translate(32.557 41.076)" fill="#fff" font-size="15" font-family="Poppins-SemiBold, Poppins" font-weight="600"><tspan x="0" y="0">Access </tspan></text>
      <text id="Program_EAP_" data-name="Program (EAP)" transform="translate(0 66.152)" fill="#fff" font-size="15" font-family="Poppins-SemiBold, Poppins" font-weight="600"><tspan x="0" y="0">Program (EAP)</tspan></text>
    </g>
    <g id="Group_12411" data-name="Group 12411" transform="translate(609.87 1938.032)">
      <text id="Compassionate_" data-name="Compassionate " transform="translate(0 16)" fill="#fff" font-size="15" font-family="Poppins-SemiBold, Poppins" font-weight="600"><tspan x="0" y="0">Compassionate </tspan></text>
      <text id="Use_" data-name="Use " transform="translate(52.668 41.076)" fill="#fff" font-size="15" font-family="Poppins-SemiBold, Poppins" font-weight="600"><tspan x="0" y="0">Use </tspan></text>
      <text id="Program-2" data-name="Program" transform="translate(30.944 66.152)" fill="#fff" font-size="15" font-family="Poppins-SemiBold, Poppins" font-weight="600"><tspan x="0" y="0">Program</tspan></text>
    </g>
    <g id="Group_12412" data-name="Group 12412" transform="translate(820.892 1954.617)">
      <text id="Cohort_or_Group_" data-name="Cohort or Group " transform="translate(0 16)" fill="#fff" font-size="15" font-family="Poppins-SemiBold, Poppins" font-weight="600"><tspan x="0" y="0">Cohort or Group </tspan></text>
      <text id="Program-3" data-name="Program" transform="translate(30.977 41.076)" fill="#fff" font-size="15" font-family="Poppins-SemiBold, Poppins" font-weight="600"><tspan x="0" y="0">Program</tspan></text>
    </g>
    <g id="Group_12413" data-name="Group 12413" transform="translate(430.041 2087.394)">
      <text id="Extended_" data-name="Extended " transform="translate(0 16)" fill="#fff" font-size="15" font-family="Poppins-SemiBold, Poppins" font-weight="600"><tspan x="0" y="0">Extended </tspan></text>
      <text id="Access_2" data-name="Access " transform="translate(9.061 41.076)" fill="#fff" font-size="15" font-family="Poppins-SemiBold, Poppins" font-weight="600"><tspan x="0" y="0">Access </tspan></text>
      <text id="Program-4" data-name="Program" transform="translate(2.115 66.152)" fill="#fff" font-size="15" font-family="Poppins-SemiBold, Poppins" font-weight="600"><tspan x="0" y="0">Program</tspan></text>
    </g>
    <g id="Group_12414" data-name="Group 12414" transform="translate(621.416 2091.393)">
      <text id="Rest_of_World" data-name="Rest of World" transform="translate(2.023 16)" fill="#fff" font-size="15" font-family="Poppins-SemiBold, Poppins" font-weight="600"><tspan x="0" y="0">Rest of World</tspan></text>
      <text id="or_Unlicensed_" data-name="or Unlicensed " transform="translate(0 41.076)" fill="#fff" font-size="15" font-family="Poppins-SemiBold, Poppins" font-weight="600"><tspan x="0" y="0">or Unlicensed </tspan></text>
      <text id="Distribution" transform="translate(8.359 66.152)" fill="#fff" font-size="15" font-family="Poppins-SemiBold, Poppins" font-weight="600"><tspan x="0" y="0">Distribution</tspan></text>
    </g>
    <g id="Group_12415" data-name="Group 12415" transform="translate(831.974 2099.166)">
      <text id="Pre-Approval_" data-name="Pre-Approval " transform="translate(0 16)" fill="#fff" font-size="15" font-family="Poppins-SemiBold, Poppins" font-weight="600"><tspan x="0" y="0">Pre-Approval </tspan></text>
      <text id="Access" transform="translate(27.199 41.076)" fill="#fff" font-size="15" font-family="Poppins-SemiBold, Poppins" font-weight="600"><tspan x="0" y="0">Access</tspan></text>
    </g>
    <g id="Group_12416" data-name="Group 12416" transform="translate(1018.656 2099.166)">
      <text id="Managed_Access_" data-name="Managed Access " transform="translate(0 16)" fill="#fff" font-size="15" font-family="Poppins-SemiBold, Poppins" font-weight="600"><tspan x="0" y="0">Managed Access </tspan></text>
      <text id="Programs-3" data-name="Programs" transform="translate(31.353 41.076)" fill="#fff" font-size="15" font-family="Poppins-SemiBold, Poppins" font-weight="600"><tspan x="0" y="0">Programs</tspan></text>
    </g>
  </g>
</svg>
