<svg xmlns="http://www.w3.org/2000/svg" width="75.97" height="77.86" viewBox="0 0 75.97 77.86">
  <g id="Group_13203" data-name="Group 13203" transform="translate(-5208 717.93)">
    <path id="Path_71736" data-name="Path 71736" d="M118.35,106.31h-3l1.1-.87a5.34,5.34,0,0,0-3.33-9.54,5.26,5.26,0,0,0-3.31,1.16,5.34,5.34,0,0,0-.88,7.51,5.57,5.57,0,0,0,.88.87l1.1.87h-3a4.7,4.7,0,0,0-4.7,4.7h0v11.67a.82.82,0,0,0,.8.81h18.16a.82.82,0,0,0,.8-.81V111a4.71,4.71,0,0,0-4.62-4.69Zm-8.91-5h0a3.74,3.74,0,1,1,3.74,3.73h0a3.73,3.73,0,0,1-3.74-3.76Zm12,9.74V121.9H104.9V111a3.08,3.08,0,0,1,3.08-3.09h10.37a3.08,3.08,0,0,1,3.08,3.09Z" transform="translate(5161 -764)" fill="#fff"/>
    <path id="Path_71737" data-name="Path 71737" d="M53.81,94.16a31.71,31.71,0,0,1,7.43-30l-1.16-1.13a33.32,33.32,0,0,0-7.83,31.54Z" transform="translate(5161 -764)" fill="#fff"/>
    <path id="Path_71738" data-name="Path 71738" d="M115.1,92.89l1.57.39a33.1,33.1,0,0,0-8.07-30.11l-1.17,1.12a31.56,31.56,0,0,1,7.67,28.6Z" transform="translate(5161 -764)" fill="#fff"/>
    <path id="Path_71739" data-name="Path 71739" d="M95.82,88.93a2,2,0,0,0,.94-1.2,1.87,1.87,0,0,0-.21-1.46l-1.88-3.12a2,2,0,0,0-1.71-1,2.06,2.06,0,0,0-1,.25l-.62.36-.28.16-.25-.19a11,11,0,0,0-2.32-1.3l-.31-.12v-1a2,2,0,0,0-2-1.92v-.25h0v.25H82.46a2,2,0,0,0-2,1.93v.94l-.31.12a9.29,9.29,0,0,0-2.24,1.3l-.25.2-.29-.15-.69-.38a2.14,2.14,0,0,0-1-.25,2,2,0,0,0-1.72,1l-1.88,3.12a1.82,1.82,0,0,0-.2,1.46,2,2,0,0,0,.93,1.19l.59.32.28.16v.33a9.29,9.29,0,0,0,0,2.47v.33l-.28.15-.58.33a1.94,1.94,0,0,0-.94,1.18,1.88,1.88,0,0,0,.2,1.48L74,98.79a2,2,0,0,0,2.68.69l.62-.35.3-.13.25.19a11.05,11.05,0,0,0,2.33,1.29l.3.13v.94a2,2,0,0,0,2,1.93h3.78a2,2,0,0,0,2-1.94v-.94l.3-.12a8.86,8.86,0,0,0,2.25-1.3L91,99l.29.15.68.39a2.05,2.05,0,0,0,2.69-.71l1.88-3.11a1.83,1.83,0,0,0,.2-1.46,1.88,1.88,0,0,0-.93-1.2l-.58-.32L95,92.53V92.2a9.29,9.29,0,0,0,0-2.47v-.32l.29-.17Zm-.95-1.32-.52.28a1.94,1.94,0,0,0-1,1.93,7.21,7.21,0,0,1,.1,1.14,9.231,9.231,0,0,1-.08,1.18,1.9,1.9,0,0,0,1,1.91l.52.28.45.25-.26.43-1.72,2.83-.23.41L92.69,98l-.61-.33a2.082,2.082,0,0,0-2.23.16,9.65,9.65,0,0,1-2,1.12,1.94,1.94,0,0,0-1.28,1.8v1.06H82.1v-1.07A2,2,0,0,0,80.84,99a9.161,9.161,0,0,1-2-1.13,2.1,2.1,0,0,0-1.23-.4,1.92,1.92,0,0,0-1,.25L76,98l-.41.22-.24-.4L73.63,95l-.26-.43.45-.24.52-.28a1.93,1.93,0,0,0,1-1.93A7.33,7.33,0,0,1,75.23,91a9.2,9.2,0,0,1,.08-1.17,1.89,1.89,0,0,0-1-1.91l-.52-.29-.45-.24.26-.44,1.72-2.83.24-.4.41.23.61.33a2,2,0,0,0,1,.24,2.1,2.1,0,0,0,1.23-.4,9,9,0,0,1,2-1.12,2,2,0,0,0,1.28-1.81V80.1h4.48v1.07A2,2,0,0,0,87.84,83a9,9,0,0,1,2,1.12,2,2,0,0,0,2.21.16l.6-.33.41-.22.24.4,1.7,2.8.27.43Z" transform="translate(5161 -764)" fill="#fff"/>
    <path id="Path_71740" data-name="Path 71740" d="M84.34,86.27h0A4.7,4.7,0,1,0,89,91a4.7,4.7,0,0,0-4.66-4.73Zm0,7.78h0A3.08,3.08,0,1,1,87.42,91a3.08,3.08,0,0,1-3.08,3.05Z" transform="translate(5161 -764)" fill="#fff"/>
    <rect id="Rectangle_14642" data-name="Rectangle 14642" width="5.51" height="1.62" transform="translate(5223.78 -712.74)" fill="#fff"/>
    <rect id="Rectangle_14643" data-name="Rectangle 14643" width="5.51" height="1.63" transform="translate(5226.37 -707.56)" fill="#fff"/>
    <path id="Path_71741" data-name="Path 71741" d="M96.64,50.27A.78.78,0,0,0,96,50H89V46.88a.81.81,0,0,0-.81-.81H67.48a.79.79,0,0,0-.8.81V49h1.61V47.69H87.42V68.11H78.57l-.11-.32a3.42,3.42,0,0,0-3.2-2.28,3.25,3.25,0,0,0-1.11.2,3.38,3.38,0,0,0-2.08,2.08l-.11.33H68.29V60.33H66.68v8.59a.8.8,0,0,0,.8.81H72l.12.33a3.37,3.37,0,0,0,3.19,2.27,3.21,3.21,0,0,0,1.11-.2,3.36,3.36,0,0,0,2.08-2.08l.12-.32H91.4l.12.32a3.39,3.39,0,0,0,3.19,2.28,3.46,3.46,0,0,0,1.11-.2,3.36,3.36,0,0,0,2.08-2.08l.12-.33h3.17a.81.81,0,0,0,.81-.81V57.25a.76.76,0,0,0-.17-.5ZM75.27,70.71h0a1.79,1.79,0,1,1,1.656-1.785A1.79,1.79,0,0,1,75.27,70.71ZM92.93,51.57h2.69l.15.19,3.11,3.89.63.79H92.93Zm1.8,19.14h0a1.626,1.626,0,1,0-.02,0ZM98,68.11l-.12-.32a3.39,3.39,0,0,0-3.19-2.28,3.51,3.51,0,0,0-1.11.2,3.38,3.38,0,0,0-2.08,2.08l-.12.33H89V51.57h2.27v5.68a.81.81,0,0,0,.81.81h8.27v10Z" transform="translate(5161 -764)" fill="#fff"/>
    <path id="Path_71742" data-name="Path 71742" d="M47,104.32v19.61H69.51V104.32L58.24,98Zm6.76,18.11v-.88h9v.88Zm9-4.76h-9v-.82h9Zm-9,1.5h9v.88h-9ZM68,122.43H64.25v-7.08h-12v7.08H48.46V105.2l9.78-5.46L68,105.2Z" transform="translate(5161 -764)" fill="#fff"/>
    <rect id="Rectangle_14644" data-name="Rectangle 14644" width="3.81" height="1.5" transform="translate(5217.33 -659.45)" fill="#fff"/>
    <path id="Path_71743" data-name="Path 71743" d="M50,108.47v4.73H66.45v-4.73Zm1.5,3.23V110H55v1.73ZM65,110v1.73H61.46V110Zm-5,0v1.73H56.52V110Z" transform="translate(5161 -764)" fill="#fff"/>
  </g>
</svg>
