<svg xmlns="http://www.w3.org/2000/svg" width="71.748" height="83.03" viewBox="0 0 71.748 83.03">
  <g id="Group_13204" data-name="Group 13204" transform="translate(-5545.149 720.515)">
    <path id="Path_71658" data-name="Path 71658" d="M85,75.38A13.54,13.54,0,1,0,98.53,88.92,13.54,13.54,0,0,0,85,75.38Zm0,25.28A11.75,11.75,0,1,1,96.74,88.92,11.75,11.75,0,0,1,85,100.66Z" transform="translate(5496 -764)" fill="#fff"/>
    <path id="Path_71659" data-name="Path 71659" d="M85,69.88a19,19,0,1,0,19,19,19,19,0,0,0-19-19Zm0,36.28a17.25,17.25,0,1,1,17.24-17.247A17.25,17.25,0,0,1,85,106.16Z" transform="translate(5496 -764)" fill="#fff"/>
    <path id="Path_71660" data-name="Path 71660" d="M56.17,65.67a6.18,6.18,0,0,0,3.29-1L69.69,75.84,71,74.63,60.82,63.55a6.22,6.22,0,1,0-4.65,2.12Zm0-10.7a4.435,4.435,0,1,0,0,.03Z" transform="translate(5496 -764)" fill="#fff"/>
    <path id="Path_71661" data-name="Path 71661" d="M100.31,75.84l10.23-11.13a6.18,6.18,0,0,0,3.29,1,6.33,6.33,0,1,0-4.65-2.12L99,74.63ZM113.83,55a4.46,4.46,0,1,1-4.45,4.45A4.46,4.46,0,0,1,113.83,55Z" transform="translate(5496 -764)" fill="#fff"/>
    <path id="Path_71662" data-name="Path 71662" d="M84.1,55.92V68.1h1.8V55.92a6.25,6.25,0,1,0-1.8,0ZM85,45.31a4.46,4.46,0,1,1-4.45,4.46A4.46,4.46,0,0,1,85,45.31Z" transform="translate(5496 -764)" fill="#fff"/>
    <path id="Path_71663" data-name="Path 71663" d="M85.9,114.08V109.4H84.1v4.68a6.25,6.25,0,1,0,1.8,0ZM85,124.69a4.45,4.45,0,1,1,3.153-1.3A4.46,4.46,0,0,1,85,124.69Z" transform="translate(5496 -764)" fill="#fff"/>
    <path id="Path_71664" data-name="Path 71664" d="M114.68,99.89A6.23,6.23,0,0,0,110,102l-7.39-4.35-.91,1.54,7.31,4.3a6.23,6.23,0,1,0,5.65-3.62Zm0,10.71a4.46,4.46,0,1,1,4.45-4.46,4.46,4.46,0,0,1-4.45,4.46Z" transform="translate(5496 -764)" fill="#fff"/>
    <path id="Path_71665" data-name="Path 71665" d="M67.37,97.67,60,102a6.22,6.22,0,1,0,1.59,4.12,6.11,6.11,0,0,0-.6-2.63l7.31-4.3ZM55.32,110.6a4.46,4.46,0,1,1,4.46-4.46,4.46,4.46,0,0,1-4.46,4.46Z" transform="translate(5496 -764)" fill="#fff"/>
    <circle id="Ellipse_492" data-name="Ellipse 492" cx="5.55" cy="5.55" r="5.55" transform="translate(5574.327 -679.2) rotate(-13.28)" fill="#fff"/>
  </g>
</svg>
