<svg xmlns="http://www.w3.org/2000/svg" width="97.3" height="97.4" viewBox="0 0 97.3 97.4">
  <g id="Group_13207" data-name="Group 13207" transform="translate(-6528.6 727.7)">
    <path id="Path_71694" data-name="Path 71694" d="M106.7,72.7a2.035,2.035,0,0,0-1.5-.6h0a2.112,2.112,0,0,0-2.1,2.1,2.051,2.051,0,0,0,2.1,2.1h0a2.112,2.112,0,0,0,2.1-2.1,2.035,2.035,0,0,0-.6-1.5Zm-1.5,2.2a.684.684,0,0,1-.7-.7h0a.684.684,0,0,1,.7-.7h0a.707.707,0,0,1,0,1.4Z" transform="translate(6492 -764)" fill="#fff"/>
    <path id="Path_71695" data-name="Path 71695" d="M109.3,74.1a4.166,4.166,0,0,0-4.1-4,4,4,0,0,0-2.6,1A25.222,25.222,0,0,0,94.9,66a23.676,23.676,0,0,0-10.1-2.3c-.8,0-1.7.1-2.5.1V63a4.79,4.79,0,0,0-1.6-3.5,5.049,5.049,0,0,0-7.1.4,4.822,4.822,0,0,0-1.3,3,5.236,5.236,0,0,0,1,3.4v.1a22.031,22.031,0,0,0-3.2,2.1A4.632,4.632,0,0,0,66.8,67a5.042,5.042,0,0,0-5,4.8,5.236,5.236,0,0,0,1,3.4l.7,1a27.618,27.618,0,0,0-2.9,11.6,24.15,24.15,0,0,0,48.3.1h0v-.1a32.406,32.406,0,0,0-1.6-9.3l1.1-1.5A4.017,4.017,0,0,0,109.3,74.1ZM82.1,82.3h0A3.351,3.351,0,0,1,85.5,79h.1a3.471,3.471,0,0,1,3.3,3.3,3.691,3.691,0,0,1-.7,2.3l-2.6,3.5L83,84.6A2.74,2.74,0,0,1,82.1,82.3Zm3-13.1a2.4,2.4,0,0,1-.1,2.9l-.8,1a1.612,1.612,0,0,1-1.3.6h-.2l-.9-.1a3.4,3.4,0,0,0-3.3,1.6,1.6,1.6,0,0,1-1.4.8H77l-2-.3h-.4a3.46,3.46,0,0,0-2.8,1.5,3.014,3.014,0,0,0,0,3.4l1.3,2.1a2.857,2.857,0,0,0,3.8,1l1.4-.7a2.663,2.663,0,0,1,1.2-.3,3.6,3.6,0,0,1,1.1.2,5.234,5.234,0,0,0,1,2.7L84.9,90a.713.713,0,0,0,.6.3h0a.52.52,0,0,0,.4-.2c.1,0,.1-.1.2-.2l1.5-2.1.1.1.3.4,1.7,2a.758.758,0,0,1-.1,1h0l-2.5,2a4.535,4.535,0,0,0-1.5,2.1l-.8,2.7a2.186,2.186,0,0,1-.3.5l-.8,1a5.362,5.362,0,0,0-1.1,2.7,1.2,1.2,0,0,1-.7,1h-.2a.55.55,0,0,1-.5-.3v-.1l-.8-4.6a3.63,3.63,0,0,0-.7-1.7l-2.8-3.8a3.7,3.7,0,0,1-.5-1.1l-.9-3.4a3.974,3.974,0,0,0-2.6-2.6l-.2-.1a2.075,2.075,0,0,1-1-.6l-1.8-1.7a2.178,2.178,0,0,1-.7-.9,4.16,4.16,0,0,0-3.5-2,1.7,1.7,0,0,0-.7.1h-.1l-1.5.5a24.64,24.64,0,0,1,1.4-3.8l1.5,2a.864.864,0,0,0,.6.3h0c.2,0,.3-.1.5-.2l.2-.2,3.3-4.4a5.061,5.061,0,0,0,.5-5.4,22.03,22.03,0,0,1,3.2-2.1l2.3,3.1a.864.864,0,0,0,.6.3h0c.2,0,.3-.1.5-.2l.2-.2,3.3-4.4.6-.9.6-.1h0ZM80,65.3l-2.6,3.5-2.6-3.5A3.244,3.244,0,0,1,74,63h0a3.417,3.417,0,0,1,3.4-3.3h.1A3.309,3.309,0,0,1,80.7,63,3.691,3.691,0,0,1,80,65.3ZM69.4,74.2l-2.6,3.5-2.6-3.5a3.306,3.306,0,0,1-.7-2.3h0a3.487,3.487,0,0,1,3.4-3.3H67a3.471,3.471,0,0,1,3.3,3.3A5.048,5.048,0,0,1,69.4,74.2Zm-6.6,9,2.4-.8a2.561,2.561,0,0,1,2.6,1.2,4,4,0,0,0,1,1.2l1.7,1.6a4.248,4.248,0,0,0,1.7,1l.2.1A2.254,2.254,0,0,1,73.9,89l.9,3.4a4.812,4.812,0,0,0,.8,1.6l2.8,3.7a1.777,1.777,0,0,1,.4,1l.8,4.6a2.23,2.23,0,0,0,2,1.8h.3c.2,0,.3-.1.5-.1a2.764,2.764,0,0,0,1.7-2.2,2.979,2.979,0,0,1,.8-1.8l.8-1a2.384,2.384,0,0,0,.6-1.1l.8-2.7a2.9,2.9,0,0,1,.9-1.5l2.5-1.9a2.254,2.254,0,0,0,.4-3.2h0l-1.7-2c-.1-.1-.1-.2-.2-.3l-.4-.5.7-1a5.236,5.236,0,0,0,1-3.4,5.115,5.115,0,0,0-5.5-4.5,5.027,5.027,0,0,0-4.3,3.6,5.067,5.067,0,0,0-1.3-.2,4.477,4.477,0,0,0-2,.4l-1.2.6a1.388,1.388,0,0,1-1.7-.4L73,79.7a1.535,1.535,0,0,1,0-1.6,1.763,1.763,0,0,1,1.5-.8h.2l2,.3A3.019,3.019,0,0,0,79.9,76a1.562,1.562,0,0,1,1.5-.8h.2l.9.1h.4A3.473,3.473,0,0,0,85.5,74l.8-1a4.05,4.05,0,0,0,.1-4.8l-2.2-3.1h.5a24.008,24.008,0,0,1,9.5,2.2A15.089,15.089,0,0,1,97,68.8l-1.7,2.9a2.723,2.723,0,0,0,.3,3,3.09,3.09,0,0,0,2,1.1h.3a1.549,1.549,0,0,1,1.2,1,1.237,1.237,0,0,1-.4,1.4L95.6,81a3.15,3.15,0,0,0-1.1,2.3V84a2.772,2.772,0,0,0,1.3,2.3,1.326,1.326,0,0,1,.6,1l.1.7A2.506,2.506,0,0,0,99,90.3h1.9a3.935,3.935,0,0,0,3.7-2.4l.1-.2a1.17,1.17,0,0,1,1.1-.8h.6l.8-.1v.9a22.535,22.535,0,0,1-22.3,22.7h-.2A22.513,22.513,0,0,1,62.2,88a19.132,19.132,0,0,1,.6-4.8ZM101.1,74a4.1,4.1,0,0,0,.9,2.8l2.6,3.5a.713.713,0,0,0,.6.3h0c.2,0,.3-.1.5-.2.1,0,.1-.1.2-.2l.3-.4a31,31,0,0,1,1,5.3l-.8.1h-.6a2.725,2.725,0,0,0-2.5,1.7l-.1.2a2.526,2.526,0,0,1-2.3,1.5H99a1.063,1.063,0,0,1-1-.9V87a2.772,2.772,0,0,0-1.3-2.1,1.016,1.016,0,0,1-.5-1v-.7a1.845,1.845,0,0,1,.5-1.2l3.1-2.8a3.041,3.041,0,0,0,.9-3.1A2.767,2.767,0,0,0,98.2,74h-.3a2.075,2.075,0,0,1-1-.6.909.909,0,0,1-.1-1.1l1.7-2.8a27.845,27.845,0,0,1,3.2,2.6A3.809,3.809,0,0,0,101.1,74Zm4.1,4.6-2-2.7a2.792,2.792,0,0,1-.6-1.8,2.55,2.55,0,0,1,5.1,0,3,3,0,0,1-.6,1.8Z" transform="translate(6492 -764)" fill="#fff"/>
    <path id="Path_71696" data-name="Path 71696" d="M85.4,84.3h0a2.1,2.1,0,0,0,0-4.2h0a2.112,2.112,0,0,0-2.1,2.1h0a2.182,2.182,0,0,0,2.1,2.1Zm-.5-1.6a.764.764,0,0,1-.2-.5.684.684,0,0,1,.7-.7h0a.684.684,0,0,1,.7.7h0a.684.684,0,0,1-.7.7h0A.764.764,0,0,1,84.9,82.7Z" transform="translate(6492 -764)" fill="#fff"/>
    <path id="Path_71697" data-name="Path 71697" d="M66.8,70h0a2.051,2.051,0,0,0-2.1,2.1h0a2.051,2.051,0,0,0,2.1,2.1h0a2.208,2.208,0,0,0,2-2.3A2.232,2.232,0,0,0,66.8,70Zm.7,2.1a.684.684,0,0,1-.7.7h0a.7.7,0,0,1,0-1.4h0a.684.684,0,0,1,.7.7Z" transform="translate(6492 -764)" fill="#fff"/>
    <path id="Path_71698" data-name="Path 71698" d="M77.3,60.8h0a2.1,2.1,0,0,0,0,4.2h0a2.112,2.112,0,0,0,2.1-2.1,2.035,2.035,0,0,0-.6-1.5A2.529,2.529,0,0,0,77.3,60.8Zm.7,2.1a.684.684,0,0,1-.7.7h0a.684.684,0,0,1-.7-.7h0a.684.684,0,0,1,.7-.7h0a.842.842,0,0,1,.7.7Z" transform="translate(6492 -764)" fill="#fff"/>
    <g id="Group_12698" data-name="Group 12698" transform="translate(6492 -764)">
      <path id="Path_71699" data-name="Path 71699" d="M49.5,86.9,48,88.4l1.3,1.3,4.1-4.1a.854.854,0,0,0,0-1.3h0l-4.1-4.1L48,81.5,49.5,83l1,1H36.6v1.9H50.5Z" fill="#fff"/>
      <path id="Path_71700" data-name="Path 71700" d="M117.2,85.6h0l4.1,4.1,1.3-1.3L121,86.9l-1-1h13.9V84H120l1-1,1.6-1.5-1.3-1.3-4.1,4.1A.853.853,0,0,0,117.2,85.6Z" fill="#fff"/>
    </g>
    <g id="Group_12699" data-name="Group 12699" transform="translate(6492 -764)">
      <path id="Path_71701" data-name="Path 71701" d="M61.3,111.7v2.2h1.9V108a.9.9,0,0,0-.9-.9H56.5V109H60l-9.8,9.8,1.3,1.3,9.8-9.8Z" fill="#fff"/>
      <path id="Path_71702" data-name="Path 71702" d="M108.3,62.9h5.8V61h-3.6l9.8-9.8L119,49.9l-9.8,9.8V56.1h-1.9V62A1.063,1.063,0,0,0,108.3,62.9Z" fill="#fff"/>
    </g>
    <g id="Group_12700" data-name="Group 12700" transform="translate(6492 -764)">
      <path id="Path_71703" data-name="Path 71703" d="M87.2,120.8l1.5,1.6,1.3-1.3L85.9,117a.854.854,0,0,0-1.3,0h0l-4.1,4.1,1.3,1.3,1.5-1.6,1-1v13.9h1.9V119.8Z" fill="#fff"/>
      <path id="Path_71704" data-name="Path 71704" d="M85.9,53.1h0L90,49l-1.3-1.3-1.5,1.6-1,1v-14H84.3V50.2l-1-1-1.5-1.6L80.5,49l4.1,4.1A.936.936,0,0,0,85.9,53.1Z" fill="#fff"/>
    </g>
    <g id="Group_12701" data-name="Group 12701" transform="translate(6492 -764)">
      <path id="Path_71705" data-name="Path 71705" d="M112,108.9h2.2V107h-5.9a.9.9,0,0,0-.9.9h0v5.8h1.9v-3.6l9.8,9.8,1.3-1.3-9.8-9.8Z" fill="#fff"/>
      <path id="Path_71706" data-name="Path 71706" d="M63.2,62h0V56.2H61.3v3.6L51.5,50l-1.3,1.3L60,61H56.4v1.9h5.9A.9.9,0,0,0,63.2,62Z" fill="#fff"/>
    </g>
  </g>
</svg>
