<svg xmlns="http://www.w3.org/2000/svg" width="651.441" height="615.388" viewBox="0 0 651.441 615.388">
  <g id="Group_12362" data-name="Group 12362" transform="translate(-222 -1803.999)">
    <path id="Path_4848" data-name="Path 4848" d="M-421.975,263.147A172.673,172.673,0,0,0-409.5,198.472,173.22,173.22,0,0,0-582.687,25.265,173.215,173.215,0,0,0-755.911,198.484a172.265,172.265,0,0,0,22.7,85.774A173.111,173.111,0,0,0-590.039,371.5c1.96.1,3.92.154,5.9.154" transform="translate(1134.849 1783.734)" fill="none" stroke="#11a8a4" stroke-miterlimit="10" stroke-width="10"/>
    <path id="Path_4849" data-name="Path 4849" d="M-745.611,267.878A173.244,173.244,0,0,0-897.549,439.8,173.219,173.219,0,0,0-724.36,613.01,173.025,173.025,0,0,0-576.829,530.6,172.207,172.207,0,0,0-551.138,439.8a172.279,172.279,0,0,0-22.7-85.789q-1.448-2.533-2.989-5.006" transform="translate(1124.549 1801.377)" fill="none" stroke="#11a8a4" stroke-miterlimit="10" stroke-width="10"/>
    <path id="Path_4850" data-name="Path 4850" d="M-584.518,550.051A172.859,172.859,0,0,0-450.857,613.1a173.21,173.21,0,0,0,173.2-173.2A173.167,173.167,0,0,0-443.572,266.86c-2.4-.115-4.842-.174-7.287-.174A173.03,173.03,0,0,0-598.374,349.1c-1.008,1.592-1.96,3.218-2.91,4.852" transform="translate(1146.094 1801.291)" fill="none" stroke="#11a8a4" stroke-miterlimit="10" stroke-width="10"/>
    <g id="Group_178" data-name="Group 178" transform="translate(512.564 1878.584)">
      <path id="Path_4851" data-name="Path 4851" d="M-547.208,105.05v61a5.163,5.163,0,0,1-5.161,5.162h-68.839a5.164,5.164,0,0,1-5.162-5.162v-61a5.164,5.164,0,0,1,5.163-5.165h9.19v4.092a3.533,3.533,0,0,0,3.534,3.53,3.531,3.531,0,0,0,3.529-3.53V99.883h36.33v4.095a3.531,3.531,0,0,0,3.529,3.53,3.533,3.533,0,0,0,3.534-3.53V99.883h9.191a5.164,5.164,0,0,1,5.162,5.167Z" transform="translate(626.369 -94.118)" fill="none" stroke="#0078d2" stroke-miterlimit="10" stroke-width="3"/>
      <path id="Path_4852" data-name="Path 4852" d="M-550.9,157.064v1.3c0,1.783-2.219,3.228-4.957,3.228h-63.058c-2.738,0-4.957-1.445-4.957-3.228v-1.3" transform="translate(626.968 -80.401)" fill="none" stroke="#0078d2" stroke-miterlimit="10" stroke-width="3"/>
      <line id="Line_80" data-name="Line 80" x2="79.16" transform="translate(0 28.828)" fill="none" stroke="#0078d2" stroke-miterlimit="10" stroke-width="3"/>
      <g id="Group_177" data-name="Group 177" transform="translate(14.353 0)">
        <path id="Path_4853" data-name="Path 4853" d="M-607.73,98.763v6.329a3.531,3.531,0,0,1-3.529,3.53,3.532,3.532,0,0,1-3.534-3.53V98.763a3.53,3.53,0,0,1,3.533-3.529,3.54,3.54,0,0,1,2.5,1.033A3.522,3.522,0,0,1-607.73,98.763Z" transform="translate(614.793 -95.234)" fill="none" stroke="#0078d2" stroke-miterlimit="10" stroke-width="3"/>
        <path id="Path_4854" data-name="Path 4854" d="M-572.733,98.763v6.329a3.533,3.533,0,0,1-3.534,3.53,3.531,3.531,0,0,1-3.529-3.53V98.763a3.529,3.529,0,0,1,3.529-3.529,3.523,3.523,0,0,1,2.5,1.033,3.51,3.51,0,0,1,1.036,2.5Z" transform="translate(623.189 -95.234)" fill="none" stroke="#0078d2" stroke-miterlimit="10" stroke-width="3"/>
      </g>
      <rect id="Rectangle_31" data-name="Rectangle 31" width="4.774" height="4.774" rx="0.59" transform="translate(13.111 38.977)" fill="none" stroke="#0078d2" stroke-miterlimit="10" stroke-width="3"/>
      <rect id="Rectangle_32" data-name="Rectangle 32" width="4.774" height="4.774" rx="0.59" transform="translate(29.519 38.977)" fill="none" stroke="#0078d2" stroke-miterlimit="10" stroke-width="3"/>
      <rect id="Rectangle_33" data-name="Rectangle 33" width="4.774" height="4.774" rx="0.59" transform="translate(45.927 38.977)" fill="none" stroke="#0078d2" stroke-miterlimit="10" stroke-width="3"/>
      <rect id="Rectangle_34" data-name="Rectangle 34" width="4.774" height="4.774" rx="0.59" transform="translate(62.335 38.977)" fill="none" stroke="#0078d2" stroke-miterlimit="10" stroke-width="3"/>
      <rect id="Rectangle_35" data-name="Rectangle 35" width="4.774" height="4.774" rx="0.59" transform="translate(13.111 50.972)" fill="none" stroke="#0078d2" stroke-miterlimit="10" stroke-width="3"/>
      <rect id="Rectangle_36" data-name="Rectangle 36" width="4.774" height="4.774" rx="0.59" transform="translate(29.519 50.972)" fill="none" stroke="#0078d2" stroke-miterlimit="10" stroke-width="3"/>
      <rect id="Rectangle_37" data-name="Rectangle 37" width="4.774" height="4.774" rx="0.59" transform="translate(45.927 50.972)" fill="none" stroke="#0078d2" stroke-miterlimit="10" stroke-width="3"/>
      <rect id="Rectangle_38" data-name="Rectangle 38" width="4.774" height="4.774" rx="0.59" transform="translate(62.335 50.972)" fill="none" stroke="#0078d2" stroke-miterlimit="10" stroke-width="3"/>
      <rect id="Rectangle_39" data-name="Rectangle 39" width="4.774" height="4.774" rx="0.59" transform="translate(13.111 62.968)" fill="none" stroke="#0078d2" stroke-miterlimit="10" stroke-width="3"/>
      <rect id="Rectangle_40" data-name="Rectangle 40" width="4.774" height="4.774" rx="0.59" transform="translate(29.519 62.968)" fill="none" stroke="#0078d2" stroke-miterlimit="10" stroke-width="3"/>
      <rect id="Rectangle_41" data-name="Rectangle 41" width="4.774" height="4.774" rx="0.59" transform="translate(45.927 62.968)" fill="none" stroke="#0078d2" stroke-miterlimit="10" stroke-width="3"/>
      <rect id="Rectangle_42" data-name="Rectangle 42" width="4.774" height="4.774" rx="0.59" transform="translate(62.335 62.968)" fill="none" stroke="#0078d2" stroke-miterlimit="10" stroke-width="3"/>
    </g>
    <g id="Group_179" data-name="Group 179" transform="translate(665.721 2162.257)">
      <circle id="Ellipse_36" data-name="Ellipse 36" cx="40.905" cy="40.905" r="40.905" transform="translate(0)" fill="none" stroke="#0078d2" stroke-miterlimit="10" stroke-width="3"/>
      <path id="Path_4855" data-name="Path 4855" d="M-424.5,402.145c-.009-.017-.017-.045-.027-.063-.236-.589-.662-1.061-.908-1.633-.128-.281-.145-.561-.3-.843a5.614,5.614,0,0,1-.364-.743c-.869-2.511.78-4.234,1.661-6.383a12.238,12.238,0,0,0,.679-6.953c-.127-.608-.322-1.024-.979-1.1-2.012-.225-3.717,1.5-5.956.953a10.1,10.1,0,0,1-4.623-3.173c-1.641-1.741-.816-6.347.082-8.242,1.278-2.674,3.418-3.762,5.892-5.068a9.841,9.841,0,0,1,5.113-.734c1.369.073,2.212,1.488,3.409,1.949a3.28,3.28,0,0,0,2.293-.107,5.406,5.406,0,0,0,1.868-.472c.725-.471,1.578-.516,2.285-1.051a6.789,6.789,0,0,0,.708-.517" transform="translate(495.051 -333.041)" fill="none" stroke="#0078d2" stroke-miterlimit="10" stroke-width="3"/>
      <path id="Path_4856" data-name="Path 4856" d="M-481.874,370.506c1.351,1.609,2.965,2.965,4.251,4.668,1.45,1.9,2.594,4.024,4.107,5.874,1.1,1.342,3.87,4.225,5.892,3.79,1.958-.416,1.622-3.137.933-4.479a11.654,11.654,0,0,0-1.18-1.641,7.187,7.187,0,0,1-1.369-3.54,1.155,1.155,0,0,1,.18-.889,1.228,1.228,0,0,1,.653-.308,30.79,30.79,0,0,0,5.512-1.776,3.11,3.11,0,0,0,.952-.59,3.557,3.557,0,0,0,.736-1.241c1.758-4.007,5.538-5.05,9.346-6.456a2.574,2.574,0,0,0,1.252-.761,2.18,2.18,0,0,0,.336-.989c.916-6.082-4.814-7.714-7.244-12.193-.788-1.442-.471-2.085-.253-3.735.128-.979.236-1.958.389-2.937.036-.245.063-.489.091-.743" transform="translate(483.121 -339.687)" fill="none" stroke="#0078d2" stroke-miterlimit="10" stroke-width="3"/>
      <path id="Path_4857" data-name="Path 4857" d="M-464.756,391.623c-1.161-1.54-3.142-2.055-3.7-3.869a3.494,3.494,0,0,0-.414-.708c-.124-.231-.047-.362-.086-.607-.036-.227-.165-.394-.191-.628a5.974,5.974,0,0,1,.006-.7,3.717,3.717,0,0,1,.17-1.574,7.08,7.08,0,0,1,2.023-2.582c1.906-1.511,3.742.162,5.173,1.314a1.972,1.972,0,0,0,.607.379c1.525.5,2.29-2.32,3.775-1.7.636.264.708,1.119,1.056,1.716a3.121,3.121,0,0,0,2.315,1.238A24.273,24.273,0,0,1-450,384.925a4.65,4.65,0,0,1,3.123,2.743,4.65,4.65,0,0,1-.318,4.144c-1.634,3.111-6.563,2.278-7.454,5.947a28.264,28.264,0,0,1-.751,3.851c-1.555,3.925-4.574.667-6.05-1.275-1.83-2.41-1.7-4.968-2.76-7.724A4.077,4.077,0,0,0-464.756,391.623Z" transform="translate(486.446 -329.802)" fill="none" stroke="#0078d2" stroke-miterlimit="10" stroke-width="3"/>
      <path id="Path_4858" data-name="Path 4858" d="M-450.816,355.964a22.172,22.172,0,0,1,.056-3.969,3.441,3.441,0,0,0-.193-1.449,6.61,6.61,0,0,0-1.013-1.295c-2.253-2.829,3.667-3.465,5.232-3.394a12.4,12.4,0,0,1,7.27,2.789,3.205,3.205,0,0,1,1.287,1.9c.346,2.592-5.108,2.45-6.51,3.369-1.252.82-3.568,6.766-5.692,3.269a3.471,3.471,0,0,1-.437-1.22Z" transform="translate(490.81 -338.826)" fill="none" stroke="#0078d2" stroke-miterlimit="10" stroke-width="3"/>
    </g>
    <g id="Group_180" data-name="Group 180" transform="translate(354.867 2157.517)">
      <path id="Path_4859" data-name="Path 4859" d="M-675.556,381.791v8.75l-9.642,4.906a36.6,36.6,0,0,1-1.694,5.107,37.02,37.02,0,0,1-2.383,4.754l3.406,10.075-6.251,6.187-10.077-3.2h0a38.054,38.054,0,0,1-10.328,4.355l-4.627,9.2h-8.839l-4.644-8.943a38.018,38.018,0,0,1-11.072-4.429h0l-9.516,3.025-6.253-6.187,3.1-9.169h0a37.325,37.325,0,0,1-4.752-11.264l-8.66-4.408v-8.752l8.679-4.28h0a37.377,37.377,0,0,1,1.937-5.861,37.264,37.264,0,0,1,2.836-5.391l-3-9.248,6.25-6.187,9.44,3.128a37.975,37.975,0,0,1,11.013-4.392l4.641-8.944h8.839l4.627,9.2a38.041,38.041,0,0,1,10.275,4.324h0l9.99-3.313,6.252,6.187-3.3,10.162a37.173,37.173,0,0,1,4.092,9.856h0Z" transform="translate(767.784 -340.615)" fill="none" stroke="#0078d2" stroke-miterlimit="10" stroke-width="3"/>
      <ellipse id="Ellipse_37" data-name="Ellipse 37" cx="27.048" cy="26.776" rx="27.048" ry="26.776" transform="translate(19.626 18.823)" fill="none" stroke="#0078d2" stroke-miterlimit="10" stroke-width="3"/>
      <path id="Path_4860" data-name="Path 4860" d="M-748.588,385.514l3.379-3.231a15.313,15.313,0,0,1-.815-3.483,15.867,15.867,0,0,1,3.982-12.36,15.867,15.867,0,0,1,11.878-5.247A15.933,15.933,0,0,1-724.3,362.3l-6.46,6.177a6.728,6.728,0,0,0-2.091,4.753,6.728,6.728,0,0,0,1.916,4.826A6.893,6.893,0,0,0-726,380.133a6.857,6.857,0,0,0,4.746-1.9l6.3-6.032A15.693,15.693,0,0,1-714.2,377a15.91,15.91,0,0,1-5.38,11.83,15.91,15.91,0,0,1-12.406,3.872,15.115,15.115,0,0,1-3.556-.826l-3.84,3.671" transform="translate(775.892 -331.923)" fill="none" stroke="#0078d2" stroke-miterlimit="10" stroke-width="3"/>
    </g>
    <path id="Path_4861" data-name="Path 4861" d="M-408.717,231.74l-34.44,18.51-18.51-34.44" transform="translate(1156.247 1797.591)" fill="none" stroke="#11a8a4" stroke-linecap="round" stroke-miterlimit="10" stroke-width="10"/>
    <path id="Path_4862" data-name="Path 4862" d="M-580.646,569.5l-6.575-38.542,38.542-6.575" transform="translate(1147.116 1820.031)" fill="none" stroke="#11a8a4" stroke-linecap="round" stroke-miterlimit="10" stroke-width="10"/>
    <path id="Path_4863" data-name="Path 4863" d="M-783.206,246.7l31.346,23.37-23.37,31.344" transform="translate(1132.864 1799.837)" fill="none" stroke="#11a8a4" stroke-linecap="round" stroke-miterlimit="10" stroke-width="10"/>
    <text id="_98_Countries_" data-name="98 Countries " transform="translate(613 2306.039)" fill="#0078d2" font-size="32" font-family="Poppins-Bold, Poppins" font-weight="700"><tspan x="0" y="0">98 Countries</tspan></text>
    <text id="_25_Years" data-name="25 Years" transform="translate(482 2027.039)" fill="#0078d2" font-size="32" font-family="Poppins-Bold, Poppins" font-weight="700"><tspan x="0" y="0">25 Years</tspan></text>
    <text id="_32_Programs_" data-name="32 Programs " transform="translate(302 2305.039)" fill="#0078d2" font-size="31" font-family="Poppins-Bold, Poppins" font-weight="700"><tspan x="0" y="0">32 Programs</tspan></text>
  </g>
</svg>
