<svg xmlns="http://www.w3.org/2000/svg" width="160" height="160" viewBox="0 0 160 160">
  <g id="Artboard_10" data-name="Artboard 10" transform="translate(-5 -5)">
    <circle id="Ellipse_493" data-name="Ellipse 493" cx="80" cy="80" r="80" transform="translate(5 5)" fill="#2d76bc"/>
    <path id="Path_71666" data-name="Path 71666" d="M102.31,68.15H98v3h4.28Zm-3.28,1h.76v1H99Zm2.28,1h-.52v-1h.52Z" fill="#fff"/>
    <path id="Path_71667" data-name="Path 71667" d="M106.91,68.15h-4.28v3h4.28Zm-3.28,1h.76v1h-.76Zm2.28,1h-.52v-1h.52Z" fill="#fff"/>
    <path id="Path_71668" data-name="Path 71668" d="M111.52,68.15h-4.28v3h4.28Zm-3.28,1H109v1h-.76Zm2.28,1H110v-1h.52Z" fill="#fff"/>
    <path id="Path_71669" data-name="Path 71669" d="M106.27,97.28a3.5,3.5,0,1,0-1.78,0,10.42,10.42,0,0,0-5.94,2.49l-.09.09-2.56,8.91a2.09,2.09,0,0,0,1.5,2.55,2.41,2.41,0,0,0,.53.07,2.1,2.1,0,0,0,2-1.49l.7-2.34-.09,3.16h1l.17-5.91a.64.64,0,0,0-.6-.67.6.6,0,0,0-.63.45l-1.51,5a1.095,1.095,0,0,1-2.1-.62l2.47-8.59a9.22,9.22,0,0,1,3.57-1.86l2,4.49a2.44,2.44,0,0,0-1.69,2.3v2.87h6.48a2.75,2.75,0,0,0,2.75-2.75V99.85l-.21-.15a12.24,12.24,0,0,0-5.97-2.42Zm-3.35-3.38a2.5,2.5,0,1,1,2.49,2.5A2.5,2.5,0,0,1,102.92,93.9Zm8.5,11.53a1.75,1.75,0,0,1-1.75,1.75h-5.48v-1.87a1.43,1.43,0,0,1,1.41-1.43l5.82-.1Zm0-2.65-5.51.1-2-4.57a10.21,10.21,0,0,1,7.51,2Z" fill="#fff"/>
    <rect id="Rectangle_14622" data-name="Rectangle 14622" width="1" height="2.42" transform="translate(109.22 108.44)" fill="#fff"/>
    <path id="Path_71670" data-name="Path 71670" d="M76.49,101.11H70.9v-.73l1.32-.91-4.89-4.86-4.89,4.86,1.33.92v.72H57.59v1h.08v9.16h9.66v-1h-.51v-2.51h.51v-1H65.82v3.51H58.67v-8.16h6.1v-1.77l2.56-2.57,2.57,2.57v1.77H76v8.16H68.85v-3.51H67.34v1h.51v2.51h-.52v1H77v-9.16h.06v-1Zm-9.16-4.75-3.12,3.12L64,99.33,67.33,96l3.33,3.31-.21.15Z" fill="#fff"/>
    <rect id="Rectangle_14623" data-name="Rectangle 14623" width="1.32" height="1.32" transform="translate(70.19 103.19)" fill="#fff"/>
    <rect id="Rectangle_14624" data-name="Rectangle 14624" width="1.32" height="1.32" transform="translate(73.44 103.19)" fill="#fff"/>
    <rect id="Rectangle_14625" data-name="Rectangle 14625" width="1.32" height="1.32" transform="translate(70.19 105.63)" fill="#fff"/>
    <rect id="Rectangle_14626" data-name="Rectangle 14626" width="1.32" height="1.32" transform="translate(73.44 105.63)" fill="#fff"/>
    <rect id="Rectangle_14627" data-name="Rectangle 14627" width="1.32" height="1.32" transform="translate(70.19 108.06)" fill="#fff"/>
    <rect id="Rectangle_14628" data-name="Rectangle 14628" width="1.32" height="1.32" transform="translate(73.44 108.06)" fill="#fff"/>
    <rect id="Rectangle_14629" data-name="Rectangle 14629" width="1.32" height="1.32" transform="translate(63.15 103.19)" fill="#fff"/>
    <rect id="Rectangle_14630" data-name="Rectangle 14630" width="1.32" height="1.32" transform="translate(59.9 103.19)" fill="#fff"/>
    <rect id="Rectangle_14631" data-name="Rectangle 14631" width="1.32" height="1.32" transform="translate(63.15 105.63)" fill="#fff"/>
    <rect id="Rectangle_14632" data-name="Rectangle 14632" width="1.32" height="1.32" transform="translate(59.9 105.63)" fill="#fff"/>
    <rect id="Rectangle_14633" data-name="Rectangle 14633" width="1.32" height="1.32" transform="translate(63.15 108.06)" fill="#fff"/>
    <rect id="Rectangle_14634" data-name="Rectangle 14634" width="1.32" height="1.32" transform="translate(59.9 108.06)" fill="#fff"/>
    <path id="Path_71671" data-name="Path 71671" d="M67.39,102.92v-.79l.56.56.36-.36-.56-.56h.79v-.5h-.79l.56-.56-.36-.35-.56.56v-.79h-.5v.79l-.55-.56-.36.35.56.56h-.79v.5h.79l-.56.56.36.36.55-.56v.79Z" fill="#fff"/>
    <path id="Path_71672" data-name="Path 71672" d="M65.08,76.75a22.66,22.66,0,0,0,6.54-1l.27-.08V71c-.23-1.89-3.35-2.69-3.5-2.73A10.45,10.45,0,0,1,67.11,68a.84.84,0,0,1-.55-.79v-.45a4.3,4.3,0,0,0,1.68-2.14l.09.14.15-1.08v-.14h0a3.871,3.871,0,0,0,0-.48A4.32,4.32,0,0,0,64.3,58.6a4.19,4.19,0,0,0-3.88,2.71,5.46,5.46,0,0,1-1.12,1.88l-1.42.71h2.31a4.25,4.25,0,0,0,2,2.9v.36a.82.82,0,0,1-.55.78,8.53,8.53,0,0,1-1.3.35c-.13,0-3.24.84-3.48,2.78v4.64l.27.08a22.42,22.42,0,0,0,7.22.95Zm3-5.65a.35.35,0,1,1-.153-.352A.35.35,0,0,1,68.08,71.1Zm-7-9.53a3.46,3.46,0,0,1,3.18-2.22,3.59,3.59,0,0,1,3.43,3l-.1-.11-.06-.07a9.069,9.069,0,0,0-1-1l-.29-.25h0l-1.46,1.74a1.43,1.43,0,0,1-1.09.51H60.31a10.37,10.37,0,0,0,.81-1.6ZM60.9,63.9h2.82a2.16,2.16,0,0,0,1.67-.78l1-1.14c.19.18.36.38.54.58s.12.14.18.21a7,7,0,0,1,.43.63,2.33,2.33,0,0,1,.17.26,3.43,3.43,0,0,1-6.77.24Zm2,3.26h0a3.77,3.77,0,0,0,2.85,0h0a1.58,1.58,0,0,0,.65,1.28,5.81,5.81,0,0,1-4.28.07A1.57,1.57,0,0,0,63,67.16Zm-5.33,4c.13-1.08,1.92-1.81,2.75-2v1.3a2,2,0,0,0-1.62,2v1.5a.81.81,0,0,0,.79.65h.16l.38-.08L60,73.69h-.44V72.37a1.26,1.26,0,0,1,1.29-1.29h0a1.29,1.29,0,0,1,.91.37,1.32,1.32,0,0,1,.38.92L62,73.76l-.36-.07-.15.73.36.08H62a.8.8,0,0,0,.81-.8V72.37a2,2,0,0,0-1.71-2v-1.5h0a6.55,6.55,0,0,0,6.22,0v1.25a1.1,1.1,0,1,0,.75,0V69h.1c.77.19,2.78.94,2.92,2v4.08a22,22,0,0,1-6.77.84,22,22,0,0,1-6.74-.84Z" fill="#fff"/>
    <path id="Path_71673" data-name="Path 71673" d="M118.67,75.91a35.07,35.07,0,0,0-3.45-8.39l3-9.39-6.5-6.49L102.6,54.7A34.57,34.57,0,0,0,93.93,51l-4.24-8.5H80.51l-4.25,8.27a34.71,34.71,0,0,0-9.34,3.76l-8.66-2.89-6.49,6.49,2.74,8.55a36.36,36.36,0,0,0-2.38,4.65,35.209,35.209,0,0,0-1.68,5l-8,4V89.5l7.93,4.07a35.39,35.39,0,0,0,4,9.69l-2.84,8.48,6.5,6.49,8.72-2.8a34.87,34.87,0,0,0,9.4,3.8l4.25,8.27H89.6l4.32-8.5a34.91,34.91,0,0,0,8.73-3.72l9.22,3,6.49-6.49-3.12-9.32a33.7,33.7,0,0,0,2-4A35.119,35.119,0,0,0,118.68,94l8.82-4.53V80.31Zm6.83,12.36L117,92.66l-.11.44a32.82,32.82,0,0,1-3.56,8.7l-.23.39,3,9L111.32,116l-8.93-2.86-.39.24a33.15,33.15,0,0,1-9,3.84l-.44.12-4.09,8.21H81.72l-4.11-8-.45-.11a32.81,32.81,0,0,1-9.67-3.91l-.39-.23L58.68,116l-4.76-4.75,2.75-8.2-.25-.4a32.91,32.91,0,0,1-4.15-9.94l-.11-.45L44.5,88.28V81.55l7.68-3.82.1-.46a33.6,33.6,0,0,1,4.17-9.93L56.7,67l-2.65-8.27,4.75-4.75,8.35,2.79.4-.24a32.7,32.7,0,0,1,9.62-3.87l.45-.11,4.11-8h6.73l4.09,8.21.44.12a32.9,32.9,0,0,1,9,3.81l.4.25,8.85-3L116,58.68l-2.6,8.1V62.52l-6.35,3,.13-3.13-6.39,3.3-.66-9H97.37l-.69,9.82v6.56h16.68V68.31a33,33,0,0,1,3.49,8.54l.11.44,8.54,4.26ZM98.18,59.41h1.11l.48,6.6h-2Zm.07-1v-.72h.86l.06.72Zm1.6,8.6v.29l6.2-3.21-.13,3.06,6.42-3v8H97.68V67Z" fill="#fff"/>
    <path id="Path_71674" data-name="Path 71674" d="M101.25,85A15.75,15.75,0,1,0,85.5,100.7,15.75,15.75,0,0,0,101.25,85ZM85.5,98.7A13.75,13.75,0,1,1,99.25,85,13.75,13.75,0,0,1,85.5,98.7Z" fill="#fff"/>
    <path id="Path_71675" data-name="Path 71675" d="M75.1,91.45h5.37v1.08H78.13v1h5.69v-1H81.47V91.45h5.38V83.52H75.1Zm1-6.93h9.75v5.93H76.1Z" fill="#fff"/>
    <path id="Path_71676" data-name="Path 71676" d="M92.68,78.25v-.06a2.06,2.06,0,0,0-.61-1.46,2.09,2.09,0,0,0-2-.52A2.79,2.79,0,0,0,85,77.33a2.89,2.89,0,0,0,0,5.65v.07h8.27V83a2.4,2.4,0,0,0-.51-4.7Zm1.22,2.39A1.39,1.39,0,0,1,92.64,82H85.45a1.89,1.89,0,0,1,0-3.77h.47v-.47a1.79,1.79,0,0,1,3.43-.72l.23.52.48-.29a1.09,1.09,0,0,1,1.31.16,1.06,1.06,0,0,1,.31.75,1,1,0,0,1-.09.41l-.37.91,1-.23a1.41,1.41,0,0,1,1.73,1.36Z" fill="#fff"/>
    <path id="Path_71677" data-name="Path 71677" d="M90.88,85.77a.9.9,0,0,1-.26.64h0l-.7-.7-1.46,1.45,1.48,1.48.71-.71-.29-.29a1.85,1.85,0,0,0,1-.53,1.9,1.9,0,0,0,.56-1.35V84h-1Z" fill="#fff"/>
    <path id="Path_71678" data-name="Path 71678" d="M78.87,80.62a.91.91,0,0,1,.3-.67h0l.71.71,1.45-1.45-1.48-1.48-.7.71.29.29a1.92,1.92,0,0,0-1.56,1.88v1.74h1Z" fill="#fff"/>
  </g>
</svg>
