<svg xmlns="http://www.w3.org/2000/svg" width="160" height="160" viewBox="0 0 160 160">
  <g id="Artboard_3" data-name="Artboard 3" transform="translate(-5 -5)">
    <circle id="Ellipse_500" data-name="Ellipse 500" cx="80" cy="80" r="80" transform="translate(5 5)" fill="#2d76bc"/>
    <g id="Project_Management_" data-name="Project Management ">
      <g id="Group_56" data-name="Group 56">
        <path id="Path_3992" data-name="Path 3992" d="M123.3,105.59A13.34,13.34,0,0,0,112.42,98H112V88.77a3.3,3.3,0,0,0-3.29-3.31H85.78V78.32h15.44a.8.8,0,0,0,.8-.8,17,17,0,0,0-5-12A16.339,16.339,0,0,0,94,63l-.4-.25.27-.39a10.79,10.79,0,1,0-17.72,0l.26.39L76,63a16.62,16.62,0,0,0-3,2.43,17.07,17.07,0,0,0-5,12,.8.8,0,0,0,.8.8H84.19v7.14H61.26a3.3,3.3,0,0,0-3.3,3.3h0v9.14h-.42a13.29,13.29,0,0,0,1.17,26.53H59.9a13.35,13.35,0,0,0,10.81-7.51l.36-.74.43.7a15.77,15.77,0,0,0,27,0l.44-.71.36.75a13.37,13.37,0,0,0,12,7.63,13.15,13.15,0,0,0,5.65-1.28,13.31,13.31,0,0,0,6.35-17.59ZM75.79,56.29a9.2,9.2,0,1,0,.01,0ZM69.51,76.72v-.49a15.33,15.33,0,0,1,4.53-9.62,15,15,0,0,1,3.19-2.41l.28-.17.24.22a10.7,10.7,0,0,0,14.51,0l.24-.22.29.17a15.52,15.52,0,0,1,7.58,12v.49Zm.64,37.13a11.61,11.61,0,0,1-11.4,9.08h0a11.69,11.69,0,1,1,10.71-16.35,11.22,11.22,0,0,1,1,4.67,9.93,9.93,0,0,1-.31,2.6Zm0-10.69-.29.76-.48-.65A13.32,13.32,0,0,0,60,98h-.41V88.77a1.7,1.7,0,0,1,1.7-1.7h22.9v5.85h-.42a15.71,15.71,0,0,0-13.57,10.2Zm28.68,3.13a13,13,0,0,0-1,5,12.69,12.69,0,0,0,.25,2.53v.25a14.19,14.19,0,0,1-26.33,0l-.06-.13v-.13a12,12,0,0,0,.24-2.54,13.18,13.18,0,0,0-1-5v-.25a14.18,14.18,0,0,1,27.83,0v.13ZM86.2,93h-.42V87.07h22.93a1.7,1.7,0,0,1,1.7,1.7h0v9.15h-.4a13.28,13.28,0,0,0-9.45,5.33l-.5.66-.29-.77A15.73,15.73,0,0,0,86.2,93Zm34.73,24.75a11.66,11.66,0,0,1-1.92,2.22l-.75.67v-6.86a.81.81,0,0,0-1.61,0h0v7.78l-.25.12a11.69,11.69,0,0,1-3.88,1.16h-.5V112.5a.8.8,0,1,0-1.6,0v10.42l-.5-.06a11.07,11.07,0,0,1-2.6-.62l-.3-.1v-4.65a.8.8,0,0,0-1.6,0h0v3.94l-.7-.46a11.69,11.69,0,0,1,6.49-21.42,11.56,11.56,0,0,1,6.47,2,11.71,11.71,0,0,1,3.25,16.2Z" fill="#fff"/>
      </g>
      <g id="Group_57" data-name="Group 57">
        <path id="Path_3993" data-name="Path 3993" d="M89.53,108.75a.8.8,0,0,1-.8.8H85a.8.8,0,0,1-.8-.8v-7.5a.8.8,0,1,1,1.6,0V108h3a.8.8,0,0,1,.8.8Z" fill="#fff"/>
      </g>
      <g id="Group_58" data-name="Group 58">
        <path id="Path_3994" data-name="Path 3994" d="M117,106.25a.77.77,0,0,1-.23.57l-2.5,2.51a.84.84,0,0,1-.57.23.78.78,0,0,1-.56-.24l-1.61-1.63-.32-.32-.32.32-4.12,4.13a.79.79,0,0,1-1.12,0h0a.82.82,0,0,1-.24-.57.8.8,0,0,1,.24-.56l5-5a.79.79,0,0,1,1.13,0l1.62,1.62.31.32.32-.32,1.61-1.62a.81.81,0,0,1,.57-.23.79.79,0,0,1,.81.78h0Z" fill="#fff"/>
      </g>
      <g id="Group_59" data-name="Group 59">
        <path id="Path_3995" data-name="Path 3995" d="M61.82,112.62a3.29,3.29,0,0,1-2,4.22l-.3.11v1.79a.8.8,0,1,1-1.6,0V117H55a.8.8,0,1,1,0-1.6h3.76a1.7,1.7,0,0,0,.22-3.39H57.51a3.3,3.3,0,0,1,0-6.6H58v-1.7a.8.8,0,0,1,1.6,0v1.7h1.7a.81.81,0,0,1,0,1.61H57.51a1.7,1.7,0,0,0-.22,3.39h1.46a3.28,3.28,0,0,1,3.07,2.21Z" fill="#fff"/>
      </g>
    </g>
  </g>
</svg>
