<svg xmlns="http://www.w3.org/2000/svg" width="160" height="160" viewBox="0 0 160 160">
  <g id="Artboard_8" data-name="Artboard 8" transform="translate(-5 -5)">
    <circle id="Ellipse_504" data-name="Ellipse 504" cx="80" cy="80" r="80" transform="translate(5 5)" fill="#2d76bc"/>
    <path id="Path_71728" data-name="Path 71728" d="M86.28,49.39H83.73v3.82H79.91v2.53h3.82v3.82h2.55V55.74h3.81V53.21H86.28Z" fill="#fff"/>
    <path id="Path_71729" data-name="Path 71729" d="M111.72,121.88v-61H101.55V45.57H68.49V60.83H58.29v61.05H45.57v2.55h78.86v-2.55ZM71,48.12H99V60.83H71Zm12.71,73.76H73.56V101.53H83.73Zm12.71,0H86.28V101.53H96.44Zm12.75,0H99V99H71v22.89H60.85V63.38h48.34Z" fill="#fff"/>
    <path id="Path_71730" data-name="Path 71730" d="M76.09,68.47H65.92V78.64H76.09Zm-2.53,7.64H68.47V71h5.09Z" fill="#fff"/>
    <path id="Path_71731" data-name="Path 71731" d="M104.08,68.47H93.91V78.64h10.17Zm-2.55,7.64H96.44V71h5.09Z" fill="#fff"/>
    <path id="Path_71732" data-name="Path 71732" d="M76.09,83.75H65.92V93.91H76.09Zm-2.53,7.62H68.47V86.28h5.09Z" fill="#fff"/>
    <path id="Path_71733" data-name="Path 71733" d="M104.08,83.75H93.91V93.91h10.17Zm-2.55,7.62H96.44V86.28h5.09Z" fill="#fff"/>
    <path id="Path_71734" data-name="Path 71734" d="M90.08,68.47H79.91V78.64H90.08Zm-2.53,7.64H82.46V71h5.09Z" fill="#fff"/>
    <path id="Path_71735" data-name="Path 71735" d="M90.08,83.75H79.91V93.91H90.08Zm-2.53,7.62H82.46V86.28h5.09Z" fill="#fff"/>
  </g>
</svg>
