<?xml version="1.0" encoding="utf-8"?>
<!-- Generator: Adobe Illustrator 26.0.3, SVG Export Plug-In . SVG Version: 6.00 Build 0)  -->
<svg version="1.1" id="Layer_1" xmlns="http://www.w3.org/2000/svg" xmlns:xlink="http://www.w3.org/1999/xlink" x="0px" y="0px"
	 viewBox="0 0 160 160" style="enable-background:new 0 0 160 160;" xml:space="preserve">
<style type="text/css">
	.st0{fill:#2D76BC;}
	.st1{fill:#FFFFFF;}
</style>
<circle id="Ellipse_504" class="st0" cx="80" cy="80" r="80"/>
<g id="Project_Management_">
	<g id="Group_56">
		<path id="Path_3992" class="st1" d="M116.7,99.8c-1.9-4.1-5.9-6.9-10.4-7.3h-0.4v-8.8c0-1.7-1.4-3.2-3.1-3.2c0,0,0,0,0,0H80.8
			v-6.8h14.8c0.4,0,0.8-0.3,0.8-0.8v0c0-4.3-1.7-8.4-4.8-11.5c-0.9-0.9-1.8-1.7-2.9-2.4l-0.4-0.2l0.3-0.4c3.3-4.7,2.1-11.1-2.6-14.4
			c-4.7-3.3-11.1-2.1-14.4,2.6c-2.5,3.5-2.5,8.2,0,11.8l0.2,0.4L71.4,59c-1,0.7-2,1.4-2.9,2.3c-3,3-4.8,7.2-4.8,11.5
			c0,0.4,0.3,0.8,0.8,0.8h0h14.7v6.8H57.3c-1.7,0-3.2,1.4-3.2,3.2l0,0l0,0v8.7h-0.4c-7,0.6-12.2,6.8-11.6,13.8
			c0.6,6.6,6.1,11.6,12.7,11.6c0.4,0,0.8,0,1.1,0c4.5-0.4,8.4-3.1,10.3-7.2l0.3-0.7l0.4,0.7c4.3,7.1,13.6,9.4,20.7,5.1
			c2.1-1.3,3.9-3,5.1-5.1l0.4-0.7l0.3,0.7c2.1,4.4,6.6,7.3,11.5,7.3c1.9,0,3.7-0.4,5.4-1.2C116.9,113.6,119.6,106.1,116.7,99.8z
			 M71.2,52.6c0-4.9,3.9-8.8,8.8-8.8c4.9,0,8.8,3.9,8.8,8.8c0,4.8-3.9,8.8-8.8,8.8C75.2,61.4,71.2,57.5,71.2,52.6L71.2,52.6z
			 M65.2,72.1v-0.5c0.3-3.5,1.8-6.8,4.3-9.2c0.9-0.9,1.9-1.7,3.1-2.3l0.3-0.2l0.2,0.2c3.9,3.6,10,3.6,13.9,0l0.2-0.2l0.3,0.2
			c4.1,2.4,6.8,6.7,7.3,11.5v0.5L65.2,72.1z M65.8,107.7c-1.1,5.1-5.7,8.7-10.9,8.7l0,0c-6.2,0-11.2-5-11.2-11.2
			c0-6.2,5-11.2,11.2-11.2c4.5,0,8.5,2.6,10.3,6.7c0.6,1.4,1,2.9,1,4.5C66.1,106,66,106.8,65.8,107.7z M65.8,97.4l-0.3,0.7l-0.5-0.6
			c-2.1-2.9-5.4-4.7-9-5h-0.4v-8.8c0-0.9,0.7-1.6,1.6-1.6h21.9v5.6h-0.4C73,88.1,67.9,91.9,65.8,97.4L65.8,97.4z M93.3,100.4
			c-0.6,1.5-1,3.1-1,4.8c0,0.8,0.1,1.6,0.2,2.4v0.1v0.1c-2.8,7-10.7,10.3-17.7,7.5c-3.4-1.4-6.1-4.1-7.5-7.5l-0.1-0.1v-0.1
			c0.2-0.8,0.2-1.6,0.2-2.4c0-1.6-0.3-3.3-1-4.8v-0.1v-0.1C68,92.8,75.1,88,82.5,89.5c5.4,1.1,9.6,5.3,10.7,10.7v0.1L93.3,100.4z
			 M81.2,87.7h-0.4V82h21.9c0.9,0,1.6,0.7,1.6,1.6l0,0v8.8H104c-3.6,0.3-6.9,2.2-9,5.1l-0.5,0.6l-0.3-0.7
			C92.1,91.9,87,88.1,81.2,87.7z M114.4,111.4c-0.5,0.8-1.1,1.5-1.8,2.1l-0.7,0.6v-6.6c0-0.4-0.4-0.7-0.9-0.7
			c-0.4,0-0.6,0.3-0.7,0.7l0,0v7.4l-0.2,0.1c-1.2,0.6-2.4,1-3.7,1.1h-0.5v-9.9c0-0.4-0.3-0.8-0.8-0.8c-0.4,0-0.8,0.3-0.8,0.8v10
			l-0.5-0.1c-0.8-0.1-1.7-0.3-2.5-0.6l-0.3-0.1v-4.4c0-0.4-0.3-0.8-0.8-0.8c-0.4,0-0.8,0.3-0.8,0.8l0,0v3.8l-0.7-0.4
			c-5.1-3.4-6.5-10.4-3.1-15.5c2.1-3.1,5.6-5,9.3-5c2.2,0,4.4,0.7,6.2,1.9C116.4,99.3,117.8,106.3,114.4,111.4z"/>
	</g>
	<g id="Group_57">
		<path id="Path_3993" class="st1" d="M84.4,102.8c0,0.4-0.3,0.8-0.8,0.8h0H80c-0.4,0-0.8-0.3-0.8-0.8v0v-7.2c0-0.4,0.3-0.8,0.8-0.8
			c0.4,0,0.8,0.3,0.8,0.8c0,0,0,0,0,0v6.5h2.9C84.1,102.1,84.4,102.4,84.4,102.8L84.4,102.8L84.4,102.8z"/>
	</g>
	<g id="Group_58">
		<path id="Path_3994" class="st1" d="M110.6,100.4c0,0.2-0.1,0.4-0.2,0.5l-2.4,2.4c-0.1,0.1-0.3,0.2-0.5,0.2
			c-0.2,0-0.4-0.1-0.5-0.2l-1.5-1.6l-0.3-0.3l-0.3,0.3l-3.9,4c-0.3,0.3-0.8,0.3-1.1,0c0,0,0,0,0,0l0,0c-0.1-0.1-0.2-0.3-0.2-0.5
			c0-0.2,0.1-0.4,0.2-0.5l4.8-4.8c0.3-0.3,0.8-0.3,1.1,0c0,0,0,0,0,0l1.5,1.5l0.3,0.3l0.3-0.3l1.5-1.5c0.1-0.1,0.3-0.2,0.5-0.2
			C110.3,99.6,110.7,100,110.6,100.4C110.7,100.4,110.7,100.4,110.6,100.4L110.6,100.4L110.6,100.4z"/>
	</g>
	<g id="Group_59">
		<path id="Path_3995" class="st1" d="M57.9,106.5c0.6,1.6-0.3,3.4-1.9,4c0,0,0,0,0,0l-0.3,0.1v1.7c0,0.4-0.3,0.8-0.8,0.8
			c-0.4,0-0.8-0.3-0.8-0.8c0,0,0,0,0,0v-1.7h-2.8c-0.4,0-0.8-0.3-0.8-0.8c0-0.4,0.3-0.8,0.8-0.8h3.6c0.9,0,1.6-0.7,1.7-1.6
			c0-0.8-0.6-1.6-1.5-1.7h-1.4c-1.7,0-3.2-1.4-3.2-3.2c0-1.7,1.4-3.2,3.2-3.2h0.5V98c0-0.4,0.3-0.8,0.8-0.8c0.4,0,0.8,0.3,0.8,0.8
			v1.6h1.6c0.4,0,0.7,0.4,0.7,0.9c0,0.4-0.3,0.6-0.7,0.7h-3.6c-0.9,0-1.6,0.7-1.7,1.6c0,0.8,0.6,1.6,1.5,1.7h1.4
			C56.2,104.4,57.4,105.2,57.9,106.5z"/>
	</g>
</g>
</svg>
