<svg xmlns="http://www.w3.org/2000/svg" width="43" height="56" viewBox="0 0 43 56">
  <g id="pdf" transform="translate(-6.5)">
    <path id="Path_79470" data-name="Path 79470" d="M36.985,0H7.963C7.155,0,6.5.655,6.5,1.926V55a1.506,1.506,0,0,0,1.463,1H48.037A1.506,1.506,0,0,0,49.5,55V12.978c0-.7-.093-.92-.257-1.085L37.607.257A.884.884,0,0,0,36.985,0Z" fill="#e9e9e0"/>
    <path id="Path_79471" data-name="Path 79471" d="M37.5.151V12H49.349Z" fill="#d9d7ca"/>
    <path id="Path_79472" data-name="Path 79472" d="M19.514,33.324h0A1.605,1.605,0,0,1,18.547,33a2.4,2.4,0,0,1-1.115-2.242c.182-1.628,2.195-3.332,5.985-5.068a67.126,67.126,0,0,0,3.788-10.75c-1-2.172-1.968-4.99-1.261-6.643A1.918,1.918,0,0,1,27.078,7.08a4.909,4.909,0,0,1,1.016-.172c.5,0,.947.649,1.261,1.049.3.376.964,1.173-.373,6.8a31.954,31.954,0,0,0,5.088,7.562,19.455,19.455,0,0,1,3.358-.358c1.566,0,2.515.365,2.9,1.117a2.024,2.024,0,0,1-.39,2.16,2.658,2.658,0,0,1-2.22,1.191c-1.216,0-2.632-.768-4.211-2.285a47.915,47.915,0,0,0-8.828,2.822A28.374,28.374,0,0,1,22.3,31.219C21.273,32.654,20.389,33.324,19.514,33.324ZM22.176,28.2c-2.137,1.2-3.008,2.188-3.071,2.744-.01.092-.037.334.431.692C19.685,31.587,20.555,31.19,22.176,28.2Zm13.637-4.442c.815.627,1.014.944,1.547.944a1.508,1.508,0,0,0,1.21-.441,1.583,1.583,0,0,0,.23-.415c-.123-.065-.286-.2-1.175-.2A14.621,14.621,0,0,0,35.813,23.756Zm-7.47-6.582a71.291,71.291,0,0,1-2.674,7.564,49.966,49.966,0,0,1,6.5-2.02A34.23,34.23,0,0,1,28.343,17.174Zm-.607-8.462a2.4,2.4,0,0,0,.1,3.216C28.781,9.813,27.779,8.7,27.736,8.712Z" fill="#cc4b4c"/>
    <path id="Path_79473" data-name="Path 79473" d="M48.037,56H7.963A1.463,1.463,0,0,1,6.5,54.537V39h43V54.537A1.463,1.463,0,0,1,48.037,56Z" fill="#cc4b4c"/>
    <g id="Group_13620" data-name="Group 13620">
      <path id="Path_79474" data-name="Path 79474" d="M17.385,53H15.744V42.924h2.9a4.067,4.067,0,0,1,1.271.205,3.456,3.456,0,0,1,1.128.615,3.211,3.211,0,0,1,.807.991,2.746,2.746,0,0,1,.308,1.306,3.572,3.572,0,0,1-.26,1.388,2.9,2.9,0,0,1-.725,1.046,3.267,3.267,0,0,1-1.121.656,4.314,4.314,0,0,1-1.449.232H17.384V53Zm0-8.832V48.16h1.5a1.787,1.787,0,0,0,.595-.1,1.5,1.5,0,0,0,.54-.335,1.638,1.638,0,0,0,.4-.649,3.074,3.074,0,0,0,.15-1.032,2.792,2.792,0,0,0-.068-.567,1.637,1.637,0,0,0-.28-.615,1.657,1.657,0,0,0-.595-.492,2.21,2.21,0,0,0-1.012-.2h-1.23Z" fill="#fff"/>
      <path id="Path_79475" data-name="Path 79475" d="M32.219,47.682a7.4,7.4,0,0,1-.267,2.126,5.285,5.285,0,0,1-.677,1.477,3.478,3.478,0,0,1-.923.937,4.63,4.63,0,0,1-.991.513,4.1,4.1,0,0,1-.875.219A5.827,5.827,0,0,1,27.9,53H24.084V42.924h3.035a5.766,5.766,0,0,1,2.235.4,4.64,4.64,0,0,1,1.6,1.073,4.4,4.4,0,0,1,.95,1.524A5.047,5.047,0,0,1,32.219,47.682ZM27.352,51.8a2.716,2.716,0,0,0,2.406-1.066,5.412,5.412,0,0,0,.738-3.09,5.234,5.234,0,0,0-.15-1.244,2.661,2.661,0,0,0-.581-1.114,3.066,3.066,0,0,0-1.169-.807,5.034,5.034,0,0,0-1.914-.308h-.957V51.8h1.627Z" fill="#fff"/>
      <path id="Path_79476" data-name="Path 79476" d="M36.266,44.168V47.34h4.211v1.121H36.266V53H34.6V42.924h6.3v1.244Z" fill="#fff"/>
    </g>
  </g>
</svg>
