<svg xmlns="http://www.w3.org/2000/svg" width="1652.422" height="327.887" viewBox="0 0 1652.422 327.887">
  <g id="Group_840" data-name="Group 840" transform="translate(-566.415 -2819.62)">
    <path id="Path_2920" data-name="Path 2920" d="M3156.131,3821.786c34.083,0,99.354-.51,130.027-59.185,39.194-84.561,108.114-91.831,142.64-91.838" transform="translate(-2589.716 -838.642)" fill="none" stroke="#2db8d7" stroke-miterlimit="10" stroke-width="25" style="mix-blend-mode: multiply;isolation: isolate"/>
    <path id="Path_2921" data-name="Path 2921" d="M3507.8,3821.786c-34.083,0-98.845-.418-129.517-59.093-39.2-84.561-108.625-91.923-143.15-91.93" transform="translate(-2396.05 -838.642)" fill="none" stroke="#2db8d7" stroke-miterlimit="10" stroke-width="25" style="mix-blend-mode: multiply;isolation: isolate"/>
    <path id="Path_2922" data-name="Path 2922" d="M3156.131,3761.671c35.9,0,89.494-.51,145.936-24.961,76.74-33.248,83.1-41.425,126.731-41.425" transform="translate(-2589.716 -778.528)" fill="none" stroke="#2db8d7" stroke-miterlimit="10" stroke-width="25" style="mix-blend-mode: multiply;isolation: isolate"/>
    <path id="Path_2923" data-name="Path 2923" d="M3507.8,3761.671c-35.9,0-88.982-.418-145.425-24.871-76.741-33.245-83.616-41.515-127.243-41.515" transform="translate(-2396.05 -778.528)" fill="none" stroke="#2db8d7" stroke-miterlimit="10" stroke-width="25" style="mix-blend-mode: multiply;isolation: isolate"/>
    <path id="Path_2924" data-name="Path 2924" d="M3156.131,3714.519c34.083,0,99.354.328,130.027,59,39.194,84.562,108.114,92.854,142.64,92.861" transform="translate(-2589.716 -731.376)" fill="none" stroke="#2db8d7" stroke-miterlimit="10" stroke-width="25" style="mix-blend-mode: multiply;isolation: isolate"/>
    <path id="Path_2925" data-name="Path 2925" d="M3507.8,3714.519c-34.083,0-98.845.42-129.517,59.1-39.2,84.561-108.625,92.761-143.15,92.768" transform="translate(-2396.05 -731.376)" fill="none" stroke="#2db8d7" stroke-miterlimit="10" stroke-width="25" style="mix-blend-mode: multiply;isolation: isolate"/>
    <path id="Path_2926" data-name="Path 2926" d="M3156.131,3714.519c35.9,0,89.494.328,145.936,24.781,76.74,33.245,83.1,42.446,126.731,42.446" transform="translate(-2589.716 -731.376)" fill="none" stroke="#2db8d7" stroke-miterlimit="10" stroke-width="25" style="mix-blend-mode: multiply;isolation: isolate"/>
    <path id="Path_2927" data-name="Path 2927" d="M3507.8,3714.519c-35.9,0-88.982.42-145.425,24.872-76.741,33.247-83.616,42.356-127.243,42.356" transform="translate(-2396.05 -731.376)" fill="none" stroke="#2db8d7" stroke-miterlimit="10" stroke-width="25" style="mix-blend-mode: multiply;isolation: isolate"/>
    <path id="Path_2928" data-name="Path 2928" d="M3314.131,3780.11c34.083,0,98.508-.169,129.186-36.109,39.194-51.8,108.956-56.235,143.481-56.239" transform="translate(-2202.384 -796.968)" fill="none" stroke="#91d51e" stroke-miterlimit="10" stroke-width="25" style="mix-blend-mode: multiply;isolation: isolate"/>
    <path id="Path_2929" data-name="Path 2929" d="M3665.8,3780.11c-34.083,0-98.843-.254-129.517-36.2-39.194-51.8-108.624-56.146-143.149-56.149" transform="translate(-2008.716 -796.968)" fill="none" stroke="#91d51e" stroke-miterlimit="10" stroke-width="25" style="mix-blend-mode: multiply;isolation: isolate"/>
    <path id="Path_2930" data-name="Path 2930" d="M3314.131,3743.287c35.9,0,88.647-.169,145.089-15.145,76.744-20.367,83.95-25.358,127.578-25.358" transform="translate(-2202.384 -760.146)" fill="none" stroke="#91d51e" stroke-miterlimit="10" stroke-width="25" style="mix-blend-mode: multiply;isolation: isolate"/>
    <path id="Path_2931" data-name="Path 2931" d="M3665.8,3743.287c-35.9,0-88.982-.254-145.425-15.235-76.739-20.363-83.615-25.268-127.241-25.268" transform="translate(-2008.716 -760.146)" fill="none" stroke="#91d51e" stroke-miterlimit="10" stroke-width="25" style="mix-blend-mode: multiply;isolation: isolate"/>
    <path id="Path_2932" data-name="Path 2932" d="M3314.131,3714.519c34.083,0,98.508.345,129.186,36.289,39.194,51.8,108.956,56.9,143.481,56.9" transform="translate(-2202.384 -731.376)" fill="none" stroke="#91d51e" stroke-miterlimit="10" stroke-width="25" style="mix-blend-mode: multiply;isolation: isolate"/>
    <path id="Path_2933" data-name="Path 2933" d="M3665.8,3714.519c-34.083,0-98.843.258-129.517,36.2-39.194,51.8-108.624,56.984-143.149,56.988" transform="translate(-2008.716 -731.376)" fill="none" stroke="#91d51e" stroke-miterlimit="10" stroke-width="25" style="mix-blend-mode: multiply;isolation: isolate"/>
    <path id="Path_2934" data-name="Path 2934" d="M3314.131,3714.519c35.9,0,88.647.345,145.089,15.324,76.744,20.364,83.95,26.021,127.578,26.021" transform="translate(-2202.384 -731.376)" fill="none" stroke="#91d51e" stroke-miterlimit="10" stroke-width="25" style="mix-blend-mode: multiply;isolation: isolate"/>
    <path id="Path_2935" data-name="Path 2935" d="M3665.8,3714.519c-35.9,0-88.982.258-145.425,15.235-76.739,20.367-83.615,26.111-127.241,26.111" transform="translate(-2008.716 -731.376)" fill="none" stroke="#91d51e" stroke-miterlimit="10" stroke-width="25" style="mix-blend-mode: multiply;isolation: isolate"/>
    <path id="Path_2936" data-name="Path 2936" d="M3472.13,3743.287c35.9,0,88.982-.254,145.425-15.235,76.744-20.363,83.62-25.268,127.246-25.268" transform="translate(-1815.052 -760.146)" fill="none" stroke="#ff4023" stroke-miterlimit="10" stroke-width="25" style="mix-blend-mode: multiply;isolation: isolate"/>
    <path id="Path_2937" data-name="Path 2937" d="M3823.8,3743.287c-35.9,0-88.982-.254-145.425-15.235-76.741-20.363-83.615-25.268-127.242-25.268" transform="translate(-1621.382 -760.146)" fill="none" stroke="#ff4023" stroke-miterlimit="10" stroke-width="25" style="mix-blend-mode: multiply;isolation: isolate"/>
    <path id="Path_2938" data-name="Path 2938" d="M3472.131,3714.519c35.9,0,88.979.258,145.421,15.235,76.744,20.367,83.62,26.111,127.247,26.111" transform="translate(-1815.05 -731.376)" fill="none" stroke="#ff4023" stroke-miterlimit="10" stroke-width="25" style="mix-blend-mode: multiply;isolation: isolate"/>
    <path id="Path_2939" data-name="Path 2939" d="M3823.8,3714.519c-35.9,0-88.982.258-145.425,15.235-76.741,20.367-83.615,26.111-127.242,26.111" transform="translate(-1621.382 -731.376)" fill="none" stroke="#ff4023" stroke-miterlimit="10" stroke-width="25" style="mix-blend-mode: multiply;isolation: isolate"/>
    <path id="Path_2940" data-name="Path 2940" d="M15398.977-14515.275l48.543,55.668-48.543,48.543" transform="translate(-13245.776 17442.17)" fill="none" stroke="#e43920" stroke-width="25"/>
  </g>
</svg>
