<svg xmlns="http://www.w3.org/2000/svg" width="160" height="160" viewBox="0 0 160 160">
  <g id="Artboard_16" data-name="Artboard 16" transform="translate(-5 -5)">
    <circle id="Ellipse_498" data-name="Ellipse 498" cx="80" cy="80" r="80" transform="translate(5 5)" fill="#2d76bc"/>
    <path id="Path_71707" data-name="Path 71707" d="M120.6,70.3h-4.1a12.9,12.9,0,1,0-13.8,0H98.6A5.763,5.763,0,0,0,92.9,76v.7a11.763,11.763,0,0,0-5-1A12.935,12.935,0,0,0,76.8,82a5.675,5.675,0,0,0-5.5-4.3H67.2a12.9,12.9,0,1,0-13.8,0H49.3a5.763,5.763,0,0,0-5.7,5.7V110h2V83.3a3.757,3.757,0,0,1,3.7-3.7H71.2a3.757,3.757,0,0,1,3.7,3.7v6.6H75a12.974,12.974,0,0,0,6,9.6H77a5.763,5.763,0,0,0-5.7,5.7v18.4h2V105.2a3.757,3.757,0,0,1,3.7-3.7H98.9a3.757,3.757,0,0,1,3.7,3.7v18.4h2V105.2a5.763,5.763,0,0,0-5.7-5.7H94.8a12.868,12.868,0,0,0,.1-21.7V76a3.757,3.757,0,0,1,3.7-3.7h21.9a3.757,3.757,0,0,1,3.7,3.7v25.4h2V76A5.612,5.612,0,0,0,120.6,70.3ZM49.5,66.7A10.9,10.9,0,1,1,60.4,77.6,10.926,10.926,0,0,1,49.5,66.7ZM98.9,88.6a10.95,10.95,0,1,1-11-10.9A10.926,10.926,0,0,1,98.9,88.6Zm-.2-29.2a10.9,10.9,0,1,1,10.9,10.9A10.926,10.926,0,0,1,98.7,59.4Z" fill="#fff"/>
  </g>
</svg>
