<svg xmlns="http://www.w3.org/2000/svg" width="160" height="160" viewBox="0 0 160 160">
  <g id="Artboard_14" data-name="Artboard 14" transform="translate(-5 -5)">
    <circle id="Ellipse_496" data-name="Ellipse 496" cx="80" cy="80" r="80" transform="translate(5 5)" fill="#2d76bc"/>
    <g id="Group_12697" data-name="Group 12697">
      <path id="Path_71688" data-name="Path 71688" d="M71.8,96c-2.8-2.5-4.5-4-5.5-4.9-.6-.5-.9-.9-1.2-1.1a16.319,16.319,0,0,0-2-1.7,6.43,6.43,0,0,0-3.9-1.8h-.5l-.5.1-.1-.5c-.1-.9-.3-2-.5-3.2-1.2-7.6-3.4-21.7-4.1-24a3.54,3.54,0,0,0-3.4-2.6h-.4a3.941,3.941,0,0,0-3.5,4.1c-.3,3.9-1,23.6-1.1,29.2-.3,6.2,1.3,8,3.1,10.1l.1.1.3.3c.1.1.1.2.2.2,2.2,2.6,7,7.9,10.7,11.4,3.1,3,3.2,3.9,3.3,6.1v.9a79.135,79.135,0,0,1-.6,10v.4a1.135,1.135,0,0,0,.3.8.908.908,0,0,0,.7.3l14.9-.4a1,1,0,0,0,1-1c0-2.4,0-4.6.1-6.7V122C79.2,111.3,79.4,102.8,71.8,96Zm5.3,28.6v3.3h-.5l-11.9.3h-.5v-.5c0-.5.1-1.1.1-1.8.1-1.3.2-2.8.3-4.2v-.4H65l11.6-1h.5v4.3Zm.1-6.4h-.5l-11.6,1h-.5V118c0-2.7-.2-4.1-3.8-7.5-3.7-3.5-8.5-8.8-10.6-11.2a2.651,2.651,0,0,1-.5-.6c-1.6-1.8-2.9-3.3-2.7-8.9.1-5.2.8-25.2,1.1-29.1A2.354,2.354,0,0,1,50,58.4h.2a1.621,1.621,0,0,1,1.6,1.2c.7,2.3,3.6,20.4,4.8,28.3v.2l-.1.1a4.871,4.871,0,0,0,.4,4.4c2,4,5.5,9.5,5.6,9.8a1.05,1.05,0,0,0,.9.5.749.749,0,0,0,.5-.1.675.675,0,0,0,.4-.6,1.128,1.128,0,0,0-.1-.8l-.1-.1h0c-.1-.2-.3-.5-.6-1-1.1-1.8-3.5-5.7-4.8-8.5a3.116,3.116,0,0,1-.4-2.8h0l.1-.1h0a1.445,1.445,0,0,1,.7-.2,4.439,4.439,0,0,1,2.8,1.4,19.191,19.191,0,0,1,1.9,1.7c1.1.9,3.3,2.9,6.8,6,6,5.3,6.5,12.3,6.5,20.2Z" fill="#fff"/>
      <path id="Path_71689" data-name="Path 71689" d="M125,89.6c0-1.2-.1-3.1-.2-5.4-.3-8.2-.7-20.7-.9-23.8a4.37,4.37,0,0,0-3.6-4.1H120a3.54,3.54,0,0,0-3.4,2.6c-.7,2.5-3.5,19.9-4.5,26.5l-.1.6-.1.5h-.8a6.41,6.41,0,0,0-4.1,1.8,16.32,16.32,0,0,0-2,1.7c-.5.5-2.1,1.8-6.7,6.1-7.6,6.7-7.4,15.2-7.2,25.9v6.9a1.063,1.063,0,0,0,.9,1h.1l14.9.4a1.028,1.028,0,0,0,1-1.1v-.6c-.1-1.8-.6-7.4-.6-9.8V118c0-2.4.2-3.3,3.3-6.2,3.6-3.5,8.6-8.9,10.7-11.4.1-.1.2-.2.2-.3a1.381,1.381,0,0,0,.3-.4C123.6,97.7,125.2,95.9,125,89.6Zm-19.6,38.6-11.9-.3H93v-.5c0-1.8,0-3.6-.1-5.3v-1.9h.5l11.6,1h.4v.4c.1,1.4.2,2.9.3,4.2a12.134,12.134,0,0,1,.1,1.8v.5Zm15-29.7h0a1.756,1.756,0,0,0-.4.5v.1h0c-2.1,2.5-7,7.7-10.6,11.2s-3.7,4.8-3.8,7.6v1.3h-.5l-11.6-1h-.4v-.5c-.1-9,.9-15.2,6.6-20.3,3.5-3.2,5.8-5.1,6.8-6.1.8-.7.8-.7,2-1.7a6.187,6.187,0,0,1,2.8-1.4.735.735,0,0,1,.6.2h.1l.1.1.1.1v.1h0a3.072,3.072,0,0,1-.4,2.8c-1.9,3.9-5.4,9.5-5.5,9.6a1.076,1.076,0,0,0,.3,1.4.749.749,0,0,0,.5.1,1.05,1.05,0,0,0,.9-.5h0c.2-.3,3.5-5.7,5.6-9.7.8-1.8,1-3.3.4-4.4l-.1-.1v-.2c1.2-7.9,4.1-26,4.8-28.3a1.631,1.631,0,0,1,1.7-1.2h0a2.354,2.354,0,0,1,1.9,2.3c.3,3.8.9,23.9,1.1,29.1C123.2,95.2,122,96.6,120.4,98.5Z" fill="#fff"/>
      <path id="Path_71690" data-name="Path 71690" d="M107,53.2a1.013,1.013,0,0,0-.6-.9A61.344,61.344,0,0,1,85.7,40.7a1.421,1.421,0,0,0-.6-.2,1.854,1.854,0,0,0-.7.2A61.792,61.792,0,0,1,63.6,52.3a.875.875,0,0,0-.6.9c0,15,3.3,25.6,9.9,31.7a17.927,17.927,0,0,0,11.8,4.9h.5a18.227,18.227,0,0,0,12-4.9C103.7,79,107,68.3,107,53.2ZM85.4,88h-.6a15.98,15.98,0,0,1-10.6-4.5c-5.8-5.4-9-15.5-9.2-29.2v-.4l.3-.1A63.19,63.19,0,0,0,84.8,43l.3-.2.3.2a62.7,62.7,0,0,0,19.4,10.8l.3.1v.3C105,67.9,101.8,78,96,83.5A16.187,16.187,0,0,1,85.4,88Z" fill="#fff"/>
      <path id="Path_71691" data-name="Path 71691" d="M88.7,58.4l-.8,3.4H85.1l.7-3.4H83.3l-1.9,9.1h2.4l.9-3.9h2.9l-.8,3.9h2.5l1.9-9.1Z" fill="#fff"/>
      <path id="Path_71692" data-name="Path 71692" d="M80.1,58.4l-1.3,6.3h-.1l-1.8-6.3H73.8l-2,9.1h2.3l1.3-6.3h.1l1.9,6.3h3l2-9.1Z" fill="#fff"/>
      <path id="Path_71693" data-name="Path 71693" d="M91.3,61.2c0,2.6,3.6,2,3.6,3.5,0,.9-1.2,1.1-2,1.1a5.214,5.214,0,0,1-2.3-.5L90,67.2a8.675,8.675,0,0,0,2.8.5c2.2,0,4.5-.6,4.5-3.2,0-2.8-3.6-2.3-3.6-3.6,0-.8.8-.9,1.8-.9a4.642,4.642,0,0,1,2,.4l.6-1.9a7.219,7.219,0,0,0-2.8-.4C93.3,58.1,91.3,58.8,91.3,61.2Z" fill="#fff"/>
    </g>
  </g>
</svg>
