<svg xmlns="http://www.w3.org/2000/svg" width="348.019" height="80.005" viewBox="0 0 348.019 80.005">
  <g id="Main_Logo" data-name="Main Logo" transform="translate(-417 197.001)">
    <g id="Group_648" data-name="Group 648" transform="translate(611.385 -179.898)">
      <path id="Path_2635" data-name="Path 2635" d="M.524,0H10.858V9.806H19v8.446H10.858V35.674c0,3.7.906,4.753,4.147,4.753H19.38v8.748h-8.22C3.089,49.175-.305,45.4-.305,36.354V0Z" transform="translate(0.305)" fill="#fff"/>
    </g>
    <g id="Group_649" data-name="Group 649" transform="translate(485.353 -170.998)">
      <path id="Path_2636" data-name="Path 2636" d="M0,.573H9.5l.3,4.827A12.622,12.622,0,0,1,20.968-.333c5.052,0,8.6,1.884,10.559,5.583A13.041,13.041,0,0,1,42.766-.333c7.995,0,12.443,4.677,12.443,13.5V39.942H44.047V14.376c0-3.47-1.509-5.055-4.223-5.055S35,10.906,33.186,14.677V39.942H22.023V14.376c0-3.47-1.583-5.055-4.3-5.055-2.64,0-4.827,1.585-6.562,5.357V39.942H0Z" transform="translate(0 0.333)" fill="#fff"/>
    </g>
    <g id="Group_650" data-name="Group 650" transform="translate(544.759 -170.998)">
      <path id="Path_2637" data-name="Path 2637" d="M0,18.312c0-8.3,5.2-12.9,15.687-12.9h7.241V4.134c0-4.073-1.583-6.034-5.58-6.034-3.848,0-5.357,1.732-5.507,4.449H1.055c.6-8.748,5.885-13.2,16.745-13.2,11.163,0,16.291,4.677,16.291,14.934V29.624H24.664l-.378-4.9c-2.714,3.848-6.635,5.808-11.84,5.808C4.677,30.53,0,26.157,0,18.312m22.929-.982V12.805h-5.2c-5.052,0-6.711,1.735-6.711,4.6s1.659,4.375,4.827,4.375a7.627,7.627,0,0,0,7.089-4.451" transform="translate(0 10.651)" fill="#fff"/>
    </g>
    <g id="Group_651" data-name="Group 651" transform="translate(584.988 -170.846)">
      <path id="Path_2638" data-name="Path 2638" d="M0,.476H9.5l.451,7.315c1.509-5.58,4.6-8.068,10.031-8.068h2.942V10.13H20.816c-5.808,0-8.6,2.186-9.653,7.693V39.846H0Z" transform="translate(0 0.277)" fill="#fff"/>
    </g>
    <g id="Group_652" data-name="Group 652" transform="translate(632.983 -170.092)">
      <path id="Path_2640" data-name="Path 2640" d="M0,0H11.69L17.8,25.643,25.042,0h9.8l7.241,25.643L48.2,0H59.432L48.12,39.37H36.805L29.792,14.782,22.779,39.37H11.315Z" fill="#fff"/>
    </g>
    <path id="Path_2652" data-name="Path 2652" d="M0,18.312c0-8.3,5.2-12.9,15.687-12.9h7.241V4.134C22.929.06,21.344-1.9,17.346-1.9,13.5-1.9,11.992-.168,11.84,2.548H1.055c.6-8.748,5.885-13.2,16.745-13.2,11.163,0,16.291,4.677,16.291,14.934V29.624H24.664l-.378-4.9c-2.714,3.848-6.638,5.808-11.842,5.808C4.674,30.53,0,26.157,0,18.312m22.929-.982V12.805h-5.2c-5.052,0-6.714,1.735-6.714,4.6s1.661,4.375,4.827,4.375a7.631,7.631,0,0,0,7.092-4.451" transform="translate(692.564 -160.347)" fill="#fff"/>
    <path id="Path_2653" data-name="Path 2653" d="M2.813,28.04H7.188c2.11,0,3.016-.6,3.772-2.942l.829-2.488L-1.636-16.309H10.2L17.521,8.279l6.711-24.588H35.471L21.519,26.457c-2.64,8.144-5.357,10.331-13.05,10.331H2.813Z" transform="translate(729.548 -153.783)" fill="#fff"/>
    <path id="Path_2654" data-name="Path 2654" d="M0,23.224H11.01c0,4.976,2.793,7.165,8.3,7.165,4.976,0,7.464-1.811,7.464-5.507,0-4.223-2.714-6.034-10.331-7.241C5.052,15.833.753,11.607.753,2.256c0-10.483,6.412-15.764,18.63-15.764,12.068,0,18.026,5.129,18.026,15.916H26.4c0-4.451-2.339-6.638-7.241-6.638-4.677,0-7.089,1.961-7.089,5.354,0,3.848,2.64,5.583,9.879,6.638C33.939,9.5,38.089,14.1,38.089,23.751c0,10.635-6.26,15.84-19.081,15.84C5.958,39.591,0,34.463,0,23.224" transform="translate(442.727 -169.407)" fill="#fff"/>
    <path id="Path_2655" data-name="Path 2655" d="M16.273,8.137A12.869,12.869,0,1,1,3.4-4.733a12.87,12.87,0,0,1,12.87,12.87M3.4,3.452A4.685,4.685,0,1,0,8.088,8.137,4.685,4.685,0,0,0,3.4,3.452" transform="translate(426.465 -192.268)" fill="#00ada4"/>
  </g>
</svg>
