<svg xmlns="http://www.w3.org/2000/svg" xmlns:xlink="http://www.w3.org/1999/xlink" width="348.019" height="80.006" viewBox="0 0 348.019 80.006">
  <defs>
    <clipPath id="clip-path">
      <path id="Path_62" data-name="Path 62" d="M81,301.168h26v8.7H81Zm0,0" transform="translate(-81 -301.168)"/>
    </clipPath>
    <clipPath id="clip-path-2">
      <path id="Path_61" data-name="Path 61" d="M81,314.166a12.993,12.993,0,0,1,20.219-10.806,13,13,0,0,1,3.588,3.586,13,13,0,0,1,0,14.443,13,13,0,0,1-22.817-2.248A12.963,12.963,0,0,1,81,314.166Zm0,0" transform="translate(-81 -301.168)"/>
    </clipPath>
    <clipPath id="clip-path-3">
      <path id="Path_65" data-name="Path 65" d="M81,319h26v9.244H81Zm0,0" transform="translate(-81 -319)"/>
    </clipPath>
    <clipPath id="clip-path-5">
      <path id="Path_68" data-name="Path 68" d="M81,338h26v8.975H81Zm0,0" transform="translate(-81 -338)"/>
    </clipPath>
    <clipPath id="clip-path-7">
      <path id="Path_71" data-name="Path 71" d="M100,320h8.32v8.32H100Zm0,0" transform="translate(-100 -320)"/>
    </clipPath>
  </defs>
  <g id="Main_Logo" data-name="Main Logo" transform="translate(-417 197.001)">
    <g id="Group_648" data-name="Group 648" transform="translate(611.385 -179.898)">
      <path id="Path_2635" data-name="Path 2635" d="M.524,0H10.858V9.806H19v8.446H10.858V35.674c0,3.7.906,4.753,4.147,4.753H19.38v8.748H11.16C3.089,49.175-.305,45.4-.305,36.354V0Z" transform="translate(0.305)" fill="#fff"/>
    </g>
    <g id="Group_649" data-name="Group 649" transform="translate(485.353 -170.998)">
      <path id="Path_2636" data-name="Path 2636" d="M0,.573H9.5L9.8,5.4A12.622,12.622,0,0,1,20.968-.333c5.052,0,8.6,1.884,10.559,5.583A13.041,13.041,0,0,1,42.766-.333c7.995,0,12.443,4.677,12.443,13.5V39.942H44.047V14.376c0-3.47-1.509-5.055-4.223-5.055S35,10.906,33.186,14.677V39.942H22.023V14.376c0-3.47-1.583-5.055-4.3-5.055-2.64,0-4.827,1.585-6.562,5.357V39.942H0Z" transform="translate(0 0.333)" fill="#fff"/>
    </g>
    <g id="Group_650" data-name="Group 650" transform="translate(544.759 -170.998)">
      <path id="Path_2637" data-name="Path 2637" d="M0,18.312c0-8.3,5.2-12.9,15.687-12.9h7.241V4.134c0-4.073-1.583-6.034-5.58-6.034-3.848,0-5.357,1.732-5.507,4.449H1.055c.6-8.748,5.885-13.2,16.745-13.2,11.163,0,16.291,4.677,16.291,14.934V29.624H24.664l-.378-4.9c-2.714,3.848-6.635,5.808-11.84,5.808C4.677,30.53,0,26.157,0,18.312m22.929-.982V12.805h-5.2c-5.052,0-6.711,1.735-6.711,4.6s1.659,4.375,4.827,4.375a7.627,7.627,0,0,0,7.089-4.451" transform="translate(0 10.651)" fill="#fff"/>
    </g>
    <g id="Group_651" data-name="Group 651" transform="translate(584.988 -170.846)">
      <path id="Path_2638" data-name="Path 2638" d="M0,.476H9.5l.451,7.315c1.509-5.58,4.6-8.068,10.031-8.068h2.942V10.13H20.816c-5.808,0-8.6,2.186-9.653,7.693V39.846H0Z" transform="translate(0 0.277)" fill="#fff"/>
    </g>
    <g id="Group_652" data-name="Group 652" transform="translate(632.983 -170.092)">
      <path id="Path_2640" data-name="Path 2640" d="M0,0H11.69L17.8,25.643,25.042,0h9.8l7.241,25.643L48.2,0H59.432L48.12,39.37H36.805L29.792,14.782,22.779,39.37H11.315Z" fill="#fff"/>
    </g>
    <path id="Path_2652" data-name="Path 2652" d="M0,18.312c0-8.3,5.2-12.9,15.687-12.9h7.241V4.134C22.929.06,21.344-1.9,17.346-1.9,13.5-1.9,11.992-.168,11.84,2.548H1.055c.6-8.748,5.885-13.2,16.745-13.2,11.163,0,16.291,4.677,16.291,14.934V29.624H24.664l-.378-4.9c-2.714,3.848-6.638,5.808-11.842,5.808C4.674,30.53,0,26.157,0,18.312m22.929-.982V12.805h-5.2c-5.052,0-6.714,1.735-6.714,4.6s1.661,4.375,4.827,4.375a7.631,7.631,0,0,0,7.092-4.451" transform="translate(692.564 -160.347)" fill="#fff"/>
    <path id="Path_2653" data-name="Path 2653" d="M2.813,28.04H7.188c2.11,0,3.016-.6,3.772-2.942l.829-2.488L-1.636-16.309H10.2L17.521,8.279l6.711-24.588H35.471L21.519,26.457c-2.64,8.144-5.357,10.331-13.05,10.331H2.813Z" transform="translate(729.548 -153.783)" fill="#fff"/>
    <path id="Path_2654" data-name="Path 2654" d="M0,23.224H11.01c0,4.976,2.793,7.165,8.3,7.165,4.976,0,7.464-1.811,7.464-5.507,0-4.223-2.714-6.034-10.331-7.241C5.052,15.833.753,11.607.753,2.256c0-10.483,6.412-15.764,18.63-15.764,12.068,0,18.026,5.129,18.026,15.916H26.4c0-4.451-2.339-6.638-7.241-6.638-4.677,0-7.089,1.961-7.089,5.354,0,3.848,2.64,5.583,9.879,6.638C33.939,9.5,38.089,14.1,38.089,23.751c0,10.635-6.26,15.84-19.081,15.84C5.958,39.591,0,34.463,0,23.224" transform="translate(442.727 -169.407)" fill="#fff"/>
    <g id="Group_17" data-name="Group 17" transform="translate(71 -401.169)">
      <g id="Group_10" data-name="Group 10" transform="translate(346 204.168)" clip-path="url(#clip-path)">
        <g id="Group_9" data-name="Group 9" transform="translate(0)" clip-path="url(#clip-path-2)">
          <path id="Path_60" data-name="Path 60" d="M66.934,301.164h39v8.667h-39Zm0,0" transform="translate(-73.435 -301.166)" fill="#ff671f"/>
        </g>
      </g>
      <g id="Group_12" data-name="Group 12" transform="translate(346 212.41)" clip-path="url(#clip-path-3)">
        <g id="Group_11" data-name="Group 11" transform="translate(0 -8.242)" clip-path="url(#clip-path-2)">
          <path id="Path_63" data-name="Path 63" d="M66.934,319.914h39v8.667h-39Zm0,0" transform="translate(-73.435 -311.249)" fill="#fff"/>
        </g>
      </g>
      <g id="Group_14" data-name="Group 14" transform="translate(346 221.193)" clip-path="url(#clip-path-5)">
        <g id="Group_13" data-name="Group 13" transform="translate(0 -17.025)" clip-path="url(#clip-path-2)">
          <path id="Path_66" data-name="Path 66" d="M66.934,338.664h39v8.667h-39Zm0,0" transform="translate(-73.435 -321.333)" fill="#046a38"/>
        </g>
      </g>
      <g id="Group_16" data-name="Group 16" transform="translate(354.782 212.873)" clip-path="url(#clip-path-7)">
        <g id="Group_15" data-name="Group 15" transform="translate(-8.782 -8.705)" clip-path="url(#clip-path-2)">
          <path id="Path_69" data-name="Path 69" d="M104.584,320.852a3.9,3.9,0,1,0,3.9,3.9A3.9,3.9,0,0,0,104.584,320.852Zm3.38,4.174a.171.171,0,0,0-.186.146.169.169,0,0,0,.141.19c-.016.089-.034.175-.058.26l-1.941-.634-.672-.1a.875.875,0,0,0,.012-.1l.673.079,2.04-.11C107.975,324.851,107.969,324.939,107.964,325.026Zm-.186.867a.167.167,0,0,0-.216.092.169.169,0,0,0,.086.22c-.038.079-.079.157-.125.234l-1.71-1.114-.624-.269a.45.45,0,0,0,.038-.09l.632.249,2,.422C107.834,325.725,107.807,325.81,107.778,325.893Zm-.406.787a.165.165,0,0,0-.231.034.17.17,0,0,0,.025.233,2.538,2.538,0,0,1-.179.2l-1.363-1.518-.534-.421a.869.869,0,0,0,.061-.078l.543.4,1.82.926C107.471,326.532,107.422,326.606,107.371,326.68Zm-.594.655a.168.168,0,0,0-.233-.027.171.171,0,0,0-.034.233c-.072.051-.148.1-.224.143l-.924-1.82-.406-.545a.531.531,0,0,0,.078-.06l.422.533,1.518,1.365C106.911,327.218,106.846,327.278,106.777,327.336Zm-.742.48a.167.167,0,0,0-.219-.087.17.17,0,0,0-.094.217c-.083.031-.168.056-.253.079l-.422-2-.251-.63a.856.856,0,0,0,.09-.038l.269.623,1.114,1.712C106.194,327.736,106.117,327.778,106.036,327.816Zm-.842.273a.169.169,0,0,0-.19-.141.167.167,0,0,0-.146.184c-.089.007-.175.011-.265.012l.108-2.04-.078-.675a.642.642,0,0,0,.1-.012l.1.672.634,1.943C105.367,328.052,105.281,328.072,105.194,328.089Zm-1.031-.143a.172.172,0,0,0-.19.143c-.087-.016-.173-.036-.258-.058l.634-1.943.1-.672a.649.649,0,0,0,.1.012l-.078.675.109,2.04c-.091,0-.177-.006-.266-.012A.172.172,0,0,0,104.163,327.946Zm-.813-.217a.168.168,0,0,0-.219.087c-.081-.038-.159-.079-.234-.123l1.112-1.712.271-.623a.717.717,0,0,0,.09.038l-.251.63-.422,2c-.086-.024-.17-.049-.253-.079A.169.169,0,0,0,103.351,327.729Zm-.728-.421a.168.168,0,0,0-.233.027c-.068-.058-.134-.117-.2-.181l1.518-1.363.421-.533a.632.632,0,0,0,.079.06l-.406.545-.924,1.82c-.078-.045-.152-.092-.224-.143A.171.171,0,0,0,102.623,327.308Zm-.6-.594a.165.165,0,0,0-.231-.034c-.051-.074-.1-.148-.143-.226l1.82-.924.544-.4a.863.863,0,0,0,.061.078l-.534.421-1.363,1.518c-.063-.063-.123-.128-.179-.2A.169.169,0,0,0,102.027,326.714Zm-.508-.509a.17.17,0,0,0,.087-.22.168.168,0,0,0-.217-.092c-.029-.083-.056-.168-.079-.255l2-.422.632-.251a.4.4,0,0,0,.038.092l-.625.269-1.71,1.114C101.6,326.362,101.558,326.284,101.52,326.205Zm-.316-1.728a.168.168,0,0,0,.045-.334c.016-.089.034-.175.058-.26l1.941.634.672.1a.87.87,0,0,0-.013.1l-.673-.08-2.04.109C101.193,324.654,101.2,324.566,101.2,324.477Zm.186-.865a.168.168,0,0,0,.217-.092.169.169,0,0,0-.087-.22c.038-.079.08-.157.125-.234l1.71,1.114.623.269a.7.7,0,0,0-.038.09l-.63-.251-2-.422C101.334,323.781,101.361,323.7,101.39,323.612Zm.406-.787a.167.167,0,0,0,.231-.034.169.169,0,0,0-.025-.233,2.539,2.539,0,0,1,.179-.2l1.363,1.517.534.422a.858.858,0,0,0-.061.078l-.544-.4-1.82-.926C101.7,322.973,101.745,322.9,101.8,322.825Zm.594-.655a.168.168,0,0,0,.233.027.171.171,0,0,0,.034-.233c.072-.051.147-.1.224-.143l.924,1.82.406.545a.634.634,0,0,0-.079.06l-.421-.532-1.518-1.365C102.256,322.287,102.322,322.228,102.39,322.17Zm.742-.482a.169.169,0,0,0,.312-.128c.083-.031.168-.056.253-.08l.422,2,.251.632a.862.862,0,0,0-.09.038l-.269-.623-1.114-1.712C102.973,321.769,103.051,321.727,103.132,321.688Zm.842-.271a.169.169,0,0,0,.19.141.167.167,0,0,0,.146-.184c.089-.007.175-.012.266-.012l-.109,2.04.078.675a.873.873,0,0,0-.1.011l-.1-.67-.634-1.943C103.8,321.451,103.887,321.433,103.974,321.417Zm1.031.141a.169.169,0,0,0,.19-.141c.087.016.173.034.258.058l-.634,1.943-.1.672a.631.631,0,0,0-.1-.012l.078-.675-.108-2.04c.09,0,.177.006.265.012A.167.167,0,0,0,105,321.558Zm.813.219a.168.168,0,0,0,.219-.089c.081.04.159.081.235.125l-1.114,1.712-.269.623a.862.862,0,0,0-.09-.038l.251-.632.422-2c.085.024.17.049.253.08A.17.17,0,0,0,105.817,321.776Zm.728.421a.168.168,0,0,0,.233-.027c.069.058.134.117.2.179l-1.518,1.365-.422.532a.533.533,0,0,0-.078-.06l.406-.545.924-1.82c.078.045.152.092.224.143A.171.171,0,0,0,106.545,322.2Zm.6.594a.166.166,0,0,0,.231.034c.051.074.1.148.143.224l-1.82.926-.543.4a.864.864,0,0,0-.061-.078l.534-.421,1.363-1.518a2.538,2.538,0,0,1,.179.2A.17.17,0,0,0,107.14,322.791Zm.508.509a.169.169,0,0,0-.086.22.167.167,0,0,0,.216.092c.029.083.056.168.08.255l-2,.421-.632.251a.45.45,0,0,0-.038-.09l.624-.269,1.71-1.114C107.568,323.143,107.61,323.221,107.648,323.3Zm.271.844a.169.169,0,0,0-.141.19.171.171,0,0,0,.186.146c.005.087.011.175.011.264l-2.04-.109-.673.08a.642.642,0,0,0-.012-.1l.672-.1,1.941-.634C107.884,323.968,107.9,324.055,107.919,324.143Zm-6.67,1.218a.168.168,0,0,0,.141-.19.17.17,0,0,0-.186-.146c-.006-.087-.011-.175-.011-.265l2.04.11.673-.079a.539.539,0,0,0,.013.1l-.672.1-1.941.634C101.283,325.537,101.265,325.451,101.249,325.362Zm0,0" transform="translate(-91.586 -311.754)" fill="#06038d"/>
        </g>
      </g>
    </g>
  </g>
</svg>
