<svg xmlns="http://www.w3.org/2000/svg" width="741.081" height="786.001" viewBox="0 0 741.081 786.001">
  <g id="SMARThub_EAP" data-name="SMARThub EAP" transform="translate(-17 -125.6)">
    <path id="Path_71968" data-name="Path 71968" d="M453.884,535.69,745.867,243.706C667.148,167.428,563.69,125.6,453.884,125.6c-109.914,0-213.264,41.882-291.984,118.106Z" transform="translate(-66.289 0)" fill="#0078d2"/>
    <path id="Path_71969" data-name="Path 71969" d="M120.35,932.049,377.124,675.274,120.35,418.5a370.655,370.655,0,0,0,0,513.549Z" transform="translate(0 -133.996)" fill="#00ada4"/>
    <path id="Path_71970" data-name="Path 71970" d="M975.974,418.5,719.2,675.111,975.974,931.886a368.089,368.089,0,0,0,103.35-256.774C1079.053,578.543,1042.541,487.671,975.974,418.5Z" transform="translate(-321.243 -133.996)" fill="#00ada4"/>
    <path id="Path_71971" data-name="Path 71971" d="M483.574,1270.861c96.46,0,187.169-36.512,256.774-103.35L483.574,910.9,226.8,1167.511A368.089,368.089,0,0,0,483.574,1270.861Z" transform="translate(-95.979 -359.26)" fill="#00ada4"/>
    <path id="Path_71972" data-name="Path 71972" d="M984.233,892.039H950.054l4.286-4.286L952.5,885.8l-7.6,7.541,7.6,7.6,1.845-1.953-4.286-4.286h34.179Z" transform="translate(-424.497 -347.777)" fill="#fff"/>
    <g id="Group_12730" data-name="Group 12730" transform="translate(412.062 569.109)">
      <path id="Path_71973" data-name="Path 71973" d="M747.913,1071.623H745.2v-12.261c0-13.238,11.5-19.1,18.337-21.321.38-.108.977-.38,1.465-.488.38-.109.868-.271,1.248-.38.38-.271,1.085-.488,1.736-.868a6.331,6.331,0,0,0,1.845-.76l.76-.271a6.226,6.226,0,0,0,1.465-.759c.868-.38,1.573-.76,2.441-1.085.109-.108.271-.108.38-.271l.109-.109c2.441-1.248,5.045-2.55,7.487-3.906a5.131,5.131,0,0,0,1.248-.868l.38-.271h.271a9.473,9.473,0,0,0,1.356-.868l.488-.271c.108-.108.271-.108.38-.271l.271-.108a27.56,27.56,0,0,0,3.309-2.062,1.9,1.9,0,0,1,.488-.38l3.418-2.333a7.918,7.918,0,0,1,1.356-1.085,35.651,35.651,0,0,0,3.526-2.713,1.265,1.265,0,0,0,.488-.38c.271-.109.488-.38.76-.488a118.624,118.624,0,0,0,18.012-17.74c.271-.271.488-.868.977-1.248a12.6,12.6,0,0,1,.868-1.085,148.866,148.866,0,0,0,11.013-16.167l.271-.271a.415.415,0,0,0,.108-.271c.109-.108.109-.271.271-.488a2.6,2.6,0,0,0,.38-.868c.108-.38.271-.488.38-.868l.109-.109a3.277,3.277,0,0,0,.488-.976l.109-.271a29.085,29.085,0,0,0,1.736-3.418l.38-.868c.108-.108.108-.38.271-.488a12.673,12.673,0,0,1,.977-2.224,5.938,5.938,0,0,1,.488-1.248,6.863,6.863,0,0,0,.38-.868,2.832,2.832,0,0,1,.38-1.085,5.932,5.932,0,0,1,.488-1.248,8.128,8.128,0,0,1,.38-1.085,5.183,5.183,0,0,0,.38-1.356,8.739,8.739,0,0,1,.488-1.573c2.224-6.727,7.975-18.12,21.321-18.12h12.261v2.713H860.865c-11.5,0-16.655,10.308-18.825,16.384a5.173,5.173,0,0,0-.38,1.356,8.746,8.746,0,0,1-.488,1.573c-.108.271-.271.868-.38,1.248a8.12,8.12,0,0,1-.38,1.085l-.108.109c0,.109-.109.109-.109.271v.271a5.939,5.939,0,0,1-.488,1.248c-.109.271-.271.76-.38,1.085l-.108.109c-.271.76-.76,1.356-.977,2.062a5.936,5.936,0,0,1-.488,1.248.509.509,0,0,1-.271.488c-.488,1.085-.977,2.062-1.573,3.309a4.165,4.165,0,0,1-.76,1.356,16053.517,16053.517,0,0,1-.759,1.736l-.109.108c-.108.109-.108.271-.271.38a7.931,7.931,0,0,1-.488.868,129.882,129.882,0,0,1-11.013,16.276,4.913,4.913,0,0,1-.977,1.248,5.445,5.445,0,0,1-.868,1.085,116.177,116.177,0,0,1-18.608,18.229,1.266,1.266,0,0,0-.488.38c-.271.108-.488.38-.759.488a38.08,38.08,0,0,1-3.689,2.713c-.38.271-.759.38-.977.868l-.271.109-4.177,2.93c-1.248.868-2.441,1.573-3.689,2.333a.424.424,0,0,1-.271.109l-.108.108-.488.38a15.02,15.02,0,0,1-1.845,1.085l-.271.108c-.271.271-.76.38-1.248.76-2.333,1.356-4.883,2.713-7.324,3.906-.109.109-.38.109-.38.271l-.108.109c-.977.38-1.736.868-2.713,1.248a9.419,9.419,0,0,0-1.465.759l-.76.271a10.891,10.891,0,0,1-2.333.868,2.867,2.867,0,0,0-1.085.488l-.271.109a5.843,5.843,0,0,1-1.573.488c-.38.109-.868.271-1.248.38-6.239,2.224-16.655,7.324-16.655,18.826v11.99h.109l-.054.6Z" transform="translate(-745.2 -943.1)" fill="#fff"/>
    </g>
    <g id="Group_12731" data-name="Group 12731" transform="translate(412.008 394.038)">
      <path id="Path_71974" data-name="Path 71974" d="M873.08,748.217H860.819c-9.928,0-17.143-6.239-21.321-18.12-.38-1.085-.868-2.333-1.248-3.418s-.868-2.333-1.248-3.418c-.108-.271-.271-.76-.38-.977-.109-.271-.271-.76-.38-.977V721.2a10.564,10.564,0,0,0-.488-1.356c-.108-.271-.38-.76-.488-1.085-.109-.271-.271-.76-.38-.977a5.4,5.4,0,0,1-.868-1.465l-.108-.38c-.488-.977-1.085-2.224-1.573-3.038l-.109-.271a.415.415,0,0,1-.108-.271,1.114,1.114,0,0,1-.271-.76,1.915,1.915,0,0,1-.38-.76,1.265,1.265,0,0,0-.38-.488l-.38-.76c-.108-.271-.108-.38-.271-.488l-.109-.109a6.851,6.851,0,0,1-.38-.868,1.266,1.266,0,0,0-.38-.488l-.868-1.085c-.109-.108-.109-.271-.271-.38l-.109-.109-.109-.271a272.718,272.718,0,0,1-.217-.217,1.909,1.909,0,0,1-.38-.488l-.868-1.248a7.693,7.693,0,0,0-.76-1.248l-.271-.38V702.1a8.213,8.213,0,0,0-.977-1.356l-.271-.38v-.108a8.209,8.209,0,0,0-.977-1.356l-.108-.109c-.38-.76-.868-1.085-1.085-1.573l-1.248-1.573c-1.248-1.573-2.55-3.309-3.906-4.883-.271-.271-.38-.488-.76-.868a3.813,3.813,0,0,1-.76-.977c-.38-.488-.868-.977-1.248-1.465-1.845-2.062-3.8-4.015-5.859-6.022a1.427,1.427,0,0,1-.488-.76l-.868-.868-.108-.108a133.2,133.2,0,0,0-19.476-15.082,5.79,5.79,0,0,1-1.356-.868,6.523,6.523,0,0,1-1.465-.868l-.868-.38c-.76-.38-1.465-.868-2.224-1.248l-.108-.108c-.109-.109-.271-.109-.38-.271a4.916,4.916,0,0,0-.76-.38c-.108-.109-.271-.109-.38-.271l-.109-.109a22.6,22.6,0,0,0-3.689-1.736l-.868-.38v.488c-3.526-1.573-7.487-3.038-11.773-4.666l-.868-.271c-1.085-.38-2.224-.868-3.526-1.465h-1.248v-.217c-6.022-3.038-12.858-8.952-12.858-19.205V620.4h2.713v12.261c0,9.06,6.347,14.214,11.881,17.035.109,0,.271.109.38.109h0a16.859,16.859,0,0,0,3.526,1.465l.868.271a119,119,0,0,1,12.586,5.045.508.508,0,0,1,.488.271c1.085.488,2.333,1.085,3.418,1.573.109.109.271.109.38.271l.109.108.108.109c.109.109.271.109.38.271a4.92,4.92,0,0,0,.76.38c.868.38,1.573.868,2.333,1.248l.868.488c.38.271.868.488,1.356.868l.108.109a12.606,12.606,0,0,0,1.248.76,139.206,139.206,0,0,1,20.073,15.3,5.137,5.137,0,0,1,1.085,1.085l.488.488c2.062,1.845,3.906,3.906,5.859,6.022a20.718,20.718,0,0,1,1.465,1.736,2.006,2.006,0,0,0,.76.76,3.812,3.812,0,0,1,.76.977c1.356,1.465,2.713,3.309,3.906,4.883l1.248,1.573a37837.939,37837.939,0,0,1,2.5,3.472h0c0,.108.108.108.108.271a9.093,9.093,0,0,1,1.085,1.573h0c0,.109.109.109.109.271a8.645,8.645,0,0,0,.868,1.248l.38.76h.108l.38.868a.106.106,0,0,0,.109.109c.108.108.108.271.271.271.109.108.109.108.109.271l.271.271.868,1.248a6.858,6.858,0,0,1,.38.868c.108.109.108.38.271.488a1.672,1.672,0,0,1,.488.977l.38.488a1.913,1.913,0,0,1,.38.759c.109.38.271.38.38.488l.108.271a.415.415,0,0,1,.109.271,1.917,1.917,0,0,1,.38.76c.488.976,1.085,2.061,1.573,3.038l.271.38a7.009,7.009,0,0,0,.488,1.085l.109.109a7.684,7.684,0,0,0,.76,1.248c.109.271.271.76.38.977a17.662,17.662,0,0,1,.868,1.845,6.848,6.848,0,0,1,.38.868,6.131,6.131,0,0,0,.38.977c.488,1.248.976,2.333,1.356,3.526.38,1.085.868,2.333,1.248,3.418,2.55,7.487,7.975,16.384,18.825,16.384h12.261v2.821l-.109-.326Z" transform="translate(-745.1 -620.4)" fill="#fff"/>
    </g>
    <g id="Group_12732" data-name="Group 12732" transform="translate(236.449 570.358)">
      <path id="Path_71975" data-name="Path 71975" d="M548.775,1072.458h-2.713V1060.2c0-10.9-8.789-16.167-16.276-18.825a8.745,8.745,0,0,1-1.573-.488c-.977-.271-2.062-.76-3.038-1.085h0l-.38-.108c-.488-.271-1.085-.488-1.736-.868-.38-.108-.76-.271-1.085-.38a6.846,6.846,0,0,0-.868-.38,2.81,2.81,0,0,1-1.736-.868,3.747,3.747,0,0,0-1.085-.488,3.1,3.1,0,0,1-1.248-.759l-.108-.109a2.8,2.8,0,0,0-1.085-.488l-.38-.271c-.977-.488-2.224-1.085-3.038-1.573-.271-.108-.488-.271-.76-.38a.667.667,0,0,1-.271-.109,3.462,3.462,0,0,1-1.573-.868l-.108-.108c-.109,0-.109-.108-.271-.108-.109-.109-.271-.109-.38-.271-.109,0-.109-.108-.271-.108l-.271-.109a.106.106,0,0,1-.109-.108h-.271l-.38-.271c-.271-.108-.488-.271-.76-.38a2.347,2.347,0,0,1-1.085-.76c-.109-.108-.271-.108-.488-.271a6.849,6.849,0,0,0-.868-.38,8.648,8.648,0,0,1-1.248-.868,9.462,9.462,0,0,1-1.356-.868,126.974,126.974,0,0,1-30.11-28.048c-.488-.76-.977-1.248-1.356-1.845-.38-.488-.868-1.248-1.248-1.736a16.876,16.876,0,0,1-1.085-1.356L466.42,992l-.109-.109c-.108-.109-.271-.271-.271-.38a.424.424,0,0,1-.109-.271h0l-.109-.108a.106.106,0,0,0-.108-.108c-.109-.108-.109-.271-.271-.38l-.271-.38a5.093,5.093,0,0,0-.759-.977.423.423,0,0,1-.109-.271h0c-.271-.271-.38-.76-.76-1.085-.108-.271-.271-.488-.38-.76l-.271-.38a.667.667,0,0,0-.109-.271v-.109a16.767,16.767,0,0,1-1.845-3.038,11.325,11.325,0,0,0-.868-1.573c-.271-.488-.76-1.248-.977-1.736a138.823,138.823,0,0,1-6.51-15.407c-2.062-6.239-7.216-16.547-18.825-16.547H421.5V945.4h12.261c13.237,0,19.1,11.5,21.429,18.337a135.532,135.532,0,0,0,6.348,15.19,11.343,11.343,0,0,0,.868,1.573c.271.488.76,1.248.977,1.736a30.059,30.059,0,0,0,1.573,2.713,4.045,4.045,0,0,1,.488.977.106.106,0,0,0,.108.109c.109.271.38.488.488.868a4.936,4.936,0,0,1,.38.76c.108.109.271.271.271.38l.109.108.108.109c.109.271.109.38.271.38l.108.108.488.868a.106.106,0,0,0,.109.109c.108.108.108.271.271.271a.424.424,0,0,1,.109.271l.108.109.109.109.108.108c.108.109.271.38.38.488l1.573,2.441c.271.38.38.76.868.977l.108.108c.488.76.977,1.248,1.356,1.845a18.93,18.93,0,0,0,1.356,1.736,125.621,125.621,0,0,0,29.513,27.56,8.644,8.644,0,0,1,1.248.868,9.458,9.458,0,0,1,1.356.868c.109.109.38.271.488.38a6.88,6.88,0,0,0,.868.38,1.731,1.731,0,0,0,.868.488,7.9,7.9,0,0,1,.868.488h.271l.271.271c.109,0,.109.108.271.108.109.109.271.109.38.271l.108.109h.109c.271.109.488.271.76.38a6.841,6.841,0,0,0,.868.38c.38.108.488.271.868.38a.424.424,0,0,0,.271.109l.271.109c.977.488,2.062,1.085,3.038,1.573l.38.109a10.37,10.37,0,0,1,1.465.868,4.569,4.569,0,0,0,.977.38,3.1,3.1,0,0,1,1.248.76c.38.108.868.38,1.248.488h.109a6.151,6.151,0,0,1,.977.38,3.63,3.63,0,0,0,.977.38,10.923,10.923,0,0,1,1.736.759l.271.109c1.085.38,2.062.759,3.038,1.085.488.109,1.085.38,1.573.488,11.881,4.015,18.12,11.5,18.12,21.321v12.37l-.271.054Zm-40.635-40.906Zm2.713-1.465Zm-.651-.109Zm-47.579-43.619Zm-.163-.488Zm0,0Zm0,0Zm0,0Zm0,0Zm0,0Zm0,0Z" transform="translate(-421.5 -945.401)" fill="#fff"/>
    </g>
    <g id="Group_12733" data-name="Group 12733" transform="translate(236.178 393.712)">
      <path id="Path_71976" data-name="Path 71976" d="M433.261,747.563H421V744.85h12.261c10.633,0,16.167-9.06,18.825-16.547a121.953,121.953,0,0,1,5.262-12.966L458.6,712.9c.488-.977,1.085-1.845,1.573-2.93.109-.109.109-.271.271-.488l.108-.109c.109-.109.109-.271.271-.38v-.108l.271-.38a67237.724,67237.724,0,0,1,1.519-2.5,1.266,1.266,0,0,1,.38-.488h0a5.742,5.742,0,0,1,.977-1.465v-.271l.271-.271a.561.561,0,0,1,.271-.38l.76-.977c.108-.271.271-.38.271-.488s.109-.109.109-.271c.108-.109.108-.271.271-.271v-.977l.271-.38c.271-.271.38-.76.76-.977.271-.38.38-.76.76-.977,0-.109.108-.109.108-.271h0c.109-.108.109-.38.271-.488l.109-.109.271-.38.271-.271c0-.108.108-.108.108-.271l.109-.109.109-.108.38-.38c.109-.109.271-.38.38-.488s.271-.271.271-.38l.38-.38c.109-.109.109-.271.271-.38.109-.108.109-.271.271-.271l.109-.38.38-.38a1.351,1.351,0,0,0,.271-.38l.76-.868a.562.562,0,0,1,.271-.38,15.206,15.206,0,0,1,1.736-2.062c.271-.271.38-.488.76-.868a5.015,5.015,0,0,1,.76-.76c.977-1.248,2.224-2.441,3.038-3.526a5.14,5.14,0,0,1,1.085-1.085l.488-.488,4.015-4.015.868-.868c.271-.271.488-.38.868-.76l.109-.109c.271-.109.38-.38.488-.488a6.2,6.2,0,0,1,.868-.76l.109-.109.488-.488c.109-.109.271-.271.38-.271a7.923,7.923,0,0,1,1.356-1.085,6.194,6.194,0,0,1,.868-.76h0l.488-.38a1.691,1.691,0,0,0,.868-.868c.109-.109.38-.271.488-.38.109,0,.109-.109.271-.271.271-.271.38-.38.76-.38h.109l.271-.271v-.109l.488-.38a1.907,1.907,0,0,1,.488-.38c.109-.108.38-.271.488-.488l.109-.109a2,2,0,0,1,.76-.488c.109,0,.109-.108.271-.108l.38-.38.109-.109.271-.108s.108,0,.271-.271a4.248,4.248,0,0,1,1.356-.977h0c.109,0,.109-.109.271-.109l1.465-.976h.109a.106.106,0,0,0,.109-.109l.109-.108c.109,0,.109-.109.271-.109v-.76h.868l.271-.271h.271l.109-.109.38-.109a1.915,1.915,0,0,1,.76-.38V661.9h.868c.271-.271.76-.38,1.085-.759l.108-.109.109-.109.109-.108c.109-.109.38-.271.488-.38a.562.562,0,0,0,.38-.271,1.109,1.109,0,0,1,.488-.271l.38-.108a.106.106,0,0,0,.109-.109l.38-.38h.271a.516.516,0,0,1,.38-.109c.109-.109.271-.109.38-.271a96.406,96.406,0,0,1,18.825-7.975,37.262,37.262,0,0,0,3.689-1.465h0l.76-.38c5.371-2.713,11.881-7.975,11.881-17.035V619.8h2.713v12.8c0,10.308-7.107,16.167-12.966,19.368-.108.109-.38.271-.488.38a22.19,22.19,0,0,1-4.666,1.845,107.5,107.5,0,0,0-18.12,7.7,1.917,1.917,0,0,1-.76.38c-.109.108-.271.108-.38.271h.271c-.271.108-.488.271-.76.38l-.38.108a.106.106,0,0,0-.109.109,1.109,1.109,0,0,1-.488.271l-.109.109c-.108.108-.271.108-.38.271l-.271.271-.271.109a1.8,1.8,0,0,0-.76.38l-.108.108a1.8,1.8,0,0,1-1.085.488.668.668,0,0,0-.271.108h0l-.271.109c-.109,0-.109.108-.271.108l-.38.38H504.6l-.271.271-.38.38h-.109l-.109.109-.38.38h.38c-.109,0-.109.108-.271.108l-1.465.977h-.109c-.108.108-.38.271-.488.38a6.2,6.2,0,0,1-.868.759c-.109.109-.109.109-.271.109a1.731,1.731,0,0,1-.868.488c-.109,0-.109.109-.271.109l-.38.38a1.907,1.907,0,0,1-.488.38l-.38.38-.38.38-.108.109-.109.108c-.109,0-.109,0-.109.109-.109.109-.38.271-.488.38l-.271.271H496.3c-.109.109-.109.109-.271.109-.108,0-.108.109-.271.271l-.977.976c-.109.109-.38.38-.488.38-.271.271-.488.38-.868.76l-.271.108c-.38.271-.76.38-.977.868-.109.109-.38.271-.488.488-.108.108-.271.271-.38.271l-.271.271c-.271.109-.38.38-.488.488a33098.819,33098.819,0,0,0-1.736,1.519,5.01,5.01,0,0,0-.76.76l-4.015,4.015-.488.488-.868.868-.109.109a22.911,22.911,0,0,0-2.93,3.309c-.271.271-.38.488-.76.868a5.012,5.012,0,0,1-.76.76l-.109.108a8.632,8.632,0,0,0-1.573,1.845h0c0,.109-.108.271-.38.488l-.868.76c-.108.109-.271.38-.38.488v.108l-.38.38c-.109.271-.271.38-.38.38l-.38.868h-.271c-.109.108-.271.38-.38.488s-.271.271-.271.38l-.38.488c0,.108-.108.108-.108.271l-.109.108-.38.488c-.108.108-.108.38-.271.488v.326l-.271.38c-.271.271-.38.76-.76.977a4.894,4.894,0,0,1-.76,1.085c0,.109-.109.109-.109.271h0c-.108.109-.108.271-.271.488l-.109.108-.108.271a.106.106,0,0,1-.109.108h0l-1.085,1.573a.106.106,0,0,1-.109.108v.109l-.271.38a12.414,12.414,0,0,1-.868,1.248v1.085h-.108v.108h-.76a4.924,4.924,0,0,0-.38.76c-.109.38-.38.76-.488,1.085h0l-.109.271c-.109.109-.109.38-.271.488l-.109.108c-.108.109-.108.271-.271.488l-.109.108a31.217,31.217,0,0,1-1.573,3.038l-1.248,2.441a113.547,113.547,0,0,0-5.154,12.749C450.513,741.053,442.918,747.563,433.261,747.563Zm34.124-44.432ZM505.47,662.5Z" transform="translate(-421 -619.799)" fill="#fff"/>
    </g>
    <g id="Group_12734" data-name="Group 12734" transform="translate(216.484 538.023)">
      <path id="Path_71977" data-name="Path 71977" d="M702.19,1151.5l-7.6-7.6-7.6,7.6,1.845,1.845,4.394-4.286v34.125h2.713v-34.125l4.286,4.286Z" transform="translate(-522.997 -1003.876)" fill="#fff"/>
      <path id="Path_71978" data-name="Path 71978" d="M414.539,887.753l4.286,4.286H384.7V894.7h34.124l-4.286,4.286,1.845,1.953,7.6-7.6-7.6-7.541Z" transform="translate(-384.7 -885.8)" fill="#fff"/>
    </g>
    <circle id="Ellipse_573" data-name="Ellipse 573" cx="107.365" cy="107.365" r="107.365" transform="translate(280.719 437.494)" fill="#fff"/>
    <g id="Group_12735" data-name="Group 12735" transform="translate(325.801 512.145)">
      <path id="Path_71979" data-name="Path 71979" d="M592.438,845.1a2.14,2.14,0,0,1,2.441-2.224,2.645,2.645,0,0,1,2.821,2.55h6.348c-.271-4.666-3.8-7.324-9.06-7.324-5.154,0-8.789,2.55-8.789,7.216-.109,8.68,11.99,6.239,11.99,10.633,0,1.356-1.085,2.333-2.821,2.333a2.767,2.767,0,0,1-2.93-2.713H586.2c.108,4.883,4.177,7.487,9.44,7.487,5.642,0,8.789-3.418,8.789-7.487C604.32,847.431,592.438,849.384,592.438,845.1Z" transform="translate(-586.199 -838.1)" fill="#030504"/>
      <path id="Path_71980" data-name="Path 71980" d="M642.467,863.3l5.371-14.54V863.3h6.022V839.1h-7l-6.727,16.764L633.407,839.1H626.3v24.2h6.022v-14.54l5.371,14.54Z" transform="translate(-604.544 -838.557)" fill="#030504"/>
      <path id="Path_71981" data-name="Path 71981" d="M690.889,839.1,682.1,863.351h6.239l1.465-4.286h9.06l1.465,4.286h6.239L697.779,839.1Zm.38,15.3,2.93-8.952,2.93,8.952Z" transform="translate(-630.072 -838.557)" fill="#030504"/>
      <path id="Path_71982" data-name="Path 71982" d="M750.78,846.6c0-4.177-2.93-7.6-8.952-7.6H731.9v24.251h6.022v-9.169h1.356l5.045,9.169h6.619l-5.534-9.657A6.958,6.958,0,0,0,750.78,846.6Zm-9.331,3.309h-3.689v-6.022h3.689c2.224,0,3.309,1.248,3.309,2.93C744.649,848.82,743.673,849.9,741.448,849.9Z" transform="translate(-652.854 -838.512)" fill="#030504"/>
      <path id="Path_71983" data-name="Path 71983" d="M771,839.1v4.774h6.456V863.3h5.913V843.874h6.347V839.1Z" transform="translate(-670.742 -838.557)" fill="#030504"/>
      <path id="Path_71984" data-name="Path 71984" d="M654.228,925.44h-9.169V916H639.2v24.251h5.859V930.214h9.169v10.037h5.914V916h-5.914Z" transform="translate(-610.446 -873.738)" fill="#030504"/>
      <path id="Path_71985" data-name="Path 71985" d="M699.794,930.431c0,2.821-1.465,4.5-4.286,4.5s-4.177-1.573-4.177-4.5V916H685.2v14.431c0,6.727,4.286,10.037,10.037,10.037,5.534,0,10.308-3.418,10.308-10.037V916h-6.022v14.431Z" transform="translate(-631.49 -873.738)" fill="#030504"/>
      <path id="Path_71986" data-name="Path 71986" d="M745.211,927.773a5.468,5.468,0,0,0,4.015-5.534c0-3.8-2.93-6.239-7.812-6.239H730.4v24.251h11.393c5.154,0,8.083-2.55,8.083-6.619A5.91,5.91,0,0,0,745.211,927.773Zm-8.843-7h3.906c1.845,0,2.93.977,2.93,2.55s-1.085,2.55-2.93,2.55h-3.906Zm4.557,14.7h-4.5v-5.371h4.286c2.062,0,3.038.977,3.038,2.713C743.963,934.5,742.715,935.477,740.925,935.477Z" transform="translate(-652.168 -873.738)" fill="#030504"/>
    </g>
    <g id="Group_12736" data-name="Group 12736" transform="translate(302.799 207.303)">
      <path id="Path_71987" data-name="Path 71987" d="M550.907,279.618a2.978,2.978,0,0,0-2.007.651,2.167,2.167,0,0,0-.814,1.79,2.636,2.636,0,0,0,.6,1.79,3.357,3.357,0,0,0,1.519.977,18.658,18.658,0,0,0,2.062.6,17.968,17.968,0,0,1,2.279.651A14.655,14.655,0,0,1,556.6,287a4.007,4.007,0,0,1,1.519,1.628,5.432,5.432,0,0,1,.6,2.6,5.954,5.954,0,0,1-2.007,4.394,7.655,7.655,0,0,1-5.425,1.845,8.823,8.823,0,0,1-5.425-1.573,5.177,5.177,0,0,1-2.062-4.449h4.449c.163,1.845,1.194,2.713,3.092,2.713a3.5,3.5,0,0,0,2.279-.76,2.5,2.5,0,0,0,.814-1.953,2.293,2.293,0,0,0-1.085-1.953,8.519,8.519,0,0,0-2.658-1.085c-1.031-.217-2.062-.543-3.147-.868a5.538,5.538,0,0,1-2.658-1.79,5.008,5.008,0,0,1-1.085-3.364,5.566,5.566,0,0,1,2.062-4.5,7.956,7.956,0,0,1,5.262-1.682,8.305,8.305,0,0,1,5.154,1.465,5.585,5.585,0,0,1,2.116,4.449h-4.557a2.836,2.836,0,0,0-.868-1.9A4.015,4.015,0,0,0,550.907,279.618Z" transform="translate(-543.8 -276.2)" fill="#fff"/>
      <path id="Path_71988" data-name="Path 71988" d="M601.269,276.9v20.724h-4.177V284.549l-5.642,13.075h-2.984l-5.588-13.02v13.02H578.7V276.9h4.666l6.619,15.353L596.6,276.9Z" transform="translate(-559.766 -276.52)" fill="#fff"/>
      <path id="Path_71989" data-name="Path 71989" d="M640.69,297.579l-1.356-3.906h-8.083l-1.356,3.906H625.5l7.324-20.779h4.937l7.27,20.779Zm-8.3-7.107H638.3l-2.984-8.626Z" transform="translate(-581.176 -276.474)" fill="#fff"/>
      <path id="Path_71990" data-name="Path 71990" d="M671.177,289.378v8.246H667V276.9h7.65a7.9,7.9,0,0,1,5.534,1.79,5.763,5.763,0,0,1,1.953,4.449,6.074,6.074,0,0,1-1.194,3.635,6.308,6.308,0,0,1-3.743,2.333l5.262,8.518h-4.937l-4.937-8.246Zm0-9.277v6.076H674.6a3.264,3.264,0,0,0,2.387-.814,3.447,3.447,0,0,0,0-4.449,3.264,3.264,0,0,0-2.387-.814Z" transform="translate(-600.162 -276.52)" fill="#fff"/>
      <path id="Path_71991" data-name="Path 71991" d="M700.3,280.1v-3.2h15.353v3.2h-5.588v17.523h-4.177V280.1Z" transform="translate(-615.396 -276.52)" fill="#fff"/>
      <path id="Path_71992" data-name="Path 71992" d="M756.01,276.9h4.5l-5.968,20.724h-4.72l-4.015-14.431-4.123,14.431h-4.72L731,276.9h4.449l3.96,16,4.177-16h4.72l3.96,15.842Z" transform="translate(-629.44 -276.52)" fill="#fff"/>
      <path id="Path_71993" data-name="Path 71993" d="M802.391,297.579l-1.356-3.906h-8.084l-1.356,3.906H787.2l7.324-20.779h4.937l7.27,20.779Zm-8.3-7.107H800l-2.984-8.626Z" transform="translate(-655.151 -276.474)" fill="#fff"/>
      <path id="Path_71994" data-name="Path 71994" d="M836.676,297.67H832.5v-7.107L825.5,277h4.666l4.394,9.765L838.954,277h4.666l-7,13.563v7.107Z" transform="translate(-672.672 -276.566)" fill="#fff"/>
    </g>
    <g id="Group_12738" data-name="Group 12738" transform="translate(565.324 466.085)">
      <g id="Group_12737" data-name="Group 12737">
        <path id="Path_71995" data-name="Path 71995" d="M1041.209,763.708a5.371,5.371,0,0,1-2.333,1.573,10.312,10.312,0,0,1-3.58.6h-3.418v8.246H1027.7V753.4h7.649a7.9,7.9,0,0,1,5.534,1.79,5.561,5.561,0,0,1,1.953,4.232A6.584,6.584,0,0,1,1041.209,763.708Zm-9.331-1.085h3.418a3.264,3.264,0,0,0,2.387-.814,3.447,3.447,0,0,0,0-4.449,3.265,3.265,0,0,0-2.387-.814h-3.418Z" transform="translate(-1027.7 -753.292)" fill="#fff"/>
        <path id="Path_71996" data-name="Path 71996" d="M1074.375,753.3h4.177v20.724h-4.177v-8.843h-8.9v8.843H1061.3V753.3h4.177v8.626h8.9Z" transform="translate(-1043.071 -753.246)" fill="#fff"/>
        <path id="Path_71997" data-name="Path 71997" d="M1113.59,773.979l-1.356-3.906h-8.083l-1.356,3.906H1098.4l7.324-20.778h4.937l7.27,20.778Zm-8.3-7.107h5.914l-2.984-8.626Z" transform="translate(-1060.044 -753.2)" fill="#fff"/>
        <path id="Path_71998" data-name="Path 71998" d="M1144.077,765.778v8.246H1139.9V753.3h7.65a7.9,7.9,0,0,1,5.534,1.79,5.763,5.763,0,0,1,1.953,4.449,6.074,6.074,0,0,1-1.193,3.635,6.308,6.308,0,0,1-3.744,2.333l5.263,8.518h-4.937l-4.937-8.246Zm0-9.277v6.076h3.418a3.264,3.264,0,0,0,2.387-.814,3.447,3.447,0,0,0,0-4.449,3.265,3.265,0,0,0-2.387-.814Z" transform="translate(-1079.029 -753.246)" fill="#fff"/>
        <path id="Path_71999" data-name="Path 71999" d="M1197.969,753.3v20.724h-4.177V760.95l-5.642,13.075h-2.984L1179.577,761v13.021H1175.4V753.3h4.666l6.619,15.353L1193.3,753.3Z" transform="translate(-1095.27 -753.246)" fill="#fff"/>
        <path id="Path_72000" data-name="Path 72000" d="M1237.391,773.979l-1.356-3.906h-8.084l-1.356,3.906H1222.2l7.324-20.778h4.937l7.27,20.778Zm-8.3-7.107H1235l-2.984-8.626Z" transform="translate(-1116.68 -753.2)" fill="#fff"/>
      </g>
    </g>
    <g id="Group_12739" data-name="Group 12739" transform="translate(588.164 511.331)">
      <path id="Path_72001" data-name="Path 72001" d="M1072.4,849.24V855.7h-2.6V839.8h5.479a5.872,5.872,0,0,1,4.177,1.356,4.354,4.354,0,0,1,1.465,3.418,4.608,4.608,0,0,1-.977,2.875,4.657,4.657,0,0,1-2.984,1.682l4.232,6.619h-3.2l-3.96-6.456-1.627-.054Zm0-7.432v5.371h2.875a3.048,3.048,0,0,0,2.224-.705,3.033,3.033,0,0,0,0-4.015,3.048,3.048,0,0,0-2.224-.705l-2.875.054Z" transform="translate(-1069.8 -838.064)" fill="#fff"/>
      <path id="Path_72002" data-name="Path 72002" d="M1100.985,858.42a5.844,5.844,0,0,1-4.448-1.79,7.284,7.284,0,0,1,0-9.44,6.162,6.162,0,0,1,10.688,4.34,8.9,8.9,0,0,1-.109,1.248h-9.657a3.555,3.555,0,0,0,1.085,2.5,3.5,3.5,0,0,0,2.441.922,3.058,3.058,0,0,0,2.984-1.736h2.821a6.038,6.038,0,0,1-2.062,2.875A6.1,6.1,0,0,1,1100.985,858.42Zm2.5-9.874a3.692,3.692,0,0,0-4.883,0,3.556,3.556,0,0,0-1.085,2.5h7A3.122,3.122,0,0,0,1103.48,848.547Z" transform="translate(-1081.237 -840.626)" fill="#fff"/>
      <path id="Path_72003" data-name="Path 72003" d="M1129.5,845.4a5.616,5.616,0,0,1,4.232,1.79,6.49,6.49,0,0,1,1.682,4.666,6.714,6.714,0,0,1-1.682,4.72,5.476,5.476,0,0,1-4.232,1.845,4.691,4.691,0,0,1-2.6-.705,5.292,5.292,0,0,1-1.79-1.845v8.355h-2.6V845.617h2.6v2.224a5.144,5.144,0,0,1,1.79-1.79A5.432,5.432,0,0,1,1129.5,845.4Zm2.116,9.6a4.309,4.309,0,0,0,1.139-3.147,4.178,4.178,0,0,0-1.139-3.092,3.8,3.8,0,0,0-5.425,0,4.766,4.766,0,0,0,0,6.185,3.647,3.647,0,0,0,2.713,1.139A3.6,3.6,0,0,0,1131.614,855Z" transform="translate(-1093.909 -840.626)" fill="#fff"/>
      <path id="Path_72004" data-name="Path 72004" d="M1155.848,858.42a6.174,6.174,0,0,1-4.557-1.79,6.382,6.382,0,0,1-1.79-4.72,6.212,6.212,0,0,1,1.845-4.72,6.834,6.834,0,0,1,9.223,0,6.887,6.887,0,0,1-.054,9.44A6.606,6.606,0,0,1,1155.848,858.42Zm2.712-3.309a5.086,5.086,0,0,0,.054-6.347,3.647,3.647,0,0,0-2.713-1.139,3.529,3.529,0,0,0-2.658,1.139,4.476,4.476,0,0,0-1.085,3.2,4.548,4.548,0,0,0,1.031,3.2,3.414,3.414,0,0,0,2.6,1.139A4.042,4.042,0,0,0,1158.56,855.111Z" transform="translate(-1106.261 -840.626)" fill="#fff"/>
      <path id="Path_72005" data-name="Path 72005" d="M1180.6,845.663v2.224a3.939,3.939,0,0,1,3.8-2.387v2.713h-.651a3.347,3.347,0,0,0-2.333.76,3.684,3.684,0,0,0-.814,2.713V858.3H1178V845.663Z" transform="translate(-1119.299 -840.672)" fill="#fff"/>
      <path id="Path_72006" data-name="Path 72006" d="M1199.461,845.262h-3.092v7a1.381,1.381,0,0,0,.326,1.031,1.588,1.588,0,0,0,1.139.326h1.628v2.17H1197.4c-2.441,0-3.635-1.193-3.635-3.526v-7H1192.3v-2.116h1.465V840h2.658v3.147h3.092l-.054,2.116Z" transform="translate(-1125.842 -838.155)" fill="#fff"/>
      <path id="Path_72007" data-name="Path 72007" d="M1212.564,838.282a1.667,1.667,0,1,1-.488-1.194A1.6,1.6,0,0,1,1212.564,838.282Zm-2.984,15.95V841.591h2.6v12.641Z" transform="translate(-1133.573 -836.6)" fill="#fff"/>
      <path id="Path_72008" data-name="Path 72008" d="M1223.558,845.663v2.007a4.232,4.232,0,0,1,4.015-2.17,4.826,4.826,0,0,1,3.526,1.41,5.428,5.428,0,0,1,1.411,3.96V858.3h-2.6v-7.053a3.518,3.518,0,0,0-.868-2.6,3.062,3.062,0,0,0-2.333-.922,3.146,3.146,0,0,0-2.333.922,3.518,3.518,0,0,0-.868,2.6V858.3h-2.6V845.663Z" transform="translate(-1138.925 -840.672)" fill="#fff"/>
      <path id="Path_72009" data-name="Path 72009" d="M1248.536,856.576a6.751,6.751,0,0,1-1.736-4.72,6.49,6.49,0,0,1,1.682-4.666,5.615,5.615,0,0,1,4.232-1.79,5.155,5.155,0,0,1,2.6.651,4.247,4.247,0,0,1,1.736,1.79v-2.224h2.658v12.8a5.981,5.981,0,0,1-1.628,4.34,5.722,5.722,0,0,1-4.34,1.682,7.266,7.266,0,0,1-4.394-1.194,4.286,4.286,0,0,1-1.9-3.255h2.6a2.737,2.737,0,0,0,1.248,1.573,4.781,4.781,0,0,0,2.441.6,3.312,3.312,0,0,0,2.441-.977,3.743,3.743,0,0,0,.976-2.767v-2.55a5.162,5.162,0,0,1-1.736,1.845,4.691,4.691,0,0,1-2.6.705A5.51,5.51,0,0,1,1248.536,856.576Zm7.487-1.573a4.766,4.766,0,0,0,0-6.185,3.8,3.8,0,0,0-5.425,0,4.178,4.178,0,0,0-1.139,3.092,4.4,4.4,0,0,0,1.139,3.147,3.7,3.7,0,0,0,2.712,1.194A3.559,3.559,0,0,0,1256.023,855Z" transform="translate(-1150.774 -840.626)" fill="#fff"/>
      <path id="Path_72010" data-name="Path 72010" d="M1072.4,899.84V906.3h-2.6V890.4h5.479a5.872,5.872,0,0,1,4.177,1.356,4.354,4.354,0,0,1,1.465,3.418,4.608,4.608,0,0,1-.977,2.875,4.657,4.657,0,0,1-2.984,1.682l4.232,6.619h-3.2l-3.96-6.456-1.627-.054Zm0-7.432v5.371h2.875a3.048,3.048,0,0,0,2.224-.705,3.033,3.033,0,0,0,0-4.015,3.048,3.048,0,0,0-2.224-.705l-2.875.054Z" transform="translate(-1069.8 -861.213)" fill="#fff"/>
      <path id="Path_72011" data-name="Path 72011" d="M1113.305,890.354h2.767l-4.72,15.9h-2.93l-3.364-12.044-3.526,12.044h-2.93l-4.5-15.95h2.767l3.309,12.966,3.581-12.966h2.93L1110,903.212Z" transform="translate(-1080.917 -861.167)" fill="#fff"/>
      <path id="Path_72012" data-name="Path 72012" d="M1143.808,890.4a8.473,8.473,0,0,1,6.13,2.17,7.682,7.682,0,0,1,2.279,5.859,7.56,7.56,0,0,1-2.279,5.8,8.683,8.683,0,0,1-6.13,2.116H1138.6V890.4Zm-2.6,13.888h2.6a5.778,5.778,0,0,0,4.286-1.573,6.114,6.114,0,0,0,1.519-4.34,5.969,5.969,0,0,0-1.519-4.34,5.694,5.694,0,0,0-4.286-1.573h-2.6Z" transform="translate(-1101.275 -861.213)" fill="#fff"/>
    </g>
    <g id="Group_12740" data-name="Group 12740" transform="translate(588.164 584.246)">
      <path id="Path_72013" data-name="Path 72013" d="M1072.4,983.64V990.1h-2.6V974.2h5.479a5.872,5.872,0,0,1,4.177,1.356,4.354,4.354,0,0,1,1.465,3.418,4.607,4.607,0,0,1-.977,2.875,4.657,4.657,0,0,1-2.984,1.682l4.232,6.619h-3.2l-3.96-6.456-1.627-.054Zm0-7.378v5.371h2.875a3.048,3.048,0,0,0,2.224-.705,3.033,3.033,0,0,0,0-4.015,3.048,3.048,0,0,0-2.224-.705l-2.875.054Z" transform="translate(-1069.8 -972.464)" fill="#fff"/>
      <path id="Path_72014" data-name="Path 72014" d="M1100.985,992.92a5.844,5.844,0,0,1-4.448-1.79,7.284,7.284,0,0,1,0-9.44,6.162,6.162,0,0,1,10.688,4.34,8.893,8.893,0,0,1-.109,1.248h-9.657a3.555,3.555,0,0,0,1.085,2.5,3.5,3.5,0,0,0,2.441.922,3.058,3.058,0,0,0,2.984-1.736h2.821a6.037,6.037,0,0,1-2.062,2.875A6.481,6.481,0,0,1,1100.985,992.92Zm2.5-9.874a3.692,3.692,0,0,0-4.883,0,3.556,3.556,0,0,0-1.085,2.5h7A3.05,3.05,0,0,0,1103.48,983.047Z" transform="translate(-1081.237 -975.072)" fill="#fff"/>
      <path id="Path_72015" data-name="Path 72015" d="M1122.536,991.076a6.751,6.751,0,0,1-1.736-4.72,6.49,6.49,0,0,1,1.682-4.666,5.615,5.615,0,0,1,4.232-1.79,5.154,5.154,0,0,1,2.6.651,4.246,4.246,0,0,1,1.736,1.79v-2.224h2.658v12.641h-2.658v-2.333a5.166,5.166,0,0,1-1.736,1.845,4.69,4.69,0,0,1-2.6.705A5.688,5.688,0,0,1,1122.536,991.076Zm7.487-1.573a4.766,4.766,0,0,0,0-6.185,3.8,3.8,0,0,0-5.425,0,4.178,4.178,0,0,0-1.139,3.092,4.4,4.4,0,0,0,1.139,3.147,3.7,3.7,0,0,0,2.713,1.194A3.752,3.752,0,0,0,1130.023,989.5Z" transform="translate(-1093.131 -975.072)" fill="#fff"/>
      <path id="Path_72016" data-name="Path 72016" d="M1151.1,989.227V972.3h2.6v16.927Z" transform="translate(-1106.993 -971.595)" fill="#fff"/>
      <path id="Path_72017" data-name="Path 72017" d="M1180.061,979.762h-3.092v7a1.382,1.382,0,0,0,.325,1.031,1.588,1.588,0,0,0,1.139.326h1.628v2.17H1178c-2.441,0-3.635-1.194-3.635-3.526v-7H1172.9v-2.116h1.465V974.5h2.658v3.147h3.092l-.054,2.116Z" transform="translate(-1116.966 -972.601)" fill="#fff"/>
      <path id="Path_72018" data-name="Path 72018" d="M1193.264,972.682a1.668,1.668,0,1,1-.488-1.193A1.6,1.6,0,0,1,1193.264,972.682Zm-2.984,15.95V975.991h2.6v12.641Z" transform="translate(-1124.743 -971)" fill="#fff"/>
      <path id="Path_72019" data-name="Path 72019" d="M1204.167,980.163v2.007a4.232,4.232,0,0,1,4.015-2.17,4.693,4.693,0,0,1,2.6.705,4.216,4.216,0,0,1,1.736,2.007,4.582,4.582,0,0,1,1.845-1.953,5.295,5.295,0,0,1,6.239.705,5.428,5.428,0,0,1,1.41,3.96v7.433h-2.6V985.8a3.518,3.518,0,0,0-.868-2.6,3.061,3.061,0,0,0-2.333-.922,3.145,3.145,0,0,0-2.333.922,3.758,3.758,0,0,0-.868,2.6v7.053h-2.6V985.8a3.519,3.519,0,0,0-.868-2.6,3.062,3.062,0,0,0-2.333-.922,3.145,3.145,0,0,0-2.333.922,3.518,3.518,0,0,0-.868,2.6v7.053h-2.6V980.217l2.767-.054Z" transform="translate(-1130.004 -975.117)" fill="#fff"/>
      <path id="Path_72020" data-name="Path 72020" d="M1250.085,992.92a5.845,5.845,0,0,1-4.449-1.79,7.285,7.285,0,0,1,0-9.44,6.163,6.163,0,0,1,10.688,4.34,8.893,8.893,0,0,1-.109,1.248h-9.657a3.556,3.556,0,0,0,1.085,2.5,3.5,3.5,0,0,0,2.441.922,3.058,3.058,0,0,0,2.984-1.736h2.821a6.04,6.04,0,0,1-2.062,2.875A6.244,6.244,0,0,1,1250.085,992.92Zm2.5-9.874a3.692,3.692,0,0,0-4.883,0,3.556,3.556,0,0,0-1.085,2.5h7A3.05,3.05,0,0,0,1252.58,983.047Z" transform="translate(-1149.448 -975.072)" fill="#fff"/>
    </g>
    <g id="Group_12743" data-name="Group 12743" transform="translate(54.651 449.375)">
      <g id="Group_12742" data-name="Group 12742" transform="translate(0 0)">
        <g id="Group_12741" data-name="Group 12741">
          <path id="Path_72021" data-name="Path 72021" d="M99.475,726.9h4.177v20.724H99.475v-8.843h-8.9v8.843H86.4V726.9h4.177v8.626h8.9Z" transform="translate(-86.4 -724.459)" fill="#fff"/>
          <path id="Path_72022" data-name="Path 72022" d="M126.787,748.894a8.991,8.991,0,0,1,.054-12.261,8.536,8.536,0,0,1,6.022-2.333,8.308,8.308,0,0,1,6.022,2.333,8.009,8.009,0,0,1,2.441,6.13,8.09,8.09,0,0,1-2.441,6.13,9.009,9.009,0,0,1-12.1,0Zm6.022-1.193a3.989,3.989,0,0,0,2.984-1.3,5.918,5.918,0,0,0,0-7.27,3.989,3.989,0,0,0-2.984-1.3,3.906,3.906,0,0,0-2.984,1.3,5.068,5.068,0,0,0-1.194,3.635,4.982,4.982,0,0,0,1.194,3.635A3.989,3.989,0,0,0,132.809,747.7Z" transform="translate(-103.784 -727.844)" fill="#fff"/>
          <path id="Path_72023" data-name="Path 72023" d="M159.954,739.345a4.468,4.468,0,0,1,1.79-3.581,7.432,7.432,0,0,1,4.828-1.465,7.535,7.535,0,0,1,4.828,1.465,5.275,5.275,0,0,1,1.953,3.906h-4.286c-.109-1.411-.977-2.062-2.55-2.062a2.989,2.989,0,0,0-1.845.488,1.547,1.547,0,0,0-.651,1.3,1.467,1.467,0,0,0,.977,1.3,11.254,11.254,0,0,0,2.387.76,25.513,25.513,0,0,1,2.767.651,5.41,5.41,0,0,1,2.333,1.411,3.782,3.782,0,0,1,.977,2.713,4.384,4.384,0,0,1-1.9,3.635,7.962,7.962,0,0,1-4.828,1.411,7.775,7.775,0,0,1-4.774-1.356,5.048,5.048,0,0,1-2.062-3.96h4.286c.163,1.41,1.031,2.061,2.658,2.061a2.77,2.77,0,0,0,1.845-.542,1.56,1.56,0,0,0,.705-1.356,1.534,1.534,0,0,0-.977-1.356,8.825,8.825,0,0,0-2.387-.76,25.5,25.5,0,0,1-2.767-.651A5.309,5.309,0,0,1,160.931,742,3.738,3.738,0,0,1,159.954,739.345Z" transform="translate(-120.025 -727.844)" fill="#fff"/>
          <path id="Path_72024" data-name="Path 72024" d="M195.723,737.167a5.734,5.734,0,0,1,5.154-2.767,7.252,7.252,0,0,1,5.588,2.333,9.592,9.592,0,0,1,0,12.152,7.263,7.263,0,0,1-5.534,2.387,5.667,5.667,0,0,1-5.154-2.984v10.579H191.6V734.617h4.177v2.55Zm7.378,9.169a4.839,4.839,0,0,0,1.3-3.581,4.709,4.709,0,0,0-1.3-3.526,4.194,4.194,0,0,0-3.038-1.3,4.106,4.106,0,0,0-3.038,1.3,5.426,5.426,0,0,0,0,7.053,4.193,4.193,0,0,0,3.038,1.3A3.938,3.938,0,0,0,203.1,746.336Z" transform="translate(-134.527 -727.89)" fill="#fff"/>
          <path id="Path_72025" data-name="Path 72025" d="M233.2,724.95a2.594,2.594,0,1,1-.76-1.79A2.2,2.2,0,0,1,233.2,724.95Zm-4.611,20.616V729.127h4.177v16.438Z" transform="translate(-151.225 -722.4)" fill="#fff"/>
          <path id="Path_72026" data-name="Path 72026" d="M250.25,744.281h2.007v3.526H249.6a5.986,5.986,0,0,1-3.906-1.139c-.922-.759-1.356-2.062-1.356-3.852v-8.029H242.6v-3.418h1.736V727.3h4.177v4.069H252.2v3.418h-3.689v8.029a1.379,1.379,0,0,0,.38,1.139A2.16,2.16,0,0,0,250.25,744.281Z" transform="translate(-157.859 -724.642)" fill="#fff"/>
          <path id="Path_72027" data-name="Path 72027" d="M266.424,748.885a9.5,9.5,0,0,1-.054-12.152,7.253,7.253,0,0,1,5.588-2.333,5.735,5.735,0,0,1,5.154,2.767v-2.55h4.177v16.438h-4.177v-2.767a5.808,5.808,0,0,1-5.208,2.984A7.23,7.23,0,0,1,266.424,748.885Zm9.44-2.5a5.426,5.426,0,0,0,0-7.053,4.193,4.193,0,0,0-3.038-1.3,4.106,4.106,0,0,0-3.038,1.3,4.709,4.709,0,0,0-1.3,3.526,4.839,4.839,0,0,0,1.3,3.581,4.193,4.193,0,0,0,3.038,1.3A4.481,4.481,0,0,0,275.864,746.39Z" transform="translate(-167.74 -727.89)" fill="#fff"/>
          <path id="Path_72028" data-name="Path 72028" d="M303.9,746.572V724.6h4.177v21.972Z" transform="translate(-185.902 -723.406)" fill="#fff"/>
        </g>
      </g>
    </g>
    <g id="Group_12744" data-name="Group 12744" transform="translate(55.736 493.102)">
      <path id="Path_72029" data-name="Path 72029" d="M96.538,820.776a8.067,8.067,0,0,1-5.8-2.279,7.766,7.766,0,0,1-2.333-5.859,7.886,7.886,0,0,1,8.138-8.138,7.884,7.884,0,0,1,8.084,8.138,7.933,7.933,0,0,1-2.333,5.859A7.853,7.853,0,0,1,96.538,820.776Zm0-2.333a5.146,5.146,0,0,0,3.906-1.573,5.743,5.743,0,0,0,1.519-4.177,5.657,5.657,0,0,0-1.519-4.177,5.316,5.316,0,0,0-3.906-1.573,5.23,5.23,0,0,0-3.906,1.573,6.5,6.5,0,0,0,0,8.355A5.316,5.316,0,0,0,96.538,818.443Z" transform="translate(-88.4 -803.686)" fill="#fff"/>
      <path id="Path_72030" data-name="Path 72030" d="M125.7,810.863v2.224a3.939,3.939,0,0,1,3.8-2.387v2.713h-.651a3.348,3.348,0,0,0-2.333.76,3.685,3.685,0,0,0-.814,2.713V823.5h-2.6V810.863Z" transform="translate(-104.275 -806.523)" fill="#fff"/>
      <path id="Path_72031" data-name="Path 72031" d="M139.436,818.3a6.751,6.751,0,0,1-1.736-4.72,6.49,6.49,0,0,1,1.682-4.666,5.615,5.615,0,0,1,4.232-1.79,5.155,5.155,0,0,1,2.6.651,4.245,4.245,0,0,1,1.736,1.79V803h2.658v16.927h-2.658v-2.333a5.162,5.162,0,0,1-1.736,1.845,4.691,4.691,0,0,1-2.6.705A5.443,5.443,0,0,1,139.436,818.3Zm7.487-1.573a4.766,4.766,0,0,0,0-6.185,3.647,3.647,0,0,0-2.713-1.139,3.734,3.734,0,0,0-2.713,1.139,4.179,4.179,0,0,0-1.139,3.092,4.4,4.4,0,0,0,1.139,3.147,3.7,3.7,0,0,0,2.713,1.194A4.348,4.348,0,0,0,146.923,816.726Z" transform="translate(-110.954 -803)" fill="#fff"/>
      <path id="Path_72032" data-name="Path 72032" d="M172.485,823.62a5.844,5.844,0,0,1-4.449-1.79,7.284,7.284,0,0,1,0-9.44,6.163,6.163,0,0,1,10.688,4.34,8.9,8.9,0,0,1-.109,1.248h-9.657a3.556,3.556,0,0,0,1.085,2.5,3.5,3.5,0,0,0,2.441.922,3.058,3.058,0,0,0,2.984-1.736h2.821a6.04,6.04,0,0,1-2.062,2.875A6.245,6.245,0,0,1,172.485,823.62Zm2.5-9.928a3.692,3.692,0,0,0-4.883,0,3.556,3.556,0,0,0-1.085,2.5h7A3.2,3.2,0,0,0,174.98,813.692Z" transform="translate(-124.038 -806.477)" fill="#fff"/>
      <path id="Path_72033" data-name="Path 72033" d="M196.6,810.863v2.224a3.939,3.939,0,0,1,3.8-2.387v2.713h-.651a3.348,3.348,0,0,0-2.333.76,3.685,3.685,0,0,0-.814,2.713V823.5H194V810.863Z" transform="translate(-136.71 -806.523)" fill="#fff"/>
      <path id="Path_72034" data-name="Path 72034" d="M92.658,861.463v2.007a4.232,4.232,0,0,1,4.015-2.17,4.693,4.693,0,0,1,2.6.705,4.216,4.216,0,0,1,1.736,2.007,4.581,4.581,0,0,1,1.845-1.953,5.3,5.3,0,0,1,6.239.705,5.429,5.429,0,0,1,1.411,3.96v7.432h-2.6V867.1a3.518,3.518,0,0,0-.868-2.6,3.062,3.062,0,0,0-2.333-.922,3.146,3.146,0,0,0-2.333.922,3.759,3.759,0,0,0-.868,2.6v7.053H98.9V867.1a3.518,3.518,0,0,0-.868-2.6,3.062,3.062,0,0,0-2.333-.922,3.146,3.146,0,0,0-2.333.922,3.518,3.518,0,0,0-.868,2.6v7.053H90V861.517h2.658Z" transform="translate(-89.132 -829.671)" fill="#fff"/>
      <path id="Path_72035" data-name="Path 72035" d="M133.936,872.376a6.752,6.752,0,0,1-1.736-4.72,6.49,6.49,0,0,1,1.682-4.666,5.615,5.615,0,0,1,4.232-1.79,5.155,5.155,0,0,1,2.6.651,4.246,4.246,0,0,1,1.736,1.79v-2.224h2.658v12.641h-2.658v-2.333a5.163,5.163,0,0,1-1.736,1.845,4.692,4.692,0,0,1-2.6.705A5.874,5.874,0,0,1,133.936,872.376Zm7.487-1.573a4.766,4.766,0,0,0,0-6.185,3.647,3.647,0,0,0-2.713-1.139A3.734,3.734,0,0,0,136,864.618a4.179,4.179,0,0,0-1.139,3.092A4.4,4.4,0,0,0,136,870.857a3.7,3.7,0,0,0,2.713,1.193A3.971,3.971,0,0,0,141.423,870.8Z" transform="translate(-108.438 -829.625)" fill="#fff"/>
      <path id="Path_72036" data-name="Path 72036" d="M165.058,861.463v2.007a4.232,4.232,0,0,1,4.015-2.17,4.827,4.827,0,0,1,3.526,1.411,5.428,5.428,0,0,1,1.411,3.96V874.1h-2.6v-7.053a3.518,3.518,0,0,0-.868-2.6,3.061,3.061,0,0,0-2.333-.922,3.146,3.146,0,0,0-2.333.922,3.518,3.518,0,0,0-.868,2.6V874.1h-2.6V861.463Z" transform="translate(-122.254 -829.671)" fill="#fff"/>
      <path id="Path_72037" data-name="Path 72037" d="M189.936,872.376a6.752,6.752,0,0,1-1.736-4.72,6.49,6.49,0,0,1,1.682-4.666,5.615,5.615,0,0,1,4.232-1.79,5.155,5.155,0,0,1,2.6.651,4.246,4.246,0,0,1,1.736,1.79v-2.224h2.658v12.641h-2.658v-2.333a5.163,5.163,0,0,1-1.736,1.845,4.692,4.692,0,0,1-2.6.705A5.874,5.874,0,0,1,189.936,872.376Zm7.487-1.573a4.766,4.766,0,0,0,0-6.185,3.8,3.8,0,0,0-5.425,0,4.179,4.179,0,0,0-1.139,3.092A4.4,4.4,0,0,0,192,870.857a3.7,3.7,0,0,0,2.713,1.193A3.752,3.752,0,0,0,197.423,870.8Z" transform="translate(-134.057 -829.625)" fill="#fff"/>
      <path id="Path_72038" data-name="Path 72038" d="M218.636,872.376a6.752,6.752,0,0,1-1.736-4.72,6.49,6.49,0,0,1,1.682-4.666,5.615,5.615,0,0,1,4.232-1.79,5.155,5.155,0,0,1,2.6.651,4.246,4.246,0,0,1,1.736,1.79v-2.224h2.658v12.8a5.981,5.981,0,0,1-1.628,4.34,5.722,5.722,0,0,1-4.34,1.682,7.266,7.266,0,0,1-4.394-1.194,4.286,4.286,0,0,1-1.9-3.255h2.6a2.737,2.737,0,0,0,1.248,1.573,4.782,4.782,0,0,0,2.441.6,3.312,3.312,0,0,0,2.441-.977,3.742,3.742,0,0,0,.977-2.767v-2.55a5.162,5.162,0,0,1-1.736,1.845,4.691,4.691,0,0,1-2.6.705A5.51,5.51,0,0,1,218.636,872.376Zm7.432-1.573a4.766,4.766,0,0,0,0-6.185,3.647,3.647,0,0,0-2.713-1.139,3.734,3.734,0,0,0-2.713,1.139,4.179,4.179,0,0,0-1.139,3.092,4.4,4.4,0,0,0,1.139,3.147,3.7,3.7,0,0,0,2.713,1.193A3.971,3.971,0,0,0,226.069,870.8Z" transform="translate(-147.186 -829.625)" fill="#fff"/>
      <path id="Path_72039" data-name="Path 72039" d="M251.685,874.221a5.844,5.844,0,0,1-4.449-1.79,7.284,7.284,0,0,1,0-9.44,6.163,6.163,0,0,1,10.688,4.34,8.9,8.9,0,0,1-.108,1.248h-9.657a3.555,3.555,0,0,0,1.085,2.5,3.5,3.5,0,0,0,2.441.922,3.058,3.058,0,0,0,2.984-1.736h2.821a6.04,6.04,0,0,1-2.062,2.875A6.482,6.482,0,0,1,251.685,874.221Zm2.5-9.874a3.692,3.692,0,0,0-4.883,0,3.556,3.556,0,0,0-1.085,2.5h7A3.223,3.223,0,0,0,254.18,864.347Z" transform="translate(-160.27 -829.625)" fill="#fff"/>
      <path id="Path_72040" data-name="Path 72040" d="M275.567,861.463v2.007a4.232,4.232,0,0,1,4.015-2.17,4.693,4.693,0,0,1,2.6.705,4.216,4.216,0,0,1,1.736,2.007,4.581,4.581,0,0,1,1.845-1.953,5.3,5.3,0,0,1,6.239.705,5.429,5.429,0,0,1,1.411,3.96v7.432h-2.6V867.1a3.518,3.518,0,0,0-.868-2.6,3.062,3.062,0,0,0-2.333-.922,3.145,3.145,0,0,0-2.333.922,3.759,3.759,0,0,0-.868,2.6v7.053h-2.6V867.1a3.518,3.518,0,0,0-.868-2.6,3.062,3.062,0,0,0-2.333-.922,3.145,3.145,0,0,0-2.333.922,3.518,3.518,0,0,0-.868,2.6v7.053h-2.6V861.517h2.767v-.054Z" transform="translate(-172.76 -829.671)" fill="#fff"/>
      <path id="Path_72041" data-name="Path 72041" d="M321.585,874.221a5.844,5.844,0,0,1-4.449-1.79,7.284,7.284,0,0,1,0-9.44,6.163,6.163,0,0,1,10.688,4.34,8.909,8.909,0,0,1-.109,1.248h-9.657a3.556,3.556,0,0,0,1.085,2.5,3.5,3.5,0,0,0,2.441.922,3.058,3.058,0,0,0,2.984-1.736h2.821a6.039,6.039,0,0,1-2.062,2.875A6.482,6.482,0,0,1,321.585,874.221Zm2.5-9.874a3.692,3.692,0,0,0-4.883,0,3.556,3.556,0,0,0-1.085,2.5h7A3.42,3.42,0,0,0,324.08,864.347Z" transform="translate(-192.248 -829.625)" fill="#fff"/>
      <path id="Path_72042" data-name="Path 72042" d="M345.6,861.463v2.007a4.233,4.233,0,0,1,4.015-2.17,4.827,4.827,0,0,1,3.526,1.411,5.428,5.428,0,0,1,1.411,3.96V874.1h-2.6v-7.053a3.518,3.518,0,0,0-.868-2.6,3.061,3.061,0,0,0-2.333-.922,3.146,3.146,0,0,0-2.333.922,3.518,3.518,0,0,0-.868,2.6V874.1H343V861.463Z" transform="translate(-204.875 -829.671)" fill="#fff"/>
      <path id="Path_72043" data-name="Path 72043" d="M375.661,861.062h-3.092v7a1.381,1.381,0,0,0,.326,1.031,1.588,1.588,0,0,0,1.139.326h1.628v2.17H373.6c-2.441,0-3.635-1.194-3.635-3.526v-7H368.5v-2.116h1.465V855.8h2.658v3.147h3.092v2.116Z" transform="translate(-216.54 -827.155)" fill="#fff"/>
    </g>
    <g id="Group_12745" data-name="Group 12745" transform="translate(56.604 569.598)">
      <path id="Path_72044" data-name="Path 72044" d="M99.711,945.4a4.319,4.319,0,0,1,1.465,3.364,4.545,4.545,0,0,1-1.411,3.364,5.766,5.766,0,0,1-4.232,1.41H92.658v6.456H90V944.1h5.479A5.913,5.913,0,0,1,99.711,945.4Zm-7.053,6.076h2.875a3.047,3.047,0,0,0,2.224-.705,3.032,3.032,0,0,0,0-4.015,3.047,3.047,0,0,0-2.224-.705H92.658Z" transform="translate(-90 -944.042)" fill="#fff"/>
      <path id="Path_72045" data-name="Path 72045" d="M113.6,946.062V944h11.122v2.062H120.49V959.95h-2.6V946.062Z" transform="translate(-100.797 -944)" fill="#fff"/>
      <path id="Path_72046" data-name="Path 72046" d="M92.658,1000.663v2.007a4.232,4.232,0,0,1,4.015-2.17,4.692,4.692,0,0,1,2.6.705,4.215,4.215,0,0,1,1.736,2.007,4.582,4.582,0,0,1,1.845-1.953,5.554,5.554,0,0,1,2.658-.705,4.865,4.865,0,0,1,3.581,1.411,5.428,5.428,0,0,1,1.411,3.96v7.432h-2.6V1006.3a3.518,3.518,0,0,0-.868-2.6,3.061,3.061,0,0,0-2.333-.922,3.146,3.146,0,0,0-2.333.922,3.758,3.758,0,0,0-.868,2.6v7.053H98.9V1006.3a3.518,3.518,0,0,0-.868-2.6,3.061,3.061,0,0,0-2.333-.922,3.146,3.146,0,0,0-2.333.922,3.518,3.518,0,0,0-.868,2.6v7.053H90v-12.641l2.658-.054Z" transform="translate(-90 -969.848)" fill="#fff"/>
      <path id="Path_72047" data-name="Path 72047" d="M133.936,1011.576a6.751,6.751,0,0,1-1.736-4.72,6.49,6.49,0,0,1,1.682-4.666,5.615,5.615,0,0,1,4.232-1.79,5.155,5.155,0,0,1,2.6.651,4.247,4.247,0,0,1,1.736,1.79v-2.224h2.658v12.641h-2.658v-2.333a5.163,5.163,0,0,1-1.736,1.845,4.693,4.693,0,0,1-2.6.705A5.874,5.874,0,0,1,133.936,1011.576Zm7.487-1.573a4.767,4.767,0,0,0,0-6.185,3.8,3.8,0,0,0-5.425,0,4.179,4.179,0,0,0-1.139,3.092,4.4,4.4,0,0,0,1.139,3.147,3.7,3.7,0,0,0,2.713,1.193A3.753,3.753,0,0,0,141.423,1010Z" transform="translate(-109.306 -969.802)" fill="#fff"/>
      <path id="Path_72048" data-name="Path 72048" d="M165.058,1000.663v2.007a4.232,4.232,0,0,1,4.015-2.17,4.826,4.826,0,0,1,3.526,1.41,5.429,5.429,0,0,1,1.411,3.96v7.432h-2.6v-7.053a3.517,3.517,0,0,0-.868-2.6,3.061,3.061,0,0,0-2.333-.922,3.146,3.146,0,0,0-2.333.922,3.518,3.518,0,0,0-.868,2.6v7.053h-2.6v-12.641Z" transform="translate(-123.122 -969.848)" fill="#fff"/>
      <path id="Path_72049" data-name="Path 72049" d="M189.936,1011.576a6.751,6.751,0,0,1-1.736-4.72,6.49,6.49,0,0,1,1.682-4.666,5.615,5.615,0,0,1,4.232-1.79,5.155,5.155,0,0,1,2.6.651,4.247,4.247,0,0,1,1.736,1.79v-2.224h2.658v12.641h-2.658v-2.333a5.163,5.163,0,0,1-1.736,1.845,4.693,4.693,0,0,1-2.6.705A5.874,5.874,0,0,1,189.936,1011.576Zm7.487-1.573a4.767,4.767,0,0,0,0-6.185,3.647,3.647,0,0,0-2.713-1.139,3.734,3.734,0,0,0-2.713,1.139,4.179,4.179,0,0,0-1.139,3.092,4.4,4.4,0,0,0,1.139,3.147,3.7,3.7,0,0,0,2.713,1.193A4.222,4.222,0,0,0,197.423,1010Z" transform="translate(-134.925 -969.802)" fill="#fff"/>
      <path id="Path_72050" data-name="Path 72050" d="M218.636,1011.576a6.751,6.751,0,0,1-1.736-4.72,6.49,6.49,0,0,1,1.682-4.666,5.615,5.615,0,0,1,4.232-1.79,5.155,5.155,0,0,1,2.6.651,4.247,4.247,0,0,1,1.736,1.79v-2.224h2.658v12.8a5.981,5.981,0,0,1-1.628,4.34,5.722,5.722,0,0,1-4.34,1.682,7.266,7.266,0,0,1-4.394-1.193,4.285,4.285,0,0,1-1.9-3.255h2.6a2.737,2.737,0,0,0,1.248,1.573,4.783,4.783,0,0,0,2.441.6,3.312,3.312,0,0,0,2.441-.977,3.742,3.742,0,0,0,.977-2.767v-2.55a5.162,5.162,0,0,1-1.736,1.845,4.692,4.692,0,0,1-2.6.705A5.51,5.51,0,0,1,218.636,1011.576Zm7.432-1.573a4.767,4.767,0,0,0,0-6.185,3.647,3.647,0,0,0-2.713-1.139,3.734,3.734,0,0,0-2.713,1.139,4.179,4.179,0,0,0-1.139,3.092,4.4,4.4,0,0,0,1.139,3.147,3.7,3.7,0,0,0,2.713,1.193A4.222,4.222,0,0,0,226.069,1010Z" transform="translate(-148.054 -969.802)" fill="#fff"/>
      <path id="Path_72051" data-name="Path 72051" d="M251.685,1013.421a5.845,5.845,0,0,1-4.449-1.79,7.284,7.284,0,0,1,0-9.44,6.163,6.163,0,0,1,10.688,4.34,8.9,8.9,0,0,1-.108,1.248h-9.657a3.556,3.556,0,0,0,1.085,2.5,3.5,3.5,0,0,0,2.441.922,3.058,3.058,0,0,0,2.984-1.736h2.821a6.041,6.041,0,0,1-2.062,2.875A6.483,6.483,0,0,1,251.685,1013.421Zm2.5-9.928a3.692,3.692,0,0,0-4.883,0,3.556,3.556,0,0,0-1.085,2.5h7A3.392,3.392,0,0,0,254.18,1003.492Z" transform="translate(-161.138 -969.802)" fill="#fff"/>
      <path id="Path_72052" data-name="Path 72052" d="M275.567,1000.663v2.007a4.232,4.232,0,0,1,4.015-2.17,4.692,4.692,0,0,1,2.6.705,4.215,4.215,0,0,1,1.736,2.007,4.582,4.582,0,0,1,1.845-1.953,5.3,5.3,0,0,1,6.239.705,5.428,5.428,0,0,1,1.411,3.96v7.432h-2.6V1006.3a3.518,3.518,0,0,0-.868-2.6,3.061,3.061,0,0,0-2.333-.922,3.145,3.145,0,0,0-2.333.922,3.759,3.759,0,0,0-.868,2.6v7.053h-2.6V1006.3a3.518,3.518,0,0,0-.868-2.6,3.061,3.061,0,0,0-2.333-.922,3.146,3.146,0,0,0-2.333.922,3.518,3.518,0,0,0-.868,2.6v7.053h-2.6v-12.641l2.767-.054Z" transform="translate(-173.628 -969.848)" fill="#fff"/>
      <path id="Path_72053" data-name="Path 72053" d="M321.585,1013.421a5.845,5.845,0,0,1-4.449-1.79,7.284,7.284,0,0,1,0-9.44,6.163,6.163,0,0,1,10.688,4.34,8.907,8.907,0,0,1-.109,1.248h-9.657a3.556,3.556,0,0,0,1.085,2.5,3.5,3.5,0,0,0,2.441.922,3.058,3.058,0,0,0,2.984-1.736h2.821a6.041,6.041,0,0,1-2.062,2.875A6.483,6.483,0,0,1,321.585,1013.421Zm2.5-9.928a3.692,3.692,0,0,0-4.883,0,3.556,3.556,0,0,0-1.085,2.5h7A3.616,3.616,0,0,0,324.08,1003.492Z" transform="translate(-193.116 -969.802)" fill="#fff"/>
      <path id="Path_72054" data-name="Path 72054" d="M345.6,1000.663v2.007a4.232,4.232,0,0,1,4.015-2.17,4.826,4.826,0,0,1,3.526,1.41,5.428,5.428,0,0,1,1.411,3.96v7.432h-2.6v-7.053a3.518,3.518,0,0,0-.868-2.6,3.061,3.061,0,0,0-2.333-.922,3.146,3.146,0,0,0-2.333.922,3.517,3.517,0,0,0-.868,2.6v7.053H343v-12.641Z" transform="translate(-205.743 -969.848)" fill="#fff"/>
      <path id="Path_72055" data-name="Path 72055" d="M375.661,1000.263h-3.092v7a1.381,1.381,0,0,0,.326,1.031,1.588,1.588,0,0,0,1.139.325h1.628v2.17H373.6c-2.441,0-3.635-1.193-3.635-3.526v-7H368.5v-2.116h1.465V995h2.658v3.147h3.092v2.116Z" transform="translate(-217.408 -967.332)" fill="#fff"/>
    </g>
    <circle id="Ellipse_574" data-name="Ellipse 574" cx="3.147" cy="3.147" r="3.147" transform="translate(566.843 520.337)" fill="#fff"/>
    <circle id="Ellipse_575" data-name="Ellipse 575" cx="3.147" cy="3.147" r="3.147" transform="translate(566.843 591.353)" fill="#fff"/>
    <circle id="Ellipse_576" data-name="Ellipse 576" cx="3.147" cy="3.147" r="3.147" transform="translate(37.506 506.265) rotate(-86.186)" fill="#fff"/>
    <circle id="Ellipse_577" data-name="Ellipse 577" cx="3.147" cy="3.147" r="3.147" transform="translate(37.659 572.705) rotate(-1.169)" fill="#fff"/>
    <g id="Group_12754" data-name="Group 12754" transform="translate(262.219 764.687)">
      <g id="Group_12746" data-name="Group 12746" transform="translate(84.524)">
        <path id="Path_72056" data-name="Path 72056" d="M624.8,1322.7v-15.9h2.6v15.9Z" transform="translate(-624.8 -1305.064)" fill="#fff"/>
        <path id="Path_72057" data-name="Path 72057" d="M638.6,1312.763v2.007a4.233,4.233,0,0,1,4.015-2.17,4.826,4.826,0,0,1,3.526,1.411,5.428,5.428,0,0,1,1.411,3.96v7.432h-2.6v-7.053a3.518,3.518,0,0,0-.868-2.6,3.062,3.062,0,0,0-2.333-.922,3.146,3.146,0,0,0-2.333.922,3.518,3.518,0,0,0-.868,2.6v7.053H636v-12.641Z" transform="translate(-629.924 -1307.717)" fill="#fff"/>
        <path id="Path_72058" data-name="Path 72058" d="M663.436,1323.73a7.284,7.284,0,0,1,0-9.44,5.927,5.927,0,0,1,4.449-1.79,6.536,6.536,0,0,1,3.8,1.085,5.193,5.193,0,0,1,2.007,3.092h-2.821a2.913,2.913,0,0,0-2.984-2.007,3.148,3.148,0,0,0-2.55,1.139,4.649,4.649,0,0,0-.977,3.147,4.8,4.8,0,0,0,.977,3.2,3.149,3.149,0,0,0,2.55,1.139,2.853,2.853,0,0,0,2.984-2.007h2.821a5.486,5.486,0,0,1-2.062,3.038,6.136,6.136,0,0,1-3.743,1.139A5.693,5.693,0,0,1,663.436,1323.73Z" transform="translate(-641.681 -1307.672)" fill="#fff"/>
        <path id="Path_72059" data-name="Path 72059" d="M688.7,1321.827V1304.9h2.6v16.927Z" transform="translate(-654.033 -1304.195)" fill="#fff"/>
        <path id="Path_72060" data-name="Path 72060" d="M708.552,1312.9h2.6v12.641h-2.6v-2.007a4.233,4.233,0,0,1-4.015,2.17,4.827,4.827,0,0,1-3.526-1.411,5.429,5.429,0,0,1-1.41-3.96V1312.9h2.6v7.053a3.518,3.518,0,0,0,.868,2.6,3.062,3.062,0,0,0,2.333.922,3.146,3.146,0,0,0,2.333-.922,3.518,3.518,0,0,0,.868-2.6l-.054-7.053Z" transform="translate(-659.02 -1307.855)" fill="#fff"/>
        <path id="Path_72061" data-name="Path 72061" d="M726.1,1316.4a3.339,3.339,0,0,1,1.356-2.713,6.185,6.185,0,0,1,7,0,4.12,4.12,0,0,1,1.411,2.984h-2.658a2.062,2.062,0,0,0-.651-1.465,2.828,2.828,0,0,0-3.255-.054,1.543,1.543,0,0,0-.6,1.248,1.359,1.359,0,0,0,.76,1.193,7.307,7.307,0,0,0,1.845.651c.705.163,1.465.325,2.17.488a3.981,3.981,0,0,1,1.845,1.085,3.058,3.058,0,0,1,.76,2.116,3.155,3.155,0,0,1-1.41,2.658,5.723,5.723,0,0,1-3.581,1.031,5.56,5.56,0,0,1-3.526-1.031,3.726,3.726,0,0,1-1.465-2.984h2.713a1.908,1.908,0,0,0,.705,1.465,3,3,0,0,0,3.364.054,1.452,1.452,0,0,0,.651-1.248,1.3,1.3,0,0,0-.76-1.194,7.3,7.3,0,0,0-1.845-.651c-.705-.163-1.465-.325-2.17-.488a4.408,4.408,0,0,1-1.845-1.031A3.041,3.041,0,0,1,726.1,1316.4Z" transform="translate(-671.143 -1307.717)" fill="#fff"/>
        <path id="Path_72062" data-name="Path 72062" d="M752.364,1305.282a1.667,1.667,0,1,1-.488-1.194A1.683,1.683,0,0,1,752.364,1305.282Zm-2.984,15.95v-12.641h2.6v12.641Z" transform="translate(-681.619 -1303.6)" fill="#fff"/>
        <path id="Path_72063" data-name="Path 72063" d="M765.647,1325.521a6.173,6.173,0,0,1-4.557-1.79,6.381,6.381,0,0,1-1.79-4.72,6.212,6.212,0,0,1,1.845-4.72,6.834,6.834,0,0,1,9.223,0,6.887,6.887,0,0,1-.054,9.44A6.605,6.605,0,0,1,765.647,1325.521Zm2.713-3.309a5.085,5.085,0,0,0,.054-6.347,3.647,3.647,0,0,0-2.713-1.139,3.529,3.529,0,0,0-2.658,1.139,4.476,4.476,0,0,0-1.085,3.2,4.547,4.547,0,0,0,1.031,3.2,3.414,3.414,0,0,0,2.6,1.139A4.043,4.043,0,0,0,768.36,1322.211Z" transform="translate(-686.331 -1307.672)" fill="#fff"/>
        <path id="Path_72064" data-name="Path 72064" d="M790.358,1312.763v2.007a4.233,4.233,0,0,1,4.015-2.17,4.826,4.826,0,0,1,3.526,1.411,5.428,5.428,0,0,1,1.411,3.96v7.432h-2.6v-7.053a3.518,3.518,0,0,0-.868-2.6,3.061,3.061,0,0,0-2.333-.922,3.146,3.146,0,0,0-2.333.922,3.518,3.518,0,0,0-.868,2.6v7.053h-2.6v-12.641Z" transform="translate(-699.324 -1307.717)" fill="#fff"/>
      </g>
      <g id="Group_12747" data-name="Group 12747" transform="translate(83.277 66.459)">
        <path id="Path_72065" data-name="Path 72065" d="M631.289,1429.3v2.062H625.1v4.828h5.479v2.007H625.1v4.991h6.185v2.062H622.5V1429.3Z" transform="translate(-622.5 -1427.564)" fill="#fff"/>
        <path id="Path_72066" data-name="Path 72066" d="M652.9,1435.4l-4.069,6.239,4.069,6.4h-2.93l-2.713-4.286-2.55,4.286H642l4.069-6.185-4.069-6.4h2.93l2.713,4.286,2.55-4.286,2.713-.054Z" transform="translate(-631.421 -1430.355)" fill="#fff"/>
        <path id="Path_72067" data-name="Path 72067" d="M665.736,1446.23a7.284,7.284,0,0,1,0-9.44,5.926,5.926,0,0,1,4.449-1.79,6.537,6.537,0,0,1,3.8,1.085,5.193,5.193,0,0,1,2.007,3.092h-2.767a2.913,2.913,0,0,0-2.984-2.007,3.148,3.148,0,0,0-2.55,1.139,4.65,4.65,0,0,0-.976,3.147,4.8,4.8,0,0,0,.976,3.2,3.149,3.149,0,0,0,2.55,1.139,2.853,2.853,0,0,0,2.984-2.007h2.821a5.485,5.485,0,0,1-2.062,3.038,6.136,6.136,0,0,1-3.743,1.139A5.736,5.736,0,0,1,665.736,1446.23Z" transform="translate(-641.485 -1430.172)" fill="#fff"/>
        <path id="Path_72068" data-name="Path 72068" d="M691,1444.327V1427.4h2.6v16.927Z" transform="translate(-653.838 -1426.695)" fill="#fff"/>
        <path id="Path_72069" data-name="Path 72069" d="M710.852,1435.4h2.6v12.641h-2.6v-2.007a4.232,4.232,0,0,1-4.015,2.17,4.827,4.827,0,0,1-3.526-1.411,5.428,5.428,0,0,1-1.411-3.96V1435.4h2.6v7.053a3.519,3.519,0,0,0,.868,2.6,3.062,3.062,0,0,0,2.333.922,3.146,3.146,0,0,0,2.333-.922,3.518,3.518,0,0,0,.868-2.6l-.054-7.053Z" transform="translate(-658.824 -1430.355)" fill="#fff"/>
        <path id="Path_72070" data-name="Path 72070" d="M728.5,1438.9a3.339,3.339,0,0,1,1.356-2.713,6.185,6.185,0,0,1,7,0,4.12,4.12,0,0,1,1.411,2.984h-2.658a2.062,2.062,0,0,0-.651-1.465,2.828,2.828,0,0,0-3.255-.054,1.543,1.543,0,0,0-.6,1.248,1.359,1.359,0,0,0,.76,1.193,7.3,7.3,0,0,0,1.845.651c.705.163,1.465.325,2.17.488a3.981,3.981,0,0,1,1.845,1.085,3.058,3.058,0,0,1,.76,2.116,3.155,3.155,0,0,1-1.41,2.658,5.723,5.723,0,0,1-3.581,1.031,5.559,5.559,0,0,1-3.526-1.031,3.726,3.726,0,0,1-1.465-2.984h2.713a1.907,1.907,0,0,0,.705,1.465,3,3,0,0,0,3.364.054,1.452,1.452,0,0,0,.651-1.248,1.3,1.3,0,0,0-.759-1.194,7.306,7.306,0,0,0-1.845-.651c-.705-.163-1.465-.325-2.17-.488a4.406,4.406,0,0,1-1.845-1.031A2.817,2.817,0,0,1,728.5,1438.9Z" transform="translate(-670.993 -1430.217)" fill="#fff"/>
        <path id="Path_72071" data-name="Path 72071" d="M754.664,1427.782a1.667,1.667,0,1,1-.488-1.194A1.683,1.683,0,0,1,754.664,1427.782Zm-2.984,15.95v-12.586h2.6v12.641h-2.6Z" transform="translate(-681.424 -1426.1)" fill="#fff"/>
        <path id="Path_72072" data-name="Path 72072" d="M767.948,1448.021a6.174,6.174,0,0,1-4.557-1.79,6.381,6.381,0,0,1-1.79-4.72,6.212,6.212,0,0,1,1.845-4.72,6.834,6.834,0,0,1,9.223,0,6.887,6.887,0,0,1-.054,9.44A6.606,6.606,0,0,1,767.948,1448.021Zm2.713-3.309a5.085,5.085,0,0,0,.054-6.347,3.647,3.647,0,0,0-2.713-1.139,3.529,3.529,0,0,0-2.658,1.139,4.476,4.476,0,0,0-1.085,3.2,4.548,4.548,0,0,0,1.031,3.2,3.414,3.414,0,0,0,2.6,1.139A3.91,3.91,0,0,0,770.66,1444.711Z" transform="translate(-686.136 -1430.172)" fill="#fff"/>
        <path id="Path_72073" data-name="Path 72073" d="M792.658,1435.263v2.007a4.233,4.233,0,0,1,4.015-2.17,4.826,4.826,0,0,1,3.526,1.411,5.428,5.428,0,0,1,1.411,3.96v7.432h-2.6v-7.053a3.518,3.518,0,0,0-.868-2.6,3.061,3.061,0,0,0-2.333-.922,3.146,3.146,0,0,0-2.333.922,3.518,3.518,0,0,0-.868,2.6v7.053H790v-12.641h2.658Z" transform="translate(-699.128 -1430.217)" fill="#fff"/>
      </g>
      <g id="Group_12748" data-name="Group 12748" transform="translate(39.17 33.311)">
        <path id="Path_72074" data-name="Path 72074" d="M550.857,1366.4a4.319,4.319,0,0,1,1.465,3.364,4.545,4.545,0,0,1-1.411,3.363,5.766,5.766,0,0,1-4.232,1.411H543.8v6.456h-2.6v-15.9h5.479A5.856,5.856,0,0,1,550.857,1366.4Zm-7.053,6.076h2.875a3.046,3.046,0,0,0,2.224-.705,3.032,3.032,0,0,0,0-4.015,3.046,3.046,0,0,0-2.224-.705H543.8Z" transform="translate(-541.2 -1365.042)" fill="#fff"/>
        <path id="Path_72075" data-name="Path 72075" d="M564.8,1367.062V1365h11.122v2.062H571.69v13.888h-2.6v-13.888Z" transform="translate(-551.997 -1365)" fill="#fff"/>
        <path id="Path_72076" data-name="Path 72076" d="M605.267,1370.963v2.007a4.233,4.233,0,0,1,4.015-2.17,4.692,4.692,0,0,1,2.6.705,4.217,4.217,0,0,1,1.736,2.007,4.581,4.581,0,0,1,1.845-1.953,5.552,5.552,0,0,1,2.658-.705,4.865,4.865,0,0,1,3.581,1.411,5.429,5.429,0,0,1,1.411,3.96v7.432h-2.6V1376.6a3.518,3.518,0,0,0-.868-2.6,3.061,3.061,0,0,0-2.333-.922,3.145,3.145,0,0,0-2.333.922,3.758,3.758,0,0,0-.868,2.6v7.053h-2.6V1376.6a3.518,3.518,0,0,0-.868-2.6,3.061,3.061,0,0,0-2.333-.922,3.145,3.145,0,0,0-2.333.922,3.518,3.518,0,0,0-.868,2.6v7.053h-2.6v-12.641l2.767-.054Z" transform="translate(-569.244 -1367.653)" fill="#fff"/>
        <path id="Path_72077" data-name="Path 72077" d="M646.736,1381.876a6.752,6.752,0,0,1-1.736-4.72,6.49,6.49,0,0,1,1.682-4.666,5.615,5.615,0,0,1,4.232-1.79,5.156,5.156,0,0,1,2.6.651,4.247,4.247,0,0,1,1.736,1.79v-2.224h2.658v12.641h-2.6v-2.333a5.162,5.162,0,0,1-1.736,1.845,4.692,4.692,0,0,1-2.6.705A5.716,5.716,0,0,1,646.736,1381.876Zm7.433-1.573a4.766,4.766,0,0,0,0-6.185,3.8,3.8,0,0,0-5.425,0,4.179,4.179,0,0,0-1.139,3.092,4.4,4.4,0,0,0,1.139,3.147,3.7,3.7,0,0,0,2.713,1.194A3.558,3.558,0,0,0,654.169,1380.3Z" transform="translate(-588.687 -1367.608)" fill="#fff"/>
        <path id="Path_72078" data-name="Path 72078" d="M677.758,1370.963v2.007a4.232,4.232,0,0,1,4.015-2.17,4.827,4.827,0,0,1,3.526,1.411,5.428,5.428,0,0,1,1.411,3.96v7.432h-2.6v-7.053a3.519,3.519,0,0,0-.868-2.6,3.062,3.062,0,0,0-2.333-.922,3.147,3.147,0,0,0-2.333.922,3.518,3.518,0,0,0-.868,2.6v7.053h-2.6v-12.641Z" transform="translate(-602.457 -1367.653)" fill="#fff"/>
        <path id="Path_72079" data-name="Path 72079" d="M702.636,1381.876a6.751,6.751,0,0,1-1.736-4.72,6.49,6.49,0,0,1,1.682-4.666,5.615,5.615,0,0,1,4.232-1.79,5.155,5.155,0,0,1,2.6.651,4.247,4.247,0,0,1,1.736,1.79v-2.224h2.658v12.641h-2.55v-2.333a5.162,5.162,0,0,1-1.736,1.845,4.692,4.692,0,0,1-2.6.705A5.925,5.925,0,0,1,702.636,1381.876Zm7.487-1.573a4.766,4.766,0,0,0,0-6.185,3.647,3.647,0,0,0-2.713-1.139,3.733,3.733,0,0,0-2.713,1.139,4.179,4.179,0,0,0-1.139,3.092,4.4,4.4,0,0,0,1.139,3.147,3.7,3.7,0,0,0,2.713,1.194A3.752,3.752,0,0,0,710.123,1380.3Z" transform="translate(-614.26 -1367.608)" fill="#fff"/>
        <path id="Path_72080" data-name="Path 72080" d="M731.336,1381.876a6.751,6.751,0,0,1-1.736-4.72,6.49,6.49,0,0,1,1.682-4.666,5.615,5.615,0,0,1,4.232-1.79,5.156,5.156,0,0,1,2.6.651,4.247,4.247,0,0,1,1.736,1.79v-2.224h2.658v12.8a5.981,5.981,0,0,1-1.628,4.34,5.722,5.722,0,0,1-4.34,1.682,7.266,7.266,0,0,1-4.394-1.193,4.286,4.286,0,0,1-1.9-3.255h2.6a2.737,2.737,0,0,0,1.248,1.573,4.78,4.78,0,0,0,2.441.6,3.312,3.312,0,0,0,2.441-.977,3.742,3.742,0,0,0,.977-2.767v-2.55a5.162,5.162,0,0,1-1.736,1.845,4.691,4.691,0,0,1-2.6.705A5.51,5.51,0,0,1,731.336,1381.876Zm7.432-1.573a4.766,4.766,0,0,0,0-6.185,3.647,3.647,0,0,0-2.713-1.139,3.733,3.733,0,0,0-2.713,1.139,4.179,4.179,0,0,0-1.139,3.092,4.4,4.4,0,0,0,1.139,3.147,3.7,3.7,0,0,0,2.713,1.194A3.752,3.752,0,0,0,738.769,1380.3Z" transform="translate(-627.389 -1367.608)" fill="#fff"/>
        <path id="Path_72081" data-name="Path 72081" d="M764.385,1383.72a5.844,5.844,0,0,1-4.449-1.79,7.284,7.284,0,0,1,0-9.44,6.163,6.163,0,0,1,10.688,4.34,8.9,8.9,0,0,1-.109,1.248h-9.657a3.556,3.556,0,0,0,1.085,2.5,3.5,3.5,0,0,0,2.441.922,3.058,3.058,0,0,0,2.984-1.736h2.821a6.041,6.041,0,0,1-2.062,2.875A6.106,6.106,0,0,1,764.385,1383.72Zm2.5-9.874a3.693,3.693,0,0,0-4.883,0,3.556,3.556,0,0,0-1.085,2.5h7A3.306,3.306,0,0,0,766.88,1373.846Z" transform="translate(-640.473 -1367.608)" fill="#fff"/>
        <path id="Path_72082" data-name="Path 72082" d="M788.367,1370.963v2.007a4.232,4.232,0,0,1,4.015-2.17,4.692,4.692,0,0,1,2.6.705,4.217,4.217,0,0,1,1.736,2.007,4.58,4.58,0,0,1,1.845-1.953,5.552,5.552,0,0,1,2.658-.705,4.864,4.864,0,0,1,3.581,1.411,5.428,5.428,0,0,1,1.411,3.96v7.432h-2.6V1376.6a3.518,3.518,0,0,0-.868-2.6,3.061,3.061,0,0,0-2.333-.922,3.146,3.146,0,0,0-2.333.922,3.518,3.518,0,0,0-.868,2.6v7.053h-2.6V1376.6a3.518,3.518,0,0,0-.868-2.6,3.061,3.061,0,0,0-2.333-.922,3.146,3.146,0,0,0-2.333.922,3.518,3.518,0,0,0-.868,2.6v7.053h-2.6v-12.641l2.767-.054Z" transform="translate(-653.008 -1367.653)" fill="#fff"/>
        <path id="Path_72083" data-name="Path 72083" d="M834.285,1383.72a5.844,5.844,0,0,1-4.449-1.79,7.284,7.284,0,0,1,0-9.44,6.162,6.162,0,0,1,10.688,4.34,8.914,8.914,0,0,1-.108,1.248h-9.657a3.556,3.556,0,0,0,1.085,2.5,3.5,3.5,0,0,0,2.441.922,3.058,3.058,0,0,0,2.984-1.736h2.821a6.041,6.041,0,0,1-2.062,2.875A6.105,6.105,0,0,1,834.285,1383.72Zm2.5-9.874a3.693,3.693,0,0,0-4.883,0,3.556,3.556,0,0,0-1.085,2.5h7A3.515,3.515,0,0,0,836.78,1373.846Z" transform="translate(-672.451 -1367.608)" fill="#fff"/>
        <path id="Path_72084" data-name="Path 72084" d="M858.258,1370.963v2.007a4.232,4.232,0,0,1,4.015-2.17,4.826,4.826,0,0,1,3.526,1.411,5.428,5.428,0,0,1,1.411,3.96v7.432h-2.6v-7.053a3.519,3.519,0,0,0-.868-2.6,3.062,3.062,0,0,0-2.333-.922,3.146,3.146,0,0,0-2.333.922,3.518,3.518,0,0,0-.868,2.6v7.053h-2.6v-12.641Z" transform="translate(-685.032 -1367.653)" fill="#fff"/>
        <path id="Path_72085" data-name="Path 72085" d="M888.361,1370.562h-3.092v7a1.381,1.381,0,0,0,.326,1.031,1.587,1.587,0,0,0,1.139.326h1.628v2.17H886.3c-2.441,0-3.635-1.193-3.635-3.526v-7H881.2v-2.116h1.465V1365.3h2.658v3.147h3.092l-.054,2.116Z" transform="translate(-696.743 -1365.137)" fill="#fff"/>
      </g>
      <g id="Group_12749" data-name="Group 12749" transform="translate(18.988 99.064)">
        <path id="Path_72086" data-name="Path 72086" d="M512.138,1503.975a8.067,8.067,0,0,1-5.8-2.278,7.766,7.766,0,0,1-2.333-5.859,7.886,7.886,0,0,1,8.138-8.138,7.853,7.853,0,0,1,5.751,2.279,7.766,7.766,0,0,1,2.333,5.859,7.883,7.883,0,0,1-8.084,8.138Zm0-2.387a5.146,5.146,0,0,0,3.906-1.573,5.743,5.743,0,0,0,1.519-4.177,5.657,5.657,0,0,0-1.519-4.177,5.316,5.316,0,0,0-3.906-1.573,5.146,5.146,0,0,0-3.906,1.573,6.5,6.5,0,0,0,0,8.355A4.959,4.959,0,0,0,512.138,1501.589Z" transform="translate(-504 -1486.886)" fill="#fff"/>
        <path id="Path_72087" data-name="Path 72087" d="M541.3,1493.963v2.224a3.939,3.939,0,0,1,3.8-2.387v2.713h-.651a3.347,3.347,0,0,0-2.333.76,3.684,3.684,0,0,0-.814,2.713v6.619h-2.6v-12.641Z" transform="translate(-519.875 -1489.677)" fill="#fff"/>
        <path id="Path_72088" data-name="Path 72088" d="M554.936,1501.5a6.751,6.751,0,0,1-1.736-4.72,6.49,6.49,0,0,1,1.682-4.666,5.615,5.615,0,0,1,4.232-1.79,5.156,5.156,0,0,1,2.6.651,4.246,4.246,0,0,1,1.736,1.79V1486.2h2.658v16.927h-2.658v-2.333a5.161,5.161,0,0,1-1.736,1.844,4.691,4.691,0,0,1-2.6.705A5.633,5.633,0,0,1,554.936,1501.5Zm7.487-1.573a4.767,4.767,0,0,0,0-6.185,3.8,3.8,0,0,0-5.425,0,4.179,4.179,0,0,0-1.139,3.092A4.4,4.4,0,0,0,557,1499.98a3.7,3.7,0,0,0,2.713,1.193A3.752,3.752,0,0,0,562.423,1499.926Z" transform="translate(-526.508 -1486.2)" fill="#fff"/>
        <path id="Path_72089" data-name="Path 72089" d="M588.085,1506.821a5.844,5.844,0,0,1-4.449-1.79,7.284,7.284,0,0,1,0-9.44,6.162,6.162,0,0,1,10.688,4.34,8.89,8.89,0,0,1-.109,1.248h-9.657a3.555,3.555,0,0,0,1.085,2.5,3.5,3.5,0,0,0,2.441.922,3.058,3.058,0,0,0,2.984-1.736h2.821a6.039,6.039,0,0,1-2.062,2.875A6.483,6.483,0,0,1,588.085,1506.821Zm2.5-9.928a3.692,3.692,0,0,0-4.883,0,3.556,3.556,0,0,0-1.085,2.5h7A3.616,3.616,0,0,0,590.58,1496.892Z" transform="translate(-539.638 -1489.677)" fill="#fff"/>
        <path id="Path_72090" data-name="Path 72090" d="M612.1,1493.963v2.224a3.939,3.939,0,0,1,3.8-2.387v2.713h-.651a3.347,3.347,0,0,0-2.333.76,3.684,3.684,0,0,0-.814,2.713v6.619h-2.6v-12.641Z" transform="translate(-552.264 -1489.677)" fill="#fff"/>
        <path id="Path_72091" data-name="Path 72091" d="M640.867,1493.963v2.007a4.233,4.233,0,0,1,4.015-2.17,4.69,4.69,0,0,1,2.6.705,4.215,4.215,0,0,1,1.736,2.007,4.58,4.58,0,0,1,1.845-1.953,5.3,5.3,0,0,1,6.239.705,5.428,5.428,0,0,1,1.411,3.96v7.432h-2.6V1499.6a3.518,3.518,0,0,0-.868-2.6,3.062,3.062,0,0,0-2.333-.922,3.146,3.146,0,0,0-2.333.922,3.758,3.758,0,0,0-.868,2.6v7.053h-2.6V1499.6a3.518,3.518,0,0,0-.868-2.6,3.062,3.062,0,0,0-2.333-.922,3.146,3.146,0,0,0-2.333.922,3.518,3.518,0,0,0-.868,2.6v7.053h-2.6v-12.641l2.767-.054Z" transform="translate(-565.348 -1489.677)" fill="#fff"/>
        <path id="Path_72092" data-name="Path 72092" d="M682.336,1504.976a6.752,6.752,0,0,1-1.736-4.72,6.49,6.49,0,0,1,1.682-4.666,5.615,5.615,0,0,1,4.232-1.79,5.157,5.157,0,0,1,2.6.651,4.247,4.247,0,0,1,1.736,1.79v-2.224h2.658v12.641h-2.658v-2.333a5.163,5.163,0,0,1-1.736,1.844,4.692,4.692,0,0,1-2.6.705A5.9,5.9,0,0,1,682.336,1504.976Zm7.432-1.573a4.767,4.767,0,0,0,0-6.185,3.647,3.647,0,0,0-2.713-1.139,3.734,3.734,0,0,0-2.713,1.139,4.179,4.179,0,0,0-1.139,3.092,4.4,4.4,0,0,0,1.139,3.147,3.7,3.7,0,0,0,2.713,1.193A4.1,4.1,0,0,0,689.769,1503.4Z" transform="translate(-584.791 -1489.677)" fill="#fff"/>
        <path id="Path_72093" data-name="Path 72093" d="M713.358,1493.963v2.007a4.233,4.233,0,0,1,4.015-2.17,4.826,4.826,0,0,1,3.526,1.411,5.428,5.428,0,0,1,1.411,3.96v7.432h-2.6v-7.053a3.518,3.518,0,0,0-.868-2.6,3.061,3.061,0,0,0-2.333-.922,3.146,3.146,0,0,0-2.333.922,3.517,3.517,0,0,0-.868,2.6v7.053h-2.6v-12.641Z" transform="translate(-598.561 -1489.677)" fill="#fff"/>
        <path id="Path_72094" data-name="Path 72094" d="M738.336,1504.976a6.751,6.751,0,0,1-1.736-4.72,6.49,6.49,0,0,1,1.682-4.666,5.615,5.615,0,0,1,4.232-1.79,5.157,5.157,0,0,1,2.6.651,4.247,4.247,0,0,1,1.736,1.79v-2.224h2.658v12.641h-2.658v-2.333a5.164,5.164,0,0,1-1.736,1.844,4.692,4.692,0,0,1-2.6.705A5.9,5.9,0,0,1,738.336,1504.976Zm7.432-1.573a4.766,4.766,0,0,0,0-6.185,3.8,3.8,0,0,0-5.425,0,4.178,4.178,0,0,0-1.139,3.092,4.4,4.4,0,0,0,1.139,3.147,3.7,3.7,0,0,0,2.713,1.193A3.752,3.752,0,0,0,745.769,1503.4Z" transform="translate(-610.41 -1489.677)" fill="#fff"/>
        <path id="Path_72095" data-name="Path 72095" d="M766.936,1504.976a6.751,6.751,0,0,1-1.736-4.72,6.49,6.49,0,0,1,1.682-4.666,5.615,5.615,0,0,1,4.232-1.79,5.156,5.156,0,0,1,2.6.651,4.247,4.247,0,0,1,1.736,1.79v-2.224h2.658v12.8a5.981,5.981,0,0,1-1.628,4.34,5.722,5.722,0,0,1-4.34,1.682,7.266,7.266,0,0,1-4.394-1.193,4.285,4.285,0,0,1-1.9-3.255h2.6a2.737,2.737,0,0,0,1.248,1.573,4.783,4.783,0,0,0,2.441.6,3.312,3.312,0,0,0,2.441-.977,3.742,3.742,0,0,0,.977-2.767v-2.55a5.161,5.161,0,0,1-1.736,1.845,4.692,4.692,0,0,1-2.6.705A5.7,5.7,0,0,1,766.936,1504.976Zm7.432-1.573a4.767,4.767,0,0,0,0-6.185,3.647,3.647,0,0,0-2.713-1.139,3.734,3.734,0,0,0-2.713,1.139,4.178,4.178,0,0,0-1.139,3.092,4.4,4.4,0,0,0,1.139,3.147,3.7,3.7,0,0,0,2.713,1.193A4.1,4.1,0,0,0,774.369,1503.4Z" transform="translate(-623.494 -1489.677)" fill="#fff"/>
        <path id="Path_72096" data-name="Path 72096" d="M799.985,1506.821a5.844,5.844,0,0,1-4.449-1.79,7.284,7.284,0,0,1,0-9.44,6.163,6.163,0,0,1,10.688,4.34,8.889,8.889,0,0,1-.109,1.248h-9.657a3.555,3.555,0,0,0,1.085,2.5,3.5,3.5,0,0,0,2.441.922,3.058,3.058,0,0,0,2.984-1.736h2.821a6.039,6.039,0,0,1-2.062,2.875A6.482,6.482,0,0,1,799.985,1506.821Zm2.5-9.928a3.692,3.692,0,0,0-4.883,0,3.556,3.556,0,0,0-1.085,2.5h7A3.392,3.392,0,0,0,802.48,1496.892Z" transform="translate(-636.578 -1489.677)" fill="#fff"/>
        <path id="Path_72097" data-name="Path 72097" d="M824.058,1493.963v2.007a4.233,4.233,0,0,1,4.015-2.17,4.691,4.691,0,0,1,2.6.705,4.215,4.215,0,0,1,1.736,2.007,4.58,4.58,0,0,1,1.845-1.953,5.3,5.3,0,0,1,6.239.705,5.429,5.429,0,0,1,1.411,3.96v7.432h-2.6V1499.6a3.518,3.518,0,0,0-.868-2.6,3.062,3.062,0,0,0-2.333-.922,3.146,3.146,0,0,0-2.333.922,3.759,3.759,0,0,0-.868,2.6v7.053h-2.5V1499.6a3.518,3.518,0,0,0-.868-2.6,3.062,3.062,0,0,0-2.333-.922,3.146,3.146,0,0,0-2.333.922,3.518,3.518,0,0,0-.868,2.6v7.053h-2.6v-12.641l2.658-.054Z" transform="translate(-649.205 -1489.677)" fill="#fff"/>
        <path id="Path_72098" data-name="Path 72098" d="M869.885,1506.821a5.844,5.844,0,0,1-4.449-1.79,7.284,7.284,0,0,1,0-9.44,6.162,6.162,0,0,1,10.688,4.34,8.909,8.909,0,0,1-.108,1.248h-9.657a3.555,3.555,0,0,0,1.085,2.5,3.5,3.5,0,0,0,2.441.922,3.058,3.058,0,0,0,2.984-1.736h2.821a6.039,6.039,0,0,1-2.062,2.875A6.483,6.483,0,0,1,869.885,1506.821Zm2.5-9.928a3.692,3.692,0,0,0-4.883,0,3.556,3.556,0,0,0-1.085,2.5h7A3.393,3.393,0,0,0,872.38,1496.892Z" transform="translate(-668.556 -1489.677)" fill="#fff"/>
        <path id="Path_72099" data-name="Path 72099" d="M893.858,1493.963v2.007a4.233,4.233,0,0,1,4.015-2.17,4.826,4.826,0,0,1,3.526,1.411,5.428,5.428,0,0,1,1.411,3.96v7.432h-2.6v-7.053a3.518,3.518,0,0,0-.868-2.6,3.062,3.062,0,0,0-2.333-.922,3.146,3.146,0,0,0-2.333.922,3.517,3.517,0,0,0-.868,2.6v7.053h-2.6v-12.641Z" transform="translate(-681.137 -1489.677)" fill="#fff"/>
        <path id="Path_72100" data-name="Path 72100" d="M923.961,1493.662h-3.092v7a1.382,1.382,0,0,0,.326,1.031,1.589,1.589,0,0,0,1.139.325h1.628v2.17H921.9c-2.441,0-3.635-1.193-3.635-3.526v-7H916.8v-2.116h1.465V1488.4h2.658v3.146h3.092l-.054,2.116Z" transform="translate(-692.848 -1487.207)" fill="#fff"/>
      </g>
      <g id="Group_12750" data-name="Group 12750" transform="translate(65.753 7.812)">
        <circle id="Ellipse_578" data-name="Ellipse 578" cx="3.147" cy="3.147" r="3.147" fill="#fff"/>
      </g>
      <g id="Group_12751" data-name="Group 12751" transform="translate(0 104.598)">
        <circle id="Ellipse_579" data-name="Ellipse 579" cx="3.147" cy="3.147" r="3.147" fill="#fff"/>
      </g>
      <g id="Group_12752" data-name="Group 12752" transform="translate(65.753 72.589)">
        <circle id="Ellipse_580" data-name="Ellipse 580" cx="3.147" cy="3.147" r="3.147" fill="#fff"/>
      </g>
      <g id="Group_12753" data-name="Group 12753" transform="translate(25.064 38.193)">
        <circle id="Ellipse_581" data-name="Ellipse 581" cx="3.147" cy="3.147" r="3.147" fill="#fff"/>
      </g>
    </g>
    <circle id="Ellipse_582" data-name="Ellipse 582" cx="3.147" cy="3.147" r="3.147" transform="translate(220.553 262.315)" fill="#fff"/>
    <circle id="Ellipse_583" data-name="Ellipse 583" cx="3.147" cy="3.147" r="3.147" transform="translate(266.179 296.114)" fill="#fff"/>
    <circle id="Ellipse_584" data-name="Ellipse 584" cx="3.147" cy="3.147" r="3.147" transform="translate(266.179 331.703)" fill="#fff"/>
    <g id="Group_12755" data-name="Group 12755" transform="translate(237.643 254.828)">
      <path id="Path_72101" data-name="Path 72101" d="M423.7,382.9V367h2.6v15.9Z" transform="translate(-423.7 -365.264)" fill="#fff"/>
      <path id="Path_72102" data-name="Path 72102" d="M437.358,372.917v2.007a4.273,4.273,0,0,1,4.015-2.224,4.826,4.826,0,0,1,3.526,1.411,5.428,5.428,0,0,1,1.411,3.96V385.5h-2.6v-7.053a3.518,3.518,0,0,0-.868-2.6,3.061,3.061,0,0,0-2.333-.922,3.146,3.146,0,0,0-2.333.922,3.518,3.518,0,0,0-.868,2.6V385.5h-2.6V372.863l2.658.054Z" transform="translate(-428.732 -367.872)" fill="#fff"/>
      <path id="Path_72103" data-name="Path 72103" d="M462.236,380.4a6.752,6.752,0,0,1-1.736-4.72,6.49,6.49,0,0,1,1.682-4.666,5.615,5.615,0,0,1,4.232-1.79,5.154,5.154,0,0,1,2.6.651,4.246,4.246,0,0,1,1.736,1.79V365.1h2.658v16.927h-2.658v-2.333a4.872,4.872,0,0,1-1.79,1.845,4.692,4.692,0,0,1-2.6.705A5.579,5.579,0,0,1,462.236,380.4Zm7.487-1.573a4.766,4.766,0,0,0,0-6.185,3.647,3.647,0,0,0-2.713-1.139,3.734,3.734,0,0,0-2.713,1.139,4.179,4.179,0,0,0-1.139,3.092,4.4,4.4,0,0,0,1.139,3.147,3.7,3.7,0,0,0,2.713,1.194A4.221,4.221,0,0,0,469.723,378.826Z" transform="translate(-440.535 -364.395)" fill="#fff"/>
      <path id="Path_72104" data-name="Path 72104" d="M493.464,365.482a1.667,1.667,0,1,1-.488-1.194A1.683,1.683,0,0,1,493.464,365.482Zm-2.984,15.95V368.791h2.6v12.641Z" transform="translate(-454.077 -363.8)" fill="#fff"/>
      <path id="Path_72105" data-name="Path 72105" d="M499.2,373.1h2.767l3.581,10.254,3.581-10.254h2.821l-4.828,12.641h-3.147Z" transform="translate(-458.24 -368.055)" fill="#fff"/>
      <path id="Path_72106" data-name="Path 72106" d="M528.864,365.482a1.667,1.667,0,1,1-.488-1.194A1.683,1.683,0,0,1,528.864,365.482Zm-2.984,15.95V368.791h2.6v12.641Z" transform="translate(-470.272 -363.8)" fill="#fff"/>
      <path id="Path_72107" data-name="Path 72107" d="M537.436,380.4a6.752,6.752,0,0,1-1.736-4.72,6.49,6.49,0,0,1,1.682-4.666,5.615,5.615,0,0,1,4.232-1.79,5.154,5.154,0,0,1,2.6.651,4.245,4.245,0,0,1,1.736,1.79V365.1h2.658v16.927h-2.658v-2.333a4.871,4.871,0,0,1-1.79,1.845,4.692,4.692,0,0,1-2.6.705A5.494,5.494,0,0,1,537.436,380.4Zm7.487-1.573a4.767,4.767,0,0,0,0-6.185,3.8,3.8,0,0,0-5.425,0,4.179,4.179,0,0,0-1.139,3.092,4.4,4.4,0,0,0,1.139,3.147,3.7,3.7,0,0,0,2.713,1.194A3.753,3.753,0,0,0,544.923,378.826Z" transform="translate(-474.938 -364.395)" fill="#fff"/>
      <path id="Path_72108" data-name="Path 72108" d="M574.652,373.1h2.6v12.641h-2.6v-2.007a4.232,4.232,0,0,1-4.015,2.17,4.826,4.826,0,0,1-3.526-1.411,5.428,5.428,0,0,1-1.411-3.96V373.1h2.6v7.053a3.518,3.518,0,0,0,.868,2.6,3.061,3.061,0,0,0,2.333.922,3.146,3.146,0,0,0,2.333-.922,3.518,3.518,0,0,0,.868-2.6l-.054-7.053Z" transform="translate(-488.662 -368.055)" fill="#fff"/>
      <path id="Path_72109" data-name="Path 72109" d="M593.436,383.876a6.751,6.751,0,0,1-1.736-4.72,6.49,6.49,0,0,1,1.682-4.666,5.615,5.615,0,0,1,4.232-1.79,5.154,5.154,0,0,1,2.6.651,4.245,4.245,0,0,1,1.736,1.79v-2.224h2.658v12.641h-2.658v-2.333a4.871,4.871,0,0,1-1.79,1.845,4.692,4.692,0,0,1-2.6.705A5.663,5.663,0,0,1,593.436,383.876Zm7.487-1.573a4.767,4.767,0,0,0,0-6.185,3.647,3.647,0,0,0-2.713-1.139,3.734,3.734,0,0,0-2.713,1.139,4.179,4.179,0,0,0-1.139,3.092,4.4,4.4,0,0,0,1.139,3.147,3.7,3.7,0,0,0,2.713,1.194A4.222,4.222,0,0,0,600.923,382.3Z" transform="translate(-500.557 -367.872)" fill="#fff"/>
      <path id="Path_72110" data-name="Path 72110" d="M622,382.027V365.1h2.6v16.927Z" transform="translate(-514.419 -364.395)" fill="#fff"/>
      <path id="Path_72111" data-name="Path 72111" d="M650.056,368.891v2.116h-2.333v10.471h-2.658V371.007H643.6v-2.116h1.465v-.868a3.908,3.908,0,0,1,1.139-3.147,5.6,5.6,0,0,1,3.635-.977v2.17a2.611,2.611,0,0,0-1.682.434,1.962,1.962,0,0,0-.488,1.519v.868Z" transform="translate(-524.3 -363.846)" fill="#fff"/>
      <path id="Path_72112" data-name="Path 72112" d="M664.547,385.72a6.173,6.173,0,0,1-4.557-1.79,6.381,6.381,0,0,1-1.79-4.72,6.212,6.212,0,0,1,1.844-4.72,6.834,6.834,0,0,1,9.223,0,6.888,6.888,0,0,1-.054,9.44A6.606,6.606,0,0,1,664.547,385.72Zm2.713-3.309a5.086,5.086,0,0,0,.054-6.347,3.647,3.647,0,0,0-2.713-1.139,3.529,3.529,0,0,0-2.658,1.139,4.477,4.477,0,0,0-1.085,3.2,4.547,4.547,0,0,0,1.031,3.2,3.414,3.414,0,0,0,2.6,1.139A3.911,3.911,0,0,0,667.26,382.411Z" transform="translate(-530.979 -367.872)" fill="#fff"/>
      <path id="Path_72113" data-name="Path 72113" d="M689.3,372.963v2.224a3.939,3.939,0,0,1,3.8-2.387v2.713h-.651a3.348,3.348,0,0,0-2.333.76,3.685,3.685,0,0,0-.814,2.713V385.6h-2.6V372.963Z" transform="translate(-544.017 -367.917)" fill="#fff"/>
      <path id="Path_72114" data-name="Path 72114" d="M720.185,385.72a5.845,5.845,0,0,1-4.449-1.79,7.284,7.284,0,0,1,0-9.44,6.163,6.163,0,0,1,10.688,4.34,8.912,8.912,0,0,1-.109,1.248h-9.657a3.556,3.556,0,0,0,1.085,2.5,3.5,3.5,0,0,0,2.441.922,3.058,3.058,0,0,0,2.984-1.736h2.821a6.04,6.04,0,0,1-2.062,2.875A6.482,6.482,0,0,1,720.185,385.72Zm2.5-9.874a3.692,3.692,0,0,0-4.883,0,3.555,3.555,0,0,0-1.085,2.5h7A3.42,3.42,0,0,0,722.68,375.847Z" transform="translate(-556.507 -367.872)" fill="#fff"/>
      <path id="Path_72115" data-name="Path 72115" d="M741.736,383.876a6.752,6.752,0,0,1-1.736-4.72,6.49,6.49,0,0,1,1.682-4.666,5.615,5.615,0,0,1,4.232-1.79,5.154,5.154,0,0,1,2.6.651,4.246,4.246,0,0,1,1.736,1.79v-2.224h2.658v12.641h-2.6v-2.333a4.872,4.872,0,0,1-1.79,1.845,4.692,4.692,0,0,1-2.6.705A5.688,5.688,0,0,1,741.736,383.876Zm7.432-1.573a4.767,4.767,0,0,0,0-6.185,3.8,3.8,0,0,0-5.425,0,4.179,4.179,0,0,0-1.139,3.092,4.4,4.4,0,0,0,1.139,3.147,3.7,3.7,0,0,0,2.713,1.194A3.752,3.752,0,0,0,749.169,382.3Z" transform="translate(-568.401 -367.872)" fill="#fff"/>
      <path id="Path_72116" data-name="Path 72116" d="M770.336,383.93a7.284,7.284,0,0,1,0-9.44,5.927,5.927,0,0,1,4.449-1.79,6.537,6.537,0,0,1,3.8,1.085,5.193,5.193,0,0,1,2.007,3.092h-2.821a2.913,2.913,0,0,0-2.984-2.007,3.148,3.148,0,0,0-2.55,1.139,4.649,4.649,0,0,0-.977,3.147,4.8,4.8,0,0,0,.977,3.2,3.148,3.148,0,0,0,2.55,1.139,2.853,2.853,0,0,0,2.984-2.007h2.821a5.485,5.485,0,0,1-2.061,3.038,6.136,6.136,0,0,1-3.743,1.139A5.619,5.619,0,0,1,770.336,383.93Z" transform="translate(-581.485 -367.872)" fill="#fff"/>
      <path id="Path_72117" data-name="Path 72117" d="M798.058,365.054v6.293a4.274,4.274,0,0,1,4.015-2.224,4.826,4.826,0,0,1,3.526,1.411,5.428,5.428,0,0,1,1.411,3.96v7.433h-2.6v-7.053a3.518,3.518,0,0,0-.868-2.6,3.061,3.061,0,0,0-2.333-.922,3.146,3.146,0,0,0-2.333.922,3.518,3.518,0,0,0-.868,2.6v7.053h-2.6V365h2.658v.054Z" transform="translate(-593.746 -364.349)" fill="#fff"/>
      <path id="Path_72118" data-name="Path 72118" d="M842.6,372.7a5.615,5.615,0,0,1,4.232,1.79,6.49,6.49,0,0,1,1.682,4.666,6.714,6.714,0,0,1-1.682,4.72,5.476,5.476,0,0,1-4.232,1.845,4.692,4.692,0,0,1-2.6-.705,5.291,5.291,0,0,1-1.79-1.845v8.355h-2.6V372.917h2.6v2.224a5.142,5.142,0,0,1,1.79-1.79A5.015,5.015,0,0,1,842.6,372.7Zm2.116,9.6a4.309,4.309,0,0,0,1.139-3.147,4.178,4.178,0,0,0-1.139-3.092,3.8,3.8,0,0,0-5.425,0,4.766,4.766,0,0,0,0,6.185A3.647,3.647,0,0,0,842,383.388,3.483,3.483,0,0,0,844.714,382.3Z" transform="translate(-612.137 -367.872)" fill="#fff"/>
      <path id="Path_72119" data-name="Path 72119" d="M866.8,372.963v2.224a3.939,3.939,0,0,1,3.8-2.387v2.713h-.651a3.347,3.347,0,0,0-2.333.76,3.685,3.685,0,0,0-.814,2.713V385.6h-2.6V372.963Z" transform="translate(-625.22 -367.917)" fill="#fff"/>
      <path id="Path_72120" data-name="Path 72120" d="M885.147,385.72a6.173,6.173,0,0,1-4.557-1.79,6.381,6.381,0,0,1-1.79-4.72,6.212,6.212,0,0,1,1.845-4.72,6.834,6.834,0,0,1,9.223,0,6.887,6.887,0,0,1-.054,9.44A6.606,6.606,0,0,1,885.147,385.72Zm2.713-3.309a5.085,5.085,0,0,0,.054-6.347,3.647,3.647,0,0,0-2.713-1.139,3.529,3.529,0,0,0-2.658,1.139,4.476,4.476,0,0,0-1.085,3.2,4.547,4.547,0,0,0,1.031,3.2,3.414,3.414,0,0,0,2.6,1.139A3.911,3.911,0,0,0,887.86,382.411Z" transform="translate(-631.9 -367.872)" fill="#fff"/>
      <path id="Path_72121" data-name="Path 72121" d="M907.436,383.876a6.751,6.751,0,0,1-1.736-4.72,6.49,6.49,0,0,1,1.682-4.666,5.615,5.615,0,0,1,4.232-1.79,5.154,5.154,0,0,1,2.6.651,4.246,4.246,0,0,1,1.736,1.79v-2.224h2.658v12.8a5.98,5.98,0,0,1-1.628,4.34,5.722,5.722,0,0,1-4.34,1.682,7.266,7.266,0,0,1-4.394-1.194,4.286,4.286,0,0,1-1.9-3.255h2.6a2.737,2.737,0,0,0,1.248,1.573,4.781,4.781,0,0,0,2.441.6,3.312,3.312,0,0,0,2.441-.977,3.742,3.742,0,0,0,.977-2.767v-2.55a4.871,4.871,0,0,1-1.79,1.845,4.692,4.692,0,0,1-2.6.705A5.476,5.476,0,0,1,907.436,383.876Zm7.432-1.573a4.767,4.767,0,0,0,0-6.185,3.8,3.8,0,0,0-5.425,0,4.178,4.178,0,0,0-1.139,3.092,4.4,4.4,0,0,0,1.139,3.147,3.7,3.7,0,0,0,2.713,1.194A3.66,3.66,0,0,0,914.869,382.3Z" transform="translate(-644.206 -367.872)" fill="#fff"/>
      <path id="Path_72122" data-name="Path 72122" d="M938.5,372.963v2.224a3.939,3.939,0,0,1,3.8-2.387v2.713h-.651a3.347,3.347,0,0,0-2.333.76,3.685,3.685,0,0,0-.814,2.713V385.6h-2.6V372.963Z" transform="translate(-658.022 -367.917)" fill="#fff"/>
      <path id="Path_72123" data-name="Path 72123" d="M952.236,383.876a6.751,6.751,0,0,1-1.736-4.72,6.49,6.49,0,0,1,1.682-4.666,5.615,5.615,0,0,1,4.232-1.79,5.155,5.155,0,0,1,2.6.651,4.246,4.246,0,0,1,1.736,1.79v-2.224h2.658v12.641h-2.658v-2.333a4.872,4.872,0,0,1-1.79,1.845,4.692,4.692,0,0,1-2.6.705A5.663,5.663,0,0,1,952.236,383.876Zm7.487-1.573a4.766,4.766,0,0,0,0-6.185,3.8,3.8,0,0,0-5.425,0,4.178,4.178,0,0,0-1.139,3.092,4.4,4.4,0,0,0,1.139,3.147,3.7,3.7,0,0,0,2.713,1.194A3.752,3.752,0,0,0,959.723,382.3Z" transform="translate(-664.701 -367.872)" fill="#fff"/>
      <path id="Path_72124" data-name="Path 72124" d="M983.167,372.917v2.007a4.273,4.273,0,0,1,4.015-2.224,4.692,4.692,0,0,1,2.6.705,4.215,4.215,0,0,1,1.736,2.007,4.581,4.581,0,0,1,1.845-1.953,5.3,5.3,0,0,1,6.239.705,5.428,5.428,0,0,1,1.411,3.96v7.433h-2.6V378.5a3.518,3.518,0,0,0-.868-2.6,3.061,3.061,0,0,0-2.333-.922,3.146,3.146,0,0,0-2.333.922,3.759,3.759,0,0,0-.868,2.6v7.053h-2.6V378.5a3.518,3.518,0,0,0-.868-2.6,3.061,3.061,0,0,0-2.333-.922,3.146,3.146,0,0,0-2.333.922,3.518,3.518,0,0,0-.868,2.6v7.053h-2.6V372.917Z" transform="translate(-678.38 -367.872)" fill="#fff"/>
    </g>
    <g id="Group_12756" data-name="Group 12756" transform="translate(284.896 290.2)">
      <path id="Path_72125" data-name="Path 72125" d="M510.8,432.2h6.076a5.5,5.5,0,0,1,3.8,1.194,3.812,3.812,0,0,1,1.356,3.038c0,1.79-1.031,2.984-3.092,3.526a4.132,4.132,0,0,1,3.472,4.015A3.678,3.678,0,0,1,521,446.957a5.886,5.886,0,0,1-3.8,1.194h-6.347L510.8,432.2Zm2.6,2.007v4.72h3.2a3.159,3.159,0,0,0,2.007-.6,2.489,2.489,0,0,0,0-3.472,2.883,2.883,0,0,0-2.007-.651h-3.2Zm0,11.827h3.526a3.031,3.031,0,0,0,2.062-.651,2.329,2.329,0,0,0,.76-1.845,2.463,2.463,0,0,0-.814-1.9,3.028,3.028,0,0,0-2.116-.705H513.4Z" transform="translate(-510.8 -430.464)" fill="#fff"/>
      <path id="Path_72126" data-name="Path 72126" d="M541.885,450.92a5.845,5.845,0,0,1-4.449-1.79,7.284,7.284,0,0,1,0-9.44,6.163,6.163,0,0,1,10.688,4.34,8.913,8.913,0,0,1-.109,1.248h-9.657a3.556,3.556,0,0,0,1.085,2.5,3.5,3.5,0,0,0,2.441.922,3.058,3.058,0,0,0,2.984-1.736h2.821a6.04,6.04,0,0,1-2.062,2.875A6.245,6.245,0,0,1,541.885,450.92Zm2.5-9.928a3.692,3.692,0,0,0-4.883,0,3.556,3.556,0,0,0-1.085,2.5h7A3.2,3.2,0,0,0,544.38,440.992Z" transform="translate(-522.191 -433.072)" fill="#fff"/>
      <path id="Path_72127" data-name="Path 72127" d="M562.3,441.7a3.339,3.339,0,0,1,1.356-2.713,6.185,6.185,0,0,1,7,0,4.12,4.12,0,0,1,1.411,2.984h-2.658a2.063,2.063,0,0,0-.651-1.465,2.829,2.829,0,0,0-3.255-.054,1.543,1.543,0,0,0-.6,1.248,1.36,1.36,0,0,0,.759,1.194,7.31,7.31,0,0,0,1.845.651c.705.163,1.465.326,2.17.488a3.981,3.981,0,0,1,1.845,1.085,3.058,3.058,0,0,1,.76,2.116,3.156,3.156,0,0,1-1.411,2.658,5.723,5.723,0,0,1-3.581,1.031,5.56,5.56,0,0,1-3.526-1.031,3.726,3.726,0,0,1-1.465-2.984h2.713a1.907,1.907,0,0,0,.705,1.465,3,3,0,0,0,3.364.054,1.452,1.452,0,0,0,.651-1.248,1.3,1.3,0,0,0-.76-1.194,7.311,7.311,0,0,0-1.845-.651c-.705-.163-1.465-.326-2.17-.488a4.407,4.407,0,0,1-1.845-1.031A2.95,2.95,0,0,1,562.3,441.7Z" transform="translate(-534.36 -433.072)" fill="#fff"/>
      <path id="Path_72128" data-name="Path 72128" d="M592.9,437.9a5.615,5.615,0,0,1,4.232,1.79,6.49,6.49,0,0,1,1.682,4.666,6.713,6.713,0,0,1-1.682,4.72,5.476,5.476,0,0,1-4.232,1.845,4.692,4.692,0,0,1-2.6-.705,5.293,5.293,0,0,1-1.79-1.845v8.355h-2.6V438.117h2.6v2.224A4.886,4.886,0,0,1,592.9,437.9Zm2.17,9.548a4.309,4.309,0,0,0,1.139-3.147,4.179,4.179,0,0,0-1.139-3.092,3.8,3.8,0,0,0-5.425,0,4.767,4.767,0,0,0,0,6.185,3.647,3.647,0,0,0,2.713,1.139A3.411,3.411,0,0,0,595.069,447.448Z" transform="translate(-545.157 -433.072)" fill="#fff"/>
      <path id="Path_72129" data-name="Path 72129" d="M619.247,450.92a6.173,6.173,0,0,1-4.557-1.79,6.381,6.381,0,0,1-1.79-4.72,6.212,6.212,0,0,1,1.845-4.72,6.834,6.834,0,0,1,9.223,0,6.887,6.887,0,0,1-.054,9.44A6.515,6.515,0,0,1,619.247,450.92Zm2.713-3.364a5.085,5.085,0,0,0,.054-6.347,3.647,3.647,0,0,0-2.713-1.139,3.529,3.529,0,0,0-2.658,1.139,4.476,4.476,0,0,0-1.085,3.2,4.547,4.547,0,0,0,1.031,3.2,3.414,3.414,0,0,0,2.6,1.139A3.911,3.911,0,0,0,621.96,447.557Z" transform="translate(-557.509 -433.072)" fill="#fff"/>
      <path id="Path_72130" data-name="Path 72130" d="M644.1,447.227h-2.6V430.3h2.6v9.82l4.557-5.534H652.3l-5.8,6.293,5.8,6.293H648.77l-4.666-5.425v5.479Z" transform="translate(-570.593 -429.595)" fill="#fff"/>
      <path id="Path_72131" data-name="Path 72131" d="M669.385,450.92a5.844,5.844,0,0,1-4.449-1.79,7.284,7.284,0,0,1,0-9.44,6.163,6.163,0,0,1,10.688,4.34,8.9,8.9,0,0,1-.109,1.248h-9.657a3.556,3.556,0,0,0,1.085,2.5,3.5,3.5,0,0,0,2.441.922,3.058,3.058,0,0,0,2.984-1.736h2.821a6.041,6.041,0,0,1-2.062,2.875A6.482,6.482,0,0,1,669.385,450.92Zm2.5-9.928a3.692,3.692,0,0,0-4.883,0,3.555,3.555,0,0,0-1.085,2.5h7A3.2,3.2,0,0,0,671.88,440.992Z" transform="translate(-580.52 -433.072)" fill="#fff"/>
      <path id="Path_72132" data-name="Path 72132" d="M703.636,449.076a6.751,6.751,0,0,1-1.736-4.72,6.49,6.49,0,0,1,1.682-4.666,5.615,5.615,0,0,1,4.232-1.79,5.154,5.154,0,0,1,2.6.651,4.246,4.246,0,0,1,1.736,1.79v-2.224h2.658v12.641h-2.658v-2.333a4.871,4.871,0,0,1-1.79,1.845,4.691,4.691,0,0,1-2.6.705A5.874,5.874,0,0,1,703.636,449.076Zm7.487-1.573a4.766,4.766,0,0,0,0-6.185,3.8,3.8,0,0,0-5.425,0,4.179,4.179,0,0,0-1.139,3.092,4.4,4.4,0,0,0,1.139,3.147,3.7,3.7,0,0,0,2.713,1.194A3.752,3.752,0,0,0,711.123,447.5Z" transform="translate(-598.225 -433.072)" fill="#fff"/>
      <path id="Path_72133" data-name="Path 72133" d="M732.1,447.227V430.3h2.6v16.927Z" transform="translate(-612.041 -429.595)" fill="#fff"/>
      <path id="Path_72134" data-name="Path 72134" d="M743.336,449.076a6.752,6.752,0,0,1-1.736-4.72,6.49,6.49,0,0,1,1.682-4.666,5.615,5.615,0,0,1,4.232-1.79,5.155,5.155,0,0,1,2.6.651,4.245,4.245,0,0,1,1.736,1.79v-2.224h2.658v12.8a5.981,5.981,0,0,1-1.628,4.34,5.722,5.722,0,0,1-4.34,1.682,7.266,7.266,0,0,1-4.394-1.194,4.286,4.286,0,0,1-1.9-3.255h2.6a2.737,2.737,0,0,0,1.248,1.573,4.782,4.782,0,0,0,2.441.6,3.312,3.312,0,0,0,2.441-.977,3.742,3.742,0,0,0,.977-2.767v-2.55a4.872,4.872,0,0,1-1.79,1.845,4.692,4.692,0,0,1-2.6.705A5.664,5.664,0,0,1,743.336,449.076Zm7.487-1.573a4.766,4.766,0,0,0,0-6.185,3.647,3.647,0,0,0-2.713-1.139,3.733,3.733,0,0,0-2.713,1.139,4.178,4.178,0,0,0-1.139,3.092,4.4,4.4,0,0,0,1.139,3.147,3.7,3.7,0,0,0,2.713,1.194A4.221,4.221,0,0,0,750.823,447.5Z" transform="translate(-616.387 -433.072)" fill="#fff"/>
      <path id="Path_72135" data-name="Path 72135" d="M776.647,450.92a6.173,6.173,0,0,1-4.557-1.79,6.381,6.381,0,0,1-1.79-4.72,6.212,6.212,0,0,1,1.845-4.72,6.834,6.834,0,0,1,9.223,0,6.887,6.887,0,0,1-.054,9.44A6.606,6.606,0,0,1,776.647,450.92Zm2.713-3.364a5.085,5.085,0,0,0,.054-6.347,3.647,3.647,0,0,0-2.713-1.139,3.529,3.529,0,0,0-2.658,1.139,4.476,4.476,0,0,0-1.085,3.2,4.547,4.547,0,0,0,1.031,3.2,3.414,3.414,0,0,0,2.6,1.139A4.043,4.043,0,0,0,779.36,447.557Z" transform="translate(-629.516 -433.072)" fill="#fff"/>
      <path id="Path_72136" data-name="Path 72136" d="M801.4,438.063v2.224a3.939,3.939,0,0,1,3.8-2.387v2.713h-.651a3.348,3.348,0,0,0-2.333.759,3.685,3.685,0,0,0-.814,2.713V450.7h-2.6V438.063h2.6Z" transform="translate(-642.554 -433.072)" fill="#fff"/>
      <path id="Path_72137" data-name="Path 72137" d="M817.664,430.682a1.667,1.667,0,1,1-.488-1.194A1.6,1.6,0,0,1,817.664,430.682Zm-2.984,15.95V433.991h2.6v12.641Z" transform="translate(-649.645 -429)" fill="#fff"/>
      <path id="Path_72138" data-name="Path 72138" d="M831.361,437.762h-3.092v7a1.382,1.382,0,0,0,.326,1.031,1.589,1.589,0,0,0,1.139.326h1.628v2.17H829.3c-2.441,0-3.635-1.194-3.635-3.526v-7H824.2v-2.116h1.465V432.5h2.658v3.147h3.092l-.054,2.116Z" transform="translate(-654.175 -430.601)" fill="#fff"/>
      <path id="Path_72139" data-name="Path 72139" d="M844.358,430.254v6.293a4.273,4.273,0,0,1,4.015-2.224,4.826,4.826,0,0,1,3.526,1.411,5.428,5.428,0,0,1,1.411,3.96v7.432h-2.6v-7.053a3.518,3.518,0,0,0-.868-2.6,3.061,3.061,0,0,0-2.333-.922,3.146,3.146,0,0,0-2.333.922,3.518,3.518,0,0,0-.868,2.6v7.053h-2.6V430.2h2.658v.054Z" transform="translate(-662.18 -429.549)" fill="#fff"/>
      <path id="Path_72140" data-name="Path 72140" d="M871.667,438.017v2.007a4.273,4.273,0,0,1,4.015-2.224,4.691,4.691,0,0,1,2.6.705,4.216,4.216,0,0,1,1.736,2.007,4.582,4.582,0,0,1,1.845-1.953,5.3,5.3,0,0,1,6.239.705,5.429,5.429,0,0,1,1.411,3.96v7.433h-2.6V443.6a3.518,3.518,0,0,0-.868-2.6,3.061,3.061,0,0,0-2.333-.922,3.146,3.146,0,0,0-2.333.922,3.759,3.759,0,0,0-.868,2.6v7.053h-2.6V443.6a3.518,3.518,0,0,0-.868-2.6,3.061,3.061,0,0,0-2.333-.922,3.146,3.146,0,0,0-2.333.922,3.518,3.518,0,0,0-.868,2.6v7.053h-2.6V438.017Z" transform="translate(-674.624 -433.026)" fill="#fff"/>
      <path id="Path_72141" data-name="Path 72141" d="M912,441.7a3.339,3.339,0,0,1,1.356-2.713,6.185,6.185,0,0,1,7,0,4.12,4.12,0,0,1,1.411,2.984h-2.658a2.063,2.063,0,0,0-.651-1.465,2.828,2.828,0,0,0-3.255-.054,1.543,1.543,0,0,0-.6,1.248,1.36,1.36,0,0,0,.76,1.194,7.308,7.308,0,0,0,1.845.651c.705.163,1.465.326,2.17.488a3.982,3.982,0,0,1,1.844,1.085,3.058,3.058,0,0,1,.76,2.116,3.155,3.155,0,0,1-1.411,2.658,5.723,5.723,0,0,1-3.581,1.031,5.56,5.56,0,0,1-3.526-1.031A3.726,3.726,0,0,1,912,446.906h2.713a1.907,1.907,0,0,0,.705,1.465,3,3,0,0,0,3.364.054,1.452,1.452,0,0,0,.651-1.248,1.3,1.3,0,0,0-.76-1.194,7.314,7.314,0,0,0-1.845-.651c-.705-.163-1.465-.326-2.17-.488a4.406,4.406,0,0,1-1.845-1.031A2.949,2.949,0,0,1,912,441.7Z" transform="translate(-694.341 -433.072)" fill="#fff"/>
    </g>
    <g id="Group_12757" data-name="Group 12757" transform="translate(282.78 325.518)">
      <path id="Path_72142" data-name="Path 72142" d="M512.162,499.07a3.051,3.051,0,0,0-1.9.6,2.1,2.1,0,0,0-.76,1.736,1.916,1.916,0,0,0,.868,1.736,6.2,6.2,0,0,0,2.116.868,24.287,24.287,0,0,1,2.5.651,4.346,4.346,0,0,1,2.116,1.3,3.885,3.885,0,0,1,.868,2.713,4.2,4.2,0,0,1-1.465,3.147,5.608,5.608,0,0,1-3.96,1.411,6.368,6.368,0,0,1-4.069-1.194,3.79,3.79,0,0,1-1.573-3.2h2.767a2.562,2.562,0,0,0,.76,1.682,2.782,2.782,0,0,0,2.007.6,3.027,3.027,0,0,0,2.116-.705,2.113,2.113,0,0,0,.76-1.628,1.989,1.989,0,0,0-.488-1.465,3.865,3.865,0,0,0-1.194-.814q-.732-.244-1.628-.488c-.6-.163-1.194-.271-1.79-.488a11.294,11.294,0,0,1-1.628-.705,2.95,2.95,0,0,1-1.194-1.248,4,4,0,0,1-.488-2.062,4.122,4.122,0,0,1,1.519-3.364,5.639,5.639,0,0,1,3.906-1.248,6.079,6.079,0,0,1,3.8,1.085,4.17,4.17,0,0,1,1.573,3.2h-2.875a2.283,2.283,0,0,0-.76-1.519A2.844,2.844,0,0,0,512.162,499.07Z" transform="translate(-506.9 -495.381)" fill="#fff"/>
      <path id="Path_72143" data-name="Path 72143" d="M537.485,516.02a5.844,5.844,0,0,1-4.449-1.79,7.284,7.284,0,0,1,0-9.44,6.163,6.163,0,0,1,10.688,4.34,8.894,8.894,0,0,1-.109,1.248h-9.657a3.555,3.555,0,0,0,1.085,2.5,3.5,3.5,0,0,0,2.441.922,3.058,3.058,0,0,0,2.984-1.736h2.821a6.04,6.04,0,0,1-2.062,2.875A6.482,6.482,0,0,1,537.485,516.02Zm2.5-9.874a3.692,3.692,0,0,0-4.883,0,3.556,3.556,0,0,0-1.085,2.5h7A3.223,3.223,0,0,0,539.98,506.147Z" transform="translate(-518.063 -498.172)" fill="#fff"/>
      <path id="Path_72144" data-name="Path 72144" d="M559.036,514.23a7.284,7.284,0,0,1,0-9.44,5.926,5.926,0,0,1,4.449-1.79,6.537,6.537,0,0,1,3.8,1.085,5.193,5.193,0,0,1,2.007,3.092h-2.821a2.913,2.913,0,0,0-2.984-2.007,3.149,3.149,0,0,0-2.55,1.139,4.649,4.649,0,0,0-.977,3.147,4.8,4.8,0,0,0,.977,3.2,3.149,3.149,0,0,0,2.55,1.139,2.853,2.853,0,0,0,2.984-2.007h2.821a5.485,5.485,0,0,1-2.062,3.038,6.135,6.135,0,0,1-3.743,1.139A5.692,5.692,0,0,1,559.036,514.23Z" transform="translate(-529.957 -498.172)" fill="#fff"/>
      <path id="Path_72145" data-name="Path 72145" d="M592.952,503.4h2.6v12.641h-2.6v-2.007a4.232,4.232,0,0,1-4.015,2.17,4.827,4.827,0,0,1-3.526-1.411,5.428,5.428,0,0,1-1.411-3.96V503.4h2.6v7.053a3.518,3.518,0,0,0,.868,2.6,3.062,3.062,0,0,0,2.333.922,3.146,3.146,0,0,0,2.333-.922,3.518,3.518,0,0,0,.868-2.6l-.054-7.053Z" transform="translate(-542.172 -498.355)" fill="#fff"/>
      <path id="Path_72146" data-name="Path 72146" d="M614.3,503.263v2.224a3.938,3.938,0,0,1,3.8-2.387v2.713h-.651a3.348,3.348,0,0,0-2.333.76,3.685,3.685,0,0,0-.814,2.713V515.9h-2.6V503.263h2.6Z" transform="translate(-554.844 -498.217)" fill="#fff"/>
      <path id="Path_72147" data-name="Path 72147" d="M632.485,516.02a5.844,5.844,0,0,1-4.449-1.79,7.284,7.284,0,0,1,0-9.44,6.162,6.162,0,0,1,10.688,4.34,8.9,8.9,0,0,1-.108,1.248h-9.657a3.555,3.555,0,0,0,1.085,2.5,3.5,3.5,0,0,0,2.441.922,3.058,3.058,0,0,0,2.984-1.736h2.821a6.041,6.041,0,0,1-2.062,2.875A6.482,6.482,0,0,1,632.485,516.02Zm2.5-9.874a3.692,3.692,0,0,0-4.883,0,3.556,3.556,0,0,0-1.085,2.5h7A3.42,3.42,0,0,0,634.98,506.147Z" transform="translate(-561.523 -498.172)" fill="#fff"/>
      <path id="Path_72148" data-name="Path 72148" d="M671.085,516.02a5.844,5.844,0,0,1-4.449-1.79,7.284,7.284,0,0,1,0-9.44,6.163,6.163,0,0,1,10.688,4.34,8.894,8.894,0,0,1-.109,1.248h-9.657a3.555,3.555,0,0,0,1.085,2.5,3.5,3.5,0,0,0,2.441.922,3.058,3.058,0,0,0,2.984-1.736h2.821a6.04,6.04,0,0,1-2.062,2.875A6.245,6.245,0,0,1,671.085,516.02Zm2.5-9.874a3.692,3.692,0,0,0-4.883,0,3.556,3.556,0,0,0-1.085,2.5h7A3.05,3.05,0,0,0,673.58,506.147Z" transform="translate(-579.182 -498.172)" fill="#fff"/>
      <path id="Path_72149" data-name="Path 72149" d="M695.158,503.217v2.007A4.273,4.273,0,0,1,699.173,503a4.826,4.826,0,0,1,3.526,1.411,5.428,5.428,0,0,1,1.411,3.96V515.8h-2.6v-7.053a3.518,3.518,0,0,0-.868-2.6,3.061,3.061,0,0,0-2.333-.922,3.146,3.146,0,0,0-2.333.922,3.518,3.518,0,0,0-.868,2.6V515.8h-2.6V503.217Z" transform="translate(-591.809 -498.172)" fill="#fff"/>
      <path id="Path_72150" data-name="Path 72150" d="M717.2,503.4h2.767l3.581,10.254,3.581-10.254h2.821l-4.828,12.641h-3.147Z" transform="translate(-603.108 -498.355)" fill="#fff"/>
      <path id="Path_72151" data-name="Path 72151" d="M746.964,495.782a1.667,1.667,0,1,1-.488-1.194A1.683,1.683,0,0,1,746.964,495.782Zm-2.984,15.95V499.145h2.6v12.641l-2.6-.054Z" transform="translate(-615.186 -494.1)" fill="#fff"/>
      <path id="Path_72152" data-name="Path 72152" d="M758,503.263v2.224a3.939,3.939,0,0,1,3.8-2.387v2.713h-.651a3.348,3.348,0,0,0-2.333.76,3.685,3.685,0,0,0-.814,2.713V515.9h-2.6V503.263H758Z" transform="translate(-620.584 -498.217)" fill="#fff"/>
      <path id="Path_72153" data-name="Path 72153" d="M776.347,516.02a6.173,6.173,0,0,1-4.557-1.79,6.381,6.381,0,0,1-1.79-4.72,6.212,6.212,0,0,1,1.845-4.72,6.834,6.834,0,0,1,9.223,0,6.887,6.887,0,0,1-.054,9.44A6.515,6.515,0,0,1,776.347,516.02Zm2.713-3.309a5.085,5.085,0,0,0,.054-6.347,3.647,3.647,0,0,0-2.713-1.139,3.529,3.529,0,0,0-2.658,1.139,4.476,4.476,0,0,0-1.085,3.2,4.547,4.547,0,0,0,1.031,3.2,3.414,3.414,0,0,0,2.6,1.139A3.911,3.911,0,0,0,779.06,512.711Z" transform="translate(-627.263 -498.172)" fill="#fff"/>
      <path id="Path_72154" data-name="Path 72154" d="M801.113,503.217v2.007A4.273,4.273,0,0,1,805.127,503a4.826,4.826,0,0,1,3.526,1.411,5.428,5.428,0,0,1,1.411,3.96V515.8h-2.658v-7.053a3.518,3.518,0,0,0-.868-2.6,3.061,3.061,0,0,0-2.333-.922,3.145,3.145,0,0,0-2.333.922,3.518,3.518,0,0,0-.868,2.6V515.8h-2.6V503.217Z" transform="translate(-640.256 -498.172)" fill="#fff"/>
      <path id="Path_72155" data-name="Path 72155" d="M828.367,503.217v2.007A4.273,4.273,0,0,1,832.382,503a4.692,4.692,0,0,1,2.6.705,4.215,4.215,0,0,1,1.736,2.007,4.582,4.582,0,0,1,1.845-1.953,5.3,5.3,0,0,1,6.239.705,5.428,5.428,0,0,1,1.411,3.96v7.433h-2.6V508.8a3.518,3.518,0,0,0-.868-2.6,3.061,3.061,0,0,0-2.333-.922,3.146,3.146,0,0,0-2.333.922,3.759,3.759,0,0,0-.868,2.6v7.053h-2.6V508.8a3.518,3.518,0,0,0-.868-2.6,3.061,3.061,0,0,0-2.333-.922,3.146,3.146,0,0,0-2.333.922,3.518,3.518,0,0,0-.868,2.6v7.053h-2.6V503.217Z" transform="translate(-652.699 -498.172)" fill="#fff"/>
      <path id="Path_72156" data-name="Path 72156" d="M874.385,516.02a5.844,5.844,0,0,1-4.449-1.79,7.284,7.284,0,0,1,0-9.44,6.163,6.163,0,0,1,10.688,4.34,8.913,8.913,0,0,1-.108,1.248h-9.657a3.555,3.555,0,0,0,1.085,2.5,3.5,3.5,0,0,0,2.441.922,3.058,3.058,0,0,0,2.984-1.736h2.821a6.04,6.04,0,0,1-2.062,2.875A6.482,6.482,0,0,1,874.385,516.02Zm2.5-9.874a3.692,3.692,0,0,0-4.883,0,3.555,3.555,0,0,0-1.085,2.5h7A3.42,3.42,0,0,0,876.88,506.147Z" transform="translate(-672.188 -498.172)" fill="#fff"/>
      <path id="Path_72157" data-name="Path 72157" d="M898.358,503.217v2.007A4.273,4.273,0,0,1,902.373,503a4.826,4.826,0,0,1,3.526,1.411,5.428,5.428,0,0,1,1.411,3.96V515.8h-2.6v-7.053a3.518,3.518,0,0,0-.868-2.6,3.061,3.061,0,0,0-2.333-.922,3.146,3.146,0,0,0-2.333.922,3.518,3.518,0,0,0-.868,2.6V515.8h-2.6V503.217Z" transform="translate(-684.769 -498.172)" fill="#fff"/>
      <path id="Path_72158" data-name="Path 72158" d="M928.461,502.862h-3.092v7a1.382,1.382,0,0,0,.326,1.031,1.588,1.588,0,0,0,1.139.325h1.628v2.17H926.4c-2.441,0-3.635-1.194-3.635-3.526v-7H921.3v-2.116h1.465V497.6h2.658v3.147h3.092l-.054,2.116Z" transform="translate(-696.48 -495.701)" fill="#fff"/>
    </g>
    <g id="Group_12760" data-name="Group 12760" transform="translate(315.928 726.982)">
      <g id="Group_12759" data-name="Group 12759">
        <g id="Group_12758" data-name="Group 12758">
          <path id="Path_72159" data-name="Path 72159" d="M581.509,1248.908a5.372,5.372,0,0,1-2.333,1.573,10.314,10.314,0,0,1-3.581.6h-3.418v8.246H568V1238.6h7.6a7.9,7.9,0,0,1,5.534,1.79,5.561,5.561,0,0,1,1.953,4.232A6.531,6.531,0,0,1,581.509,1248.908Zm-9.331-1.031H575.6a3.264,3.264,0,0,0,2.387-.814,3.447,3.447,0,0,0,0-4.449,3.264,3.264,0,0,0-2.387-.814h-3.418Z" transform="translate(-568 -1236.159)" fill="#fff"/>
          <path id="Path_72160" data-name="Path 72160" d="M605.823,1236.254v7.975a5.478,5.478,0,0,1,5.1-2.713,6.05,6.05,0,0,1,4.611,1.845,7.091,7.091,0,0,1,1.79,5.154v9.657h-4.177v-9.06a3.979,3.979,0,0,0-.977-2.93,3.943,3.943,0,0,0-5.317,0,4.155,4.155,0,0,0-.977,2.93v9.06H601.7V1236.2l4.123.054Z" transform="translate(-583.417 -1235.061)" fill="#fff"/>
          <path id="Path_72161" data-name="Path 72161" d="M641.056,1262.613,634.6,1246.5h4.666l4.177,11.664,4.394-11.664h4.34l-10.254,24.2h-4.34Z" transform="translate(-598.468 -1239.773)" fill="#fff"/>
          <path id="Path_72162" data-name="Path 72162" d="M669.954,1251.046a4.468,4.468,0,0,1,1.79-3.581,7.432,7.432,0,0,1,4.828-1.465,7.535,7.535,0,0,1,4.828,1.465,5.275,5.275,0,0,1,1.953,3.906h-4.286c-.108-1.41-.976-2.062-2.55-2.062a2.989,2.989,0,0,0-1.845.488,1.547,1.547,0,0,0-.651,1.3,1.467,1.467,0,0,0,.977,1.3,11.252,11.252,0,0,0,2.387.76,25.509,25.509,0,0,1,2.767.651,5.411,5.411,0,0,1,2.333,1.411,3.782,3.782,0,0,1,.977,2.713,4.384,4.384,0,0,1-1.9,3.635,7.961,7.961,0,0,1-4.828,1.411,7.777,7.777,0,0,1-4.774-1.356,5.049,5.049,0,0,1-2.062-3.96h4.286c.163,1.41,1.031,2.062,2.658,2.062a2.771,2.771,0,0,0,1.845-.542,1.56,1.56,0,0,0,.705-1.356,1.534,1.534,0,0,0-.977-1.356,8.825,8.825,0,0,0-2.387-.76,25.509,25.509,0,0,1-2.767-.651,5.31,5.31,0,0,1-2.333-1.356A3.738,3.738,0,0,1,669.954,1251.046Z" transform="translate(-614.617 -1239.544)" fill="#fff"/>
          <path id="Path_72163" data-name="Path 72163" d="M705.7,1236.65a2.595,2.595,0,1,1-.76-1.79A2.291,2.291,0,0,1,705.7,1236.65Zm-4.666,20.616v-16.438h4.177v16.438Z" transform="translate(-628.662 -1234.1)" fill="#fff"/>
          <path id="Path_72164" data-name="Path 72164" d="M717.479,1260.594a9.386,9.386,0,0,1,0-12.261,7.972,7.972,0,0,1,5.859-2.333,8.13,8.13,0,0,1,4.991,1.465,7.14,7.14,0,0,1,2.713,4.123h-4.557a3.162,3.162,0,0,0-3.2-2.062,3.356,3.356,0,0,0-2.821,1.3,6.734,6.734,0,0,0,0,7.161,3.427,3.427,0,0,0,2.821,1.3,3.162,3.162,0,0,0,3.2-2.062h4.5a7.261,7.261,0,0,1-2.767,4.069,7.921,7.921,0,0,1-4.991,1.519A7.083,7.083,0,0,1,717.479,1260.594Z" transform="translate(-635.341 -1239.544)" fill="#fff"/>
          <path id="Path_72165" data-name="Path 72165" d="M754.4,1236.65a2.594,2.594,0,1,1-.76-1.79A2.291,2.291,0,0,1,754.4,1236.65Zm-4.611,20.616v-16.438h4.177v16.438Z" transform="translate(-650.941 -1234.1)" fill="#fff"/>
          <path id="Path_72166" data-name="Path 72166" d="M766.124,1260.585a9.5,9.5,0,0,1-.054-12.152,7.252,7.252,0,0,1,5.588-2.333,5.735,5.735,0,0,1,5.154,2.767v-2.55h4.177v16.438h-4.177v-2.767a5.808,5.808,0,0,1-5.208,2.984A7.23,7.23,0,0,1,766.124,1260.585Zm9.44-2.55a5.426,5.426,0,0,0,0-7.053,4.194,4.194,0,0,0-3.038-1.3,4.106,4.106,0,0,0-3.038,1.3,4.709,4.709,0,0,0-1.3,3.526,4.839,4.839,0,0,0,1.3,3.581,4.193,4.193,0,0,0,3.038,1.3A4.481,4.481,0,0,0,775.564,1258.036Z" transform="translate(-657.621 -1239.59)" fill="#fff"/>
          <path id="Path_72167" data-name="Path 72167" d="M807.823,1246.271v2.441a5.478,5.478,0,0,1,5.1-2.712,6.051,6.051,0,0,1,4.611,1.844,7.091,7.091,0,0,1,1.79,5.154v9.657h-4.177v-9.06a3.978,3.978,0,0,0-.977-2.93,3.943,3.943,0,0,0-5.317,0,4.154,4.154,0,0,0-.977,2.93v9.06H803.7v-16.438l4.123.054Z" transform="translate(-675.828 -1239.544)" fill="#fff"/>
        </g>
      </g>
    </g>
  </g>
</svg>
