<svg xmlns="http://www.w3.org/2000/svg" xmlns:xlink="http://www.w3.org/1999/xlink" width="828.686" height="187.386" viewBox="0 0 828.686 187.386">
  <defs>
    <clipPath id="clip-path">
      <rect id="Rectangle_14813" data-name="Rectangle 14813" width="828.686" height="187.386" fill="none"/>
    </clipPath>
  </defs>
  <g id="Group_13196" data-name="Group 13196" transform="translate(0 0)">
    <g id="Group_13195" data-name="Group 13195" transform="translate(0 0)" clip-path="url(#clip-path)">
      <path id="Path_72839" data-name="Path 72839" d="M189.72,16.561h20.8V36.215h16.517v17.1H210.516V88.344c0,7.4,1.709,9.685,8.255,9.685h8.834v17.66H211.082c-16.238,0-23.071-7.691-23.071-25.921V16.561Z" transform="translate(203.335 17.911)" fill="#070707"/>
      <path id="Path_72840" data-name="Path 72840" d="M66.171,27.2H85.254l.57,9.683A25.383,25.383,0,0,1,108.33,25.209q15.383,0,21.363,11.107A25.533,25.533,0,0,1,152.2,25.209c16.238,0,25.063,9.4,25.063,27.06v53.836h-22.5V54.833c0-7.119-3.137-10.256-8.547-10.256s-9.683,3.137-13.386,10.828V106.39H110.324V54.833c0-7.119-3.137-10.256-8.547-10.256s-9.685,3.137-13.1,10.828V106.39H66.171Z" transform="translate(71.564 27.21)" fill="#070707"/>
      <path id="Path_72841" data-name="Path 72841" d="M169.8,81.585V72.472H159.262c-10.256,0-13.386,3.418-13.386,9.4,0,5.7,3.416,8.828,9.683,8.828A15.6,15.6,0,0,0,169.8,81.585m-46.147,1.994c0-16.808,10.541-25.921,31.618-25.921H169.8V55.091c0-8.262-3.137-12.25-11.113-12.25-7.689,0-10.82,3.424-11.107,8.834H125.935c1.136-17.66,11.964-26.493,33.612-26.493,22.505,0,32.761,9.4,32.761,30.2v50.991h-19.09l-.851-9.968c-5.416,7.689-13.392,11.677-23.927,11.677-15.387,0-24.785-8.834-24.785-24.5" transform="translate(133.735 27.235)" fill="#070707"/>
      <path id="Path_72842" data-name="Path 72842" d="M162.561,26.814h19.083l.855,14.814c3.133-11.111,9.4-16.236,20.226-16.236h5.982V46.467h-4.273c-11.679,0-17.374,4.273-19.368,15.38v44.44H162.561Z" transform="translate(175.811 27.462)" fill="#070707"/>
      <path id="Path_72843" data-name="Path 72843" d="M24.906,87.6h22.22c0,9.97,5.7,14.529,16.8,14.529,9.973,0,15.1-3.7,15.1-11.111,0-8.543-5.414-12.25-20.8-14.525C35.162,72.785,26.615,64.242,26.615,45.44c0-21.077,12.82-31.618,37.6-31.618,24.214,0,36.177,10.256,36.177,32.188H78.172c0-8.832-4.84-13.386-14.521-13.386-9.406,0-14.246,3.988-14.246,10.822,0,7.691,5.41,11.113,19.941,13.386,24.212,3.422,32.467,12.822,32.467,32.188,0,21.369-12.529,31.905-38.45,31.905C36.871,120.36,24.906,110.1,24.906,87.6" transform="translate(26.936 14.949)" fill="#070707"/>
      <path id="Path_72844" data-name="Path 72844" d="M25.921,16.523a9.4,9.4,0,1,0,9.4,9.4,9.483,9.483,0,0,0-9.4-9.4m25.921,9.4A25.921,25.921,0,1,1,25.921,0C40.165.285,51.842,11.677,51.842,25.921" transform="translate(0 0.001)" fill="#189f92"/>
      <path id="Path_72845" data-name="Path 72845" d="M226.653,17.648H255.68L287.308,85.01h.273l9.583-67.362h21.358l-13.69,96.934H276.9l-32.588-69h-.273l-9.723,69H212.963Z" transform="translate(230.321 19.087)" fill="#005eac"/>
      <path id="Path_72846" data-name="Path 72846" d="M308.474,31.461c20.538,0,35.048,13.692,32.039,34.913s-21.36,34.913-41.9,34.913S263.564,87.6,266.576,66.374s21.363-34.913,41.9-34.913m-7.256,51.755c10.266,0,17.387-6.846,18.759-16.841s-3.838-16.839-14.1-16.839-17.389,6.844-18.756,16.839,3.832,16.841,14.1,16.841" transform="translate(287.876 34.026)" fill="#005eac"/>
      <path id="Path_72847" data-name="Path 72847" d="M357.458,58.924H339.384L336.372,81.1c-1.095,7.119-.958,12.32,7.941,12.32,2.19,0,6.571-.273,8.626-1.917l-2.464,17.116a44.636,44.636,0,0,1-14.65,2.052c-13.69,0-23.413-5.614-21.36-20.126l4.382-31.626H305.7l2.327-16.431h13.145l2.875-19.714h20.538l-2.877,19.714h18.072Z" transform="translate(330.62 24.636)" fill="#005eac"/>
      <path id="Path_72848" data-name="Path 72848" d="M395.687,88.144a42.215,42.215,0,0,1-29.982,13.145c-20.538,0-35.05-13.69-32.039-34.913S355.023,31.46,375.561,31.46c19.171,0,29.3,13.694,26.287,34.915l-.82,6.436H353.381c.55,7.8,5.614,12.868,13.557,12.868,6.707,0,11.775-3.422,15.88-8.076Zm-13.28-29.3c1.1-6.846-3.422-12.6-10.816-12.6a16.219,16.219,0,0,0-16.292,12.6Z" transform="translate(360.435 34.025)" fill="#005eac"/>
      <path id="Path_72849" data-name="Path 72849" d="M415.682,52.684c-2.462-3.7-6.161-5.614-11.088-5.614-3.424,0-7.806,1.5-8.353,5.476-1.37,9.856,34.5,1.507,30.942,26.835-2.464,16.979-19.577,21.906-33.816,21.906-9.311,0-19.169-2.325-24.782-9.036l14.377-13.83c3.149,4.658,7.256,7.256,13.417,7.256,4.654,0,9.585-1.228,10-4.79,1.5-10.68-34.368-1.644-30.806-26.972,2.19-15.609,17.112-22.455,31.079-22.455,8.763,0,18.211,2.192,23.413,8.763Z" transform="translate(398.627 34.026)" fill="#005eac"/>
      <path id="Path_72850" data-name="Path 72850" d="M36.157,93.7c0,.123,0,.229-.01.321a1.422,1.422,0,0,1-.042.239.8.8,0,0,1-.073.183,1,1,0,0,1-.16.194,3.4,3.4,0,0,1-.479.348,5.587,5.587,0,0,1-.91.456,7.39,7.39,0,0,1-1.243.377,7.088,7.088,0,0,1-1.536.154,6.725,6.725,0,0,1-2.6-.479,5.223,5.223,0,0,1-1.975-1.415,6.462,6.462,0,0,1-1.255-2.313,11.62,11.62,0,0,1,.033-6.444,7.165,7.165,0,0,1,1.33-2.437,5.727,5.727,0,0,1,2.05-1.524,6.808,6.808,0,0,1,3.886-.406,8.322,8.322,0,0,1,1.12.3,5.246,5.246,0,0,1,.914.423,3.16,3.16,0,0,1,.554.4,1.341,1.341,0,0,1,.2.233.749.749,0,0,1,.073.189,1.461,1.461,0,0,1,.046.256,2.881,2.881,0,0,1,.019.354,3.321,3.321,0,0,1-.023.389,1.031,1.031,0,0,1-.069.266.43.43,0,0,1-.108.16.241.241,0,0,1-.158.052.87.87,0,0,1-.448-.223,7.427,7.427,0,0,0-.739-.491,6.133,6.133,0,0,0-1.1-.491,4.814,4.814,0,0,0-1.555-.223,4.024,4.024,0,0,0-1.794.4A3.76,3.76,0,0,0,28.72,84.1a5.677,5.677,0,0,0-.889,1.867,10.2,10.2,0,0,0-.01,5,5.135,5.135,0,0,0,.87,1.8,3.688,3.688,0,0,0,1.395,1.1,4.516,4.516,0,0,0,1.871.371,4.91,4.91,0,0,0,1.542-.216,5.869,5.869,0,0,0,1.126-.487,8.734,8.734,0,0,0,.764-.485.9.9,0,0,1,.468-.216A.272.272,0,0,1,36,92.87a.234.234,0,0,1,.092.131,1.247,1.247,0,0,1,.052.269c.01.112.017.258.017.433" transform="translate(27.51 87.427)" fill="#1a1818"/>
      <path id="Path_72851" data-name="Path 72851" d="M41.663,88.24a7.766,7.766,0,0,1-.331,2.31,5.1,5.1,0,0,1-.991,1.821,4.434,4.434,0,0,1-1.64,1.193,5.741,5.741,0,0,1-2.292.429,5.9,5.9,0,0,1-2.206-.377,4.031,4.031,0,0,1-1.572-1.1,4.618,4.618,0,0,1-.935-1.746,8.083,8.083,0,0,1-.308-2.329,7.836,7.836,0,0,1,.325-2.31,5.051,5.051,0,0,1,.98-1.821,4.4,4.4,0,0,1,1.64-1.189,5.766,5.766,0,0,1,2.292-.423,5.931,5.931,0,0,1,2.208.377,4.06,4.06,0,0,1,1.574,1.1,4.716,4.716,0,0,1,.941,1.746,8.042,8.042,0,0,1,.314,2.319m-1.952.125a7.933,7.933,0,0,0-.154-1.576,3.906,3.906,0,0,0-.516-1.3,2.529,2.529,0,0,0-.968-.885,3.209,3.209,0,0,0-1.522-.327,3.243,3.243,0,0,0-1.442.3,2.64,2.64,0,0,0-1,.839,3.845,3.845,0,0,0-.581,1.284,6.514,6.514,0,0,0-.189,1.621,7.845,7.845,0,0,0,.152,1.586,3.835,3.835,0,0,0,.52,1.3,2.62,2.62,0,0,0,.976.878,3.176,3.176,0,0,0,1.519.327,3.265,3.265,0,0,0,1.44-.3,2.656,2.656,0,0,0,1-.833A3.683,3.683,0,0,0,39.526,90a6.866,6.866,0,0,0,.185-1.632" transform="translate(33.947 89.442)" fill="#1a1818"/>
      <path id="Path_72852" data-name="Path 72852" d="M46.505,93.49a.254.254,0,0,1-.046.154.35.35,0,0,1-.148.108.983.983,0,0,1-.285.069,3.951,3.951,0,0,1-.458.023,4.044,4.044,0,0,1-.468-.023.983.983,0,0,1-.285-.069.35.35,0,0,1-.148-.108.254.254,0,0,1-.046-.154V87.473a5.905,5.905,0,0,0-.137-1.415,2.97,2.97,0,0,0-.4-.924,1.713,1.713,0,0,0-.679-.593,2.149,2.149,0,0,0-.966-.206,2.451,2.451,0,0,0-1.415.5,7.677,7.677,0,0,0-1.484,1.474V93.49a.254.254,0,0,1-.046.154.35.35,0,0,1-.148.108.983.983,0,0,1-.285.069,4.044,4.044,0,0,1-.468.023,3.911,3.911,0,0,1-.456-.023,1.052,1.052,0,0,1-.291-.069.311.311,0,0,1-.15-.108.3.3,0,0,1-.04-.154V83.216a.318.318,0,0,1,.035-.154.293.293,0,0,1,.135-.114.742.742,0,0,1,.264-.069,3.845,3.845,0,0,1,.423-.017,3.89,3.89,0,0,1,.416.017.63.63,0,0,1,.256.069.328.328,0,0,1,.131.114.278.278,0,0,1,.04.154v1.357a6.361,6.361,0,0,1,1.73-1.422,3.738,3.738,0,0,1,1.742-.45,3.886,3.886,0,0,1,1.73.348,3.113,3.113,0,0,1,1.137.93,3.768,3.768,0,0,1,.622,1.365,8.154,8.154,0,0,1,.187,1.878Z" transform="translate(40.726 89.444)" fill="#1a1818"/>
      <path id="Path_72853" data-name="Path 72853" d="M51.319,91.92c0,.129,0,.244-.01.337a1.318,1.318,0,0,1-.042.239.766.766,0,0,1-.069.171,1.037,1.037,0,0,1-.181.216,2.892,2.892,0,0,1-.485.356,5.031,5.031,0,0,1-.772.377,5.811,5.811,0,0,1-.93.266,5.139,5.139,0,0,1-1.039.1,4.957,4.957,0,0,1-1.963-.366,3.712,3.712,0,0,1-1.434-1.068,4.81,4.81,0,0,1-.878-1.723,8.323,8.323,0,0,1-.3-2.356,8.134,8.134,0,0,1,.371-2.61A4.913,4.913,0,0,1,44.6,84.077a4,4,0,0,1,1.52-1.032,5.147,5.147,0,0,1,1.888-.337,5.171,5.171,0,0,1,1.8.331,4.035,4.035,0,0,1,.691.341,2.708,2.708,0,0,1,.439.331,1.514,1.514,0,0,1,.189.219.864.864,0,0,1,.085.187,1.292,1.292,0,0,1,.046.246c.008.092.01.206.01.343a1.327,1.327,0,0,1-.1.62.3.3,0,0,1-.252.179.654.654,0,0,1-.393-.189,5.85,5.85,0,0,0-.566-.416,4.242,4.242,0,0,0-.826-.416,3.134,3.134,0,0,0-1.149-.189A2.382,2.382,0,0,0,45.9,85.338a5.32,5.32,0,0,0-.724,3.031,7.119,7.119,0,0,0,.189,1.742,3.557,3.557,0,0,0,.554,1.249,2.252,2.252,0,0,0,.9.747,2.856,2.856,0,0,0,1.216.246,2.94,2.94,0,0,0,1.143-.2,4.812,4.812,0,0,0,.849-.452,7.477,7.477,0,0,0,.606-.445.712.712,0,0,1,.383-.2.207.207,0,0,1,.137.046.35.35,0,0,1,.1.154,1.141,1.141,0,0,1,.058.275c.01.11.017.241.017.393" transform="translate(46.736 89.449)" fill="#1a1818"/>
      <path id="Path_72854" data-name="Path 72854" d="M50.528,81.862a1.247,1.247,0,0,1-.25.9,1.364,1.364,0,0,1-.926.239,1.313,1.313,0,0,1-.908-.235,1.221,1.221,0,0,1-.246-.885,1.234,1.234,0,0,1,.252-.9,1.351,1.351,0,0,1,.924-.239,1.322,1.322,0,0,1,.908.233,1.228,1.228,0,0,1,.246.885m-.216,13.746a.255.255,0,0,1-.046.154.35.35,0,0,1-.148.108.984.984,0,0,1-.285.069,4.046,4.046,0,0,1-.468.023,3.952,3.952,0,0,1-.458-.023,1.072,1.072,0,0,1-.291-.069.314.314,0,0,1-.148-.108.3.3,0,0,1-.04-.154V85.334a.31.31,0,0,1,.04-.15.321.321,0,0,1,.148-.114A1.006,1.006,0,0,1,48.907,85a3.954,3.954,0,0,1,.458-.023,4.048,4.048,0,0,1,.468.023.927.927,0,0,1,.285.067.359.359,0,0,1,.148.114.26.26,0,0,1,.046.15Z" transform="translate(52.128 87.326)" fill="#1a1818"/>
      <path id="Path_72855" data-name="Path 72855" d="M57.765,90.693a3.267,3.267,0,0,1-.291,1.405,2.871,2.871,0,0,1-.828,1.039,3.723,3.723,0,0,1-1.278.639,5.755,5.755,0,0,1-1.632.216,6.228,6.228,0,0,1-1.045-.085,6.013,6.013,0,0,1-.891-.216,5.106,5.106,0,0,1-.668-.275,1.905,1.905,0,0,1-.4-.256.66.66,0,0,1-.181-.321,2.192,2.192,0,0,1-.058-.56,2.531,2.531,0,0,1,.023-.364,1.116,1.116,0,0,1,.058-.239.239.239,0,0,1,.1-.131.263.263,0,0,1,.144-.042.826.826,0,0,1,.371.154c.162.1.364.214.606.337a5.383,5.383,0,0,0,.849.337,3.816,3.816,0,0,0,1.13.154,3.39,3.39,0,0,0,.868-.1,2.065,2.065,0,0,0,.674-.3,1.324,1.324,0,0,0,.439-.508,1.617,1.617,0,0,0,.154-.731,1.191,1.191,0,0,0-.223-.731,2.189,2.189,0,0,0-.587-.525,4.8,4.8,0,0,0-.822-.406c-.306-.117-.62-.241-.943-.371a10.007,10.007,0,0,1-.947-.439,3.556,3.556,0,0,1-.828-.6,2.756,2.756,0,0,1-.587-.845,2.817,2.817,0,0,1-.223-1.176,2.951,2.951,0,0,1,.233-1.159,2.715,2.715,0,0,1,.7-.97,3.533,3.533,0,0,1,1.17-.668,4.831,4.831,0,0,1,1.638-.25,5.234,5.234,0,0,1,.822.067,5.571,5.571,0,0,1,.741.173,3.569,3.569,0,0,1,.566.223,2.5,2.5,0,0,1,.354.21.636.636,0,0,1,.16.16.523.523,0,0,1,.056.154c.012.056.023.129.033.21a2.15,2.15,0,0,1,.019.31,2.609,2.609,0,0,1-.019.335.866.866,0,0,1-.056.235.29.29,0,0,1-.1.131.217.217,0,0,1-.125.04.634.634,0,0,1-.3-.125,3.8,3.8,0,0,0-.5-.269,5.773,5.773,0,0,0-.724-.269,3.328,3.328,0,0,0-.953-.125,2.954,2.954,0,0,0-.845.108,1.569,1.569,0,0,0-.6.308,1.3,1.3,0,0,0-.354.473,1.484,1.484,0,0,0-.121.6,1.209,1.209,0,0,0,.229.747,2.2,2.2,0,0,0,.593.531,5.11,5.11,0,0,0,.835.41l.953.377q.484.194.957.435a3.537,3.537,0,0,1,.841.583,2.628,2.628,0,0,1,.587.822,2.687,2.687,0,0,1,.223,1.141" transform="translate(54.608 89.444)" fill="#1a1818"/>
      <path id="Path_72856" data-name="Path 72856" d="M64.4,87.908a.714.714,0,0,1-.733.822H56.9a6.342,6.342,0,0,0,.171,1.54,2.962,2.962,0,0,0,.574,1.176,2.569,2.569,0,0,0,1.045.754,4.163,4.163,0,0,0,1.572.262,6.479,6.479,0,0,0,1.307-.119,7.765,7.765,0,0,0,.993-.269c.277-.1.508-.189.689-.269a1.1,1.1,0,0,1,.408-.121.286.286,0,0,1,.144.04.27.27,0,0,1,.1.121.9.9,0,0,1,.052.223,3.211,3.211,0,0,1,.017.348,2.35,2.35,0,0,1-.01.258c-.01.071-.019.137-.029.194a.526.526,0,0,1-.058.154.575.575,0,0,1-.1.131,1.514,1.514,0,0,1-.371.206,5.581,5.581,0,0,1-.8.279,10.723,10.723,0,0,1-1.137.246,8.458,8.458,0,0,1-1.376.108,6.343,6.343,0,0,1-2.221-.354,4.127,4.127,0,0,1-1.6-1.049,4.5,4.5,0,0,1-.982-1.748,8.142,8.142,0,0,1-.331-2.442,7.693,7.693,0,0,1,.343-2.381,4.993,4.993,0,0,1,.987-1.792A4.328,4.328,0,0,1,57.84,83.1a5.1,5.1,0,0,1,2.042-.393,4.924,4.924,0,0,1,2.063.387,3.909,3.909,0,0,1,1.4,1.045,4.175,4.175,0,0,1,.806,1.54,6.776,6.776,0,0,1,.256,1.89Zm-1.894-.56a3.434,3.434,0,0,0-.66-2.329,2.524,2.524,0,0,0-2.063-.845,2.75,2.75,0,0,0-1.228.262,2.64,2.64,0,0,0-.885.7,3.139,3.139,0,0,0-.554,1.01,4.224,4.224,0,0,0-.216,1.205Z" transform="translate(59.43 89.444)" fill="#1a1818"/>
      <path id="Path_72857" data-name="Path 72857" d="M72.862,90.726a9.139,9.139,0,0,1-.291,2.4,5.328,5.328,0,0,1-.855,1.821A3.741,3.741,0,0,1,70.327,96.1a4.255,4.255,0,0,1-1.884.4,4.008,4.008,0,0,1-.908-.1,3.3,3.3,0,0,1-.816-.314,5.183,5.183,0,0,1-.8-.55,9.965,9.965,0,0,1-.845-.8V96a.278.278,0,0,1-.046.16.305.305,0,0,1-.148.108,1.278,1.278,0,0,1-.256.062,3.354,3.354,0,0,1-.783,0,1.279,1.279,0,0,1-.262-.062.242.242,0,0,1-.137-.108.356.356,0,0,1-.035-.16V80.747a.312.312,0,0,1,.042-.16.3.3,0,0,1,.148-.114,1.052,1.052,0,0,1,.291-.069,4.441,4.441,0,0,1,.456-.023,4.58,4.58,0,0,1,.468.023.984.984,0,0,1,.285.069.342.342,0,0,1,.148.114.264.264,0,0,1,.046.16V86.9a7.906,7.906,0,0,1,.887-.787,5.266,5.266,0,0,1,.839-.52,3.668,3.668,0,0,1,.822-.291,4.138,4.138,0,0,1,.866-.09,3.868,3.868,0,0,1,1.913.443,3.7,3.7,0,0,1,1.291,1.195,5.175,5.175,0,0,1,.724,1.753,9.579,9.579,0,0,1,.229,2.123m-1.952.216a9.431,9.431,0,0,0-.121-1.53,4.269,4.269,0,0,0-.418-1.313,2.581,2.581,0,0,0-.793-.918,2.089,2.089,0,0,0-1.23-.35,2.591,2.591,0,0,0-.722.1,2.782,2.782,0,0,0-.726.341,5.529,5.529,0,0,0-.762.618,8.786,8.786,0,0,0-.845.947v4.1a7.816,7.816,0,0,0,1.495,1.445,2.561,2.561,0,0,0,1.48.5,2.133,2.133,0,0,0,1.22-.341,2.642,2.642,0,0,0,.822-.908,4.448,4.448,0,0,0,.458-1.268,7.085,7.085,0,0,0,.144-1.422" transform="translate(68.576 86.933)" fill="#1a1818"/>
      <path id="Path_72858" data-name="Path 72858" d="M75.316,83.888c0,.169,0,.308-.012.423a1.217,1.217,0,0,1-.044.269.371.371,0,0,1-.087.148.189.189,0,0,1-.142.052.623.623,0,0,1-.225-.052c-.087-.033-.183-.069-.3-.1s-.233-.067-.371-.1a2.038,2.038,0,0,0-.448-.046,1.433,1.433,0,0,0-.56.114,2.314,2.314,0,0,0-.577.377,4.785,4.785,0,0,0-.633.7c-.219.287-.466.641-.731,1.062V93.49a.254.254,0,0,1-.046.154.354.354,0,0,1-.148.108.949.949,0,0,1-.285.069,4.693,4.693,0,0,1-.926,0,1.091,1.091,0,0,1-.291-.069.329.329,0,0,1-.148-.108.3.3,0,0,1-.037-.154V83.214a.329.329,0,0,1,.031-.154.306.306,0,0,1,.139-.112.718.718,0,0,1,.262-.069,3.746,3.746,0,0,1,.42-.019,3.932,3.932,0,0,1,.42.019.63.63,0,0,1,.256.069.333.333,0,0,1,.129.112.309.309,0,0,1,.042.154v1.5a8.006,8.006,0,0,1,.791-1.005,4.561,4.561,0,0,1,.7-.61,2.167,2.167,0,0,1,.656-.308,2.536,2.536,0,0,1,.658-.085c.1,0,.21,0,.335.017a2.778,2.778,0,0,1,.4.062c.137.031.258.065.373.1a.756.756,0,0,1,.231.114.275.275,0,0,1,.092.108.548.548,0,0,1,.04.131,1.054,1.054,0,0,1,.023.235c0,.1.008.241.008.416" transform="translate(74.96 89.444)" fill="#1a1818"/>
      <path id="Path_72859" data-name="Path 72859" d="M75.446,81.862a1.247,1.247,0,0,1-.25.9A1.364,1.364,0,0,1,74.27,83a1.313,1.313,0,0,1-.908-.235,1.221,1.221,0,0,1-.246-.885,1.234,1.234,0,0,1,.252-.9,1.351,1.351,0,0,1,.924-.239,1.322,1.322,0,0,1,.908.233,1.228,1.228,0,0,1,.246.885M75.23,95.608a.255.255,0,0,1-.046.154.35.35,0,0,1-.148.108.984.984,0,0,1-.285.069,4.046,4.046,0,0,1-.468.023,3.952,3.952,0,0,1-.458-.023,1.071,1.071,0,0,1-.291-.069.314.314,0,0,1-.148-.108.3.3,0,0,1-.04-.154V85.334a.31.31,0,0,1,.04-.15.321.321,0,0,1,.148-.114A1.006,1.006,0,0,1,73.825,85a3.954,3.954,0,0,1,.458-.023,4.047,4.047,0,0,1,.468.023.927.927,0,0,1,.285.067.359.359,0,0,1,.148.114.26.26,0,0,1,.046.15Z" transform="translate(79.077 87.326)" fill="#1a1818"/>
      <path id="Path_72860" data-name="Path 72860" d="M84.927,87.908a.714.714,0,0,1-.733.822H77.427a6.342,6.342,0,0,0,.171,1.54,2.962,2.962,0,0,0,.574,1.176,2.57,2.57,0,0,0,1.045.754,4.163,4.163,0,0,0,1.572.262,6.479,6.479,0,0,0,1.307-.119,7.766,7.766,0,0,0,.993-.269c.277-.1.508-.189.689-.269a1.1,1.1,0,0,1,.408-.121.286.286,0,0,1,.144.04.27.27,0,0,1,.1.121.9.9,0,0,1,.052.223,3.207,3.207,0,0,1,.017.348,2.353,2.353,0,0,1-.01.258c-.01.071-.019.137-.029.194a.526.526,0,0,1-.058.154.575.575,0,0,1-.1.131,1.514,1.514,0,0,1-.37.206,5.581,5.581,0,0,1-.8.279,10.722,10.722,0,0,1-1.137.246,8.458,8.458,0,0,1-1.376.108,6.343,6.343,0,0,1-2.221-.354,4.127,4.127,0,0,1-1.6-1.049,4.5,4.5,0,0,1-.982-1.748,8.142,8.142,0,0,1-.331-2.442,7.693,7.693,0,0,1,.343-2.381,4.993,4.993,0,0,1,.987-1.792,4.328,4.328,0,0,1,1.559-1.13,5.1,5.1,0,0,1,2.042-.393,4.924,4.924,0,0,1,2.063.387,3.909,3.909,0,0,1,1.4,1.045,4.175,4.175,0,0,1,.806,1.54,6.776,6.776,0,0,1,.256,1.89Zm-1.894-.56a3.434,3.434,0,0,0-.66-2.329,2.524,2.524,0,0,0-2.063-.845,2.75,2.75,0,0,0-1.228.262,2.64,2.64,0,0,0-.885.7,3.139,3.139,0,0,0-.554,1.01,4.224,4.224,0,0,0-.216,1.205Z" transform="translate(81.627 89.444)" fill="#1a1818"/>
      <path id="Path_72861" data-name="Path 72861" d="M90.876,96.046a.25.25,0,0,1-.046.154.349.349,0,0,1-.154.108.922.922,0,0,1-.291.069,4.548,4.548,0,0,1-.912,0,.922.922,0,0,1-.291-.069.349.349,0,0,1-.154-.108.25.25,0,0,1-.046-.154V87.039H84.369v9.007a.25.25,0,0,1-.046.154.361.361,0,0,1-.154.108.922.922,0,0,1-.291.069,4.569,4.569,0,0,1-.914,0,.936.936,0,0,1-.291-.069.361.361,0,0,1-.154-.108.25.25,0,0,1-.046-.154V87.039H81.024a.291.291,0,0,1-.275-.183,1.428,1.428,0,0,1-.092-.593,2.565,2.565,0,0,1,.023-.366.866.866,0,0,1,.069-.246.29.29,0,0,1,.114-.135.311.311,0,0,1,.16-.042h1.449V84.367a7.024,7.024,0,0,1,.206-1.821,3.278,3.278,0,0,1,.612-1.249,2.408,2.408,0,0,1,1-.724,3.724,3.724,0,0,1,1.376-.235c.169,0,.335.008.5.023a3.4,3.4,0,0,1,.456.069,3.631,3.631,0,0,1,.36.1.55.55,0,0,1,.21.108.534.534,0,0,1,.092.119.608.608,0,0,1,.056.154,1.625,1.625,0,0,1,.035.229c.008.092.01.2.01.331a1.725,1.725,0,0,1-.056.525.2.2,0,0,1-.194.16.542.542,0,0,1-.189-.04c-.065-.025-.146-.054-.246-.085a2.952,2.952,0,0,0-.358-.085,2.918,2.918,0,0,0-.533-.04,1.182,1.182,0,0,0-1.118.581,3.938,3.938,0,0,0-.331,1.861v1.13H90.3a.578.578,0,0,1,.439.154.616.616,0,0,1,.142.429Zm.206-13.734a2.308,2.308,0,0,1-.052.537.726.726,0,0,1-.177.348.686.686,0,0,1-.348.189,2.472,2.472,0,0,1-.564.056,2.413,2.413,0,0,1-.554-.056.689.689,0,0,1-.543-.537,2.179,2.179,0,0,1-.056-.537,2.091,2.091,0,0,1,.056-.531.826.826,0,0,1,.187-.354.683.683,0,0,1,.356-.194,2.439,2.439,0,0,1,.554-.052,2.5,2.5,0,0,1,.564.052.634.634,0,0,1,.348.194.812.812,0,0,1,.177.354,2.216,2.216,0,0,1,.052.531" transform="translate(87.232 86.886)" fill="#1a1818"/>
      <path id="Path_72862" data-name="Path 72862" d="M96.089,93.49a.255.255,0,0,1-.046.154.35.35,0,0,1-.148.108.984.984,0,0,1-.285.069,3.95,3.95,0,0,1-.458.023,4.044,4.044,0,0,1-.468-.023.983.983,0,0,1-.285-.069.35.35,0,0,1-.148-.108.254.254,0,0,1-.046-.154V87.473a5.9,5.9,0,0,0-.137-1.415,2.97,2.97,0,0,0-.4-.924,1.713,1.713,0,0,0-.679-.593,2.149,2.149,0,0,0-.966-.206,2.451,2.451,0,0,0-1.415.5,7.677,7.677,0,0,0-1.484,1.474V93.49a.254.254,0,0,1-.046.154.35.35,0,0,1-.148.108.983.983,0,0,1-.285.069,4.044,4.044,0,0,1-.468.023,3.911,3.911,0,0,1-.456-.023,1.052,1.052,0,0,1-.291-.069.311.311,0,0,1-.15-.108.3.3,0,0,1-.04-.154V83.216a.318.318,0,0,1,.035-.154.293.293,0,0,1,.135-.114.742.742,0,0,1,.264-.069,3.845,3.845,0,0,1,.423-.017,3.915,3.915,0,0,1,.416.017.63.63,0,0,1,.256.069.328.328,0,0,1,.131.114.278.278,0,0,1,.04.154v1.357a6.361,6.361,0,0,1,1.73-1.422,3.738,3.738,0,0,1,1.742-.45,3.887,3.887,0,0,1,1.73.348,3.113,3.113,0,0,1,1.136.93,3.768,3.768,0,0,1,.622,1.365,8.153,8.153,0,0,1,.187,1.878Z" transform="translate(94.351 89.444)" fill="#1a1818"/>
      <path id="Path_72863" data-name="Path 72863" d="M102.321,83.672a1.165,1.165,0,0,1-.108.577.323.323,0,0,1-.279.177H100.46a2.314,2.314,0,0,1,.56.908,3.37,3.37,0,0,1,.16,1.035,4.035,4.035,0,0,1-.287,1.574,3.143,3.143,0,0,1-.816,1.159,3.609,3.609,0,0,1-1.261.724,4.927,4.927,0,0,1-1.621.252A4.223,4.223,0,0,1,96,89.912a2.486,2.486,0,0,1-.872-.418,1.825,1.825,0,0,0-.337.468,1.311,1.311,0,0,0-.131.606.786.786,0,0,0,.371.662,1.792,1.792,0,0,0,.987.285l2.683.114a5.435,5.435,0,0,1,1.405.212,3.49,3.49,0,0,1,1.107.535,2.435,2.435,0,0,1,.731.858,2.542,2.542,0,0,1,.262,1.18,3.2,3.2,0,0,1-.3,1.349A3.1,3.1,0,0,1,101,96.887a4.564,4.564,0,0,1-1.559.764,7.988,7.988,0,0,1-2.238.281,9.217,9.217,0,0,1-2.119-.212,4.586,4.586,0,0,1-1.432-.577,2.207,2.207,0,0,1-.81-.872,2.446,2.446,0,0,1-.252-1.1,2.953,2.953,0,0,1,.092-.731,2.626,2.626,0,0,1,.279-.672,3.442,3.442,0,0,1,.468-.612,6.182,6.182,0,0,1,.645-.577,2.043,2.043,0,0,1-.828-.718,1.754,1.754,0,0,1-.269-.937,2.639,2.639,0,0,1,.287-1.245,4.1,4.1,0,0,1,.708-.982,3.334,3.334,0,0,1-.56-.953,3.55,3.55,0,0,1-.206-1.284,4,4,0,0,1,.3-1.576,3.277,3.277,0,0,1,.822-1.174,3.578,3.578,0,0,1,1.261-.737,4.793,4.793,0,0,1,1.6-.258,7.157,7.157,0,0,1,.874.052,6.083,6.083,0,0,1,.76.144h3.106a.311.311,0,0,1,.289.187,1.277,1.277,0,0,1,.1.577m-2,10.847a1.151,1.151,0,0,0-.541-1.022,2.752,2.752,0,0,0-1.467-.383l-2.66-.092a4.851,4.851,0,0,0-.6.543,2.866,2.866,0,0,0-.371.491,1.656,1.656,0,0,0-.189.462,2.167,2.167,0,0,0-.05.468,1.208,1.208,0,0,0,.753,1.124,4.723,4.723,0,0,0,2.1.383,5.191,5.191,0,0,0,1.432-.167,2.746,2.746,0,0,0,.93-.439,1.587,1.587,0,0,0,.508-.629,1.819,1.819,0,0,0,.154-.741m-.947-8.141a2.237,2.237,0,0,0-.577-1.638,2.195,2.195,0,0,0-1.638-.589,2.285,2.285,0,0,0-.953.183,1.884,1.884,0,0,0-.674.5,2.151,2.151,0,0,0-.4.735,2.886,2.886,0,0,0-.131.874,2.009,2.009,0,0,0,2.192,2.181,2.433,2.433,0,0,0,.972-.179,1.831,1.831,0,0,0,.679-.489,2.094,2.094,0,0,0,.4-.726,2.784,2.784,0,0,0,.131-.855" transform="translate(100.141 89.454)" fill="#1a1818"/>
      <path id="Path_72864" data-name="Path 72864" d="M109.818,93.49a.254.254,0,0,1-.046.154.35.35,0,0,1-.148.108.983.983,0,0,1-.285.069,3.95,3.95,0,0,1-.458.023,4.044,4.044,0,0,1-.468-.023.983.983,0,0,1-.285-.069.35.35,0,0,1-.148-.108.254.254,0,0,1-.046-.154V87.473a5.905,5.905,0,0,0-.137-1.415,2.97,2.97,0,0,0-.4-.924,1.713,1.713,0,0,0-.679-.593,2.149,2.149,0,0,0-.966-.206,2.451,2.451,0,0,0-1.415.5,7.677,7.677,0,0,0-1.484,1.474V93.49a.254.254,0,0,1-.046.154.35.35,0,0,1-.148.108.983.983,0,0,1-.285.069,4.044,4.044,0,0,1-.468.023,3.912,3.912,0,0,1-.456-.023,1.052,1.052,0,0,1-.291-.069.311.311,0,0,1-.15-.108.3.3,0,0,1-.04-.154V83.216a.318.318,0,0,1,.035-.154.293.293,0,0,1,.135-.114.741.741,0,0,1,.264-.069,3.844,3.844,0,0,1,.423-.017,3.89,3.89,0,0,1,.416.017.63.63,0,0,1,.256.069.328.328,0,0,1,.131.114.278.278,0,0,1,.04.154v1.357a6.361,6.361,0,0,1,1.73-1.422,3.738,3.738,0,0,1,1.742-.45,3.886,3.886,0,0,1,1.73.348,3.113,3.113,0,0,1,1.137.93,3.768,3.768,0,0,1,.622,1.365,8.153,8.153,0,0,1,.187,1.878Z" transform="translate(109.199 89.444)" fill="#1a1818"/>
      <path id="Path_72865" data-name="Path 72865" d="M116.8,88.24a7.766,7.766,0,0,1-.331,2.31,5.1,5.1,0,0,1-.989,1.821,4.425,4.425,0,0,1-1.642,1.193,5.724,5.724,0,0,1-2.29.429,5.9,5.9,0,0,1-2.208-.377,4.046,4.046,0,0,1-1.572-1.1,4.618,4.618,0,0,1-.935-1.746,8.082,8.082,0,0,1-.308-2.329,7.837,7.837,0,0,1,.325-2.31,5.024,5.024,0,0,1,.982-1.821,4.411,4.411,0,0,1,1.638-1.189,5.769,5.769,0,0,1,2.294-.423,5.946,5.946,0,0,1,2.208.377,4.068,4.068,0,0,1,1.572,1.1,4.687,4.687,0,0,1,.941,1.746,7.97,7.97,0,0,1,.314,2.319m-1.952.125a7.781,7.781,0,0,0-.154-1.576,3.948,3.948,0,0,0-.514-1.3,2.545,2.545,0,0,0-.968-.885,3.676,3.676,0,0,0-2.964-.029,2.64,2.64,0,0,0-1,.839,3.8,3.8,0,0,0-.581,1.284,6.512,6.512,0,0,0-.192,1.621,7.84,7.84,0,0,0,.154,1.586,3.751,3.751,0,0,0,.52,1.3,2.614,2.614,0,0,0,.974.878,3.182,3.182,0,0,0,1.52.327,3.252,3.252,0,0,0,1.44-.3,2.678,2.678,0,0,0,1-.833,3.643,3.643,0,0,0,.575-1.28,6.76,6.76,0,0,0,.185-1.632" transform="translate(115.209 89.442)" fill="#1a1818"/>
      <path id="Path_72866" data-name="Path 72866" d="M118.851,94.083a2.451,2.451,0,0,1-.046.525.589.589,0,0,1-.139.285.906.906,0,0,1-.271.173,2.275,2.275,0,0,1-.42.131c-.154.033-.323.062-.5.085a4.034,4.034,0,0,1-.525.033,3.981,3.981,0,0,1-1.37-.21,2.2,2.2,0,0,1-.937-.639,2.672,2.672,0,0,1-.529-1.084,6.272,6.272,0,0,1-.169-1.549V85.828h-1.438a.3.3,0,0,1-.273-.181,1.252,1.252,0,0,1-.1-.6,2,2,0,0,1,.029-.364,1.114,1.114,0,0,1,.075-.246.291.291,0,0,1,.119-.137.377.377,0,0,1,.167-.04h1.426V81.821a.326.326,0,0,1,.04-.148.338.338,0,0,1,.15-.121.953.953,0,0,1,.291-.073,3.915,3.915,0,0,1,.456-.023,4.113,4.113,0,0,1,.47.023.924.924,0,0,1,.285.073.385.385,0,0,1,.148.121.251.251,0,0,1,.044.148v2.444h2.637a.327.327,0,0,1,.16.04.291.291,0,0,1,.119.137.794.794,0,0,1,.077.246,2.9,2.9,0,0,1,.023.364,1.311,1.311,0,0,1-.1.6.308.308,0,0,1-.277.181h-2.637v5.732a3.3,3.3,0,0,0,.314,1.6,1.183,1.183,0,0,0,1.124.543,1.885,1.885,0,0,0,.468-.052,3.61,3.61,0,0,0,.366-.108c.1-.037.2-.073.273-.108a.544.544,0,0,1,.206-.052.216.216,0,0,1,.108.029.207.207,0,0,1,.081.108,1.325,1.325,0,0,1,.052.216,2.525,2.525,0,0,1,.023.343" transform="translate(121.276 88.097)" fill="#1a1818"/>
      <path id="Path_72867" data-name="Path 72867" d="M125.559,87.908a.714.714,0,0,1-.733.822h-6.767a6.341,6.341,0,0,0,.171,1.54,2.962,2.962,0,0,0,.574,1.176,2.569,2.569,0,0,0,1.045.754,4.163,4.163,0,0,0,1.572.262,6.479,6.479,0,0,0,1.307-.119,7.766,7.766,0,0,0,.993-.269c.277-.1.508-.189.689-.269a1.1,1.1,0,0,1,.408-.121.286.286,0,0,1,.144.04.27.27,0,0,1,.1.121.9.9,0,0,1,.052.223,3.211,3.211,0,0,1,.017.348,2.349,2.349,0,0,1-.01.258c-.01.071-.019.137-.029.194a.525.525,0,0,1-.058.154.575.575,0,0,1-.1.131,1.515,1.515,0,0,1-.37.206,5.581,5.581,0,0,1-.8.279,10.722,10.722,0,0,1-1.136.246,8.458,8.458,0,0,1-1.376.108,6.343,6.343,0,0,1-2.221-.354,4.127,4.127,0,0,1-1.6-1.049,4.5,4.5,0,0,1-.982-1.748,8.142,8.142,0,0,1-.331-2.442,7.693,7.693,0,0,1,.343-2.381,4.993,4.993,0,0,1,.987-1.792A4.328,4.328,0,0,1,119,83.1a5.1,5.1,0,0,1,2.042-.393,4.925,4.925,0,0,1,2.063.387,3.909,3.909,0,0,1,1.4,1.045,4.175,4.175,0,0,1,.806,1.54,6.776,6.776,0,0,1,.256,1.89Zm-1.894-.56a3.434,3.434,0,0,0-.66-2.329,2.524,2.524,0,0,0-2.063-.845,2.75,2.75,0,0,0-1.228.262,2.64,2.64,0,0,0-.885.7,3.138,3.138,0,0,0-.554,1.01,4.223,4.223,0,0,0-.216,1.205Z" transform="translate(125.571 89.444)" fill="#1a1818"/>
      <path id="Path_72868" data-name="Path 72868" d="M128.9,90.693a3.267,3.267,0,0,1-.291,1.405,2.871,2.871,0,0,1-.828,1.039,3.724,3.724,0,0,1-1.278.639,5.754,5.754,0,0,1-1.632.216,6.229,6.229,0,0,1-1.045-.085,6.013,6.013,0,0,1-.891-.216,5.105,5.105,0,0,1-.668-.275,1.9,1.9,0,0,1-.4-.256.66.66,0,0,1-.181-.321,2.192,2.192,0,0,1-.058-.56,2.531,2.531,0,0,1,.023-.364,1.115,1.115,0,0,1,.058-.239.239.239,0,0,1,.1-.131.263.263,0,0,1,.144-.042.826.826,0,0,1,.371.154c.162.1.364.214.606.337a5.383,5.383,0,0,0,.849.337,3.816,3.816,0,0,0,1.13.154,3.389,3.389,0,0,0,.868-.1,2.065,2.065,0,0,0,.674-.3,1.324,1.324,0,0,0,.439-.508,1.617,1.617,0,0,0,.154-.731,1.191,1.191,0,0,0-.223-.731,2.189,2.189,0,0,0-.587-.525,4.8,4.8,0,0,0-.822-.406c-.306-.117-.62-.241-.943-.371a10,10,0,0,1-.947-.439,3.556,3.556,0,0,1-.828-.6,2.756,2.756,0,0,1-.587-.845,2.817,2.817,0,0,1-.223-1.176,2.95,2.95,0,0,1,.233-1.159,2.716,2.716,0,0,1,.7-.97,3.533,3.533,0,0,1,1.17-.668,4.832,4.832,0,0,1,1.638-.25,5.235,5.235,0,0,1,.822.067,5.572,5.572,0,0,1,.741.173,3.57,3.57,0,0,1,.566.223,2.5,2.5,0,0,1,.354.21.636.636,0,0,1,.16.16.523.523,0,0,1,.056.154c.01.056.023.129.033.21a2.147,2.147,0,0,1,.019.31,2.605,2.605,0,0,1-.019.335.866.866,0,0,1-.056.235.29.29,0,0,1-.1.131.217.217,0,0,1-.125.04.634.634,0,0,1-.3-.125,3.8,3.8,0,0,0-.5-.269,5.773,5.773,0,0,0-.724-.269,3.328,3.328,0,0,0-.953-.125,2.954,2.954,0,0,0-.845.108,1.569,1.569,0,0,0-.6.308,1.3,1.3,0,0,0-.354.473,1.484,1.484,0,0,0-.121.6,1.209,1.209,0,0,0,.229.747,2.2,2.2,0,0,0,.593.531,5.109,5.109,0,0,0,.835.41l.953.377q.484.194.957.435a3.538,3.538,0,0,1,.841.583,2.628,2.628,0,0,1,.587.822,2.686,2.686,0,0,1,.223,1.141" transform="translate(131.544 89.444)" fill="#1a1818"/>
      <path id="Path_72869" data-name="Path 72869" d="M135.276,81.542a2.444,2.444,0,0,1-.023.348.943.943,0,0,1-.054.212.2.2,0,0,1-.073.108.212.212,0,0,1-.115.029.536.536,0,0,1-.2-.052c-.081-.035-.179-.071-.293-.114a2.884,2.884,0,0,0-.406-.114,2.6,2.6,0,0,0-.539-.05,1.714,1.714,0,0,0-.722.135,1.123,1.123,0,0,0-.477.429,2.038,2.038,0,0,0-.264.753,6.62,6.62,0,0,0-.081,1.124v1.12h2.3a.3.3,0,0,1,.152.04.343.343,0,0,1,.117.137.977.977,0,0,1,.077.246,1.8,1.8,0,0,1,.031.364,1.263,1.263,0,0,1-.1.593.309.309,0,0,1-.273.183h-2.3v9.009a.253.253,0,0,1-.044.154.361.361,0,0,1-.156.108,1.015,1.015,0,0,1-.291.069,3.872,3.872,0,0,1-.454.023,3.951,3.951,0,0,1-.458-.023,1.072,1.072,0,0,1-.291-.069.4.4,0,0,1-.154-.108.253.253,0,0,1-.044-.154V87.033h-1.453a.284.284,0,0,1-.271-.183,1.375,1.375,0,0,1-.094-.593,2.531,2.531,0,0,1,.023-.364.842.842,0,0,1,.071-.246.273.273,0,0,1,.112-.137.33.33,0,0,1,.158-.04h1.453V84.408a7.337,7.337,0,0,1,.2-1.844,3.2,3.2,0,0,1,.61-1.261,2.448,2.448,0,0,1,1.037-.724,4.091,4.091,0,0,1,1.465-.235,3.962,3.962,0,0,1,.776.075,2.969,2.969,0,0,1,.583.16.923.923,0,0,1,.275.154.587.587,0,0,1,.112.177.934.934,0,0,1,.062.262,3.106,3.106,0,0,1,.019.371" transform="translate(138.781 86.892)" fill="#1a1818"/>
      <path id="Path_72870" data-name="Path 72870" d="M138.391,83.888c0,.169,0,.308-.01.423a1.2,1.2,0,0,1-.046.269.371.371,0,0,1-.087.148.185.185,0,0,1-.142.052.614.614,0,0,1-.223-.052c-.09-.033-.185-.069-.3-.1s-.233-.067-.371-.1a2,2,0,0,0-.445-.046,1.426,1.426,0,0,0-.56.114,2.278,2.278,0,0,0-.577.377,4.672,4.672,0,0,0-.633.7c-.221.287-.466.641-.731,1.062V93.49a.254.254,0,0,1-.046.154.369.369,0,0,1-.148.108.983.983,0,0,1-.285.069,4.044,4.044,0,0,1-.468.023,3.951,3.951,0,0,1-.458-.023,1.071,1.071,0,0,1-.291-.069.317.317,0,0,1-.148-.108.3.3,0,0,1-.04-.154V83.214a.33.33,0,0,1,.033-.154.3.3,0,0,1,.137-.112.741.741,0,0,1,.262-.069,3.815,3.815,0,0,1,.423-.019,3.862,3.862,0,0,1,.418.019.63.63,0,0,1,.256.069.342.342,0,0,1,.131.112.308.308,0,0,1,.04.154v1.5a8.2,8.2,0,0,1,.793-1.005,4.374,4.374,0,0,1,.7-.61,2.145,2.145,0,0,1,.656-.308,2.521,2.521,0,0,1,.656-.085,3.373,3.373,0,0,1,.337.017,2.825,2.825,0,0,1,.4.062c.135.031.258.065.37.1a.774.774,0,0,1,.233.114.316.316,0,0,1,.092.108.665.665,0,0,1,.04.131,1.2,1.2,0,0,1,.023.235c0,.1.006.241.006.416" transform="translate(143.177 89.444)" fill="#1a1818"/>
      <path id="Path_72871" data-name="Path 72871" d="M146.051,88.24a7.765,7.765,0,0,1-.331,2.31,5.1,5.1,0,0,1-.989,1.821,4.424,4.424,0,0,1-1.642,1.193,5.724,5.724,0,0,1-2.29.429,5.9,5.9,0,0,1-2.208-.377,4.046,4.046,0,0,1-1.572-1.1,4.618,4.618,0,0,1-.935-1.746,8.082,8.082,0,0,1-.308-2.329,7.836,7.836,0,0,1,.325-2.31,5.024,5.024,0,0,1,.982-1.821,4.411,4.411,0,0,1,1.638-1.189,5.769,5.769,0,0,1,2.294-.423,5.946,5.946,0,0,1,2.208.377,4.068,4.068,0,0,1,1.572,1.1,4.686,4.686,0,0,1,.941,1.746,7.97,7.97,0,0,1,.314,2.319m-1.952.125a7.783,7.783,0,0,0-.154-1.576,3.949,3.949,0,0,0-.514-1.3,2.544,2.544,0,0,0-.968-.885,3.676,3.676,0,0,0-2.964-.029,2.64,2.64,0,0,0-1,.839,3.8,3.8,0,0,0-.581,1.284,6.511,6.511,0,0,0-.191,1.621,7.841,7.841,0,0,0,.154,1.586,3.753,3.753,0,0,0,.52,1.3,2.614,2.614,0,0,0,.974.878,3.185,3.185,0,0,0,1.522.327,3.249,3.249,0,0,0,1.438-.3,2.679,2.679,0,0,0,1-.833,3.644,3.644,0,0,0,.574-1.28,6.761,6.761,0,0,0,.185-1.632" transform="translate(146.844 89.442)" fill="#1a1818"/>
      <path id="Path_72872" data-name="Path 72872" d="M157.287,93.49a.254.254,0,0,1-.046.154.35.35,0,0,1-.148.108.983.983,0,0,1-.285.069,3.951,3.951,0,0,1-.458.023,4.045,4.045,0,0,1-.468-.023,1.035,1.035,0,0,1-.289-.069.369.369,0,0,1-.156-.108.253.253,0,0,1-.044-.154V87.246a5.659,5.659,0,0,0-.114-1.189,2.754,2.754,0,0,0-.366-.924,1.692,1.692,0,0,0-.639-.593,1.922,1.922,0,0,0-.914-.206,2.161,2.161,0,0,0-1.307.5,9.111,9.111,0,0,0-1.445,1.474V93.49a.255.255,0,0,1-.046.154.348.348,0,0,1-.154.108,1.052,1.052,0,0,1-.291.069,3.886,3.886,0,0,1-.456.023,3.991,3.991,0,0,1-.452-.023,1.067,1.067,0,0,1-.3-.069.3.3,0,0,1-.148-.108.284.284,0,0,1-.042-.154V87.246a5.248,5.248,0,0,0-.125-1.189,2.9,2.9,0,0,0-.377-.924,1.722,1.722,0,0,0-.633-.593,1.885,1.885,0,0,0-.908-.206,2.182,2.182,0,0,0-1.313.5,8.467,8.467,0,0,0-1.438,1.474V93.49a.255.255,0,0,1-.046.154.358.358,0,0,1-.15.108.966.966,0,0,1-.285.069,4.044,4.044,0,0,1-.468.023,3.937,3.937,0,0,1-.456-.023,1.052,1.052,0,0,1-.291-.069.254.254,0,0,1-.187-.262V83.216a.318.318,0,0,1,.033-.154.289.289,0,0,1,.137-.114.729.729,0,0,1,.262-.069,5.287,5.287,0,0,1,.839,0,.632.632,0,0,1,.258.069.359.359,0,0,1,.131.114.3.3,0,0,1,.04.154v1.357a6.63,6.63,0,0,1,1.684-1.422,3.388,3.388,0,0,1,1.651-.45,4.064,4.064,0,0,1,1.147.148,3.082,3.082,0,0,1,.9.416,2.763,2.763,0,0,1,.662.639,3.745,3.745,0,0,1,.458.828,10.436,10.436,0,0,1,.976-.947,5.69,5.69,0,0,1,.891-.629,3.535,3.535,0,0,1,.833-.348,3.22,3.22,0,0,1,.816-.108,3.614,3.614,0,0,1,1.667.348,3.027,3.027,0,0,1,1.091.93,3.727,3.727,0,0,1,.593,1.365,7.524,7.524,0,0,1,.177,1.649Z" transform="translate(153.624 89.444)" fill="#1a1818"/>
      <path id="Path_72873" data-name="Path 72873" d="M162.2,91.667a4.3,4.3,0,0,1-.383,1.85,3.951,3.951,0,0,1-1.062,1.374,4.62,4.62,0,0,1-1.6.851,6.605,6.605,0,0,1-1.98.285A7.115,7.115,0,0,1,155.8,95.9a7.345,7.345,0,0,1-1.13-.308,5.975,5.975,0,0,1-.835-.377,2.25,2.25,0,0,1-.468-.331.863.863,0,0,1-.194-.35,2.037,2.037,0,0,1-.062-.564,3.227,3.227,0,0,1,.023-.416.945.945,0,0,1,.069-.269.306.306,0,0,1,.114-.144.332.332,0,0,1,.16-.04.959.959,0,0,1,.45.194,6.739,6.739,0,0,0,.747.423,7.422,7.422,0,0,0,1.1.429,5.045,5.045,0,0,0,1.49.2,3.791,3.791,0,0,0,1.17-.171,2.8,2.8,0,0,0,.914-.485,2.109,2.109,0,0,0,.587-.772,2.494,2.494,0,0,0,.206-1.039,1.947,1.947,0,0,0-.285-1.072,2.917,2.917,0,0,0-.754-.783,6.507,6.507,0,0,0-1.068-.616c-.4-.185-.808-.377-1.228-.572a13.669,13.669,0,0,1-1.222-.643,5.222,5.222,0,0,1-1.062-.835,3.917,3.917,0,0,1-.76-1.124,3.749,3.749,0,0,1-.289-1.547,3.872,3.872,0,0,1,.335-1.651,3.443,3.443,0,0,1,.937-1.216,4.147,4.147,0,0,1,1.428-.747,6,6,0,0,1,1.786-.258,5.7,5.7,0,0,1,.989.087,6.822,6.822,0,0,1,.935.227,5.132,5.132,0,0,1,.783.321,2.038,2.038,0,0,1,.452.285.872.872,0,0,1,.142.171.619.619,0,0,1,.058.16,1.9,1.9,0,0,1,.033.233c.008.092.012.208.012.354a3.183,3.183,0,0,1-.019.366,1.32,1.32,0,0,1-.05.269.33.33,0,0,1-.1.16.218.218,0,0,1-.142.05.964.964,0,0,1-.4-.158c-.179-.106-.4-.227-.656-.36a5.837,5.837,0,0,0-.92-.366,3.991,3.991,0,0,0-1.193-.164,3.145,3.145,0,0,0-1.072.164,2.223,2.223,0,0,0-.754.439,1.76,1.76,0,0,0-.445.652,2.14,2.14,0,0,0-.15.8,1.919,1.919,0,0,0,.287,1.062,2.891,2.891,0,0,0,.758.789,6.988,6.988,0,0,0,1.08.627q.6.287,1.232.577c.42.194.831.408,1.232.639a5.159,5.159,0,0,1,1.08.822,3.573,3.573,0,0,1,1.055,2.644" transform="translate(165.588 87.408)" fill="#1a1818"/>
      <path id="Path_72874" data-name="Path 72874" d="M173.961,93.49a.254.254,0,0,1-.046.154.35.35,0,0,1-.148.108.983.983,0,0,1-.285.069,3.951,3.951,0,0,1-.458.023,4.044,4.044,0,0,1-.468-.023,1.035,1.035,0,0,1-.289-.069.369.369,0,0,1-.156-.108.253.253,0,0,1-.044-.154V87.246a5.659,5.659,0,0,0-.115-1.189,2.754,2.754,0,0,0-.366-.924,1.692,1.692,0,0,0-.639-.593,1.922,1.922,0,0,0-.914-.206,2.161,2.161,0,0,0-1.307.5,9.111,9.111,0,0,0-1.445,1.474V93.49a.241.241,0,0,1-.046.154.348.348,0,0,1-.154.108,1.051,1.051,0,0,1-.291.069,3.885,3.885,0,0,1-.456.023,3.992,3.992,0,0,1-.452-.023,1.067,1.067,0,0,1-.3-.069.3.3,0,0,1-.148-.108.284.284,0,0,1-.042-.154V87.246a5.246,5.246,0,0,0-.125-1.189,2.9,2.9,0,0,0-.377-.924,1.722,1.722,0,0,0-.633-.593,1.885,1.885,0,0,0-.908-.206,2.182,2.182,0,0,0-1.313.5,8.467,8.467,0,0,0-1.438,1.474V93.49a.254.254,0,0,1-.046.154.358.358,0,0,1-.15.108.966.966,0,0,1-.285.069,4.044,4.044,0,0,1-.468.023,3.937,3.937,0,0,1-.456-.023,1.052,1.052,0,0,1-.291-.069.254.254,0,0,1-.187-.262V83.216a.318.318,0,0,1,.033-.154.289.289,0,0,1,.137-.114.729.729,0,0,1,.262-.069,5.287,5.287,0,0,1,.839,0,.632.632,0,0,1,.258.069.359.359,0,0,1,.131.114.3.3,0,0,1,.04.154v1.357a6.63,6.63,0,0,1,1.684-1.422,3.388,3.388,0,0,1,1.651-.45,4.064,4.064,0,0,1,1.147.148,3.082,3.082,0,0,1,.9.416,2.763,2.763,0,0,1,.662.639,3.746,3.746,0,0,1,.458.828,10.44,10.44,0,0,1,.976-.947,5.691,5.691,0,0,1,.891-.629,3.535,3.535,0,0,1,.833-.348,3.22,3.22,0,0,1,.816-.108,3.614,3.614,0,0,1,1.667.348,3.027,3.027,0,0,1,1.091.93,3.727,3.727,0,0,1,.593,1.365,7.524,7.524,0,0,1,.177,1.649Z" transform="translate(171.657 89.444)" fill="#1a1818"/>
      <path id="Path_72875" data-name="Path 72875" d="M175.8,93.5a.249.249,0,0,1-.092.206.643.643,0,0,1-.252.1,2.369,2.369,0,0,1-.468.035,2.6,2.6,0,0,1-.475-.035.569.569,0,0,1-.256-.1.254.254,0,0,1-.079-.206V92.475a5.063,5.063,0,0,1-1.5,1.118,3.968,3.968,0,0,1-1.753.4,4.8,4.8,0,0,1-1.465-.21,3.2,3.2,0,0,1-1.12-.612,2.719,2.719,0,0,1-.718-.98,3.241,3.241,0,0,1-.258-1.326,3.05,3.05,0,0,1,.354-1.507,2.979,2.979,0,0,1,1.016-1.062,4.951,4.951,0,0,1,1.621-.633,10.154,10.154,0,0,1,2.159-.212h1.415v-.8A4.073,4.073,0,0,0,173.8,85.6a1.8,1.8,0,0,0-.406-.76,1.729,1.729,0,0,0-.724-.456,3.348,3.348,0,0,0-1.1-.154,4.343,4.343,0,0,0-1.249.164,6.684,6.684,0,0,0-.972.366c-.277.133-.51.254-.7.364a.942.942,0,0,1-.416.167.278.278,0,0,1-.16-.046.416.416,0,0,1-.121-.137.668.668,0,0,1-.073-.235,2.058,2.058,0,0,1-.023-.312,1.987,1.987,0,0,1,.04-.452.641.641,0,0,1,.194-.314,2.414,2.414,0,0,1,.531-.348,5.794,5.794,0,0,1,.868-.366,7.744,7.744,0,0,1,1.072-.273,6.374,6.374,0,0,1,1.176-.108,6.118,6.118,0,0,1,1.884.25,3.077,3.077,0,0,1,1.257.737,2.863,2.863,0,0,1,.7,1.205,5.786,5.786,0,0,1,.219,1.678Zm-1.873-4.692h-1.609a6.091,6.091,0,0,0-1.349.131,2.8,2.8,0,0,0-.947.389,1.6,1.6,0,0,0-.554.616,1.87,1.87,0,0,0-.177.826,1.654,1.654,0,0,0,.508,1.274,2.006,2.006,0,0,0,1.422.475,2.662,2.662,0,0,0,1.376-.377,5.977,5.977,0,0,0,1.33-1.153Z" transform="translate(180.999 89.444)" fill="#1a1818"/>
      <path id="Path_72876" data-name="Path 72876" d="M179.078,83.888c0,.169,0,.308-.01.423a1.2,1.2,0,0,1-.046.269.371.371,0,0,1-.087.148.186.186,0,0,1-.142.052.614.614,0,0,1-.223-.052c-.09-.033-.185-.069-.3-.1s-.233-.067-.37-.1a2.006,2.006,0,0,0-.445-.046,1.425,1.425,0,0,0-.56.114,2.278,2.278,0,0,0-.577.377,4.672,4.672,0,0,0-.633.7c-.221.287-.466.641-.731,1.062V93.49a.255.255,0,0,1-.046.154.369.369,0,0,1-.148.108.983.983,0,0,1-.285.069,4.044,4.044,0,0,1-.468.023,3.951,3.951,0,0,1-.458-.023,1.071,1.071,0,0,1-.291-.069.318.318,0,0,1-.148-.108.3.3,0,0,1-.04-.154V83.214a.329.329,0,0,1,.033-.154.3.3,0,0,1,.137-.112.742.742,0,0,1,.262-.069,3.813,3.813,0,0,1,.423-.019,3.862,3.862,0,0,1,.418.019.63.63,0,0,1,.256.069.341.341,0,0,1,.131.112.308.308,0,0,1,.04.154v1.5a8.2,8.2,0,0,1,.793-1.005,4.378,4.378,0,0,1,.7-.61,2.145,2.145,0,0,1,.656-.308,2.521,2.521,0,0,1,.656-.085,3.374,3.374,0,0,1,.337.017,2.825,2.825,0,0,1,.4.062c.135.031.258.065.37.1a.773.773,0,0,1,.233.114.316.316,0,0,1,.092.108.661.661,0,0,1,.04.131,1.2,1.2,0,0,1,.023.235c0,.1.006.241.006.416" transform="translate(187.18 89.444)" fill="#1a1818"/>
      <path id="Path_72877" data-name="Path 72877" d="M183.044,94.083a2.323,2.323,0,0,1-.046.525.589.589,0,0,1-.137.285.894.894,0,0,1-.273.173,2.251,2.251,0,0,1-.418.131c-.156.033-.323.062-.5.085a4.058,4.058,0,0,1-.525.033,3.993,3.993,0,0,1-1.372-.21,2.2,2.2,0,0,1-.935-.639,2.648,2.648,0,0,1-.531-1.084,6.279,6.279,0,0,1-.167-1.549V85.828h-1.438a.305.305,0,0,1-.275-.181,1.282,1.282,0,0,1-.1-.6,1.829,1.829,0,0,1,.029-.364,1.016,1.016,0,0,1,.073-.246.294.294,0,0,1,.121-.137.362.362,0,0,1,.164-.04h1.428V81.821a.3.3,0,0,1,.04-.148.343.343,0,0,1,.148-.121.987.987,0,0,1,.291-.073,3.955,3.955,0,0,1,.458-.023,4.048,4.048,0,0,1,.468.023.908.908,0,0,1,.285.073.385.385,0,0,1,.148.121.253.253,0,0,1,.046.148v2.444h2.637a.332.332,0,0,1,.16.04.315.315,0,0,1,.119.137.743.743,0,0,1,.075.246,2.547,2.547,0,0,1,.023.364,1.283,1.283,0,0,1-.1.6.306.306,0,0,1-.275.181H180.03v5.732a3.275,3.275,0,0,0,.314,1.6,1.183,1.183,0,0,0,1.124.543,1.885,1.885,0,0,0,.468-.052,3.561,3.561,0,0,0,.364-.108c.106-.037.2-.073.275-.108a.535.535,0,0,1,.206-.052.222.222,0,0,1,.108.029.2.2,0,0,1,.079.108,1.141,1.141,0,0,1,.052.216,2.224,2.224,0,0,1,.023.343" transform="translate(190.703 88.097)" fill="#1a1818"/>
      <path id="Path_72878" data-name="Path 72878" d="M195.72,83.109a1.068,1.068,0,0,1-.023.194,2.732,2.732,0,0,1-.079.285l-3.027,9.762a.511.511,0,0,1-.108.206.475.475,0,0,1-.206.125,1.394,1.394,0,0,1-.358.062c-.152.012-.343.017-.572.017s-.433-.008-.593-.023a1.689,1.689,0,0,1-.383-.067.477.477,0,0,1-.21-.127.493.493,0,0,1-.1-.194L187.9,85.894l-.023-.1-.023.1-2,7.456a.512.512,0,0,1-.108.206.483.483,0,0,1-.223.125,1.664,1.664,0,0,1-.383.062c-.156.012-.348.017-.577.017s-.427-.008-.577-.023a1.612,1.612,0,0,1-.364-.067.485.485,0,0,1-.212-.127.522.522,0,0,1-.1-.194l-3-9.762a2.729,2.729,0,0,1-.079-.285,1.068,1.068,0,0,1-.023-.194.276.276,0,0,1,.046-.167.322.322,0,0,1,.154-.1,1.23,1.23,0,0,1,.291-.052c.123-.008.271-.01.445-.01.214,0,.385.006.514.017a1.166,1.166,0,0,1,.3.058.3.3,0,0,1,.15.112.87.87,0,0,1,.079.177l2.477,8.472.023.1.023-.1,2.273-8.472a.481.481,0,0,1,.073-.177.324.324,0,0,1,.154-.112,1.112,1.112,0,0,1,.281-.058c.117-.01.271-.017.462-.017s.333.006.45.017a1.112,1.112,0,0,1,.281.058.293.293,0,0,1,.148.108.5.5,0,0,1,.069.158l2.454,8.495.023.1.013-.1,2.444-8.472a.481.481,0,0,1,.073-.177.333.333,0,0,1,.16-.112,1.205,1.205,0,0,1,.3-.058c.125-.01.287-.017.485-.017.181,0,.327,0,.439.01a.8.8,0,0,1,.262.058.342.342,0,0,1,.137.1.289.289,0,0,1,.04.16" transform="translate(194.892 89.526)" fill="#1a1818"/>
      <path id="Path_72879" data-name="Path 72879" d="M196.759,93.5a.249.249,0,0,1-.092.206.642.642,0,0,1-.252.1,2.37,2.37,0,0,1-.468.035,2.6,2.6,0,0,1-.475-.035.569.569,0,0,1-.256-.1.254.254,0,0,1-.079-.206V92.475a5.062,5.062,0,0,1-1.5,1.118,3.968,3.968,0,0,1-1.753.4,4.8,4.8,0,0,1-1.465-.21,3.2,3.2,0,0,1-1.12-.612,2.718,2.718,0,0,1-.718-.98,3.241,3.241,0,0,1-.258-1.326,3.049,3.049,0,0,1,.354-1.507,2.979,2.979,0,0,1,1.016-1.062,4.951,4.951,0,0,1,1.622-.633,10.154,10.154,0,0,1,2.159-.212h1.415v-.8a4.073,4.073,0,0,0-.125-1.049,1.8,1.8,0,0,0-.406-.76,1.728,1.728,0,0,0-.724-.456,3.348,3.348,0,0,0-1.1-.154,4.343,4.343,0,0,0-1.249.164,6.685,6.685,0,0,0-.972.366c-.277.133-.51.254-.7.364a.942.942,0,0,1-.416.167.278.278,0,0,1-.16-.046.416.416,0,0,1-.121-.137.711.711,0,0,1-.075-.235,2.376,2.376,0,0,1-.021-.312,1.987,1.987,0,0,1,.04-.452.641.641,0,0,1,.194-.314,2.415,2.415,0,0,1,.531-.348,5.8,5.8,0,0,1,.868-.366,7.744,7.744,0,0,1,1.072-.273A6.374,6.374,0,0,1,192.7,82.7a6.118,6.118,0,0,1,1.884.25,3.077,3.077,0,0,1,1.257.737,2.862,2.862,0,0,1,.7,1.205,5.785,5.785,0,0,1,.219,1.678Zm-1.873-4.692h-1.609a6.091,6.091,0,0,0-1.349.131,2.8,2.8,0,0,0-.947.389,1.6,1.6,0,0,0-.554.616,1.869,1.869,0,0,0-.177.826,1.654,1.654,0,0,0,.508,1.274,2.006,2.006,0,0,0,1.422.475,2.662,2.662,0,0,0,1.376-.377,6.023,6.023,0,0,0,1.33-1.153Z" transform="translate(203.671 89.444)" fill="#1a1818"/>
      <path id="Path_72880" data-name="Path 72880" d="M199.214,93.693l-1.37,3.778a.525.525,0,0,1-.348.281,2.792,2.792,0,0,1-.851.1,3.239,3.239,0,0,1-.479-.029.7.7,0,0,1-.281-.1.247.247,0,0,1-.108-.183.576.576,0,0,1,.056-.273l1.418-3.574a.579.579,0,0,1-.2-.148.6.6,0,0,1-.125-.219l-3.666-9.818a1.19,1.19,0,0,1-.09-.377.284.284,0,0,1,.09-.216.58.58,0,0,1,.3-.108,4.21,4.21,0,0,1,.547-.029q.343,0,.537.019a1.064,1.064,0,0,1,.308.062.337.337,0,0,1,.166.131,1.482,1.482,0,0,1,.108.233l2.933,8.243h.035l2.831-8.289a.507.507,0,0,1,.167-.279.75.75,0,0,1,.289-.092,4.178,4.178,0,0,1,.56-.029,4,4,0,0,1,.527.029.629.629,0,0,1,.3.108.27.27,0,0,1,.1.216,1.13,1.13,0,0,1-.069.343Z" transform="translate(208.921 89.526)" fill="#1a1818"/>
      <path id="Path_72881" data-name="Path 72881" d="M212.385,85.344a1.416,1.416,0,0,1-.108.633.343.343,0,0,1-.325.2H200.981a.335.335,0,0,1-.321-.2,1.461,1.461,0,0,1-.1-.633,1.427,1.427,0,0,1,.1-.622.338.338,0,0,1,.321-.2h10.972a.349.349,0,0,1,.187.052.364.364,0,0,1,.137.148.923.923,0,0,1,.079.252,1.9,1.9,0,0,1,.029.371" transform="translate(216.905 91.412)" fill="#1a1818"/>
      <path id="Path_72882" data-name="Path 72882" d="M218.709,87.908a.714.714,0,0,1-.733.822h-6.767a6.343,6.343,0,0,0,.171,1.54,2.963,2.963,0,0,0,.574,1.176A2.57,2.57,0,0,0,213,92.2a4.164,4.164,0,0,0,1.572.262,6.479,6.479,0,0,0,1.307-.119,7.764,7.764,0,0,0,.993-.269c.277-.1.508-.189.689-.269a1.1,1.1,0,0,1,.408-.121.286.286,0,0,1,.144.04.27.27,0,0,1,.1.121.9.9,0,0,1,.052.223,3.212,3.212,0,0,1,.017.348,2.35,2.35,0,0,1-.01.258c-.01.071-.019.137-.029.194a.526.526,0,0,1-.058.154.576.576,0,0,1-.1.131,1.515,1.515,0,0,1-.371.206,5.583,5.583,0,0,1-.8.279,10.724,10.724,0,0,1-1.137.246,8.458,8.458,0,0,1-1.376.108,6.343,6.343,0,0,1-2.221-.354,4.127,4.127,0,0,1-1.6-1.049,4.5,4.5,0,0,1-.982-1.748,8.142,8.142,0,0,1-.331-2.442,7.692,7.692,0,0,1,.343-2.381,4.993,4.993,0,0,1,.987-1.792,4.327,4.327,0,0,1,1.559-1.13,5.1,5.1,0,0,1,2.042-.393,4.925,4.925,0,0,1,2.063.387,3.908,3.908,0,0,1,1.4,1.045,4.176,4.176,0,0,1,.806,1.54,6.776,6.776,0,0,1,.256,1.89Zm-1.894-.56a3.434,3.434,0,0,0-.66-2.329,2.524,2.524,0,0,0-2.063-.845,2.75,2.75,0,0,0-1.228.262,2.64,2.64,0,0,0-.885.7,3.138,3.138,0,0,0-.554,1.01,4.223,4.223,0,0,0-.216,1.205Z" transform="translate(226.313 89.444)" fill="#1a1818"/>
      <path id="Path_72883" data-name="Path 72883" d="M230.416,93.49a.255.255,0,0,1-.046.154.35.35,0,0,1-.148.108.983.983,0,0,1-.285.069,3.95,3.95,0,0,1-.458.023,4.043,4.043,0,0,1-.468-.023,1.035,1.035,0,0,1-.289-.069.369.369,0,0,1-.156-.108.253.253,0,0,1-.044-.154V87.246a5.661,5.661,0,0,0-.115-1.189,2.754,2.754,0,0,0-.366-.924,1.692,1.692,0,0,0-.639-.593,1.922,1.922,0,0,0-.914-.206,2.161,2.161,0,0,0-1.307.5,9.112,9.112,0,0,0-1.445,1.474V93.49a.241.241,0,0,1-.046.154.349.349,0,0,1-.154.108,1.052,1.052,0,0,1-.291.069,3.886,3.886,0,0,1-.456.023,3.991,3.991,0,0,1-.452-.023,1.067,1.067,0,0,1-.3-.069.3.3,0,0,1-.148-.108.283.283,0,0,1-.042-.154V87.246a5.247,5.247,0,0,0-.125-1.189,2.9,2.9,0,0,0-.377-.924,1.722,1.722,0,0,0-.633-.593,1.885,1.885,0,0,0-.908-.206,2.182,2.182,0,0,0-1.313.5,8.466,8.466,0,0,0-1.438,1.474V93.49a.255.255,0,0,1-.046.154.358.358,0,0,1-.15.108.966.966,0,0,1-.285.069,4.043,4.043,0,0,1-.468.023,3.937,3.937,0,0,1-.456-.023,1.051,1.051,0,0,1-.291-.069.254.254,0,0,1-.187-.262V83.216a.318.318,0,0,1,.033-.154.289.289,0,0,1,.137-.114.729.729,0,0,1,.262-.069,5.287,5.287,0,0,1,.839,0,.631.631,0,0,1,.258.069.36.36,0,0,1,.131.114.3.3,0,0,1,.04.154v1.357a6.63,6.63,0,0,1,1.684-1.422,3.388,3.388,0,0,1,1.651-.45,4.064,4.064,0,0,1,1.147.148,3.082,3.082,0,0,1,.9.416,2.762,2.762,0,0,1,.662.639,3.748,3.748,0,0,1,.458.828,10.428,10.428,0,0,1,.976-.947,5.689,5.689,0,0,1,.891-.629,3.536,3.536,0,0,1,.833-.348,3.22,3.22,0,0,1,.816-.108,3.615,3.615,0,0,1,1.667.348,3.027,3.027,0,0,1,1.091.93,3.727,3.727,0,0,1,.593,1.365,7.524,7.524,0,0,1,.177,1.649Z" transform="translate(232.713 89.444)" fill="#1a1818"/>
      <path id="Path_72884" data-name="Path 72884" d="M233.6,88.193a9.285,9.285,0,0,1-.291,2.421,5.262,5.262,0,0,1-.855,1.819,3.825,3.825,0,0,1-1.4,1.153,4.278,4.278,0,0,1-1.907.406,3.717,3.717,0,0,1-.845-.092,3.207,3.207,0,0,1-.76-.285,4.4,4.4,0,0,1-.737-.491c-.241-.2-.5-.431-.776-.7v5.137a.264.264,0,0,1-.046.16.358.358,0,0,1-.148.114.928.928,0,0,1-.285.067,4.047,4.047,0,0,1-.468.023,3.916,3.916,0,0,1-.456-.023.99.99,0,0,1-.291-.067.273.273,0,0,1-.189-.275V83.214a.338.338,0,0,1,.035-.164.271.271,0,0,1,.137-.108.837.837,0,0,1,.262-.062,4.1,4.1,0,0,1,.783,0,.824.824,0,0,1,.256.062.31.31,0,0,1,.144.108.315.315,0,0,1,.04.164V84.6a10.631,10.631,0,0,1,.9-.833,5.372,5.372,0,0,1,.874-.589,4.175,4.175,0,0,1,.9-.354,4.3,4.3,0,0,1,2.883.314,3.582,3.582,0,0,1,1.284,1.186,5.282,5.282,0,0,1,.724,1.753,9.515,9.515,0,0,1,.229,2.119m-1.952.216a9.334,9.334,0,0,0-.121-1.524,4.4,4.4,0,0,0-.412-1.307,2.464,2.464,0,0,0-.789-.914,2.1,2.1,0,0,0-1.228-.343,2.467,2.467,0,0,0-.724.11,2.913,2.913,0,0,0-.724.341,5.319,5.319,0,0,0-.768.616,9.3,9.3,0,0,0-.851.943v4.086a8.309,8.309,0,0,0,1.482,1.451,2.5,2.5,0,0,0,1.47.5,2.163,2.163,0,0,0,1.226-.341,2.614,2.614,0,0,0,.826-.914,4.658,4.658,0,0,0,.466-1.278,6.886,6.886,0,0,0,.148-1.428" transform="translate(242.418 89.444)" fill="#1a1818"/>
      <path id="Path_72885" data-name="Path 72885" d="M239.979,88.24a7.766,7.766,0,0,1-.331,2.31,5.1,5.1,0,0,1-.989,1.821,4.425,4.425,0,0,1-1.642,1.193,5.724,5.724,0,0,1-2.29.429,5.9,5.9,0,0,1-2.208-.377,4.046,4.046,0,0,1-1.572-1.1,4.618,4.618,0,0,1-.935-1.746,8.084,8.084,0,0,1-.308-2.329,7.837,7.837,0,0,1,.325-2.31,5.024,5.024,0,0,1,.982-1.821,4.411,4.411,0,0,1,1.638-1.189,5.769,5.769,0,0,1,2.294-.423,5.946,5.946,0,0,1,2.208.377,4.068,4.068,0,0,1,1.572,1.1,4.686,4.686,0,0,1,.941,1.746,7.97,7.97,0,0,1,.314,2.319m-1.952.125a7.782,7.782,0,0,0-.154-1.576,3.948,3.948,0,0,0-.514-1.3,2.545,2.545,0,0,0-.968-.885,3.676,3.676,0,0,0-2.964-.029,2.64,2.64,0,0,0-1,.839,3.8,3.8,0,0,0-.581,1.284,6.513,6.513,0,0,0-.191,1.621,7.841,7.841,0,0,0,.154,1.586,3.751,3.751,0,0,0,.52,1.3,2.613,2.613,0,0,0,.974.878,3.181,3.181,0,0,0,1.52.327,3.252,3.252,0,0,0,1.44-.3,2.678,2.678,0,0,0,1-.833,3.644,3.644,0,0,0,.575-1.28,6.761,6.761,0,0,0,.185-1.632" transform="translate(248.428 89.442)" fill="#1a1818"/>
      <path id="Path_72886" data-name="Path 72886" d="M250.9,83.109a1.073,1.073,0,0,1-.023.194,2.737,2.737,0,0,1-.079.285l-3.027,9.762a.511.511,0,0,1-.108.206.475.475,0,0,1-.206.125,1.4,1.4,0,0,1-.358.062c-.152.012-.343.017-.572.017s-.433-.008-.593-.023a1.69,1.69,0,0,1-.383-.067.477.477,0,0,1-.21-.127.492.492,0,0,1-.1-.194l-2.159-7.456-.023-.1-.023.1-2,7.456a.512.512,0,0,1-.108.206.482.482,0,0,1-.223.125,1.664,1.664,0,0,1-.383.062c-.156.012-.348.017-.577.017s-.427-.008-.577-.023a1.612,1.612,0,0,1-.364-.067.485.485,0,0,1-.212-.127.522.522,0,0,1-.1-.194l-3-9.762a2.74,2.74,0,0,1-.079-.285,1.068,1.068,0,0,1-.023-.194.276.276,0,0,1,.046-.167.322.322,0,0,1,.154-.1,1.23,1.23,0,0,1,.291-.052c.123-.008.271-.01.445-.01.214,0,.385.006.514.017a1.166,1.166,0,0,1,.3.058.3.3,0,0,1,.15.112.875.875,0,0,1,.079.177l2.477,8.472.023.1.023-.1,2.273-8.472a.481.481,0,0,1,.073-.177.324.324,0,0,1,.154-.112,1.112,1.112,0,0,1,.281-.058c.117-.01.271-.017.462-.017s.333.006.45.017a1.112,1.112,0,0,1,.281.058.293.293,0,0,1,.148.108.493.493,0,0,1,.069.158l2.454,8.495.023.1.012-.1L249,83.142a.481.481,0,0,1,.073-.177.333.333,0,0,1,.16-.112,1.2,1.2,0,0,1,.3-.058c.125-.01.287-.017.485-.017.181,0,.327,0,.439.01a.8.8,0,0,1,.262.058.342.342,0,0,1,.137.1.288.288,0,0,1,.04.16" transform="translate(254.566 89.526)" fill="#1a1818"/>
      <path id="Path_72887" data-name="Path 72887" d="M252.984,87.908a.714.714,0,0,1-.733.822h-6.767a6.343,6.343,0,0,0,.171,1.54,2.962,2.962,0,0,0,.575,1.176,2.569,2.569,0,0,0,1.045.754,4.164,4.164,0,0,0,1.572.262,6.479,6.479,0,0,0,1.307-.119,7.764,7.764,0,0,0,.993-.269c.277-.1.508-.189.689-.269a1.1,1.1,0,0,1,.408-.121.286.286,0,0,1,.144.04.27.27,0,0,1,.1.121.9.9,0,0,1,.052.223,3.2,3.2,0,0,1,.017.348,2.358,2.358,0,0,1-.01.258c-.01.071-.019.137-.029.194a.525.525,0,0,1-.058.154.575.575,0,0,1-.1.131,1.516,1.516,0,0,1-.371.206,5.58,5.58,0,0,1-.8.279,10.725,10.725,0,0,1-1.136.246,8.459,8.459,0,0,1-1.376.108,6.343,6.343,0,0,1-2.221-.354,4.127,4.127,0,0,1-1.6-1.049,4.5,4.5,0,0,1-.982-1.748,8.142,8.142,0,0,1-.331-2.442,7.693,7.693,0,0,1,.343-2.381,4.993,4.993,0,0,1,.987-1.792,4.328,4.328,0,0,1,1.559-1.13,5.1,5.1,0,0,1,2.042-.393,4.925,4.925,0,0,1,2.063.387,3.909,3.909,0,0,1,1.4,1.045,4.175,4.175,0,0,1,.806,1.54,6.777,6.777,0,0,1,.256,1.89Zm-1.894-.56a3.434,3.434,0,0,0-.66-2.329,2.524,2.524,0,0,0-2.063-.845,2.75,2.75,0,0,0-1.228.262,2.64,2.64,0,0,0-.885.7,3.139,3.139,0,0,0-.554,1.01,4.224,4.224,0,0,0-.216,1.205Z" transform="translate(263.382 89.444)" fill="#1a1818"/>
      <path id="Path_72888" data-name="Path 72888" d="M255.455,83.888c0,.169,0,.308-.01.423a1.2,1.2,0,0,1-.046.269.371.371,0,0,1-.087.148.185.185,0,0,1-.142.052.614.614,0,0,1-.223-.052c-.09-.033-.185-.069-.3-.1s-.233-.067-.37-.1a2.006,2.006,0,0,0-.445-.046,1.426,1.426,0,0,0-.56.114,2.278,2.278,0,0,0-.577.377,4.672,4.672,0,0,0-.633.7c-.221.287-.466.641-.731,1.062V93.49a.254.254,0,0,1-.046.154.368.368,0,0,1-.148.108.983.983,0,0,1-.285.069,4.044,4.044,0,0,1-.468.023,3.952,3.952,0,0,1-.458-.023,1.071,1.071,0,0,1-.291-.069.318.318,0,0,1-.148-.108.3.3,0,0,1-.04-.154V83.214a.33.33,0,0,1,.033-.154.3.3,0,0,1,.137-.112.741.741,0,0,1,.262-.069,3.812,3.812,0,0,1,.422-.019,3.863,3.863,0,0,1,.418.019.63.63,0,0,1,.256.069.342.342,0,0,1,.131.112.308.308,0,0,1,.04.154v1.5a8.207,8.207,0,0,1,.793-1.005,4.38,4.38,0,0,1,.7-.61,2.146,2.146,0,0,1,.656-.308,2.521,2.521,0,0,1,.656-.085,3.373,3.373,0,0,1,.337.017,2.826,2.826,0,0,1,.4.062c.135.031.258.065.37.1a.773.773,0,0,1,.233.114.316.316,0,0,1,.092.108.661.661,0,0,1,.04.131,1.2,1.2,0,0,1,.023.235c0,.1.006.241.006.416" transform="translate(269.782 89.444)" fill="#1a1818"/>
      <path id="Path_72889" data-name="Path 72889" d="M255.585,81.862a1.247,1.247,0,0,1-.25.9,1.365,1.365,0,0,1-.926.239,1.313,1.313,0,0,1-.908-.235,1.221,1.221,0,0,1-.246-.885,1.234,1.234,0,0,1,.252-.9,1.35,1.35,0,0,1,.924-.239,1.322,1.322,0,0,1,.908.233,1.228,1.228,0,0,1,.246.885m-.217,13.746a.254.254,0,0,1-.046.154.35.35,0,0,1-.148.108.984.984,0,0,1-.285.069,4.046,4.046,0,0,1-.468.023,3.954,3.954,0,0,1-.458-.023,1.072,1.072,0,0,1-.291-.069.315.315,0,0,1-.148-.108.3.3,0,0,1-.04-.154V85.334a.31.31,0,0,1,.04-.15.322.322,0,0,1,.148-.114,1.006,1.006,0,0,1,.291-.067,3.955,3.955,0,0,1,.458-.023,4.047,4.047,0,0,1,.468.023.927.927,0,0,1,.285.067.358.358,0,0,1,.148.114.259.259,0,0,1,.046.15Z" transform="translate(273.898 87.326)" fill="#1a1818"/>
      <path id="Path_72890" data-name="Path 72890" d="M264.793,93.49a.255.255,0,0,1-.046.154.351.351,0,0,1-.148.108.984.984,0,0,1-.285.069,3.95,3.95,0,0,1-.458.023,4.045,4.045,0,0,1-.468-.023.983.983,0,0,1-.285-.069.35.35,0,0,1-.148-.108.254.254,0,0,1-.046-.154V87.473a5.905,5.905,0,0,0-.137-1.415,2.971,2.971,0,0,0-.4-.924,1.713,1.713,0,0,0-.679-.593,2.148,2.148,0,0,0-.966-.206,2.451,2.451,0,0,0-1.415.5,7.676,7.676,0,0,0-1.484,1.474V93.49a.254.254,0,0,1-.046.154.35.35,0,0,1-.148.108.984.984,0,0,1-.285.069,4.043,4.043,0,0,1-.468.023,3.912,3.912,0,0,1-.456-.023,1.052,1.052,0,0,1-.291-.069.311.311,0,0,1-.15-.108.3.3,0,0,1-.04-.154V83.216a.317.317,0,0,1,.035-.154.293.293,0,0,1,.135-.114.742.742,0,0,1,.264-.069,3.843,3.843,0,0,1,.422-.017,3.915,3.915,0,0,1,.416.017.63.63,0,0,1,.256.069.328.328,0,0,1,.131.114.277.277,0,0,1,.04.154v1.357a6.361,6.361,0,0,1,1.73-1.422,3.737,3.737,0,0,1,1.742-.45,3.887,3.887,0,0,1,1.73.348,3.114,3.114,0,0,1,1.137.93,3.73,3.73,0,0,1,.62,1.365,8.027,8.027,0,0,1,.189,1.878Z" transform="translate(276.805 89.444)" fill="#1a1818"/>
      <path id="Path_72891" data-name="Path 72891" d="M271.024,83.672a1.165,1.165,0,0,1-.108.577.32.32,0,0,1-.279.177h-1.472a2.332,2.332,0,0,1,.558.908,3.37,3.37,0,0,1,.16,1.035,4.035,4.035,0,0,1-.287,1.574,3.119,3.119,0,0,1-.816,1.159,3.591,3.591,0,0,1-1.261.724,4.923,4.923,0,0,1-1.619.252,4.213,4.213,0,0,1-1.193-.164,2.468,2.468,0,0,1-.872-.418,1.832,1.832,0,0,0-.339.468,1.311,1.311,0,0,0-.131.606.783.783,0,0,0,.373.662,1.782,1.782,0,0,0,.987.285l2.683.114a5.419,5.419,0,0,1,1.4.212,3.5,3.5,0,0,1,1.109.535,2.409,2.409,0,0,1,.729.858,2.516,2.516,0,0,1,.262,1.18,3.2,3.2,0,0,1-.3,1.349,3.076,3.076,0,0,1-.908,1.124,4.535,4.535,0,0,1-1.557.764,8.013,8.013,0,0,1-2.24.281,9.23,9.23,0,0,1-2.119-.212,4.586,4.586,0,0,1-1.432-.577,2.221,2.221,0,0,1-.81-.872,2.446,2.446,0,0,1-.252-1.1,3.054,3.054,0,0,1,.092-.731,2.626,2.626,0,0,1,.279-.672,3.458,3.458,0,0,1,.47-.612,5.947,5.947,0,0,1,.643-.577,2.057,2.057,0,0,1-.828-.718,1.754,1.754,0,0,1-.268-.937,2.664,2.664,0,0,1,.287-1.245,4.159,4.159,0,0,1,.708-.982,3.326,3.326,0,0,1-.558-.953,3.506,3.506,0,0,1-.206-1.284,4,4,0,0,1,.3-1.576,3.251,3.251,0,0,1,.822-1.174,3.551,3.551,0,0,1,1.259-.737,4.806,4.806,0,0,1,1.6-.258,7.124,7.124,0,0,1,.872.052,6.191,6.191,0,0,1,.762.144h3.1a.311.311,0,0,1,.289.187,1.249,1.249,0,0,1,.1.577m-2,10.847a1.151,1.151,0,0,0-.541-1.022,2.744,2.744,0,0,0-1.465-.383l-2.662-.092a5.005,5.005,0,0,0-.6.543,2.978,2.978,0,0,0-.371.491,1.711,1.711,0,0,0-.187.462,2.044,2.044,0,0,0-.052.468,1.208,1.208,0,0,0,.753,1.124,4.723,4.723,0,0,0,2.1.383,5.191,5.191,0,0,0,1.432-.167,2.757,2.757,0,0,0,.933-.439,1.6,1.6,0,0,0,.506-.629,1.786,1.786,0,0,0,.154-.741m-.945-8.141a2.237,2.237,0,0,0-.577-1.638,2.2,2.2,0,0,0-1.64-.589,2.268,2.268,0,0,0-.951.183,1.884,1.884,0,0,0-.674.5,2.155,2.155,0,0,0-.4.735,2.888,2.888,0,0,0-.131.874,2.012,2.012,0,0,0,2.194,2.181,2.423,2.423,0,0,0,.97-.179,1.838,1.838,0,0,0,.681-.489,2.089,2.089,0,0,0,.4-.726,2.786,2.786,0,0,0,.133-.855" transform="translate(282.595 89.454)" fill="#1a1818"/>
      <path id="Path_72892" data-name="Path 72892" d="M277.776,93.5a.249.249,0,0,1-.092.206.642.642,0,0,1-.252.1,2.368,2.368,0,0,1-.468.035,2.6,2.6,0,0,1-.475-.035.569.569,0,0,1-.256-.1.254.254,0,0,1-.079-.206V92.475a5.062,5.062,0,0,1-1.5,1.118,3.967,3.967,0,0,1-1.753.4,4.8,4.8,0,0,1-1.465-.21,3.2,3.2,0,0,1-1.12-.612,2.718,2.718,0,0,1-.718-.98,3.242,3.242,0,0,1-.258-1.326,3.05,3.05,0,0,1,.354-1.507,2.979,2.979,0,0,1,1.016-1.062,4.951,4.951,0,0,1,1.621-.633,10.155,10.155,0,0,1,2.159-.212H275.9v-.8a4.074,4.074,0,0,0-.125-1.049,1.8,1.8,0,0,0-.406-.76,1.728,1.728,0,0,0-.724-.456,3.348,3.348,0,0,0-1.1-.154,4.343,4.343,0,0,0-1.249.164,6.682,6.682,0,0,0-.972.366c-.277.133-.51.254-.7.364a.942.942,0,0,1-.416.167.278.278,0,0,1-.16-.046.415.415,0,0,1-.121-.137.664.664,0,0,1-.073-.235,2.051,2.051,0,0,1-.023-.312,1.985,1.985,0,0,1,.04-.452.641.641,0,0,1,.194-.314,2.416,2.416,0,0,1,.531-.348,5.8,5.8,0,0,1,.868-.366,7.741,7.741,0,0,1,1.072-.273,6.374,6.374,0,0,1,1.176-.108,6.118,6.118,0,0,1,1.884.25,3.076,3.076,0,0,1,1.257.737,2.862,2.862,0,0,1,.7,1.205,5.783,5.783,0,0,1,.219,1.678ZM275.9,88.809h-1.609a6.091,6.091,0,0,0-1.349.131,2.8,2.8,0,0,0-.947.389,1.6,1.6,0,0,0-.554.616,1.87,1.87,0,0,0-.177.826,1.654,1.654,0,0,0,.508,1.274,2.006,2.006,0,0,0,1.422.475,2.662,2.662,0,0,0,1.376-.377,6.023,6.023,0,0,0,1.33-1.153Z" transform="translate(291.291 89.444)" fill="#1a1818"/>
      <path id="Path_72893" data-name="Path 72893" d="M282.813,91.92c0,.129,0,.244-.01.337a1.315,1.315,0,0,1-.042.239.768.768,0,0,1-.069.171,1.036,1.036,0,0,1-.181.216,2.89,2.89,0,0,1-.485.356,5.03,5.03,0,0,1-.772.377,5.812,5.812,0,0,1-.93.266,5.139,5.139,0,0,1-1.039.1,4.957,4.957,0,0,1-1.963-.366,3.712,3.712,0,0,1-1.434-1.068,4.812,4.812,0,0,1-.878-1.723,8.325,8.325,0,0,1-.3-2.356,8.136,8.136,0,0,1,.37-2.61,4.915,4.915,0,0,1,1.016-1.786,4,4,0,0,1,1.52-1.032,5.147,5.147,0,0,1,1.888-.337,5.171,5.171,0,0,1,1.8.331,4.035,4.035,0,0,1,.691.341,2.7,2.7,0,0,1,.439.331,1.517,1.517,0,0,1,.189.219.867.867,0,0,1,.085.187,1.3,1.3,0,0,1,.046.246c.008.092.01.206.01.343a1.327,1.327,0,0,1-.1.62.3.3,0,0,1-.252.179.653.653,0,0,1-.393-.189,5.856,5.856,0,0,0-.566-.416,4.243,4.243,0,0,0-.826-.416,3.134,3.134,0,0,0-1.149-.189,2.382,2.382,0,0,0-2.084,1.045,5.32,5.32,0,0,0-.724,3.031,7.12,7.12,0,0,0,.189,1.742,3.557,3.557,0,0,0,.554,1.249,2.252,2.252,0,0,0,.9.747,2.856,2.856,0,0,0,1.216.246,2.94,2.94,0,0,0,1.143-.2,4.811,4.811,0,0,0,.849-.452,7.476,7.476,0,0,0,.606-.445.712.712,0,0,1,.383-.2.207.207,0,0,1,.137.046.351.351,0,0,1,.1.154,1.138,1.138,0,0,1,.058.275c.01.11.017.241.017.393" transform="translate(297.099 89.449)" fill="#1a1818"/>
      <path id="Path_72894" data-name="Path 72894" d="M287.563,91.92c0,.129,0,.244-.01.337a1.312,1.312,0,0,1-.042.239.768.768,0,0,1-.069.171,1.036,1.036,0,0,1-.181.216,2.89,2.89,0,0,1-.485.356,5.028,5.028,0,0,1-.772.377,5.811,5.811,0,0,1-.93.266,5.139,5.139,0,0,1-1.039.1,4.957,4.957,0,0,1-1.963-.366,3.713,3.713,0,0,1-1.434-1.068,4.811,4.811,0,0,1-.878-1.723,8.323,8.323,0,0,1-.3-2.356,8.135,8.135,0,0,1,.37-2.61,4.914,4.914,0,0,1,1.016-1.786,4,4,0,0,1,1.52-1.032,5.147,5.147,0,0,1,1.888-.337,5.171,5.171,0,0,1,1.8.331,4.033,4.033,0,0,1,.691.341,2.7,2.7,0,0,1,.439.331,1.512,1.512,0,0,1,.189.219.864.864,0,0,1,.085.187,1.3,1.3,0,0,1,.046.246c.008.092.01.206.01.343a1.327,1.327,0,0,1-.1.62.3.3,0,0,1-.252.179.654.654,0,0,1-.393-.189,6.122,6.122,0,0,0-.566-.416,4.243,4.243,0,0,0-.826-.416,3.134,3.134,0,0,0-1.149-.189,2.382,2.382,0,0,0-2.084,1.045,5.32,5.32,0,0,0-.724,3.031,7.12,7.12,0,0,0,.189,1.742,3.558,3.558,0,0,0,.554,1.249,2.252,2.252,0,0,0,.9.747,2.856,2.856,0,0,0,1.216.246,2.94,2.94,0,0,0,1.143-.2,4.812,4.812,0,0,0,.849-.452,7.475,7.475,0,0,0,.606-.445.712.712,0,0,1,.383-.2.207.207,0,0,1,.137.046.351.351,0,0,1,.1.154,1.138,1.138,0,0,1,.058.275c.01.11.017.241.017.393" transform="translate(302.236 89.449)" fill="#1a1818"/>
      <path id="Path_72895" data-name="Path 72895" d="M293.676,87.908a.714.714,0,0,1-.733.822h-6.767a6.343,6.343,0,0,0,.171,1.54,2.963,2.963,0,0,0,.574,1.176,2.57,2.57,0,0,0,1.045.754,4.164,4.164,0,0,0,1.572.262,6.494,6.494,0,0,0,1.307-.119,7.768,7.768,0,0,0,.993-.269c.277-.1.51-.189.689-.269a1.1,1.1,0,0,1,.408-.121.286.286,0,0,1,.144.04.269.269,0,0,1,.1.121.9.9,0,0,1,.052.223,3.207,3.207,0,0,1,.017.348,2.358,2.358,0,0,1-.01.258c-.01.071-.019.137-.029.194a.524.524,0,0,1-.058.154.578.578,0,0,1-.1.131,1.516,1.516,0,0,1-.371.206,5.58,5.58,0,0,1-.8.279,10.719,10.719,0,0,1-1.137.246,8.458,8.458,0,0,1-1.376.108,6.343,6.343,0,0,1-2.221-.354,4.126,4.126,0,0,1-1.6-1.049,4.5,4.5,0,0,1-.983-1.748,8.144,8.144,0,0,1-.331-2.442,7.691,7.691,0,0,1,.343-2.381,4.993,4.993,0,0,1,.987-1.792,4.328,4.328,0,0,1,1.559-1.13,5.1,5.1,0,0,1,2.042-.393,4.908,4.908,0,0,1,2.061.387,3.9,3.9,0,0,1,1.4,1.045,4.176,4.176,0,0,1,.806,1.54,6.777,6.777,0,0,1,.256,1.89Zm-1.894-.56a3.434,3.434,0,0,0-.66-2.329,2.524,2.524,0,0,0-2.063-.845,2.75,2.75,0,0,0-1.228.262,2.64,2.64,0,0,0-.885.7,3.138,3.138,0,0,0-.554,1.01,4.228,4.228,0,0,0-.217,1.205Z" transform="translate(307.391 89.444)" fill="#1a1818"/>
      <path id="Path_72896" data-name="Path 72896" d="M297.02,90.693a3.268,3.268,0,0,1-.291,1.405,2.872,2.872,0,0,1-.828,1.039,3.723,3.723,0,0,1-1.278.639,5.754,5.754,0,0,1-1.632.216,6.228,6.228,0,0,1-1.045-.085,6.013,6.013,0,0,1-.891-.216,5.107,5.107,0,0,1-.668-.275,1.906,1.906,0,0,1-.4-.256.66.66,0,0,1-.181-.321,2.191,2.191,0,0,1-.058-.56,2.534,2.534,0,0,1,.023-.364,1.116,1.116,0,0,1,.058-.239.249.249,0,0,1,.1-.131.263.263,0,0,1,.144-.042.826.826,0,0,1,.371.154c.162.1.364.214.606.337a5.386,5.386,0,0,0,.849.337,3.816,3.816,0,0,0,1.13.154,3.389,3.389,0,0,0,.868-.1,2.065,2.065,0,0,0,.674-.3,1.325,1.325,0,0,0,.439-.508,1.618,1.618,0,0,0,.154-.731,1.191,1.191,0,0,0-.223-.731,2.189,2.189,0,0,0-.587-.525,4.8,4.8,0,0,0-.822-.406c-.306-.117-.62-.241-.943-.371a10,10,0,0,1-.947-.439,3.557,3.557,0,0,1-.828-.6,2.755,2.755,0,0,1-.587-.845A2.818,2.818,0,0,1,290,85.749a2.95,2.95,0,0,1,.233-1.159,2.714,2.714,0,0,1,.7-.97,3.533,3.533,0,0,1,1.17-.668,4.832,4.832,0,0,1,1.638-.25,5.236,5.236,0,0,1,.822.067,5.575,5.575,0,0,1,.741.173,3.57,3.57,0,0,1,.566.223,2.5,2.5,0,0,1,.354.21.634.634,0,0,1,.16.16.522.522,0,0,1,.056.154c.012.056.023.129.033.21a2.152,2.152,0,0,1,.019.31,2.611,2.611,0,0,1-.019.335.866.866,0,0,1-.056.235.289.289,0,0,1-.1.131.217.217,0,0,1-.125.04.634.634,0,0,1-.3-.125,3.8,3.8,0,0,0-.5-.269,5.774,5.774,0,0,0-.724-.269,3.328,3.328,0,0,0-.953-.125,2.954,2.954,0,0,0-.845.108,1.569,1.569,0,0,0-.6.308,1.3,1.3,0,0,0-.354.473,1.485,1.485,0,0,0-.121.6,1.209,1.209,0,0,0,.229.747,2.2,2.2,0,0,0,.593.531,5.112,5.112,0,0,0,.835.41l.953.377q.484.194.957.435a3.536,3.536,0,0,1,.841.583,2.629,2.629,0,0,1,.587.822,2.687,2.687,0,0,1,.223,1.141" transform="translate(313.364 89.444)" fill="#1a1818"/>
      <path id="Path_72897" data-name="Path 72897" d="M301.414,90.693a3.267,3.267,0,0,1-.291,1.405,2.87,2.87,0,0,1-.828,1.039,3.723,3.723,0,0,1-1.278.639,5.755,5.755,0,0,1-1.632.216,6.23,6.23,0,0,1-1.045-.085,6.012,6.012,0,0,1-.891-.216,5.107,5.107,0,0,1-.668-.275,1.905,1.905,0,0,1-.4-.256.661.661,0,0,1-.181-.321,2.193,2.193,0,0,1-.058-.56,2.524,2.524,0,0,1,.023-.364,1.116,1.116,0,0,1,.058-.239.239.239,0,0,1,.1-.131.263.263,0,0,1,.144-.042.826.826,0,0,1,.37.154c.162.1.364.214.606.337a5.383,5.383,0,0,0,.849.337,3.816,3.816,0,0,0,1.13.154,3.389,3.389,0,0,0,.868-.1,2.064,2.064,0,0,0,.674-.3,1.324,1.324,0,0,0,.439-.508,1.617,1.617,0,0,0,.154-.731,1.191,1.191,0,0,0-.223-.731,2.189,2.189,0,0,0-.587-.525,4.8,4.8,0,0,0-.822-.406c-.306-.117-.62-.241-.943-.371a10,10,0,0,1-.947-.439,3.556,3.556,0,0,1-.828-.6,2.756,2.756,0,0,1-.587-.845,2.817,2.817,0,0,1-.223-1.176,2.951,2.951,0,0,1,.233-1.159,2.716,2.716,0,0,1,.7-.97,3.533,3.533,0,0,1,1.17-.668,4.832,4.832,0,0,1,1.638-.25,5.235,5.235,0,0,1,.822.067,5.569,5.569,0,0,1,.741.173,3.57,3.57,0,0,1,.566.223,2.507,2.507,0,0,1,.354.21.637.637,0,0,1,.16.16.525.525,0,0,1,.056.154c.01.056.023.129.033.21a2.143,2.143,0,0,1,.019.31,2.6,2.6,0,0,1-.019.335.865.865,0,0,1-.056.235.289.289,0,0,1-.1.131.217.217,0,0,1-.125.04.634.634,0,0,1-.3-.125,3.8,3.8,0,0,0-.5-.269,5.774,5.774,0,0,0-.724-.269,3.328,3.328,0,0,0-.953-.125,2.954,2.954,0,0,0-.845.108,1.569,1.569,0,0,0-.6.308,1.3,1.3,0,0,0-.354.473,1.485,1.485,0,0,0-.121.6,1.209,1.209,0,0,0,.229.747,2.2,2.2,0,0,0,.593.531,5.107,5.107,0,0,0,.835.41l.953.377q.484.194.958.435a3.539,3.539,0,0,1,.841.583,2.628,2.628,0,0,1,.587.822,2.687,2.687,0,0,1,.223,1.141" transform="translate(318.116 89.444)" fill="#1a1818"/>
      <path id="Path_72898" data-name="Path 72898" d="M307.524,94.083a2.325,2.325,0,0,1-.046.525.59.59,0,0,1-.137.285.893.893,0,0,1-.273.173,2.252,2.252,0,0,1-.418.131c-.156.033-.323.062-.5.085a4.057,4.057,0,0,1-.525.033,3.993,3.993,0,0,1-1.372-.21,2.2,2.2,0,0,1-.935-.639,2.649,2.649,0,0,1-.531-1.084,6.28,6.28,0,0,1-.166-1.549V85.828h-1.438a.306.306,0,0,1-.275-.181,1.283,1.283,0,0,1-.1-.6,1.825,1.825,0,0,1,.029-.364,1.02,1.02,0,0,1,.073-.246.294.294,0,0,1,.121-.137.362.362,0,0,1,.164-.04h1.428V81.821a.3.3,0,0,1,.04-.148.343.343,0,0,1,.148-.121.986.986,0,0,1,.291-.073,3.953,3.953,0,0,1,.458-.023,4.046,4.046,0,0,1,.468.023.908.908,0,0,1,.285.073.385.385,0,0,1,.148.121.254.254,0,0,1,.046.148v2.444h2.637a.332.332,0,0,1,.16.04.315.315,0,0,1,.119.137.743.743,0,0,1,.075.246,2.554,2.554,0,0,1,.023.364,1.283,1.283,0,0,1-.1.6.305.305,0,0,1-.275.181H304.51v5.732a3.275,3.275,0,0,0,.314,1.6,1.182,1.182,0,0,0,1.124.543,1.886,1.886,0,0,0,.468-.052,3.561,3.561,0,0,0,.364-.108c.106-.037.2-.073.275-.108a.535.535,0,0,1,.206-.052.228.228,0,0,1,.108.029.2.2,0,0,1,.079.108,1.142,1.142,0,0,1,.052.216,2.229,2.229,0,0,1,.023.343" transform="translate(325.33 88.097)" fill="#1a1818"/>
      <path id="Path_72899" data-name="Path 72899" d="M315.051,88.24a7.763,7.763,0,0,1-.331,2.31,5.1,5.1,0,0,1-.989,1.821,4.425,4.425,0,0,1-1.642,1.193,5.724,5.724,0,0,1-2.29.429,5.9,5.9,0,0,1-2.208-.377,4.046,4.046,0,0,1-1.572-1.1,4.619,4.619,0,0,1-.935-1.746,8.082,8.082,0,0,1-.308-2.329,7.837,7.837,0,0,1,.325-2.31,5.022,5.022,0,0,1,.982-1.821,4.41,4.41,0,0,1,1.638-1.189,5.769,5.769,0,0,1,2.294-.423,5.946,5.946,0,0,1,2.208.377,4.068,4.068,0,0,1,1.572,1.1,4.686,4.686,0,0,1,.941,1.746,7.972,7.972,0,0,1,.314,2.319m-1.952.125a7.777,7.777,0,0,0-.154-1.576,3.948,3.948,0,0,0-.514-1.3,2.545,2.545,0,0,0-.968-.885,3.209,3.209,0,0,0-1.522-.327,3.243,3.243,0,0,0-1.442.3,2.64,2.64,0,0,0-1,.839,3.8,3.8,0,0,0-.581,1.284,6.513,6.513,0,0,0-.191,1.621,7.846,7.846,0,0,0,.154,1.586,3.751,3.751,0,0,0,.52,1.3,2.614,2.614,0,0,0,.974.878,3.181,3.181,0,0,0,1.519.327,3.252,3.252,0,0,0,1.44-.3,2.679,2.679,0,0,0,1-.833,3.643,3.643,0,0,0,.574-1.28,6.762,6.762,0,0,0,.185-1.632" transform="translate(329.619 89.442)" fill="#1a1818"/>
      <path id="Path_72900" data-name="Path 72900" d="M328.826,93.49a.255.255,0,0,1-.046.154.351.351,0,0,1-.148.108.984.984,0,0,1-.285.069,3.95,3.95,0,0,1-.458.023,4.044,4.044,0,0,1-.468-.023,1.071,1.071,0,0,1-.291-.069.375.375,0,0,1-.154-.108.253.253,0,0,1-.044-.154V87.246a5.655,5.655,0,0,0-.115-1.189,2.754,2.754,0,0,0-.366-.924,1.692,1.692,0,0,0-.639-.593,1.922,1.922,0,0,0-.914-.206,2.161,2.161,0,0,0-1.307.5,9.111,9.111,0,0,0-1.445,1.474V93.49a.254.254,0,0,1-.046.154.348.348,0,0,1-.154.108,1.054,1.054,0,0,1-.289.069,3.95,3.95,0,0,1-.458.023,3.992,3.992,0,0,1-.452-.023,1.067,1.067,0,0,1-.3-.069.3.3,0,0,1-.148-.108.284.284,0,0,1-.042-.154V87.246a5.245,5.245,0,0,0-.125-1.189,2.9,2.9,0,0,0-.377-.924,1.722,1.722,0,0,0-.633-.593,1.885,1.885,0,0,0-.908-.206,2.182,2.182,0,0,0-1.313.5,8.468,8.468,0,0,0-1.438,1.474V93.49a.254.254,0,0,1-.046.154.358.358,0,0,1-.15.108.966.966,0,0,1-.285.069,4.044,4.044,0,0,1-.468.023,3.937,3.937,0,0,1-.456-.023,1.053,1.053,0,0,1-.291-.069.254.254,0,0,1-.187-.262V83.216a.317.317,0,0,1,.033-.154.289.289,0,0,1,.137-.114.73.73,0,0,1,.262-.069,5.287,5.287,0,0,1,.839,0,.632.632,0,0,1,.258.069.359.359,0,0,1,.131.114.3.3,0,0,1,.04.154v1.357a6.63,6.63,0,0,1,1.684-1.422,3.388,3.388,0,0,1,1.651-.45,4.064,4.064,0,0,1,1.147.148,3.082,3.082,0,0,1,.9.416,2.763,2.763,0,0,1,.662.639,3.752,3.752,0,0,1,.458.828,10.432,10.432,0,0,1,.976-.947,5.691,5.691,0,0,1,.891-.629,3.534,3.534,0,0,1,.833-.348,3.22,3.22,0,0,1,.816-.108,3.615,3.615,0,0,1,1.667.348,3.027,3.027,0,0,1,1.091.93,3.726,3.726,0,0,1,.593,1.365,7.524,7.524,0,0,1,.177,1.649Z" transform="translate(339.145 89.444)" fill="#1a1818"/>
      <path id="Path_72901" data-name="Path 72901" d="M331.681,87.908a.714.714,0,0,1-.733.822h-6.767a6.343,6.343,0,0,0,.171,1.54,2.962,2.962,0,0,0,.575,1.176,2.57,2.57,0,0,0,1.045.754,4.163,4.163,0,0,0,1.572.262,6.494,6.494,0,0,0,1.307-.119,7.767,7.767,0,0,0,.993-.269c.277-.1.508-.189.689-.269a1.1,1.1,0,0,1,.408-.121.286.286,0,0,1,.144.04.269.269,0,0,1,.1.121.9.9,0,0,1,.052.223,3.19,3.19,0,0,1,.017.348,2.341,2.341,0,0,1-.01.258c-.01.071-.019.137-.029.194a.525.525,0,0,1-.058.154.577.577,0,0,1-.1.131,1.513,1.513,0,0,1-.371.206,5.581,5.581,0,0,1-.8.279,10.719,10.719,0,0,1-1.137.246,8.457,8.457,0,0,1-1.376.108,6.343,6.343,0,0,1-2.221-.354,4.127,4.127,0,0,1-1.6-1.049,4.5,4.5,0,0,1-.982-1.748,8.144,8.144,0,0,1-.331-2.442,7.691,7.691,0,0,1,.343-2.381,4.994,4.994,0,0,1,.987-1.792,4.328,4.328,0,0,1,1.559-1.13,5.1,5.1,0,0,1,2.042-.393,4.908,4.908,0,0,1,2.061.387,3.9,3.9,0,0,1,1.4,1.045,4.175,4.175,0,0,1,.805,1.54,6.775,6.775,0,0,1,.256,1.89Zm-1.894-.56a3.433,3.433,0,0,0-.66-2.329,2.524,2.524,0,0,0-2.063-.845,2.75,2.75,0,0,0-1.228.262,2.64,2.64,0,0,0-.885.7,3.14,3.14,0,0,0-.554,1.01,4.229,4.229,0,0,0-.216,1.205Z" transform="translate(348.493 89.444)" fill="#1a1818"/>
      <path id="Path_72902" data-name="Path 72902" d="M337.285,95.976a.309.309,0,0,1-.037.16.256.256,0,0,1-.139.108,1.129,1.129,0,0,1-.254.062,2.954,2.954,0,0,1-.387.023,3.031,3.031,0,0,1-.4-.023,1.249,1.249,0,0,1-.262-.062.322.322,0,0,1-.15-.108.3.3,0,0,1-.046-.16V94.617a6.924,6.924,0,0,1-1.684,1.37,3.812,3.812,0,0,1-1.913.491,3.943,3.943,0,0,1-1.927-.439,3.619,3.619,0,0,1-1.295-1.186,5.235,5.235,0,0,1-.726-1.759,9.663,9.663,0,0,1-.227-2.129,9.205,9.205,0,0,1,.283-2.392,5.375,5.375,0,0,1,.847-1.821,3.83,3.83,0,0,1,1.384-1.159,4.308,4.308,0,0,1,1.913-.4,3.488,3.488,0,0,1,1.651.393,5.75,5.75,0,0,1,1.48,1.159V80.768a.357.357,0,0,1,.037-.154.276.276,0,0,1,.156-.114,2.137,2.137,0,0,1,.289-.069,3,3,0,0,1,.452-.027,3.216,3.216,0,0,1,.47.027,1.656,1.656,0,0,1,.283.069.348.348,0,0,1,.156.114.28.28,0,0,1,.048.154Zm-1.892-7.227a7.492,7.492,0,0,0-1.48-1.445,2.572,2.572,0,0,0-1.49-.5,2.1,2.1,0,0,0-1.22.341,2.647,2.647,0,0,0-.818.9,4.462,4.462,0,0,0-.456,1.268,7.358,7.358,0,0,0-.144,1.438,9.353,9.353,0,0,0,.123,1.52,4.328,4.328,0,0,0,.414,1.318,2.488,2.488,0,0,0,.789.926,2.081,2.081,0,0,0,1.232.348,2.614,2.614,0,0,0,.724-.1,2.7,2.7,0,0,0,.716-.343,5.683,5.683,0,0,0,.764-.622,9.478,9.478,0,0,0,.845-.941Z" transform="translate(354.556 86.958)" fill="#1a1818"/>
      <path id="Path_72903" data-name="Path 72903" d="M336.268,81.862a1.247,1.247,0,0,1-.25.9,1.364,1.364,0,0,1-.926.239,1.313,1.313,0,0,1-.908-.235,1.221,1.221,0,0,1-.246-.885,1.234,1.234,0,0,1,.252-.9,1.351,1.351,0,0,1,.924-.239,1.322,1.322,0,0,1,.908.233,1.228,1.228,0,0,1,.246.885m-.216,13.746a.255.255,0,0,1-.046.154.35.35,0,0,1-.148.108.984.984,0,0,1-.285.069,4.045,4.045,0,0,1-.468.023,3.952,3.952,0,0,1-.458-.023,1.035,1.035,0,0,1-.289-.069.311.311,0,0,1-.15-.108.3.3,0,0,1-.04-.154V85.334a.31.31,0,0,1,.04-.15.317.317,0,0,1,.15-.114.974.974,0,0,1,.289-.067,3.954,3.954,0,0,1,.458-.023,4.046,4.046,0,0,1,.468.023.927.927,0,0,1,.285.067.358.358,0,0,1,.148.114.26.26,0,0,1,.046.15Z" transform="translate(361.158 87.326)" fill="#1a1818"/>
      <path id="Path_72904" data-name="Path 72904" d="M344.388,91.92c0,.129,0,.244-.01.337a1.506,1.506,0,0,1-.044.239.768.768,0,0,1-.069.171.974.974,0,0,1-.181.216,2.89,2.89,0,0,1-.485.356,4.935,4.935,0,0,1-.772.377,5.749,5.749,0,0,1-.93.266,5.139,5.139,0,0,1-1.039.1,4.939,4.939,0,0,1-1.961-.366,3.7,3.7,0,0,1-1.436-1.068,4.81,4.81,0,0,1-.878-1.723,8.323,8.323,0,0,1-.3-2.356,8.073,8.073,0,0,1,.373-2.61,4.881,4.881,0,0,1,1.014-1.786,4,4,0,0,1,1.52-1.032,5.15,5.15,0,0,1,1.89-.337,5.171,5.171,0,0,1,1.8.331,4.033,4.033,0,0,1,.691.341,2.615,2.615,0,0,1,.439.331,1.513,1.513,0,0,1,.189.219.777.777,0,0,1,.085.187,1.3,1.3,0,0,1,.046.246q.012.137.012.343a1.322,1.322,0,0,1-.1.62.294.294,0,0,1-.252.179.654.654,0,0,1-.393-.189,5.848,5.848,0,0,0-.566-.416,4.243,4.243,0,0,0-.826-.416,3.134,3.134,0,0,0-1.149-.189,2.385,2.385,0,0,0-2.084,1.045,5.32,5.32,0,0,0-.724,3.031,7.12,7.12,0,0,0,.189,1.742,3.558,3.558,0,0,0,.554,1.249,2.244,2.244,0,0,0,.9.747,2.84,2.84,0,0,0,1.214.246,2.95,2.95,0,0,0,1.145-.2,4.791,4.791,0,0,0,.847-.452c.241-.162.445-.31.608-.445a.7.7,0,0,1,.381-.2.212.212,0,0,1,.139.046.349.349,0,0,1,.094.154,1.141,1.141,0,0,1,.058.275c.01.11.019.241.019.393" transform="translate(363.691 89.449)" fill="#1a1818"/>
      <path id="Path_72905" data-name="Path 72905" d="M343.6,81.862a1.246,1.246,0,0,1-.25.9,1.364,1.364,0,0,1-.926.239,1.313,1.313,0,0,1-.908-.235,1.221,1.221,0,0,1-.246-.885,1.234,1.234,0,0,1,.252-.9,1.351,1.351,0,0,1,.924-.239,1.322,1.322,0,0,1,.908.233,1.228,1.228,0,0,1,.246.885m-.216,13.746a.255.255,0,0,1-.046.154.351.351,0,0,1-.148.108.984.984,0,0,1-.285.069,4.045,4.045,0,0,1-.468.023,3.953,3.953,0,0,1-.458-.023,1.036,1.036,0,0,1-.289-.069.311.311,0,0,1-.15-.108.3.3,0,0,1-.04-.154V85.334a.31.31,0,0,1,.04-.15.318.318,0,0,1,.15-.114.975.975,0,0,1,.289-.067,3.955,3.955,0,0,1,.458-.023A4.046,4.046,0,0,1,342.9,85a.927.927,0,0,1,.285.067.359.359,0,0,1,.148.114.26.26,0,0,1,.046.15Z" transform="translate(369.083 87.326)" fill="#1a1818"/>
      <path id="Path_72906" data-name="Path 72906" d="M352.8,93.49a.255.255,0,0,1-.046.154.35.35,0,0,1-.148.108.983.983,0,0,1-.285.069,3.95,3.95,0,0,1-.458.023,4.043,4.043,0,0,1-.468-.023.983.983,0,0,1-.285-.069.35.35,0,0,1-.148-.108.255.255,0,0,1-.046-.154V87.473a5.9,5.9,0,0,0-.137-1.415,2.969,2.969,0,0,0-.4-.924,1.712,1.712,0,0,0-.679-.593,2.149,2.149,0,0,0-.966-.206,2.452,2.452,0,0,0-1.415.5,7.677,7.677,0,0,0-1.484,1.474V93.49a.255.255,0,0,1-.046.154.351.351,0,0,1-.148.108.984.984,0,0,1-.285.069,4.043,4.043,0,0,1-.468.023,3.912,3.912,0,0,1-.456-.023,1.052,1.052,0,0,1-.291-.069.311.311,0,0,1-.15-.108.3.3,0,0,1-.039-.154V83.216a.317.317,0,0,1,.035-.154.292.292,0,0,1,.135-.114.742.742,0,0,1,.264-.069,3.846,3.846,0,0,1,.423-.017,3.915,3.915,0,0,1,.416.017.63.63,0,0,1,.256.069.329.329,0,0,1,.131.114.278.278,0,0,1,.04.154v1.357a6.36,6.36,0,0,1,1.73-1.422,3.738,3.738,0,0,1,1.742-.45,3.886,3.886,0,0,1,1.73.348,3.113,3.113,0,0,1,1.137.93,3.767,3.767,0,0,1,.622,1.365,8.156,8.156,0,0,1,.187,1.878Z" transform="translate(371.989 89.444)" fill="#1a1818"/>
      <path id="Path_72907" data-name="Path 72907" d="M358.979,87.908a.714.714,0,0,1-.733.822h-6.767a6.343,6.343,0,0,0,.171,1.54,2.963,2.963,0,0,0,.574,1.176,2.57,2.57,0,0,0,1.045.754,4.163,4.163,0,0,0,1.572.262,6.494,6.494,0,0,0,1.307-.119,7.765,7.765,0,0,0,.993-.269c.277-.1.508-.189.689-.269a1.1,1.1,0,0,1,.408-.121.286.286,0,0,1,.144.04.27.27,0,0,1,.1.121.9.9,0,0,1,.052.223,3.191,3.191,0,0,1,.017.348,2.36,2.36,0,0,1-.01.258c-.01.071-.019.137-.029.194a.527.527,0,0,1-.058.154.574.574,0,0,1-.1.131,1.516,1.516,0,0,1-.371.206,5.583,5.583,0,0,1-.8.279,10.719,10.719,0,0,1-1.137.246,8.458,8.458,0,0,1-1.376.108,6.343,6.343,0,0,1-2.221-.354,4.126,4.126,0,0,1-1.6-1.049,4.5,4.5,0,0,1-.982-1.748,8.14,8.14,0,0,1-.331-2.442,7.693,7.693,0,0,1,.343-2.381,4.994,4.994,0,0,1,.987-1.792,4.327,4.327,0,0,1,1.559-1.13,5.1,5.1,0,0,1,2.042-.393,4.907,4.907,0,0,1,2.061.387,3.9,3.9,0,0,1,1.4,1.045,4.175,4.175,0,0,1,.806,1.54,6.777,6.777,0,0,1,.256,1.89Zm-1.894-.56a3.434,3.434,0,0,0-.66-2.329,2.524,2.524,0,0,0-2.063-.845,2.75,2.75,0,0,0-1.228.262,2.64,2.64,0,0,0-.885.7,3.139,3.139,0,0,0-.554,1.01,4.223,4.223,0,0,0-.217,1.205Z" transform="translate(378.016 89.444)" fill="#1a1818"/>
      <path id="Path_72908" data-name="Path 72908" d="M362.323,90.693a3.267,3.267,0,0,1-.291,1.405,2.871,2.871,0,0,1-.828,1.039,3.723,3.723,0,0,1-1.278.639,5.754,5.754,0,0,1-1.632.216,6.23,6.23,0,0,1-1.045-.085,6.011,6.011,0,0,1-.891-.216,5.107,5.107,0,0,1-.668-.275,1.9,1.9,0,0,1-.4-.256.661.661,0,0,1-.181-.321,2.193,2.193,0,0,1-.058-.56,2.524,2.524,0,0,1,.023-.364,1.116,1.116,0,0,1,.058-.239.25.25,0,0,1,.1-.131.263.263,0,0,1,.144-.042.826.826,0,0,1,.37.154c.162.1.364.214.606.337a5.384,5.384,0,0,0,.849.337,3.816,3.816,0,0,0,1.13.154,3.389,3.389,0,0,0,.868-.1,2.065,2.065,0,0,0,.674-.3,1.324,1.324,0,0,0,.439-.508,1.617,1.617,0,0,0,.154-.731,1.191,1.191,0,0,0-.223-.731,2.189,2.189,0,0,0-.587-.525,4.8,4.8,0,0,0-.822-.406c-.306-.117-.62-.241-.943-.371a10,10,0,0,1-.947-.439,3.557,3.557,0,0,1-.828-.6,2.756,2.756,0,0,1-.587-.845,2.817,2.817,0,0,1-.223-1.176,2.951,2.951,0,0,1,.233-1.159,2.714,2.714,0,0,1,.7-.97,3.532,3.532,0,0,1,1.17-.668,4.831,4.831,0,0,1,1.638-.25,5.234,5.234,0,0,1,.822.067,5.574,5.574,0,0,1,.741.173,3.572,3.572,0,0,1,.566.223,2.5,2.5,0,0,1,.354.21.635.635,0,0,1,.16.16.522.522,0,0,1,.056.154c.01.056.023.129.033.21a2.142,2.142,0,0,1,.019.31,2.6,2.6,0,0,1-.019.335.864.864,0,0,1-.056.235.291.291,0,0,1-.1.131.218.218,0,0,1-.125.04.634.634,0,0,1-.3-.125,3.8,3.8,0,0,0-.5-.269,5.779,5.779,0,0,0-.724-.269,3.328,3.328,0,0,0-.953-.125,2.954,2.954,0,0,0-.845.108,1.569,1.569,0,0,0-.6.308,1.3,1.3,0,0,0-.354.473,1.485,1.485,0,0,0-.121.6,1.209,1.209,0,0,0,.229.747,2.2,2.2,0,0,0,.593.531,5.112,5.112,0,0,0,.835.41l.953.377q.484.194.958.435a3.538,3.538,0,0,1,.841.583,2.628,2.628,0,0,1,.587.822,2.687,2.687,0,0,1,.223,1.141" transform="translate(383.989 89.444)" fill="#1a1818"/>
      <path id="Path_72909" data-name="Path 72909" d="M371.557,83.672a1.165,1.165,0,0,1-.108.577.323.323,0,0,1-.279.177H369.7a2.315,2.315,0,0,1,.56.908,3.372,3.372,0,0,1,.16,1.035,4.033,4.033,0,0,1-.287,1.574,3.141,3.141,0,0,1-.816,1.159,3.608,3.608,0,0,1-1.261.724,4.927,4.927,0,0,1-1.621.252,4.223,4.223,0,0,1-1.193-.164,2.485,2.485,0,0,1-.872-.418,1.827,1.827,0,0,0-.337.468,1.311,1.311,0,0,0-.131.606.786.786,0,0,0,.371.662,1.793,1.793,0,0,0,.987.285l2.683.114a5.435,5.435,0,0,1,1.405.212,3.491,3.491,0,0,1,1.107.535,2.435,2.435,0,0,1,.731.858,2.541,2.541,0,0,1,.262,1.18,3.2,3.2,0,0,1-.3,1.349,3.1,3.1,0,0,1-.908,1.124,4.563,4.563,0,0,1-1.559.764,7.987,7.987,0,0,1-2.238.281,9.217,9.217,0,0,1-2.119-.212,4.586,4.586,0,0,1-1.432-.577,2.207,2.207,0,0,1-.81-.872,2.446,2.446,0,0,1-.252-1.1,2.951,2.951,0,0,1,.092-.731,2.625,2.625,0,0,1,.279-.672,3.442,3.442,0,0,1,.468-.612,6.181,6.181,0,0,1,.645-.577,2.043,2.043,0,0,1-.828-.718,1.753,1.753,0,0,1-.269-.937,2.639,2.639,0,0,1,.287-1.245,4.1,4.1,0,0,1,.708-.982,3.334,3.334,0,0,1-.56-.953,3.549,3.549,0,0,1-.206-1.284,4,4,0,0,1,.3-1.576,3.276,3.276,0,0,1,.822-1.174,3.578,3.578,0,0,1,1.261-.737,4.794,4.794,0,0,1,1.6-.258,7.158,7.158,0,0,1,.874.052,6.086,6.086,0,0,1,.76.144h3.106a.311.311,0,0,1,.289.187,1.276,1.276,0,0,1,.1.577m-2,10.847a1.151,1.151,0,0,0-.541-1.022,2.752,2.752,0,0,0-1.467-.383l-2.66-.092a4.861,4.861,0,0,0-.6.543,2.863,2.863,0,0,0-.37.491,1.656,1.656,0,0,0-.189.462,2.166,2.166,0,0,0-.05.468,1.208,1.208,0,0,0,.754,1.124,4.723,4.723,0,0,0,2.1.383,5.192,5.192,0,0,0,1.432-.167,2.746,2.746,0,0,0,.93-.439,1.587,1.587,0,0,0,.508-.629,1.818,1.818,0,0,0,.154-.741m-.947-8.141a2.237,2.237,0,0,0-.577-1.638,2.195,2.195,0,0,0-1.638-.589,2.285,2.285,0,0,0-.953.183,1.884,1.884,0,0,0-.674.5,2.151,2.151,0,0,0-.4.735,2.886,2.886,0,0,0-.131.874,2.009,2.009,0,0,0,2.192,2.181,2.433,2.433,0,0,0,.972-.179,1.83,1.83,0,0,0,.679-.489,2.094,2.094,0,0,0,.4-.726,2.787,2.787,0,0,0,.131-.855" transform="translate(391.322 89.454)" fill="#1a1818"/>
      <path id="Path_72910" data-name="Path 72910" d="M369.55,96a.255.255,0,0,1-.046.154.35.35,0,0,1-.148.108.984.984,0,0,1-.285.069,4.042,4.042,0,0,1-.468.023,3.95,3.95,0,0,1-.458-.023,1.035,1.035,0,0,1-.289-.069.311.311,0,0,1-.15-.108.3.3,0,0,1-.04-.154V80.746a.333.333,0,0,1,.04-.16.3.3,0,0,1,.15-.112.967.967,0,0,1,.289-.069,3.957,3.957,0,0,1,.458-.023,4.05,4.05,0,0,1,.468.023.921.921,0,0,1,.285.069.339.339,0,0,1,.148.112.279.279,0,0,1,.046.16Z" transform="translate(397.634 86.934)" fill="#1a1818"/>
      <path id="Path_72911" data-name="Path 72911" d="M380.174,88.24a7.832,7.832,0,0,1-.331,2.31,5.162,5.162,0,0,1-.989,1.821,4.432,4.432,0,0,1-1.644,1.193,5.717,5.717,0,0,1-2.29.429,5.912,5.912,0,0,1-2.208-.377,4.039,4.039,0,0,1-1.569-1.1,4.589,4.589,0,0,1-.935-1.746,8.08,8.08,0,0,1-.31-2.329,7.834,7.834,0,0,1,.327-2.31,5.02,5.02,0,0,1,.98-1.821,4.436,4.436,0,0,1,1.64-1.189,5.766,5.766,0,0,1,2.292-.423,5.95,5.95,0,0,1,2.211.377,4.068,4.068,0,0,1,1.572,1.1,4.745,4.745,0,0,1,.941,1.746,7.969,7.969,0,0,1,.314,2.319m-1.952.125a7.933,7.933,0,0,0-.154-1.576,3.947,3.947,0,0,0-.514-1.3,2.544,2.544,0,0,0-.968-.885,3.68,3.68,0,0,0-2.966-.029,2.618,2.618,0,0,0-1,.839,3.807,3.807,0,0,0-.583,1.284,6.513,6.513,0,0,0-.189,1.621A8,8,0,0,0,372,89.905a3.835,3.835,0,0,0,.52,1.3,2.6,2.6,0,0,0,.976.878,3.17,3.17,0,0,0,1.52.327,3.243,3.243,0,0,0,1.438-.3,2.662,2.662,0,0,0,1-.833,3.607,3.607,0,0,0,.575-1.28,6.759,6.759,0,0,0,.187-1.632" transform="translate(400.048 89.442)" fill="#1a1818"/>
      <path id="Path_72912" data-name="Path 72912" d="M385.621,90.726a9.142,9.142,0,0,1-.291,2.4,5.328,5.328,0,0,1-.856,1.821,3.741,3.741,0,0,1-1.388,1.153,4.255,4.255,0,0,1-1.884.4,4.007,4.007,0,0,1-.908-.1,3.3,3.3,0,0,1-.816-.314,5.187,5.187,0,0,1-.8-.55,9.967,9.967,0,0,1-.845-.8V96a.279.279,0,0,1-.046.16.306.306,0,0,1-.148.108,1.278,1.278,0,0,1-.256.062,3.354,3.354,0,0,1-.783,0,1.28,1.28,0,0,1-.262-.062.243.243,0,0,1-.137-.108.357.357,0,0,1-.035-.16V80.747a.312.312,0,0,1,.042-.16.3.3,0,0,1,.148-.114,1.052,1.052,0,0,1,.291-.069,4.44,4.44,0,0,1,.456-.023,4.581,4.581,0,0,1,.468.023.983.983,0,0,1,.285.069.342.342,0,0,1,.148.114.264.264,0,0,1,.046.16V86.9a7.907,7.907,0,0,1,.887-.787,5.268,5.268,0,0,1,.839-.52,3.67,3.67,0,0,1,.822-.291,4.139,4.139,0,0,1,.866-.09,3.868,3.868,0,0,1,1.913.443,3.7,3.7,0,0,1,1.29,1.195,5.174,5.174,0,0,1,.724,1.753,9.581,9.581,0,0,1,.229,2.123m-1.953.216a9.426,9.426,0,0,0-.121-1.53,4.269,4.269,0,0,0-.418-1.313,2.581,2.581,0,0,0-.793-.918,2.093,2.093,0,0,0-1.23-.35,2.591,2.591,0,0,0-.722.1,2.783,2.783,0,0,0-.726.341,5.532,5.532,0,0,0-.762.618,8.794,8.794,0,0,0-.845.947v4.1a7.816,7.816,0,0,0,1.495,1.445,2.561,2.561,0,0,0,1.48.5,2.133,2.133,0,0,0,1.22-.341,2.642,2.642,0,0,0,.822-.908,4.446,4.446,0,0,0,.458-1.268,7.086,7.086,0,0,0,.144-1.422" transform="translate(406.828 86.933)" fill="#1a1818"/>
      <path id="Path_72913" data-name="Path 72913" d="M390.172,93.5a.248.248,0,0,1-.092.206.642.642,0,0,1-.252.1,2.368,2.368,0,0,1-.468.035,2.6,2.6,0,0,1-.475-.035.569.569,0,0,1-.256-.1.254.254,0,0,1-.079-.206V92.475a5.063,5.063,0,0,1-1.5,1.118,3.968,3.968,0,0,1-1.753.4,4.8,4.8,0,0,1-1.465-.21,3.2,3.2,0,0,1-1.12-.612,2.719,2.719,0,0,1-.718-.98,3.241,3.241,0,0,1-.258-1.326,3.05,3.05,0,0,1,.354-1.507A2.979,2.979,0,0,1,383.1,88.3a4.951,4.951,0,0,1,1.621-.633,10.154,10.154,0,0,1,2.159-.212H388.3v-.8a4.071,4.071,0,0,0-.125-1.049,1.8,1.8,0,0,0-.406-.76,1.728,1.728,0,0,0-.724-.456,3.349,3.349,0,0,0-1.1-.154,4.343,4.343,0,0,0-1.249.164,6.684,6.684,0,0,0-.972.366c-.277.133-.51.254-.7.364a.941.941,0,0,1-.416.167.279.279,0,0,1-.16-.046.416.416,0,0,1-.121-.137.668.668,0,0,1-.073-.235,2.056,2.056,0,0,1-.023-.312,1.984,1.984,0,0,1,.04-.452.641.641,0,0,1,.194-.314,2.411,2.411,0,0,1,.531-.348,5.79,5.79,0,0,1,.868-.366,7.74,7.74,0,0,1,1.072-.273,6.374,6.374,0,0,1,1.176-.108,6.118,6.118,0,0,1,1.884.25,3.077,3.077,0,0,1,1.257.737,2.863,2.863,0,0,1,.7,1.205,5.787,5.787,0,0,1,.219,1.678ZM388.3,88.809H386.69a6.091,6.091,0,0,0-1.349.131,2.8,2.8,0,0,0-.947.389,1.6,1.6,0,0,0-.554.616,1.869,1.869,0,0,0-.177.826,1.654,1.654,0,0,0,.508,1.274,2.006,2.006,0,0,0,1.422.475,2.661,2.661,0,0,0,1.376-.377,6.023,6.023,0,0,0,1.33-1.153Z" transform="translate(412.848 89.444)" fill="#1a1818"/>
      <path id="Path_72914" data-name="Path 72914" d="M389.334,96a.255.255,0,0,1-.046.154.351.351,0,0,1-.148.108.983.983,0,0,1-.285.069,4.044,4.044,0,0,1-.468.023,3.952,3.952,0,0,1-.458-.023,1.071,1.071,0,0,1-.291-.069.315.315,0,0,1-.148-.108A.3.3,0,0,1,387.45,96V80.746a.332.332,0,0,1,.039-.16.306.306,0,0,1,.148-.112,1,1,0,0,1,.291-.069,3.96,3.96,0,0,1,.458-.023,4.051,4.051,0,0,1,.468.023.92.92,0,0,1,.285.069.34.34,0,0,1,.148.112.279.279,0,0,1,.046.16Z" transform="translate(419.03 86.934)" fill="#1a1818"/>
      <path id="Path_72915" data-name="Path 72915" d="M391.911,96a.255.255,0,0,1-.046.154.351.351,0,0,1-.148.108.983.983,0,0,1-.285.069,4.044,4.044,0,0,1-.468.023,3.952,3.952,0,0,1-.458-.023,1.071,1.071,0,0,1-.291-.069.315.315,0,0,1-.148-.108.3.3,0,0,1-.04-.154V80.746a.332.332,0,0,1,.04-.16.306.306,0,0,1,.148-.112,1,1,0,0,1,.291-.069,3.959,3.959,0,0,1,.458-.023,4.051,4.051,0,0,1,.468.023.92.92,0,0,1,.285.069.34.34,0,0,1,.148.112.279.279,0,0,1,.046.16Z" transform="translate(421.817 86.934)" fill="#1a1818"/>
      <path id="Path_72916" data-name="Path 72916" d="M397.993,93.693l-1.37,3.778a.525.525,0,0,1-.348.281,2.792,2.792,0,0,1-.851.1,3.238,3.238,0,0,1-.479-.029.7.7,0,0,1-.281-.1.247.247,0,0,1-.108-.183.575.575,0,0,1,.056-.273l1.418-3.574a.579.579,0,0,1-.2-.148.6.6,0,0,1-.125-.219l-3.665-9.818a1.2,1.2,0,0,1-.092-.377.285.285,0,0,1,.092-.216.579.579,0,0,1,.3-.108,4.209,4.209,0,0,1,.547-.029q.343,0,.537.019a1.064,1.064,0,0,1,.308.062.337.337,0,0,1,.167.131,1.488,1.488,0,0,1,.108.233l2.933,8.243h.035l2.831-8.289a.507.507,0,0,1,.167-.279.75.75,0,0,1,.289-.092,4.177,4.177,0,0,1,.56-.029,4,4,0,0,1,.527.029.629.629,0,0,1,.3.108.27.27,0,0,1,.1.216,1.13,1.13,0,0,1-.069.343Z" transform="translate(423.899 89.526)" fill="#1a1818"/>
      <path id="Path_72917" data-name="Path 72917" d="M399.393,88.106a1.564,1.564,0,0,1-.269,1.078,1.366,1.366,0,0,1-.976.269,1.332,1.332,0,0,1-.947-.262,1.522,1.522,0,0,1-.262-1.051,1.557,1.557,0,0,1,.269-1.078,1.373,1.373,0,0,1,.976-.269,1.342,1.342,0,0,1,.947.262,1.536,1.536,0,0,1,.262,1.051" transform="translate(429.293 93.868)" fill="#1a1818"/>
    </g>
  </g>
</svg>
