<?xml version="1.0" encoding="UTF-8"?>
<svg xmlns="http://www.w3.org/2000/svg" xmlns:xlink="http://www.w3.org/1999/xlink" width="1440pt" height="809.999993pt" viewBox="0 0 1440 809.999993" version="1.2">
<defs>
<clipPath id="clip1">
  <path d="M 586.808594 169.746094 L 853 169.746094 L 853 302.496094 L 586.808594 302.496094 Z M 586.808594 169.746094 "/>
</clipPath>
</defs>
<g id="surface1">
<rect x="0" y="0" width="1440" height="809.999993" style="fill:rgb(100%,100%,100%);fill-opacity:1;stroke:none;"/>
<rect x="0" y="0" width="1440" height="809.999993" style="fill:rgb(100%,100%,100%);fill-opacity:1;stroke:none;"/>
<rect x="0" y="0" width="1440" height="809.999993" style="fill:rgb(100%,100%,100%);fill-opacity:1;stroke:none;"/>
<rect x="0" y="0" width="1440" height="809.999993" style="fill:rgb(0%,47.099304%,82.398987%);fill-opacity:1;stroke:none;"/>
<g clip-path="url(#clip1)" clip-rule="nonzero">
<path style=" stroke:none;fill-rule:nonzero;fill:rgb(100%,100%,100%);fill-opacity:1;" d="M 586.929688 302.496094 C 586.929688 229.171875 646.515625 169.746094 720.046875 169.746094 C 793.578125 169.746094 852.941406 229.171875 852.941406 302.496094 Z M 586.929688 302.496094 "/>
</g>
<path style=" stroke:none;fill-rule:nonzero;fill:rgb(100%,99.609375%,99.609375%);fill-opacity:1;" d="M 720 336.359375 C 716.742188 336.359375 713.484375 336.4375 710.226562 336.597656 C 706.972656 336.757812 703.722656 337 700.480469 337.316406 C 697.234375 337.636719 694 338.035156 690.777344 338.515625 C 687.550781 338.992188 684.34375 339.550781 681.144531 340.183594 C 677.949219 340.820312 674.769531 341.535156 671.605469 342.328125 C 668.445312 343.121094 665.304688 343.988281 662.1875 344.933594 C 659.066406 345.878906 655.972656 346.902344 652.902344 348 C 649.835938 349.097656 646.796875 350.273438 643.785156 351.519531 C 640.773438 352.765625 637.792969 354.085938 634.847656 355.480469 C 631.902344 356.875 628.988281 358.339844 626.117188 359.875 C 623.242188 361.410156 620.40625 363.019531 617.609375 364.695312 C 614.8125 366.371094 612.0625 368.113281 609.351562 369.921875 C 606.640625 371.734375 603.976562 373.609375 601.359375 375.550781 C 598.742188 377.492188 596.171875 379.5 593.652344 381.566406 C 591.132812 383.632812 588.664062 385.761719 586.25 387.953125 C 583.835938 390.140625 581.476562 392.386719 579.171875 394.691406 C 576.867188 396.996094 574.621094 399.355469 572.429688 401.773438 C 570.242188 404.1875 568.113281 406.652344 566.046875 409.171875 C 563.976562 411.695312 561.972656 414.261719 560.03125 416.878906 C 558.089844 419.5 556.214844 422.164062 554.402344 424.871094 C 552.589844 427.582031 550.847656 430.335938 549.171875 433.132812 C 547.496094 435.925781 545.890625 438.761719 544.355469 441.636719 C 542.816406 444.511719 541.351562 447.421875 539.960938 450.367188 C 538.566406 453.316406 537.246094 456.292969 535.996094 459.304688 C 534.75 462.316406 533.578125 465.355469 532.480469 468.425781 C 531.382812 471.496094 530.359375 474.589844 529.414062 477.707031 C 528.46875 480.828125 527.597656 483.96875 526.804688 487.128906 C 526.015625 490.289062 525.300781 493.46875 524.664062 496.667969 C 524.027344 499.863281 523.472656 503.074219 522.992188 506.296875 C 522.515625 509.523438 522.117188 512.757812 521.796875 516 C 521.476562 519.242188 521.238281 522.492188 521.078125 525.75 C 520.917969 529.003906 520.835938 532.261719 520.835938 535.519531 C 520.835938 538.78125 520.917969 542.039062 521.078125 545.292969 C 521.238281 548.550781 521.476562 551.796875 521.796875 555.042969 C 522.117188 558.285156 522.515625 561.519531 522.992188 564.746094 C 523.472656 567.96875 524.027344 571.179688 524.664062 574.375 C 525.300781 577.574219 526.015625 580.753906 526.804688 583.914062 C 527.597656 587.074219 528.46875 590.214844 529.414062 593.335938 C 530.359375 596.453125 531.382812 599.546875 532.480469 602.617188 C 533.578125 605.6875 534.75 608.726562 535.996094 611.738281 C 537.246094 614.75 538.566406 617.726562 539.960938 620.675781 C 541.351562 623.621094 542.816406 626.53125 544.355469 629.40625 C 545.890625 632.28125 547.496094 635.117188 549.171875 637.910156 C 550.847656 640.707031 552.589844 643.460938 554.402344 646.171875 C 556.214844 648.878906 558.089844 651.542969 560.03125 654.164062 C 561.972656 656.78125 563.976562 659.347656 566.046875 661.867188 C 568.113281 664.386719 570.242188 666.855469 572.429688 669.269531 C 574.621094 671.6875 576.867188 674.046875 579.171875 676.351562 C 581.476562 678.65625 583.835938 680.902344 586.25 683.089844 C 588.664062 685.28125 591.132812 687.40625 593.652344 689.476562 C 596.171875 691.542969 598.742188 693.546875 601.359375 695.488281 C 603.976562 697.433594 606.640625 699.308594 609.351562 701.117188 C 612.0625 702.929688 614.8125 704.671875 617.609375 706.347656 C 620.40625 708.023438 623.242188 709.628906 626.117188 711.167969 C 628.988281 712.703125 631.902344 714.167969 634.847656 715.5625 C 637.792969 716.957031 640.773438 718.277344 643.785156 719.523438 C 646.796875 720.769531 649.835938 721.945312 652.902344 723.042969 C 655.972656 724.140625 659.066406 725.160156 662.1875 726.109375 C 665.304688 727.054688 668.445312 727.921875 671.605469 728.714844 C 674.769531 729.507812 677.949219 730.222656 681.144531 730.855469 C 684.34375 731.492188 687.550781 732.050781 690.777344 732.527344 C 694 733.007812 697.234375 733.40625 700.480469 733.726562 C 703.722656 734.042969 706.972656 734.285156 710.226562 734.445312 C 713.484375 734.605469 716.742188 734.683594 720 734.683594 C 723.257812 734.683594 726.515625 734.605469 729.773438 734.445312 C 733.027344 734.285156 736.277344 734.042969 739.519531 733.726562 C 742.765625 733.40625 746 733.007812 749.222656 732.527344 C 752.449219 732.050781 755.65625 731.492188 758.855469 730.855469 C 762.050781 730.222656 765.230469 729.507812 768.390625 728.714844 C 771.554688 727.921875 774.695312 727.054688 777.8125 726.109375 C 780.933594 725.160156 784.027344 724.140625 787.097656 723.042969 C 790.164062 721.945312 793.203125 720.769531 796.214844 719.523438 C 799.226562 718.277344 802.207031 716.957031 805.152344 715.5625 C 808.097656 714.167969 811.011719 712.703125 813.882812 711.167969 C 816.757812 709.628906 819.59375 708.023438 822.390625 706.347656 C 825.1875 704.671875 827.9375 702.929688 830.648438 701.117188 C 833.359375 699.308594 836.023438 697.433594 838.640625 695.488281 C 841.257812 693.546875 843.828125 691.542969 846.347656 689.476562 C 848.867188 687.40625 851.335938 685.28125 853.75 683.089844 C 856.164062 680.902344 858.523438 678.65625 860.828125 676.351562 C 863.132812 674.046875 865.378906 671.6875 867.570312 669.269531 C 869.757812 666.855469 871.886719 664.386719 873.953125 661.867188 C 876.023438 659.347656 878.027344 656.78125 879.96875 654.164062 C 881.910156 651.542969 883.785156 648.878906 885.597656 646.171875 C 887.410156 643.460938 889.152344 640.707031 890.828125 637.910156 C 892.503906 635.117188 894.109375 632.28125 895.644531 629.40625 C 897.183594 626.53125 898.648438 623.621094 900.039062 620.675781 C 901.433594 617.726562 902.753906 614.75 904.003906 611.738281 C 905.25 608.726562 906.421875 605.6875 907.519531 602.617188 C 908.617188 599.546875 909.640625 596.453125 910.585938 593.335938 C 911.53125 590.214844 912.402344 587.074219 913.195312 583.914062 C 913.984375 580.753906 914.699219 577.574219 915.335938 574.375 C 915.972656 571.179688 916.527344 567.96875 917.007812 564.746094 C 917.484375 561.519531 917.882812 558.285156 918.203125 555.042969 C 918.523438 551.796875 918.761719 548.550781 918.921875 545.292969 C 919.082031 542.039062 919.164062 538.78125 919.164062 535.519531 C 919.164062 532.261719 919.082031 529.003906 918.921875 525.75 C 918.761719 522.492188 918.523438 519.242188 918.203125 516 C 917.882812 512.757812 917.484375 509.523438 917.007812 506.296875 C 916.527344 503.074219 915.972656 499.863281 915.335938 496.667969 C 914.699219 493.46875 913.984375 490.289062 913.195312 487.128906 C 912.402344 483.96875 911.53125 480.828125 910.585938 477.707031 C 909.640625 474.589844 908.617188 471.496094 907.519531 468.425781 C 906.421875 465.355469 905.25 462.316406 904.003906 459.304688 C 902.753906 456.292969 901.433594 453.316406 900.039062 450.367188 C 898.648438 447.421875 897.183594 444.511719 895.644531 441.636719 C 894.109375 438.761719 892.503906 435.925781 890.828125 433.132812 C 889.152344 430.335938 887.410156 427.582031 885.597656 424.871094 C 883.785156 422.164062 881.910156 419.5 879.96875 416.878906 C 878.027344 414.261719 876.023438 411.695312 873.953125 409.171875 C 871.886719 406.652344 869.757812 404.1875 867.570312 401.773438 C 865.378906 399.355469 863.132812 396.996094 860.828125 394.691406 C 858.523438 392.386719 856.164062 390.140625 853.75 387.953125 C 851.335938 385.761719 848.867188 383.632812 846.347656 381.566406 C 843.828125 379.5 841.257812 377.492188 838.640625 375.550781 C 836.023438 373.609375 833.359375 371.734375 830.648438 369.921875 C 827.9375 368.113281 825.1875 366.371094 822.390625 364.695312 C 819.59375 363.019531 816.757812 361.410156 813.882812 359.875 C 811.011719 358.339844 808.097656 356.875 805.152344 355.480469 C 802.207031 354.085938 799.226562 352.765625 796.214844 351.519531 C 793.203125 350.273438 790.164062 349.097656 787.097656 348 C 784.027344 346.902344 780.933594 345.878906 777.8125 344.933594 C 774.695312 343.988281 771.554688 343.121094 768.390625 342.328125 C 765.230469 341.535156 762.050781 340.820312 758.855469 340.183594 C 755.65625 339.550781 752.449219 338.992188 749.222656 338.515625 C 746 338.035156 742.765625 337.636719 739.519531 337.316406 C 736.277344 337 733.027344 336.757812 729.773438 336.597656 C 726.515625 336.4375 723.257812 336.359375 720 336.359375 Z M 720 336.359375 "/>
<path style=" stroke:none;fill-rule:nonzero;fill:rgb(0%,67.83905%,64.309692%);fill-opacity:1;" d="M 634.140625 169.792969 C 608.152344 169.792969 586.9375 148.578125 586.9375 122.519531 C 586.9375 96.53125 608.152344 75.316406 634.140625 75.316406 C 660.203125 75.316406 681.34375 96.53125 681.34375 122.519531 C 681.414062 148.578125 660.203125 169.792969 634.140625 169.792969 Z M 634.140625 101.304688 C 622.480469 101.304688 612.929688 110.859375 612.929688 122.519531 C 612.929688 134.179688 622.480469 143.734375 634.140625 143.734375 C 645.800781 143.734375 655.355469 134.179688 655.355469 122.519531 C 655.355469 110.859375 645.871094 101.304688 634.140625 101.304688 Z M 634.140625 101.304688 "/>
</g>
</svg>
