<svg xmlns="http://www.w3.org/2000/svg" xmlns:xlink="http://www.w3.org/1999/xlink" viewBox="0 0 348.05 79.93"><defs><style>.cls-1{fill:none;}.cls-2{clip-path:url(#clip-path);}.cls-3{fill:#037670;}.cls-4{fill:#00ada4;}.cls-5{clip-path:url(#clip-path-2);}.cls-6{fill:#cb0000;}.cls-7{clip-path:url(#clip-path-3);}.cls-8{fill:#d80b0b;}.cls-9{clip-path:url(#clip-path-4);}.cls-10{fill:#090b0b;}.cls-11{clip-path:url(#clip-path-5);}.cls-12{fill:#fff;}</style><clipPath id="clip-path" transform="translate(0 -0.02)"><rect class="cls-1" width="11.09" height="14.16"/></clipPath><clipPath id="clip-path-2" transform="translate(0 -0.02)"><rect class="cls-1" x="4.11" y="10.93" width="19.93" height="23.45"/></clipPath><clipPath id="clip-path-3" transform="translate(0 -0.02)"><rect class="cls-1" x="23.99" y="18.75" width="0.05" height="0.18"/></clipPath><clipPath id="clip-path-4" transform="translate(0 -0.02)"><rect class="cls-1" x="16.42" y="18.28" width="7.63" height="4.06"/></clipPath><clipPath id="clip-path-5" transform="translate(0 -0.02)"><rect class="cls-1" x="0.44" y="0.62" width="347.56" height="79.38"/></clipPath></defs><title>poppy smartway logo(348x80)</title><g id="Layer_2" data-name="Layer 2"><g id="Layer_1-2" data-name="Layer 1"><g class="cls-2"><path class="cls-3" d="M0,4.23a1,1,0,0,1,.16-.44.78.78,0,0,1,.37-.3,1.44,1.44,0,0,1,.74-.07,1.91,1.91,0,0,1,.58.15L2,3.63l-.12-.19a8.87,8.87,0,0,1-.58-1.39,4.36,4.36,0,0,1-.21-.91A1.14,1.14,0,0,1,1.2.56,1,1,0,0,1,1.4.3,1,1,0,0,1,1.67.13,1.31,1.31,0,0,1,2,0l.29,0a1.35,1.35,0,0,1,.29.05,1.33,1.33,0,0,1,.28.1A2.37,2.37,0,0,1,3.55.8a9.45,9.45,0,0,1,.83,1.26,1.46,1.46,0,0,1,.16-.21A1.4,1.4,0,0,1,5,1.53a1,1,0,0,1,.34-.07,1.37,1.37,0,0,1,.35,0A2.07,2.07,0,0,1,6,1.63a1.61,1.61,0,0,1,.28.24,2.38,2.38,0,0,1,.39.6A4.48,4.48,0,0,1,7.1,3.71c0,.14,0,.26,0,.39L7.26,4a1.2,1.2,0,0,1,.31-.13l.34,0a1.61,1.61,0,0,1,.38.08,1.74,1.74,0,0,1,.33.18,2,2,0,0,1,.8,1.38A5.17,5.17,0,0,1,9.4,7c0,.17,0,.33-.05.48l0,0a.92.92,0,0,1,.24-.13.86.86,0,0,1,.27,0,.78.78,0,0,1,.3,0,.84.84,0,0,1,.27.13,1.4,1.4,0,0,1,.38.46,2.18,2.18,0,0,1,.19.56,3,3,0,0,1,0,.6,11.11,11.11,0,0,1-.39,2.14,10,10,0,0,0-2.08.65l-.48.23-.45-1C6.33,8.29,5,5.81,4,4c-.49-.89-.9-1.6-1.2-2.08a4.74,4.74,0,0,0-.49-.74,2.84,2.84,0,0,0,.37.8L3.86,4.12c.95,1.79,2.25,4.27,3.58,7.07.16.33.31.66.46,1a8.07,8.07,0,0,0-1.28.88,8.79,8.79,0,0,0-1.09,1.11c-.31-.15-.64-.3-1-.44s-.9-.35-1.34-.57a3.13,3.13,0,0,1-1.15-.88,1.89,1.89,0,0,1-.19-.3,3.05,3.05,0,0,1-.13-.32A2,2,0,0,1,1.66,11a1.36,1.36,0,0,1,.19-.62,1.1,1.1,0,0,1,.43-.45,1.38,1.38,0,0,1,.66-.2L1.79,9A7,7,0,0,1,1,8.45,1.56,1.56,0,0,1,.45,7.6a1.28,1.28,0,0,1,.82-1.43h0A3,3,0,0,1,.18,5.09,1.56,1.56,0,0,1,0,4.68,1.14,1.14,0,0,1,0,4.23Z" transform="translate(0 -0.02)"/></g><path class="cls-4" d="M2.34,1.21a3.76,3.76,0,0,1,.5.73c.3.49.71,1.2,1.2,2.09C5,5.8,6.32,8.29,7.66,11.09l.45,1-.21.11c-.15-.32-.3-.65-.46-1C6.11,8.39,4.82,5.91,3.86,4.12L2.72,2A3.91,3.91,0,0,1,2.34,1.21Z" transform="translate(0 -0.02)"/><g class="cls-5"><path class="cls-6" d="M11.22,23.55a1.36,1.36,0,0,1-.1-.21.13.13,0,0,0,0-.06L5.65,23a2.67,2.67,0,0,1,.42-.47l.09-.13a5.22,5.22,0,0,1-1.52-2.07l6.46,2.13s0-.05,0-.07a.62.62,0,0,1,.07-.23L4.22,18.83a5.65,5.65,0,0,1-.07-1.23,5.56,5.56,0,0,1,.21-1.22,6.32,6.32,0,0,1,.71-1.57c-.13.22-.25.44-.36.67l6.77,5.81h0l.16-.07a.45.45,0,0,1,0-.2L5.51,14.19A8.58,8.58,0,0,1,6.71,13,7.91,7.91,0,0,1,8.15,12l4.27,8.44.05-.07a.58.58,0,0,1,.21-.2l-3.1-8.76A11.33,11.33,0,0,1,13,10.94l.68,9.17a.67.67,0,0,1,.28-.06H14l.49-9,.45.05a14.64,14.64,0,0,1,2.86.65l-2.9,8.64a.54.54,0,0,1,.25,0l.07,0,4-8.13a10,10,0,0,1,1.92,1.21,8.63,8.63,0,0,1,.77.71L15.9,21l.08.06a.52.52,0,0,1,.11.19l6.67-5.91,0-.05a7.34,7.34,0,0,1,1.24,3L16.43,22s0,0,0,.08a.6.6,0,0,1,.06.19L24,19.7v-.1a5.8,5.8,0,0,1-.31,1.59,4.93,4.93,0,0,1-.31.75,6.23,6.23,0,0,1-.41.71l-6.57.46v0a.86.86,0,0,1,0,.23l5.66.32a6,6,0,0,0,.43-.44,5.7,5.7,0,0,1-.85.78,5.53,5.53,0,0,1-1,.56l.11.17a4.88,4.88,0,0,1,.62,1L16,24l0,.21L21.79,27a6,6,0,0,0-.15-.61,6.42,6.42,0,0,1,.19.87,6.8,6.8,0,0,1,.06.9,6.54,6.54,0,0,1-.08.89,6.63,6.63,0,0,1-.21.88l-6.16-5.3h-.16s0,0,0,.06l5.79,6.44.15-.27a4.76,4.76,0,0,1-.63.93,4.6,4.6,0,0,1-.82.77,5.47,5.47,0,0,1-.89.55l-4-8a.57.57,0,0,1-.18,0l3,8.48.3-.11c-.26.1-.53.19-.8.27a13.16,13.16,0,0,1-2.42.5l-.64-8.86-.19,0-.51,8.89a9.94,9.94,0,0,0,1.34-.07,9.62,9.62,0,0,1-5.56-.92,7.93,7.93,0,0,0,1.24.52l2.87-8.58a.86.86,0,0,1-.23.06l-3.88,8a7.33,7.33,0,0,1-1.25-.83,7.51,7.51,0,0,1-1.06-1l5.53-6.34a1.1,1.1,0,0,1-.14-.18L6.1,30.39,6,30.27a9.43,9.43,0,0,1-.92-2.53l6.54-3.26a1,1,0,0,1-.13-.22l-6.6,2.3a9.35,9.35,0,0,0,.19,1.18,7.32,7.32,0,0,1,0-3.75Z" transform="translate(0 -0.02)"/></g><g class="cls-7"><path class="cls-6" d="M24,18.9s0-.08,0-.12S24,18.86,24,18.9Z" transform="translate(0 -0.02)"/></g><path class="cls-6" d="M6.11,30.39a8.73,8.73,0,0,0,.74,1.06A8.73,8.73,0,0,1,6.11,30.39Z" transform="translate(0 -0.02)"/><path class="cls-6" d="M18.29,33.36l.26-.12Z" transform="translate(0 -0.02)"/><path class="cls-6" d="M18,33.49l.28-.11Z" transform="translate(0 -0.02)"/><path class="cls-6" d="M24,18.52l0-.22Z" transform="translate(0 -0.02)"/><path class="cls-6" d="M18.61,33.22l.25-.12Z" transform="translate(0 -0.02)"/><path class="cls-6" d="M9.58,11.45l-.46.16Z" transform="translate(0 -0.02)"/><path class="cls-6" d="M14.46,11c-.5,0-1-.07-1.51-.07C13.46,10.94,14,11,14.46,11Z" transform="translate(0 -0.02)"/><path class="cls-6" d="M8.59,11.82l.47-.19Z" transform="translate(0 -0.02)"/><path class="cls-6" d="M8.59,11.82,8.15,12Z" transform="translate(0 -0.02)"/><path class="cls-6" d="M17.91,11.75l-.14-.05Z" transform="translate(0 -0.02)"/><path class="cls-6" d="M18.81,12.11,18.48,12Z" transform="translate(0 -0.02)"/><path class="cls-6" d="M18.41,11.94l-.27-.1Z" transform="translate(0 -0.02)"/><path class="cls-6" d="M19.15,12.28l-.33-.16Z" transform="translate(0 -0.02)"/><path class="cls-6" d="M21.53,26.07c0,.1.07.19.1.29C21.6,26.26,21.57,26.17,21.53,26.07Z" transform="translate(0 -0.02)"/><path class="cls-6" d="M5.07,14.81l.21-.31Z" transform="translate(0 -0.02)"/><path class="cls-6" d="M5.29,14.49l.22-.3Z" transform="translate(0 -0.02)"/><path class="cls-6" d="M4.23,18.88a.43.43,0,0,0,0-.05A.43.43,0,0,1,4.23,18.88Z" transform="translate(0 -0.02)"/><path class="cls-6" d="M5.65,23a3.43,3.43,0,0,0-.51,1A3.43,3.43,0,0,1,5.65,23Z" transform="translate(0 -0.02)"/><path class="cls-6" d="M21.49,30.21c0-.1.08-.2.11-.3C21.57,30,21.53,30.11,21.49,30.21Z" transform="translate(0 -0.02)"/><path class="cls-6" d="M4.64,20.31a6.84,6.84,0,0,1-.25-.72A6.84,6.84,0,0,0,4.64,20.31Z" transform="translate(0 -0.02)"/><path class="cls-6" d="M4.37,19.52c0-.1,0-.21-.08-.31C4.32,19.32,4.34,19.42,4.37,19.52Z" transform="translate(0 -0.02)"/><path class="cls-6" d="M22.54,15l-.19-.25Z" transform="translate(0 -0.02)"/><path class="cls-6" d="M21.23,30.79c0-.07.07-.15.11-.23C21.3,30.64,21.27,30.72,21.23,30.79Z" transform="translate(0 -0.02)"/><path class="cls-6" d="M22.32,14.74l-.23-.27Z" transform="translate(0 -0.02)"/><path class="cls-6" d="M21.41,25.77l.12.29Z" transform="translate(0 -0.02)"/><path class="cls-6" d="M21.37,30.5l.1-.24Z" transform="translate(0 -0.02)"/><path class="cls-6" d="M22.81,22.91a2.48,2.48,0,0,0,.19-.26A2.48,2.48,0,0,1,22.81,22.91Z" transform="translate(0 -0.02)"/><path class="cls-6" d="M22.08,14.46l-.24-.26Z" transform="translate(0 -0.02)"/><path class="cls-6" d="M22.6,23.18l.18-.23Z" transform="translate(0 -0.02)"/><path class="cls-8" d="M13.91,20.05a.67.67,0,0,0-.28.06L13,10.94c.51,0,1,0,1.51.07l-.49,9Z" transform="translate(0 -0.02)"/><path class="cls-8" d="M15.28,24.61a.43.43,0,0,0,.16,0l6.15,5.3a5.42,5.42,0,0,1-.55,1.2l-5.78-6.44A.14.14,0,0,1,15.28,24.61Z" transform="translate(0 -0.02)"/><path class="cls-8" d="M11.11,23.28a.13.13,0,0,1,0,.06,2,2,0,0,0,.1.21L5.14,24a3.21,3.21,0,0,1,.51-1Z" transform="translate(0 -0.02)"/><path class="cls-8" d="M16,21.05,15.9,21l5.93-6.79a8.42,8.42,0,0,1,.93,1.14l-6.67,5.91A.52.52,0,0,0,16,21.05Z" transform="translate(0 -0.02)"/><path class="cls-8" d="M15.12,20.38a.44.44,0,0,0-.25,0l2.9-8.63a10.52,10.52,0,0,1,1.38.57l-4,8.14Z" transform="translate(0 -0.02)"/><g class="cls-9"><path class="cls-8" d="M16.47,22.11s0-.05,0-.08L24,18.3a6,6,0,0,1,.08.94c0,.15,0,.31,0,.46l-7.5,2.59A.64.64,0,0,0,16.47,22.11Z" transform="translate(0 -0.02)"/></g><path class="cls-8" d="M16.43,23.13v0L23,22.65a5.45,5.45,0,0,1-.89,1l-5.66-.32A.86.86,0,0,0,16.43,23.13Z" transform="translate(0 -0.02)"/><path class="cls-8" d="M16,24l5.39,1.78A5.16,5.16,0,0,1,21.79,27L16,24.2Z" transform="translate(0 -0.02)"/><path class="cls-8" d="M14.83,25.1l4,8a9.25,9.25,0,0,1-1.22.51l-3-8.48A.57.57,0,0,0,14.83,25.1Z" transform="translate(0 -0.02)"/><path class="cls-8" d="M14.08,25.4l.64,8.87a11.9,11.9,0,0,1-1.34.07l.51-8.9A.43.43,0,0,0,14.08,25.4Z" transform="translate(0 -0.02)"/><path class="cls-8" d="M13.27,25.29,10.4,33.87a8,8,0,0,1-1.24-.53l3.88-8A.86.86,0,0,0,13.27,25.29Z" transform="translate(0 -0.02)"/><path class="cls-8" d="M12.38,25.12,6.85,31.45a8.73,8.73,0,0,1-.74-1.06l6.13-5.45Z" transform="translate(0 -0.02)"/><path class="cls-8" d="M11.65,24.48,5.11,27.74a9.35,9.35,0,0,1-.19-1.18l6.6-2.3A1,1,0,0,0,11.65,24.48Z" transform="translate(0 -0.02)"/><path class="cls-8" d="M11.16,22.14a.62.62,0,0,0-.07.23s0,0,0,.07L4.64,20.31a6.4,6.4,0,0,1-.42-1.48Z" transform="translate(0 -0.02)"/><path class="cls-8" d="M11.65,21.21a.46.46,0,0,0-.16.07h0L4.71,15.48a6.61,6.61,0,0,1,.8-1.29L11.66,21A.5.5,0,0,0,11.65,21.21Z" transform="translate(0 -0.02)"/><path class="cls-8" d="M12.47,20.41l-.05.08L8.15,12l.44-.22c.32-.14.65-.26,1-.37l3.1,8.76A.58.58,0,0,0,12.47,20.41Z" transform="translate(0 -0.02)"/><path class="cls-10" d="M5.69,22.92a2.93,2.93,0,0,1,.38-.41l.09-.13a20.5,20.5,0,0,0,2.6.9,19.36,19.36,0,0,0,2.71.53h0a.8.8,0,0,1-.21-.2.82.82,0,0,1-.14-.26.79.79,0,0,1,0-.22.42.42,0,0,1,.06-.21.6.6,0,0,1,.06-.11.75.75,0,0,1-.1-.2.91.91,0,0,1,0-.23.41.41,0,0,1,0-.19.39.39,0,0,1,.11-.17l.09-.08a.29.29,0,0,1,0-.09.54.54,0,0,1,0-.31.37.37,0,0,1,.17-.25.59.59,0,0,1,.16-.07.61.61,0,0,1,0-.19.64.64,0,0,1,.08-.19.5.5,0,0,1,.14-.15.66.66,0,0,1,.19-.09l.32-.05h0v0a.3.3,0,0,1,.06-.11.82.82,0,0,1,.42-.3.82.82,0,0,1,.27,0,.63.63,0,0,1,.26.07l.05,0h0a.67.67,0,0,1,.41-.13.85.85,0,0,1,.35.08.64.64,0,0,1,.19.13.63.63,0,0,1,.13.2l.09-.06.09,0,.09,0H15l.1,0,.09,0,.09.05a.46.46,0,0,1,.07.07l.06.08a.88.88,0,0,1,.1.27s0,0,0,0h.16l.13,0a.64.64,0,0,1,.22.14.55.55,0,0,1,.12.24,1.51,1.51,0,0,1,0,.37.21.21,0,0,0,0,.08s0,0,0,0l.15.12a.65.65,0,0,1,.16.21.72.72,0,0,1,.07.25.77.77,0,0,1,0,.26.64.64,0,0,1-.12.25l-.06.07a.64.64,0,0,1,.08.19.78.78,0,0,1,0,.22.73.73,0,0,1-.06.21.45.45,0,0,1-.11.19.61.61,0,0,1-.17.15L16,24h0a2.7,2.7,0,0,1,0,.28.42.42,0,0,1-.11.18.48.48,0,0,1-.16.12,10.12,10.12,0,0,0,5,0l.11.17a3.54,3.54,0,0,1,.35.51,10.93,10.93,0,0,1-2.95.1,11.74,11.74,0,0,1-1.46-.27,9.63,9.63,0,0,1-1.4-.48h-.05a.72.72,0,0,1-.12.25.76.76,0,0,1-.21.19.79.79,0,0,1-.26.08.63.63,0,0,1-.27,0,.71.71,0,0,1-.1.14.69.69,0,0,1-.22.16.87.87,0,0,1-.28.05.76.76,0,0,1-.25-.06.74.74,0,0,1-.21-.13l-.09,0-.09,0-.09,0H12.9l-.09,0-.09,0-.09,0-.08,0-.08-.05-.07-.06a.46.46,0,0,1-.07-.07L12.28,25l0-.08a.36.36,0,0,1,0-.09l0-.09a.78.78,0,0,1-.36-.13.8.8,0,0,1-.22-.23.64.64,0,0,1-.11-.3.17.17,0,0,0,0-.07,20.69,20.69,0,0,1-2.93-.33A21.63,21.63,0,0,1,5.69,22.92Z" transform="translate(0 -0.02)"/><g id="Layer_1-2-2" data-name="Layer 1-2"><g class="cls-11"><path class="cls-12" d="M195.39,17.6h10.3v9.73h8.2v8.39h-8.15V53c0,3.68.9,4.72,4.15,4.72h4.35V66.4H206c-8,0-11.45-3.73-11.45-12.71V17.6Z" transform="translate(0 -0.02)"/><path class="cls-12" d="M68.73,27.33h9.49l.3,4.76a12.66,12.66,0,0,1,11.15-5.71c5,0,8.6,1.89,10.55,5.51a13,13,0,0,1,11.24-5.51c8,0,12.45,4.62,12.45,13.41V66.35h-11.2V41c0-3.43-1.5-5-4.2-5s-4.79,1.58-6.64,5.31V66.35H90.72V41c0-3.43-1.6-5-4.3-5s-4.8,1.58-6.55,5.31V66.35H68.73Z" transform="translate(0 -0.02)"/><path class="cls-12" d="M128.06,55.13c0-8.24,5.2-12.81,15.65-12.81H151V41c0-4-1.6-6-5.55-6s-5.34,1.74-5.49,4.42h-10.8c.6-8.69,5.9-13.06,16.74-13.06,11.15,0,16.25,4.62,16.25,14.8V66.3h-9.4l-.4-4.87c-2.7,3.83-6.65,5.76-11.84,5.76-7.75.1-12.4-4.22-12.4-12.06M151,54.19V49.72h-5.2c-5,0-6.69,1.73-6.69,4.56s1.65,4.32,4.85,4.32a7.65,7.65,0,0,0,7-4.41" transform="translate(0 -0.02)"/><path class="cls-12" d="M168.2,27.33h9.5l.45,7.25c1.5-5.51,4.59-8,10-8h3V36.91H189c-5.8,0-8.59,2.18-9.64,7.64V66.4H168.2Z" transform="translate(0 -0.02)"/><polygon class="cls-12" points="216.13 27.31 227.83 27.31 233.93 52.72 241.18 27.31 250.97 27.31 258.17 52.72 264.27 27.31 275.52 27.31 264.22 66.33 252.92 66.33 245.93 41.95 238.88 66.33 227.43 66.33 216.13 27.31"/><path class="cls-12" d="M275.67,55.13c0-8.24,5.2-12.81,15.65-12.81h7.24V41c0-4-1.6-6-5.6-6-3.84,0-5.34,1.74-5.49,4.42h-10.8c.6-8.69,5.9-13.06,16.74-13.06,11.15,0,16.25,4.62,16.25,14.8V66.3h-9.4l-.4-4.87c-2.7,3.83-6.65,5.76-11.84,5.76-7.7.1-12.35-4.22-12.35-12.06m22.89-.94V49.72h-5.2c-5,0-6.69,1.73-6.69,4.56s1.65,4.32,4.8,4.32a7.62,7.62,0,0,0,7.09-4.41" transform="translate(0 -0.02)"/><path class="cls-12" d="M315.41,71.31h4.35c2.1,0,3-.59,3.75-2.93l.85-2.48L311,27.33h11.85L330.1,51.7l6.7-24.37h11.25L334.1,69.72c-2.65,8.1-5.34,10.23-13,10.23h-5.65V71.31Z" transform="translate(0 -0.02)"/><path class="cls-12" d="M26.14,51h11c0,5,2.8,7.1,8.3,7.1,5,0,7.45-1.79,7.45-5.46,0-4.17-2.7-6-10.35-7.2-11.39-1.79-15.64-6-15.64-15.29,0-10.43,6.4-15.64,18.59-15.64s18,5.11,18,15.79h-11c0-4.42-2.35-6.61-7.25-6.61-4.7,0-7.1,1.94-7.1,5.32,0,3.82,2.65,5.56,9.85,6.6,12,1.74,16.15,6.3,16.15,15.83,0,10.58-6.25,15.69-19,15.69-13,.1-18.94-5-18.94-16.13" transform="translate(0 -0.02)"/></g></g></g></g></svg>