<svg xmlns="http://www.w3.org/2000/svg" xmlns:xlink="http://www.w3.org/1999/xlink" width="337.84" height="81.91" viewBox="0 0 337.84 81.91">
  <defs>
    <clipPath id="clip-path">
      <rect id="Rectangle_1" data-name="Rectangle 1" width="337.84" height="81.91" fill="none"/>
    </clipPath>
    <clipPath id="clip-path-2">
      <path id="Path_5" data-name="Path 5" d="M526.828,161h10.713v13.779H526.828Zm0,0" transform="translate(-526.828 -161)"/>
    </clipPath>
    <clipPath id="clip-path-3">
      <path id="Path_8" data-name="Path 8" d="M666,531h19.232v22.793H666Zm0,0" transform="translate(-666 -531)"/>
    </clipPath>
    <clipPath id="clip-path-4">
      <path id="Path_10" data-name="Path 10" d="M1335,796h.027v.143H1335Zm0,0" transform="translate(-1335 -796)"/>
    </clipPath>
    <clipPath id="clip-path-5">
      <path id="Path_46" data-name="Path 46" d="M1079,780h7.377v3.9H1079Zm0,0" transform="translate(-1079 -780)"/>
    </clipPath>
  </defs>
  <g id="White-Logo" transform="translate(78.78 84.263)">
    <g id="Mask_Group_1" data-name="Mask Group 1" transform="translate(-78.78 -84.263)" clip-path="url(#clip-path)">
      <g id="Group_1" transform="translate(5.667 -0.684)">
        <g id="Group_1-2" transform="translate(24.926 21.211)">
          <path id="Path_1" d="M2122.442,189.8h9.61v9.1h7.646v7.893h-7.646v16.14c0,3.432.835,4.459,3.921,4.459h4.108v8.163h-7.654c-7.56,0-10.729-3.519-10.729-11.882V189.8Z" transform="translate(-1964.347 -186.938)" fill="#fff"/>
          <path id="Path_2" d="M745.217,286.327h8.867l.274,4.459a12,12,0,0,1,10.455-5.38c4.81,0,8.029,1.768,9.9,5.195a12.33,12.33,0,0,1,10.54-5.195c7.465,0,11.668,4.365,11.668,12.523v24.866H786.467V299.128c0-3.247-1.409-4.731-3.921-4.731s-4.485,1.452-6.227,5.057v23.44H765.744V299.136c0-3.247-1.484-4.731-4.015-4.731s-4.485,1.453-6.168,5.057v23.431H745.2V286.327Z" transform="translate(-705.428 -274.364)" fill="#fff"/>
          <path id="Path_3" d="M1393.556,313.059c0-7.7,4.809-12.019,14.65-12.019h6.817v-1.206c0-3.793-1.484-5.663-5.227-5.663s-5.031,1.67-5.134,4.185h-10.076c.564-8.183,5.518-12.257,15.624-12.257s15.213,4.365,15.213,13.821v23.517h-8.782l-.376-4.545c-2.52,3.6-6.245,5.38-11.114,5.38-7.363.085-11.652-3.9-11.652-11.232m21.4-.923v-4.185h-4.8c-4.81,0-6.245,1.67-6.245,4.28s1.589,4.081,4.57,4.081a7.183,7.183,0,0,0,6.475-4.174" transform="translate(-1298.349 -275.012)" fill="#fff"/>
          <path id="Path_4" d="M1833.4,288.251h8.858l.469,6.772c1.409-5.2,4.288-7.526,9.336-7.526h2.8v9.61h-1.956c-5.407,0-8.029,2.041-9.063,7.15V324.7H1833.4Z" transform="translate(-1700.673 -276.292)" fill="#fff"/>
          <path id="Path_5-2" data-name="Path_5" d="M2357.6,296.3h10.909l5.7,23.85,6.714-23.85h9.243l6.714,23.85,5.7-23.85h10.456l-10.55,36.568H2391.94l-6.534-22.833-6.62,22.833H2368.15Z" transform="translate(-2180.095 -284.341)" fill="#fff"/>
          <path id="Path_6" d="M3008.5,313.059c0-7.7,4.81-12.019,14.65-12.019h6.816v-1.206c0-3.793-1.484-5.663-5.227-5.663s-5.031,1.67-5.134,4.185h-10.084c.564-8.183,5.518-12.257,15.624-12.257s15.213,4.365,15.213,13.821v23.517h-8.772l-.256-4.545c-2.52,3.6-6.244,5.38-11.1,5.38-7.38.085-11.668-3.9-11.668-11.232m21.313-.923v-4.185h-4.809c-4.81,0-6.243,1.67-6.243,4.28s1.589,4.081,4.484,4.081a7.071,7.071,0,0,0,6.569-4.174" transform="translate(-2775.396 -275.012)" fill="#fff"/>
          <path id="Path_7" d="M3400.308,338.147h4.108c1.956,0,2.8-.557,3.545-2.783l.835-2.319L3396.3,297h11.1l6.816,22.833L3420.464,297h10.542l-13.061,39.653c-2.7,7.606-5.227,9.61-12.411,9.61h-5.313Z" transform="translate(-3130.07 -284.981)" fill="#fff"/>
          <path id="Path_8-2" data-name="Path_8" d="M279.6,190.443h10.217c0,4.638,2.606,6.679,7.739,6.679,4.672,0,7-1.67,7-5.108,0-3.9-2.52-5.561-9.712-6.772-10.635-1.67-14.65-5.663-14.65-14.285,0-9.746,6.005-14.656,17.346-14.656s16.819,4.809,16.819,14.749H304.081c0-4.185-2.238-6.227-6.817-6.227s-6.62,1.863-6.62,5.015c0,3.6,2.52,5.2,9.243,6.227,11.19,1.734,15.12,5.937,15.12,14.855,0,9.925-5.886,14.656-17.828,14.656S279.6,200.927,279.6,190.438" transform="translate(-279.6 -156.3)" fill="#fff"/>
        </g>
        <g id="Logos_for_World_Days" data-name="Logos for World Days" transform="translate(0 0)">
          <g id="Group_3" data-name="Group 3" clip-path="url(#clip-path-2)">
            <path id="Path_4-2" data-name="Path 4" d="M526.909,165.134a.967.967,0,0,1,.159-.424.821.821,0,0,1,.357-.291,1.409,1.409,0,0,1,.715-.072,1.957,1.957,0,0,1,.562.152c.041.017.075.038.112.057-.036-.061-.072-.123-.109-.191a7.835,7.835,0,0,1-.565-1.351,4.086,4.086,0,0,1-.2-.884,1.088,1.088,0,0,1,.112-.565.948.948,0,0,1,.457-.419,1.277,1.277,0,0,1,1.1.043,2.268,2.268,0,0,1,.715.614,8.138,8.138,0,0,1,.8,1.227,1.141,1.141,0,0,1,.159-.205,1.213,1.213,0,0,1,.453-.309,1.075,1.075,0,0,1,.661-.049,1.271,1.271,0,0,1,.6.378,2.239,2.239,0,0,1,.38.578,4.18,4.18,0,0,1,.369,1.208c.021.134.034.256.045.378a1.17,1.17,0,0,1,.114-.075,1.127,1.127,0,0,1,.631-.154,1.33,1.33,0,0,1,.685.253A1.991,1.991,0,0,1,536,166.37a5.667,5.667,0,0,1-.018,1.444c-.017.163-.035.318-.052.468l.03-.027a.847.847,0,0,1,.488-.181.87.87,0,0,1,.552.173,1.256,1.256,0,0,1,.365.443,1.917,1.917,0,0,1,.185.545,2.931,2.931,0,0,1,.033.584,10.217,10.217,0,0,1-.38,2.077,9.524,9.524,0,0,0-2.006.634c-.156.07-.31.147-.463.227q-.215-.468-.44-.943c-1.284-2.722-2.541-5.142-3.494-6.869-.477-.863-.873-1.556-1.159-2.027a3.584,3.584,0,0,0-.479-.713,3.446,3.446,0,0,0,.362.773l1.1,2.058c.927,1.738,2.18,4.154,3.462,6.871q.227.481.445.954a7.809,7.809,0,0,0-2.287,1.939c-.3-.149-.62-.293-.947-.431-.431-.186-.875-.341-1.3-.553a3.109,3.109,0,0,1-1.113-.86,1.939,1.939,0,0,1-.371-.933,1.933,1.933,0,0,1-.01-.338,1.434,1.434,0,0,1,.179-.61,1.21,1.21,0,0,1,.415-.431,1.4,1.4,0,0,1,.646-.2c-.349-.206-.727-.42-1.115-.664a7.124,7.124,0,0,1-.759-.535,1.481,1.481,0,0,1-.532-.826,1.227,1.227,0,0,1,.792-1.393h0a2.893,2.893,0,0,1-1.053-1.05,1.776,1.776,0,0,1-.142-.4A1.246,1.246,0,0,1,526.909,165.134Zm0,0" transform="translate(-526.894 -161.043)" fill="#008037"/>
          </g>
          <path id="Path_6-2" data-name="Path 6" d="M605.615,201.294a3.489,3.489,0,0,1,.479.713c.286.472.683,1.164,1.159,2.027.953,1.726,2.206,4.145,3.493,6.869q.225.477.44.943c-.067.035-.134.071-.2.109q-.219-.473-.445-.954c-1.284-2.718-2.537-5.136-3.466-6.871l-1.1-2.058A3.425,3.425,0,0,1,605.615,201.294Zm0,0" transform="translate(-603.35 -200.137)" fill="#008037"/>
          <path id="Path_58" data-name="Path 58" d="M0,0H8.913" transform="translate(13.056 32.704) rotate(90)" fill="none" stroke="#008037" stroke-linecap="round" stroke-width="1"/>
          <g id="Group_4" data-name="Group 4" transform="translate(3.995 10.622)" clip-path="url(#clip-path-3)">
            <path id="Path_7-2" data-name="Path 7" d="M673.066,543.332a.711.711,0,0,1-.095-.2.511.511,0,0,1-.01-.062l-5.282-.292a2.786,2.786,0,0,1,.406-.452l.091-.125a5.13,5.13,0,0,1-1.466-2.017l6.236,2.068c0-.021,0-.042,0-.063a.518.518,0,0,1,.062-.229l-6.7-3.219a5.5,5.5,0,0,1,.134-2.377,6.2,6.2,0,0,1,.693-1.525,6.383,6.383,0,0,0-.353.647l6.54,5.651.009-.007a.454.454,0,0,1,.154-.067.539.539,0,0,1,.013-.2l-5.939-6.628a7.834,7.834,0,0,1,2.545-2.1l4.131,8.216a.45.45,0,0,1,.042-.073.673.673,0,0,1,.2-.2l-2.993-8.516a11.065,11.065,0,0,1,3.255-.5l.653,8.913a.723.723,0,0,1,.274-.054h.056l.479-8.8c.144.014.287.029.429.047a13.7,13.7,0,0,1,2.766.63l-2.808,8.4a.483.483,0,0,1,.245.035.584.584,0,0,1,.07.038l3.826-7.914a9.668,9.668,0,0,1,1.856,1.184,8.33,8.33,0,0,1,.735.683l-5.733,6.605a.517.517,0,0,1,.08.067.47.47,0,0,1,.107.179l6.441-5.746c-.012-.017-.025-.034-.036-.052a7.251,7.251,0,0,1,1.195,2.934l-7.276,3.635a.809.809,0,0,1,.044.074.745.745,0,0,1,.057.183l7.241-2.526a.582.582,0,0,1,.005-.1,5.927,5.927,0,0,1-.6,2.282,5.844,5.844,0,0,1-.4.685l-6.352.45a.129.129,0,0,1,0,.014.664.664,0,0,1,.015.227l5.469.311a5.215,5.215,0,0,0,.416-.423,4.894,4.894,0,0,1-1.793,1.3l.108.168a4.766,4.766,0,0,1,.6,1l-5.212-1.738a1.376,1.376,0,0,1-.029.208l5.607,2.7a5.311,5.311,0,0,0-.147-.6,5.789,5.789,0,0,1-.038,3.441l-5.943-5.152a.989.989,0,0,1-.159,0,.577.577,0,0,1-.023.058l5.594,6.264c.052-.086.1-.174.148-.262a4.949,4.949,0,0,1-1.4,1.658,6.024,6.024,0,0,1-.861.535l-3.893-7.775a.618.618,0,0,1-.175.032l2.884,8.245c.1-.034.2-.07.294-.107-.253.1-.51.183-.768.263a12.662,12.662,0,0,1-2.34.489l-.618-8.625a.632.632,0,0,1-.188.04l-.485,8.653a11.2,11.2,0,0,0,1.292-.067,9.217,9.217,0,0,1-5.369-.9,7.711,7.711,0,0,0,1.2.513l2.773-8.346a.819.819,0,0,1-.23.057l-3.744,7.775a7.322,7.322,0,0,1-2.23-1.837l5.338-6.167a.825.825,0,0,1-.134-.173l-5.926,5.3c-.023-.04-.047-.077-.067-.117a9.13,9.13,0,0,1-.9-2.462l6.321-3.17a.774.774,0,0,1-.128-.207l-6.373,2.235a9.7,9.7,0,0,0,.18,1.143,7.255,7.255,0,0,1,.03-3.648Zm0,0" transform="translate(-666.22 -531.068)" fill="#cb0000"/>
          </g>
          <g id="Group_5" data-name="Group 5" transform="translate(23.2 18.229)" clip-path="url(#clip-path-4)">
            <path id="Path_9" data-name="Path 9" d="M1335.059,796.663c0-.04-.005-.08-.009-.12C1335.053,796.585,1335.056,796.625,1335.059,796.663Zm0,0" transform="translate(-1335.049 -796.528)" fill="#cb0000"/>
          </g>
          <path id="Path_11" data-name="Path 11" d="M732.324,1189.95a8.035,8.035,0,0,0,.721,1.039A8.035,8.035,0,0,1,732.324,1189.95Zm0,0" transform="translate(-726.425 -1160.412)" fill="#cb0000"/>
          <path id="Path_12" data-name="Path 12" d="M1142.41,1286.88c.084-.035.168-.071.25-.11C1142.578,1286.808,1142.494,1286.844,1142.41,1286.88Zm0,0" transform="translate(-1124.739 -1254.453)" fill="#cb0000"/>
          <path id="Path_13" data-name="Path 13" d="M1131.32,1291.418c.091-.035.182-.071.272-.108C1131.5,1291.348,1131.411,1291.383,1131.32,1291.418Zm0,0" transform="translate(-1113.967 -1258.862)" fill="#cb0000"/>
          <path id="Path_14" data-name="Path 14" d="M1333.052,780.458c-.01-.073-.02-.146-.032-.22C1333.031,780.311,1333.042,780.384,1333.052,780.458Zm0,0" transform="translate(-1309.877 -762.461)" fill="#cb0000"/>
          <path id="Path_15" data-name="Path 15" d="M1153.03,1281.858c.081-.038.162-.077.241-.118C1153.192,1281.782,1153.111,1281.82,1153.03,1281.858Zm0,0" transform="translate(-1135.054 -1249.567)" fill="#cb0000"/>
          <path id="Path_16" data-name="Path 16" d="M834.155,548.352q-.223.072-.444.154C833.857,548.451,834.006,548.4,834.155,548.352Zm0,0" transform="translate(-824.901 -537.232)" fill="#cb0000"/>
          <path id="Path_17" data-name="Path 17" d="M964.086,531.059a14.208,14.208,0,0,0-1.461-.067A14.208,14.208,0,0,1,964.086,531.059Zm0,0" transform="translate(-950.115 -520.37)" fill="#cb0000"/>
          <path id="Path_18" data-name="Path 18" d="M815.914,554.708c.148-.067.3-.127.449-.185C816.212,554.581,816.063,554.641,815.914,554.708Zm0,0" transform="translate(-807.615 -543.226)" fill="#cb0000"/>
          <path id="Path_19" data-name="Path 19" d="M801.482,560.977c-.144.067-.286.134-.427.208C801.2,561.111,801.337,561.04,801.482,560.977Zm0,0" transform="translate(-793.183 -549.495)" fill="#cb0000"/>
          <path id="Path_20" data-name="Path 20" d="M1125.019,556.922c-.043-.015-.085-.032-.129-.047C1124.932,556.892,1124.974,556.908,1125.019,556.922Zm0,0" transform="translate(-1107.721 -545.511)" fill="#cb0000"/>
          <path id="Path_21" data-name="Path 21" d="M1149.014,566.279l-.314-.134C1148.807,566.186,1148.912,566.232,1149.014,566.279Zm0,0" transform="translate(-1130.848 -554.514)" fill="#cb0000"/>
          <path id="Path_22" data-name="Path 22" d="M1137.318,561.5c-.088-.036-.177-.071-.268-.106C1137.141,561.429,1137.23,561.465,1137.318,561.5Zm0,0" transform="translate(-1119.532 -549.901)" fill="#cb0000"/>
          <path id="Path_23" data-name="Path 23" d="M1160.392,571.121q-.16-.08-.322-.152Q1160.231,571.042,1160.392,571.121Zm0,0" transform="translate(-1141.891 -559.2)" fill="#cb0000"/>
          <path id="Path_24" data-name="Path 24" d="M1251.44,1043.78c.034.092.067.186.1.281C1251.506,1043.966,1251.475,1043.872,1251.44,1043.78Zm0,0" transform="translate(-1230.639 -1018.438)" fill="#cb0000"/>
          <path id="Path_25" data-name="Path 25" d="M697.574,651.882q.1-.155.2-.3Q697.667,651.728,697.574,651.882Zm0,0" transform="translate(-692.672 -637.495)" fill="#cb0000"/>
          <path id="Path_26" data-name="Path 26" d="M704.793,641.412c.067-.1.141-.2.215-.291C704.934,641.216,704.862,641.313,704.793,641.412Zm0,0" transform="translate(-699.684 -627.338)" fill="#cb0000"/>
          <path id="Path_27" data-name="Path 27" d="M668.773,798.276a.423.423,0,0,0-.011-.057C668.765,798.238,668.769,798.257,668.773,798.276Zm0,0" transform="translate(-664.688 -779.926)" fill="#cb0000"/>
          <path id="Path_28" data-name="Path 28" d="M700.274,938.9a3.459,3.459,0,0,0-.49.982A3.459,3.459,0,0,1,700.274,938.9Zm0,0" transform="translate(-694.82 -916.567)" fill="#cb0000"/>
          <path id="Path_29" data-name="Path 29" d="M1249.97,1174.031c.037-.1.071-.193.1-.291C1250.041,1173.838,1250.007,1173.935,1249.97,1174.031Zm0,0" transform="translate(-1229.211 -1144.667)" fill="#cb0000"/>
          <path id="Path_30" data-name="Path 30" d="M674.692,824.726a6.11,6.11,0,0,1-.247-.7A6.318,6.318,0,0,0,674.692,824.726Zm0,0" transform="translate(-670.207 -804.99)" fill="#cb0000"/>
          <path id="Path_31" data-name="Path 31" d="M671.329,811.607c-.027-.1-.053-.2-.075-.3C671.276,811.411,671.3,811.511,671.329,811.607Zm0,0" transform="translate(-667.108 -792.641)" fill="#cb0000"/>
          <path id="Path_32" data-name="Path 32" d="M1279.058,661.462c-.061-.082-.124-.162-.188-.243C1278.937,661.3,1279,661.38,1279.058,661.462Zm0,0" transform="translate(-1257.281 -646.859)" fill="#cb0000"/>
          <path id="Path_33" data-name="Path 33" d="M1241.05,1196.065c.039-.074.075-.148.11-.225C1241.125,1195.919,1241.088,1195.993,1241.05,1196.065Zm0,0" transform="translate(-1220.547 -1166.133)" fill="#cb0000"/>
          <path id="Path_34" data-name="Path 34" d="M1270.34,650.928c-.071-.088-.145-.175-.22-.26C1270.195,650.754,1270.268,650.84,1270.34,650.928Zm0,0" transform="translate(-1248.782 -636.611)" fill="#cb0000"/>
          <path id="Path_35" data-name="Path 35" d="M1247.29,1033.64c.041.092.079.185.115.279C1247.37,1033.827,1247.331,1033.734,1247.29,1033.64Zm0,0" transform="translate(-1226.608 -1008.589)" fill="#cb0000"/>
          <path id="Path_36" data-name="Path 36" d="M1245.82,1185.941c.034-.076.067-.153.1-.231C1245.887,1185.787,1245.856,1185.864,1245.82,1185.941Zm0,0" transform="translate(-1225.18 -1156.294)" fill="#cb0000"/>
          <path id="Path_37" data-name="Path 37" d="M1294.45,928.017q.094-.124.182-.255Q1294.545,927.893,1294.45,928.017Zm0,0" transform="translate(-1272.414 -905.751)" fill="#cb0000"/>
          <path id="Path_38" data-name="Path 38" d="M1261.779,641.611c-.078-.088-.157-.174-.239-.259C1261.624,641.437,1261.7,641.523,1261.779,641.611Zm0,0" transform="translate(-1240.449 -627.563)" fill="#cb0000"/>
          <path id="Path_39" data-name="Path 39" d="M1287.14,938.143c.063-.074.123-.148.182-.225C1287.263,937.992,1287.2,938.07,1287.14,938.143Zm0,0" transform="translate(-1265.314 -915.615)" fill="#cb0000"/>
          <path id="Path_40" data-name="Path 40" d="M963.505,539.921a.723.723,0,0,0-.274.054l-.653-8.913a14.224,14.224,0,0,1,1.463.067l-.479,8.8A.318.318,0,0,0,963.505,539.921Zm0,0" transform="translate(-950.069 -520.439)" fill="#d80b0b"/>
          <path id="Path_41" data-name="Path 41" d="M1040.209,994.305a.979.979,0,0,0,.159,0l5.943,5.152a5.521,5.521,0,0,1-.532,1.171l-5.59-6.264A.536.536,0,0,0,1040.209,994.305Zm0,0" transform="translate(-1025.453 -970.383)" fill="#d80b0b"/>
          <path id="Path_42" data-name="Path 42" d="M705.534,939.213a.506.506,0,0,0,.01.062.714.714,0,0,0,.1.2l-5.877.427a3.472,3.472,0,0,1,.49-.981Zm0,0" transform="translate(-694.798 -916.59)" fill="#d80b0b"/>
          <path id="Path_43" data-name="Path 43" d="M1061.81,647.953a.518.518,0,0,0-.079-.067l5.735-6.605a8.155,8.155,0,0,1,.894,1.105l-6.444,5.745A.47.47,0,0,0,1061.81,647.953Zm0,0" transform="translate(-1046.375 -627.494)" fill="#d80b0b"/>
          <path id="Path_44" data-name="Path 44" d="M1027.295,565.38a.483.483,0,0,0-.245-.035l2.808-8.4a11.4,11.4,0,0,1,1.333.556l-3.826,7.917A.573.573,0,0,0,1027.295,565.38Zm0,0" transform="translate(-1012.69 -545.579)" fill="#d80b0b"/>
          <g id="Group_6" data-name="Group 6" transform="translate(15.851 17.77)" clip-path="url(#clip-path-5)">
            <path id="Path_45" data-name="Path 45" d="M1079.594,783.947a.808.808,0,0,0-.044-.074l7.276-3.635a6.217,6.217,0,0,1,.081.923c0,.147,0,.294-.015.441l-7.241,2.526A.755.755,0,0,0,1079.594,783.947Zm0,0" transform="translate(-1079.534 -780.231)" fill="#d80b0b"/>
          </g>
          <path id="Path_47" data-name="Path 47" d="M1079.524,928.226a.074.074,0,0,0,0-.014l6.352-.45a5.417,5.417,0,0,1-.864,1l-5.469-.312A.67.67,0,0,0,1079.524,928.226Zm0,0" transform="translate(-1063.654 -905.751)" fill="#d80b0b"/>
          <path id="Path_48" data-name="Path 48" d="M1064.739,973.09l5.212,1.738a5.2,5.2,0,0,1,.365,1.175l-5.606-2.7A1.376,1.376,0,0,0,1064.739,973.09Zm0,0" transform="translate(-1049.269 -949.777)" fill="#d80b0b"/>
          <path id="Path_49" data-name="Path 49" d="M1019.935,1010.82l3.893,7.777a9.106,9.106,0,0,1-1.184.5l-2.884-8.244A.611.611,0,0,0,1019.935,1010.82Zm0,0" transform="translate(-1005.609 -986.424)" fill="#d80b0b"/>
          <path id="Path_50" data-name="Path 50" d="M977.834,1021.09l.618,8.625a11.307,11.307,0,0,1-1.292.067l.485-8.654A.636.636,0,0,0,977.834,1021.09Zm0,0" transform="translate(-964.232 -996.399)" fill="#d80b0b"/>
          <path id="Path_51" data-name="Path 51" d="M839.081,1017.34l-2.774,8.344a7.676,7.676,0,0,1-1.2-.513l3.744-7.775A.82.82,0,0,0,839.081,1017.34Zm0,0" transform="translate(-826.259 -992.757)" fill="#d80b0b"/>
          <path id="Path_52" data-name="Path 52" d="M738.382,1005.473l-5.338,6.167a8.037,8.037,0,0,1-.721-1.039l5.926-5.3A.815.815,0,0,0,738.382,1005.473Zm0,0" transform="translate(-726.425 -981.063)" fill="#d80b0b"/>
          <path id="Path_53" data-name="Path 53" d="M698.974,982.616l-6.321,3.17a9.707,9.707,0,0,1-.18-1.143l6.373-2.237A.776.776,0,0,0,698.974,982.616Zm0,0" transform="translate(-687.718 -958.826)" fill="#d80b0b"/>
          <path id="Path_54" data-name="Path 54" d="M675.466,801.438a.515.515,0,0,0-.062.229c0,.021,0,.042,0,.063l-6.236-2.068a6.155,6.155,0,0,1-.41-1.444Zm0,0" transform="translate(-664.688 -779.926)" fill="#d80b0b"/>
          <path id="Path_55" data-name="Path 55" d="M691.91,647.836a.451.451,0,0,0-.154.067l-.009.007-6.54-5.651a6.6,6.6,0,0,1,.778-1.255l5.939,6.631A.537.537,0,0,0,691.91,647.836Zm0,0" transform="translate(-680.66 -627.225)" fill="#d80b0b"/>
          <path id="Path_56" data-name="Path 56" d="M805.139,557.068a.447.447,0,0,0-.042.073l-4.131-8.219c.141-.073.282-.144.427-.208a9.111,9.111,0,0,1,.955-.362l3,8.516A.675.675,0,0,0,805.139,557.068Zm0,0" transform="translate(-793.095 -537.232)" fill="#d80b0b"/>
          <path id="Path_57" data-name="Path 57" d="M718.164,842.586a2.807,2.807,0,0,1,.368-.4l.091-.125a18.934,18.934,0,0,0,5.128,1.387v-.007a.817.817,0,0,1-.334-.448.617.617,0,0,1,.04-.418.527.527,0,0,1,.067-.106.7.7,0,0,1-.134-.419.54.54,0,0,1,.147-.353.574.574,0,0,1,.093-.081c-.009-.028-.02-.055-.027-.085a.569.569,0,0,1,0-.3.43.43,0,0,1,.164-.237.45.45,0,0,1,.154-.067.564.564,0,0,1,.082-.369.555.555,0,0,1,.315-.239,2.436,2.436,0,0,1,.313-.043.042.042,0,0,0,.018-.006l.007-.014a.785.785,0,0,1,.06-.107.724.724,0,0,1,.41-.291.7.7,0,0,1,.385,0,.713.713,0,0,1,.121.046l.056.031.021-.014a.711.711,0,0,1,.4-.12.763.763,0,0,1,.334.076.608.608,0,0,1,.314.32.6.6,0,0,1,.08-.053.5.5,0,0,1,.087-.038.5.5,0,0,1,.189-.023.5.5,0,0,1,.094.016.485.485,0,0,1,.089.033.5.5,0,0,1,.152.114.53.53,0,0,1,.057.076.935.935,0,0,1,.1.267.407.407,0,0,0,.013.04.309.309,0,0,0,.058,0,.646.646,0,0,1,.1,0,.492.492,0,0,1,.332.156.482.482,0,0,1,.121.229,1.485,1.485,0,0,1,.013.362.259.259,0,0,0,.009.083c.008.011,0,.007.03.03a1.6,1.6,0,0,1,.155.109.682.682,0,0,1,.15.205.754.754,0,0,1,.054.493.691.691,0,0,1-.111.244l-.057.072a.771.771,0,0,1,.073.18.694.694,0,0,1-.034.427.662.662,0,0,1-.272.322c-.051.029-.08.046-.086.051v.007a2.18,2.18,0,0,1-.045.279.5.5,0,0,1-.258.291,9.724,9.724,0,0,0,4.8.034l.108.168a4.615,4.615,0,0,1,.334.493q-.353.063-.709.1t-.715.05q-.358.013-.716,0t-.714-.053q-.356-.04-.708-.1t-.7-.156q-.347-.09-.686-.206t-.669-.255h-.045a.711.711,0,0,1-.048.127.7.7,0,0,1-.071.115.7.7,0,0,1-.2.18.615.615,0,0,1-.514.051.542.542,0,0,1-.092.137.605.605,0,0,1-.1.089.621.621,0,0,1-.382.112.714.714,0,0,1-.452-.187.836.836,0,0,1-.082.039.814.814,0,0,1-.086.029.79.79,0,0,1-.088.02.87.87,0,0,1-.09.009.8.8,0,0,1-.091,0,.867.867,0,0,1-.09-.011.782.782,0,0,1-.088-.021.757.757,0,0,1-.085-.031.846.846,0,0,1-.081-.04.8.8,0,0,1-.076-.05.773.773,0,0,1-.132-.123.817.817,0,0,1-.055-.072.8.8,0,0,1-.046-.078.78.78,0,0,1-.064-.169.79.79,0,0,1-.347-.128.764.764,0,0,1-.286-.366.769.769,0,0,1-.039-.152.469.469,0,0,0,0-.067,19.6,19.6,0,0,1-5.58-1.055Zm0,0" transform="translate(-712.671 -820.306)" fill="#090b0b"/>
        </g>
      </g>
    </g>
  </g>
</svg>
