<svg xmlns="http://www.w3.org/2000/svg" width="86" height="67.678" viewBox="0 0 86 67.678">
  <g id="Group_13206" data-name="Group 13206" transform="translate(-6202 712.848)">
    <path id="Path_71714" data-name="Path 71714" d="M128,107.12V97.66a11.49,11.49,0,0,0-7.71-10.55,6.87,6.87,0,0,0,1-.83,6.52,6.52,0,0,0,1.85-4.67h0a6.63,6.63,0,0,0-5.23-6.54l-.39-.06V73.9a11.51,11.51,0,0,0-7.82-10.59,6.63,6.63,0,1,0-7.36,0,11.48,11.48,0,0,0-6.75,6.08,11.44,11.44,0,0,0-6.65-6.25,6.63,6.63,0,1,0-7.81,0,10.58,10.58,0,0,0-2,.95,11.52,11.52,0,0,0-4.54,5.18A11.44,11.44,0,0,0,68,63.13a6.62,6.62,0,1,0-7.82,0,10.77,10.77,0,0,0-2,.95,11.52,11.52,0,0,0-5.55,9.83V75a6.585,6.585,0,0,0-2.81,11.86,12,12,0,0,0-2.12,1A11.55,11.55,0,0,0,42,97.69v9.43h4.27v11.71H60.72V107.12h6.56v11.71H81.71V107.12h6.56v11.71h14.44V107.12h6.56v11.71h14.42V107.12Zm-2-9.42v7.42h-4l.58-.75-.15-.5c-2.11-7-3.09-10-3.57-11.39a7.15,7.15,0,0,0,3.17-2.21A9.49,9.49,0,0,1,126,97.7Zm-12.49,7.42-.92-1.17c1.16-3.8,2.85-9.32,3.46-11.07h.88c.6,1.74,2.32,7.27,3.48,11.08l-1.22,1.54h0l-2.7,3.42-3-3.8Zm-15.31.38h0l-2.7,3.41-3-3.79h0L91.58,104c1.15-3.8,2.85-9.32,3.45-11.07h.89c.6,1.75,2.31,7.27,3.47,11.07ZM96.9,90.72a5.241,5.241,0,0,1-5.4-1.63,9.34,9.34,0,0,1,3.86-.87h.23a9.63,9.63,0,0,1,3.84.86,5.28,5.28,0,0,1-2.53,1.64ZM77.18,105.5h0l-2.69,3.41-3-3.79h0l-.9-1.12c1.15-3.8,2.85-9.32,3.45-11.06h.88c.61,1.75,2.32,7.27,3.48,11.08ZM75.91,90.72a5.26,5.26,0,0,1-4-.48,5.07,5.07,0,0,1-1.23-1,9.49,9.49,0,0,1,3.81-.8h.24a9.48,9.48,0,0,1,3.54.78,5.21,5.21,0,0,1-2.36,1.5ZM64.07,93.15a11.47,11.47,0,0,0-2.44-3.6,11.32,11.32,0,0,0-4.28-2.67l.12-.08a6.56,6.56,0,0,0,2.44-3.66L64,88.39l4.13-5.21a6.6,6.6,0,0,0,2.69,3.91,11.51,11.51,0,0,0-6.75,6.06ZM56.19,105.5h0l-2.69,3.41-3-3.79h0L49.59,104c1.15-3.8,2.85-9.32,3.46-11.07h.88c.6,1.74,2.32,7.27,3.48,11.07ZM50.94,90.24a5,5,0,0,1-1.39-1.15,10,10,0,0,1,4-.88,9.56,9.56,0,0,1,4,.87,5.23,5.23,0,0,1-6.61,1.16ZM65.41,66.93a5.22,5.22,0,0,1-4-.47,5.1,5.1,0,0,1-1.38-1.15,9.32,9.32,0,0,1,3.9-.86h0a9.34,9.34,0,0,1,4,.87A5.2,5.2,0,0,1,65.41,66.93ZM64,69.13h.43c.61,1.76,2.38,7.49,3.09,9.81l.4,1.3-1.19,1.48h0L64,85.15l-2.67-3.41-.05-.06-1.2-1.48c.12-.39.3-1,.53-1.72.74-2.42,2.35-7.69,2.93-9.38C63.69,69.11,63.84,69.13,64,69.13Zm7.83,8.69.31-.21a4.158,4.158,0,0,1,.47-.24l.28-.13a4.81,4.81,0,0,1,.65-.18h.15a5,5,0,0,1,.86-.07h.14a4.529,4.529,0,0,1,.74.09l.26.07a4.65,4.65,0,0,1,1.41.65l.18.12c.12.09.23.2.34.3l.17.16c.11.11.21.23.31.35l.13.18c.09.13.18.25.26.39a1.239,1.239,0,0,1,.1.2c.07.14.14.28.2.43a1.42,1.42,0,0,1,.07.22,3.061,3.061,0,0,1,.13.43v.24a5.44,5.44,0,0,1,.07.82h0a1.6,1.6,0,0,1,0,.44v.12a4.659,4.659,0,0,1-.19.84c-.06.18-.14.34-.21.5a2.77,2.77,0,0,1-.12.27,4.862,4.862,0,0,1-.35.53l-.11.16a4.731,4.731,0,0,1-.44.46l-.14.14a5.082,5.082,0,0,1-.53.38,1.2,1.2,0,0,1-.15.1,5.76,5.76,0,0,1-.61.3l-.12.05a5.149,5.149,0,0,1-.7.2H75.3a3.839,3.839,0,0,1-.76.07,5.76,5.76,0,0,1-.59,0,4.59,4.59,0,0,1-4-4v-.12a1.76,1.76,0,0,1,0-.48,4.76,4.76,0,0,1,.07-.84v-.12h0v-.11a1.355,1.355,0,0,1,.14-.43c.05-.14.07-.23.12-.34s.14-.26.21-.4a2.125,2.125,0,0,1,.18-.31c.07-.1.18-.24.27-.35a3.327,3.327,0,0,1,.25-.28,4.108,4.108,0,0,1,.3-.29,1.371,1.371,0,0,1,.33-.31ZM86.4,66.94a5.2,5.2,0,0,1-4-.48A5,5,0,0,1,81,65.31a9.36,9.36,0,0,1,3.9-.86H85a9.3,9.3,0,0,1,4,.87A5.24,5.24,0,0,1,86.4,66.94ZM85,69.13h.43c.58,1.68,2.21,6.94,3,9.35.23.74.42,1.35.54,1.75l-3.92,5-2.06-2.6L81.07,80.2c.13-.41.33-1.06.57-1.85.73-2.38,2.32-7.57,2.89-9.24ZM91.68,79a3.92,3.92,0,0,1,.25-.32,3.111,3.111,0,0,1,.29-.33l.26-.24a3.5,3.5,0,0,1,.43-.33,1.369,1.369,0,0,1,.2-.13,3.61,3.61,0,0,1,.65-.33h.06A4.41,4.41,0,0,1,95.51,77h.23a4.781,4.781,0,0,1,.65.07,1.69,1.69,0,0,1,.44.12l.25.07a5,5,0,0,1,.62.29l.27.17.31.21.29.25.23.22.27.31.16.21a3.868,3.868,0,0,1,.24.37l.11.21a4.479,4.479,0,0,1,.2.44s0,.08,0,.12a4.48,4.48,0,0,1,.16.52v.17l.05.08v.84a1.29,1.29,0,0,1,0,.44h0v.11a4.58,4.58,0,0,1-4.72,4,4.908,4.908,0,0,1-.66-.06h0a4.62,4.62,0,0,1-3.68-3.94v-.11a1.8,1.8,0,0,1,0-.49A5.26,5.26,0,0,1,91,80.7h0v-.18a1.078,1.078,0,0,1,.09-.29,4.2,4.2,0,0,1,.17-.5c.06-.12.13-.24.2-.36A2.127,2.127,0,0,1,91.68,79ZM107.4,67a5.22,5.22,0,0,1-4-.48,5.32,5.32,0,0,1-1.24-1,9.35,9.35,0,0,1,3.56-.79H106a9.32,9.32,0,0,1,3.77.79,5.16,5.16,0,0,1-2.37,1.42ZM106,69.13h.43c.62,1.76,2.37,7.44,3.08,9.75.18.57.32,1,.42,1.36l-1.19,1.48h0L106,85.15l-2.68-3.42-.06-.06-1.17-1.47.57-1.84c.73-2.39,2.32-7.58,2.9-9.25Zm3.7,13.39h0l-.38-.37h0Zm-7.06-.31-.24.24h0l.24-.25Zm-17,9.72-.12.19c-.16.29-.31.59-.45.89A11.57,11.57,0,0,0,78.5,86.9a.41.41,0,0,0,.11-.07,6.5,6.5,0,0,0,2.33-3.59.14.14,0,0,1,0-.06l3,3.86,1,1.35h0l1.76-2.22,2.36-3a7.059,7.059,0,0,0,.35,1h0a6.53,6.53,0,0,0,2.09,2.64l-.39.16-.38.16a11,11,0,0,0-1.18.61h0a12.868,12.868,0,0,0-1.07.75l-.2.15a10.779,10.779,0,0,0-.93.85l-.18.19a11.27,11.27,0,0,0-.84,1l-.06.08a11.48,11.48,0,0,0-.69,1.17Zm13.84-5a6.54,6.54,0,0,0,2.47-3.73L106,88.39l4.11-5.2a6.58,6.58,0,0,0,2.64,3.91,11.42,11.42,0,0,0-6.66,6,11.56,11.56,0,0,0-6.67-6.19Zm17.31,1.55a9.74,9.74,0,0,1,3.55.79,5.16,5.16,0,0,1-6.36,1,5,5,0,0,1-1.25-1,9.53,9.53,0,0,1,4-.81Zm4.36-6.87h0a4.6,4.6,0,0,1-9.17.6v-.12a1.87,1.87,0,0,1,0-.49,4.76,4.76,0,0,1,.07-.84l.07-.16v-.12a4.61,4.61,0,0,1,9.09,1.11Zm-5.61-7.66V75a6.68,6.68,0,0,0-4.3,2.58c-1.61-5.25-2.39-7.7-2.8-8.88a7.07,7.07,0,0,0,3.17-2.2,9.47,9.47,0,0,1,3.87,7.43ZM106,53.17a4.63,4.63,0,1,1-4.63,4.63A4.63,4.63,0,0,1,106,53.17ZM96.49,74a9.46,9.46,0,0,1,3.94-7.45,7.37,7.37,0,0,0,2,1.71,7.921,7.921,0,0,0,1.12.49c-.4,1.17-1.17,3.61-2.79,8.9v-.06a5.729,5.729,0,0,0-.39-.45l-.26-.28a4.241,4.241,0,0,0-.39-.33l-.35-.29-.39-.25-.43-.25-.42-.19-.47-.19-.44-.13-.3-.09h-.39Zm-2,0v1h-.06a6.631,6.631,0,0,0-.88.21h-.08a6,6,0,0,0-.8.31H92.6a5.782,5.782,0,0,0-.8.47h0a6.08,6.08,0,0,0-1.4,1.28h0l-.17.21c-1.62-5.26-2.4-7.71-2.81-8.89a7.13,7.13,0,0,0,3.3-2.36,10.1,10.1,0,0,1,1,.85,9.43,9.43,0,0,1,2.76,6.82ZM85,53.17a4.63,4.63,0,1,1-4.63,4.63A4.63,4.63,0,0,1,85,53.17ZM79.31,66.34a7.26,7.26,0,0,0,2.14,1.87,7.811,7.811,0,0,0,1.11.49c-.39,1.17-1.16,3.61-2.78,8.91l-.06-.07a5.239,5.239,0,0,0-.44-.5,2,2,0,0,0-.2-.21,4.491,4.491,0,0,0-.46-.41l-.27-.21c-.16-.11-.32-.22-.49-.32l-.31-.18L77,75.47l-.34-.14-.57-.17a1.661,1.661,0,0,1-.21-.06h-.4V73.91a9.52,9.52,0,0,1,3.83-7.57ZM73.49,73.9h0V75h0a6.481,6.481,0,0,0-.87.21h-.1a6.071,6.071,0,0,0-.8.32h-.06a6.89,6.89,0,0,0-.7.39,6.69,6.69,0,0,0-1.71,1.6c-1.62-5.26-2.4-7.71-2.81-8.89a7.13,7.13,0,0,0,3.3-2.36,9.47,9.47,0,0,1,3.75,7.63ZM64,53.17a4.63,4.63,0,1,1-4.63,4.63A4.63,4.63,0,0,1,64,53.17ZM54.5,73.93a9.51,9.51,0,0,1,3.82-7.59,7,7,0,0,0,2.14,1.86,6.87,6.87,0,0,0,1.11.5c-.4,1.17-1.17,3.61-2.79,8.9l-.16-.21h0a6.53,6.53,0,0,0-3.82-2.27L54.5,75Zm-5.52,7A4.58,4.58,0,0,1,53.5,77h0a4.519,4.519,0,0,1,.74.06h.22a5,5,0,0,1,.52.14l.18.07c.18.07.34.15.51.23l.16.1a4.63,4.63,0,0,1,.46.31l.15.12a3.549,3.549,0,0,1,.4.38l.13.14a4.59,4.59,0,0,1,.33.44l.12.16a5,5,0,0,1,.26.52l.08.15a4.4,4.4,0,0,1,.22.73v.15h0v.08a5.549,5.549,0,0,1,.06.82h0a2.44,2.44,0,0,1-.06.54A4.59,4.59,0,0,1,49,80.89Zm-5,24.23V97.69a9.53,9.53,0,0,1,3.8-7.57A7.09,7.09,0,0,0,50,92a6.19,6.19,0,0,0,1.12.5c-.48,1.38-1.45,4.43-3.55,11.39l-.15.5.58.75H44Zm14.7,11.71H48.29v-9.71h1.25l3.94,5h0l4-5h1.24Zm2-11.71H59l.58-.75-.15-.5c-2.11-7-3.09-10-3.57-11.39a7.2,7.2,0,0,0,3.31-2.37A9.44,9.44,0,0,1,63,97.66h0v7.45Zm4.29,0V97.7a9.49,9.49,0,0,1,3.93-7.41A7.13,7.13,0,0,0,71,92a7.39,7.39,0,0,0,1.12.5c-.47,1.38-1.44,4.43-3.55,11.39l-.15.5.59.75H65Zm14.7,11.71H69.28v-9.71h1.26l3.94,5h0l4-5h1.24Zm2-11.71H80l.59-.75-.15-.5c-2.11-6.93-3.09-10-3.58-11.38a7.14,7.14,0,0,0,3.18-2.21A9.46,9.46,0,0,1,84,97.72v7.4Zm4.3,0V97.69h0a9.47,9.47,0,0,1,3.8-7.57A7,7,0,0,0,92,92a6.87,6.87,0,0,0,1.11.5c-.47,1.38-1.44,4.43-3.55,11.39l-.15.5.59.75H86Zm14.7,11.71H90.27v-9.71h1.26l3.94,5h0l4-5h1.25Zm.32-11.71.58-.75-.15-.5c-2.11-6.94-3.09-10-3.57-11.38a7.15,7.15,0,0,0,3.3-2.37,9.41,9.41,0,0,1,3.8,7.46v7.54h-4Zm6,0v-7.5a.2.2,0,0,0,0-.07,9.45,9.45,0,0,1,3-6.52,10.689,10.689,0,0,1,1-.8,6.65,6.65,0,0,0,3.14,2.21c-.47,1.38-1.45,4.43-3.55,11.39l-.15.5.58.75H107Zm14.69,11.71H111.27v-9.71h1.25l3.94,5h0l4-5h1.25Z" transform="translate(6160 -764)" fill="#fff"/>
  </g>
</svg>
