<svg xmlns="http://www.w3.org/2000/svg" width="22.499" height="22.5" viewBox="0 0 22.499 22.5">
  <path id="iconmonstr-link-thin" d="M14.851,11.923a4,4,0,0,0-6.682-1.749l-5,5a4,4,0,0,0,5.656,5.657l3.842-3.841L13,17a6.092,6.092,0,0,0,1.189-.117L9.534,21.536a5,5,0,0,1-7.07-7.071l5-5a5,5,0,0,1,8.176,1.672l-.787.784Zm-5.7.147a4,4,0,0,0,6.682,1.756l5-5a4,4,0,0,0-5.657-5.657L11.331,7.012,11,7a6.092,6.092,0,0,0-1.189.117l4.656-4.656a5,5,0,0,1,7.071,7.071l-5,5A5,5,0,0,1,8.36,12.855l.788-.785Z" transform="translate(-0.75 -0.75)" stroke="#000" stroke-linecap="round" stroke-width="0.5" fill-rule="evenodd"/>
</svg>
