<svg xmlns="http://www.w3.org/2000/svg" width="32" height="31" viewBox="0 0 32 31">
  <g id="Group_13164" data-name="Group 13164" transform="translate(0.491 -0.339)">
    <ellipse id="Ellipse_619" data-name="Ellipse 619" cx="16" cy="15.5" rx="16" ry="15.5" transform="translate(-0.491 0.339)"/>
    <g id="linkedin" transform="translate(8.301 6.143)">
      <path id="Path_2903" data-name="Path 2903" d="M228.374,29.923V19.572h-3.44v10.35h3.441Zm-1.72-11.763a1.917,1.917,0,1,0-.023,0h.022Zm3.624,11.763h3.44V24.143a2.358,2.358,0,0,1,.113-.839,1.883,1.883,0,0,1,1.765-1.258c1.245,0,1.743.949,1.743,2.341v5.537h3.44V23.988c0-3.179-1.7-4.658-3.96-4.658a3.427,3.427,0,0,0-3.123,1.744h.023v-1.5h-3.44c.045.971,0,10.35,0,10.35Z" transform="translate(-224.731 -14.583)" fill="#fff"/>
    </g>
  </g>
</svg>
