<svg xmlns="http://www.w3.org/2000/svg" width="32" height="31" viewBox="0 0 32 31">
  <g id="Group_13163" data-name="Group 13163" transform="translate(0.491 -0.169)">
    <ellipse id="Ellipse_618" data-name="Ellipse 618" cx="16" cy="15.5" rx="16" ry="15.5" transform="translate(-0.491 0.169)"/>
    <g id="layer1" transform="translate(7.638 9.31)">
      <path id="rect2989" d="M101.152,672.306a3.341,3.341,0,0,0-3.158,4.089,9.456,9.456,0,0,1-6.865-3.48,3.332,3.332,0,0,0,1.031,4.446,3.324,3.324,0,0,1-1.509-.417c0,.014,0,.029,0,.043a3.332,3.332,0,0,0,2.672,3.264,3.351,3.351,0,0,1-.878.117,3.289,3.289,0,0,1-.626-.06,3.332,3.332,0,0,0,3.11,2.313,6.676,6.676,0,0,1-4.134,1.425A6.751,6.751,0,0,1,90,684a9.471,9.471,0,0,0,14.58-7.979c0-.144,0-.289-.009-.432a6.746,6.746,0,0,0,1.661-1.723,6.625,6.625,0,0,1-1.912.525,3.337,3.337,0,0,0,1.465-1.843,6.672,6.672,0,0,1-2.115.809,3.326,3.326,0,0,0-2.431-1.051Z" transform="translate(-90 -672.306)" fill="#fff"/>
    </g>
  </g>
</svg>
